<?xml version="1.0" encoding="utf-8"?>
<!-- Generator: Adobe Illustrator 18.1.1, SVG Export Plug-In . SVG Version: 6.00 Build 0)  -->
<!DOCTYPE svg PUBLIC "-//W3C//DTD SVG 1.1//EN" "http://www.w3.org/Graphics/SVG/1.1/DTD/svg11.dtd">
<svg version="1.1" id="Layer_1" xmlns="http://www.w3.org/2000/svg" xmlns:xlink="http://www.w3.org/1999/xlink" x="0px" y="0px"
	 viewBox="0 0 399.4 578.8" enable-background="new 0 0 399.4 578.8" xml:space="preserve">
<g>
	<polygon fill-rule="evenodd" clip-rule="evenodd" fill="#AE4925" points="4.4,363.2 131,363.2 131,448.1 4.4,448.1 4.4,363.2 	"/>
	<polygon fill-rule="evenodd" clip-rule="evenodd" fill="#AE4925" points="4.4,363.2 131,363.2 131,195.8 4.4,195.8 4.4,363.2 	"/>
	<polygon fill-rule="evenodd" clip-rule="evenodd" fill="#83391B" points="11.1,356.4 124.2,356.4 124.2,202.6 11.1,202.6 
		11.1,356.4 	"/>
	<polygon fill-rule="evenodd" clip-rule="evenodd" fill="#AE4925" points="4.4,363.2 131,363.2 131,356.5 4.4,356.5 4.4,363.2 	"/>
	<polygon fill-rule="evenodd" clip-rule="evenodd" fill="#AE4925" points="4.4,310 131,310 131,303.8 4.4,303.8 4.4,310 	"/>
	<polygon fill-rule="evenodd" clip-rule="evenodd" fill="#AE4925" points="4.4,252 131,252 131,245.8 4.4,245.8 4.4,252 	"/>
	<polygon fill-rule="evenodd" clip-rule="evenodd" fill="#E8C19B" points="4.4,363.3 131,363.3 131,365.2 4.4,365.2 4.4,363.3 	"/>
	<polygon fill-rule="evenodd" clip-rule="evenodd" fill="#E8C19B" points="66.8,363.8 68.6,363.8 68.6,448.1 66.8,448.1 66.8,363.8 
			"/>
	<path fill-rule="evenodd" clip-rule="evenodd" fill="#E8C19B" d="M57.3,369.8c2.6,0,4.6,2.1,4.6,4.6c0,2.6-2.1,4.6-4.6,4.6
		c-2.6,0-4.6-2.1-4.6-4.6C52.7,371.9,54.7,369.8,57.3,369.8L57.3,369.8z"/>
	<path fill-rule="evenodd" clip-rule="evenodd" fill="#E8C19B" d="M78.5,369.8c2.6,0,4.6,2.1,4.6,4.6c0,2.6-2.1,4.6-4.6,4.6
		c-2.6,0-4.6-2.1-4.6-4.6C73.8,371.9,75.9,369.8,78.5,369.8L78.5,369.8z"/>
	<polygon fill-rule="evenodd" clip-rule="evenodd" fill="#E32D26" points="121.1,323.6 124.2,323.6 124.2,356.4 121.1,356.4 
		121.1,323.6 	"/>
	<polygon fill-rule="evenodd" clip-rule="evenodd" fill="#BED031" points="121.1,335.1 112.2,335.1 112.2,356.4 121.1,356.4 
		121.1,335.1 	"/>
	<polygon fill-rule="evenodd" clip-rule="evenodd" fill="#E32D26" points="108.2,328.3 112.2,328.3 112.2,356.4 108.2,356.4 
		108.2,328.3 	"/>
	<polygon fill-rule="evenodd" clip-rule="evenodd" fill="#F0E5E4" points="108.2,330.3 100,330.3 100,356.4 108.2,356.4 
		108.2,330.3 	"/>
	<polygon fill-rule="evenodd" clip-rule="evenodd" fill="#58A3A3" points="96.8,325.1 100,325.1 100,356.4 96.8,356.4 96.8,325.1 	
		"/>
	<polygon fill-rule="evenodd" clip-rule="evenodd" fill="#FEE67D" points="93.7,325.1 96.8,325.1 96.8,356.4 93.7,356.4 93.7,325.1 
			"/>
	<polygon fill-rule="evenodd" clip-rule="evenodd" fill="#A14A95" points="90.5,325.1 93.7,325.1 93.7,356.4 90.5,356.4 90.5,325.1 
			"/>
	<polygon fill-rule="evenodd" clip-rule="evenodd" fill="#BED031" points="87.4,325.1 90.5,325.1 90.5,356.4 87.4,356.4 87.4,325.1 
			"/>
	<polygon fill-rule="evenodd" clip-rule="evenodd" fill="#A7D1AE" points="83.4,328.3 87.4,328.3 87.4,356.4 83.4,356.4 83.4,328.3 
			"/>
	<polygon fill-rule="evenodd" clip-rule="evenodd" fill="#58A3A3" points="83.4,330.3 75.1,330.3 75.1,356.4 83.4,356.4 83.4,330.3 
			"/>
	<polygon fill-rule="evenodd" clip-rule="evenodd" fill="#E32D26" points="57.6,282.2 48.8,282.2 48.8,303.4 57.6,303.4 57.6,282.2 
			"/>
	<polygon fill-rule="evenodd" clip-rule="evenodd" fill="#A14A95" points="44.8,275.3 48.8,275.3 48.8,303.4 44.8,303.4 44.8,275.3 
			"/>
	<polygon fill-rule="evenodd" clip-rule="evenodd" fill="#58A3A3" points="44.8,277.3 36.5,277.3 36.5,303.4 44.8,303.4 44.8,277.3 
			"/>
	<polygon fill-rule="evenodd" clip-rule="evenodd" fill="#BED031" points="33.4,272.2 36.5,272.2 36.5,303.4 33.4,303.4 33.4,272.2 
			"/>
	<polygon fill-rule="evenodd" clip-rule="evenodd" fill="#FEE67D" points="30.2,272.2 33.4,272.2 33.4,303.4 30.2,303.4 30.2,272.2 
			"/>
	<polygon fill-rule="evenodd" clip-rule="evenodd" fill="#A14A95" points="27.1,272.2 30.2,272.2 30.2,303.4 27.1,303.4 27.1,272.2 
			"/>
	<polygon fill-rule="evenodd" clip-rule="evenodd" fill="#58A3A3" points="24,272.2 27.1,272.2 27.1,303.4 24,303.4 24,272.2 	"/>
	<polygon fill-rule="evenodd" clip-rule="evenodd" fill="#DEE4EE" points="20,275.3 24,275.3 24,303.4 20,303.4 20,275.3 	"/>
	<polygon fill-rule="evenodd" clip-rule="evenodd" fill="#E32D26" points="20,277.3 11.7,277.3 11.7,303.4 20,303.4 20,277.3 	"/>
	<polygon fill-rule="evenodd" clip-rule="evenodd" fill="#BED031" points="124.1,224.4 115.3,224.4 115.3,245.7 124.1,245.7 
		124.1,224.4 	"/>
	<polygon fill-rule="evenodd" clip-rule="evenodd" fill="#D5E9D8" points="111.3,217.6 115.3,217.6 115.3,245.7 111.3,245.7 
		111.3,217.6 	"/>
	<polygon fill-rule="evenodd" clip-rule="evenodd" fill="#58A3A3" points="111.3,219.6 103,219.6 103,245.7 111.3,245.7 
		111.3,219.6 	"/>
	<polygon fill-rule="evenodd" clip-rule="evenodd" fill="#FEE67D" points="103,224.4 94.1,224.4 94.1,245.7 103,245.7 103,224.4 	
		"/>
	<polygon fill-rule="evenodd" clip-rule="evenodd" fill="#E32D26" points="95.1,222.8 87.8,218.9 75.5,242 82.9,245.8 95.1,222.8 	
		"/>
	<polygon fill-rule="evenodd" clip-rule="evenodd" fill="#BED031" points="124.4,273.7 115.1,273.7 115.1,303.8 124.4,303.8 
		124.4,273.7 	"/>
	<polygon fill-rule="evenodd" clip-rule="evenodd" fill="#58A3A3" points="115.1,282.5 106.2,282.5 106.2,303.8 115.1,303.8 
		115.1,282.5 	"/>
	<polygon fill-rule="evenodd" clip-rule="evenodd" fill="#FEE67D" points="106.2,282.5 97.4,282.5 97.4,303.8 106.2,303.8 
		106.2,282.5 	"/>
	<polygon fill-rule="evenodd" clip-rule="evenodd" fill="#E32D26" points="97.7,285.3 89.9,281 79.6,299.6 87.4,303.9 97.7,285.3 	
		"/>
	<polygon fill-rule="evenodd" clip-rule="evenodd" fill="#58A3A3" points="65.3,211 69.1,211 69.1,245.9 65.3,245.9 65.3,211 	"/>
	<polygon fill-rule="evenodd" clip-rule="evenodd" fill="#FFCB06" points="65.3,223.3 54.6,223.3 54.6,245.9 65.3,245.9 65.3,223.3 
			"/>
	<polygon fill-rule="evenodd" clip-rule="evenodd" fill="#E32D26" points="49.7,216 54.6,216 54.6,245.9 49.7,245.9 49.7,216 	"/>
	<polygon fill-rule="evenodd" clip-rule="evenodd" fill="#ECECEC" points="49.7,218.2 39.7,218.2 39.7,245.9 49.7,245.9 49.7,218.2 
			"/>
	<polygon fill-rule="evenodd" clip-rule="evenodd" fill="#FFCB06" points="41.3,319.1 46,317.1 62.5,354.3 57.9,356.3 41.3,319.1 	
		"/>
	<polygon fill-rule="evenodd" clip-rule="evenodd" fill="#A14A95" points="36,316 41.1,316 41.1,356.7 36,356.7 36,316 	"/>
	<polygon fill-rule="evenodd" clip-rule="evenodd" fill="#58A3A3" points="31,316 36,316 36,356.7 31,356.7 31,316 	"/>
	<polygon fill-rule="evenodd" clip-rule="evenodd" fill="#A3D9F5" points="24.5,320.1 31,320.1 31,356.7 24.5,356.7 24.5,320.1 	"/>
	<polygon fill-rule="evenodd" clip-rule="evenodd" fill="#BED031" points="24.5,322.7 11.2,322.7 11.2,356.7 24.5,356.7 24.5,322.7 
			"/>
	<polygon fill-rule="evenodd" clip-rule="evenodd" fill="#BED031" points="35.4,204.8 39.6,204.8 39.6,245.9 35.4,245.9 35.4,204.8 
			"/>
	<polygon fill-rule="evenodd" clip-rule="evenodd" fill="#A14A95" points="31.3,204.8 35.4,204.8 35.4,245.9 31.3,245.9 31.3,204.8 
			"/>
	<polygon fill-rule="evenodd" clip-rule="evenodd" fill="#58A3A3" points="27.2,204.8 31.3,204.8 31.3,245.9 27.2,245.9 27.2,204.8 
			"/>
	<polygon fill-rule="evenodd" clip-rule="evenodd" fill="#A3D9F5" points="22,208.9 27.2,208.9 27.2,245.9 22,245.9 22,208.9 	"/>
	<polygon fill-rule="evenodd" clip-rule="evenodd" fill="#E32D26" points="22,211.6 11.1,211.6 11.1,245.9 22,245.9 22,211.6 	"/>
</g>
<g>
	<polygon fill-rule="evenodd" clip-rule="evenodd" fill="#AE4925" points="332.2,401.3 395.2,401.3 395.2,446.1 332.2,446.1 
		332.2,401.3 	"/>
	<polygon fill-rule="evenodd" clip-rule="evenodd" fill="#AE4925" points="332.2,376.5 395.2,376.5 395.2,399.7 332.2,399.7 
		332.2,376.5 	"/>
	<path fill-rule="evenodd" clip-rule="evenodd" fill="#EFCFAE" d="M363.7,381.4c2.1,0,3.8,1.7,3.8,3.8c0,2.1-1.7,3.8-3.8,3.8
		c-2.1,0-3.8-1.7-3.8-3.8C359.9,383.1,361.6,381.4,363.7,381.4L363.7,381.4z"/>
	<path fill-rule="evenodd" clip-rule="evenodd" fill="#EFCFAE" d="M363.7,404.2c2.1,0,3.8,1.7,3.8,3.8c0,2.1-1.7,3.8-3.8,3.8
		c-2.1,0-3.8-1.7-3.8-3.8C359.9,405.9,361.6,404.2,363.7,404.2L363.7,404.2z"/>
	<path fill-rule="evenodd" clip-rule="evenodd" fill="#FFF37A" d="M364.7,373.8v-67.6h-1.9v67.6c-6.8,0.1-13.4,0.7-13.4,1.7
		c0,0.3,0,0.6,0,1c4.5,0,8.9,0,13.4,0h1.9c4.5,0,8.9,0,13.4,0c0-0.3,0-0.6,0-0.9C378.1,374.5,371.5,373.9,364.7,373.8z"/>
	<path fill-rule="evenodd" clip-rule="evenodd" fill="#E32D26" d="M356.6,276.6c4.9,0,9.8,0,14.7,0c0.9,19.2,5.3,37.3,16.3,53.6
		c-15.9,0-31.9,0-47.8,0C350.8,313.9,355.8,295.8,356.6,276.6L356.6,276.6z"/>
</g>
<g>
	<path fill-rule="evenodd" clip-rule="evenodd" fill="#488786" d="M136.2,362.6c12.1-37.4,44.7-45.6,95.5-45.6s86.1,6.9,98.6,45.6
		c-8.2,38.4-15.4,73.9-36.8,77.1c-32.8-3.9-86.6,4.1-123.9-0.7C152.3,430.9,143.6,397.2,136.2,362.6L136.2,362.6z"/>
	<path fill-rule="evenodd" clip-rule="evenodd" fill="#5DADAC" d="M136.2,362.6c4.8,28.1,9.5,56.6,14.3,84.7
		c55.3,0.4,110.3,0.4,165.6,0c4.8-28.1,9.5-56.6,14.3-84.7c-11.6-10.2-16.3,42-18.1,51c-1.8,8.9-5.5,7-8.2,7.1H162.6
		c-2.7-0.1-6.5,1.9-8.2-7.1C152.5,404.6,147.8,352.5,136.2,362.6L136.2,362.6z"/>
	<path fill-rule="evenodd" clip-rule="evenodd" fill="#58A3A3" d="M304.9,395.9c-1.6-21.8,2.9-41.1,8.6-59.8
		c-17.8-15.6-46-19.1-81.8-19.1c-33.3,0-58.7,3.5-75.7,16.5c6.1,19.6,11.1,39.6,9.4,62.4l66,2.4l0,0.3l3.8-0.1l3.8,0.1l0-0.3
		L304.9,395.9L304.9,395.9z"/>
	<path fill-rule="evenodd" clip-rule="evenodd" fill="#488786" d="M188.5,320.3v76.5l-17-0.6V325C176.7,323,182.4,321.4,188.5,320.3
		L188.5,320.3z"/>
	<path fill-rule="evenodd" clip-rule="evenodd" fill="#488786" d="M216.2,317.3v80.5l-17-0.6v-78.5
		C204.6,318,210.3,317.6,216.2,317.3L216.2,317.3z"/>
	<path fill-rule="evenodd" clip-rule="evenodd" fill="#488786" d="M243.9,317.2v81l-5,0.2l0,0.3l-3.5-0.1l-0.3,0l0,0l0,0l-3.7,0.1
		l0-0.3l-4.4-0.2V317c1.5,0,3,0,4.5,0h0.2h0.1h0.1h0.2l0.2,0h0.2l0.2,0h0.2l1,0l0.2,0l0.2,0l0.2,0l0.2,0l0.2,0l0.4,0l0.2,0
		C238.4,317,241.2,317.1,243.9,317.2L243.9,317.2z"/>
	<path fill-rule="evenodd" clip-rule="evenodd" fill="#488786" d="M271.7,319.3v77.8l-17,0.6v-80.1
		C260.6,318,266.3,318.6,271.7,319.3L271.7,319.3z"/>
	<path fill-rule="evenodd" clip-rule="evenodd" fill="#488786" d="M299.4,327.1v69.1l-17,0.6v-75.4
		C288.6,322.8,294.2,324.7,299.4,327.1L299.4,327.1z"/>
	<path fill-rule="evenodd" clip-rule="evenodd" fill="#5DADAC" d="M154,410c53.3,0,106.5,0,159.8,0c-1.3-2.9-2.5-6-3.9-8.7
		c-3.6-7.2-5.6-8.7-12.2-8.7c-42.6,0-85.2,0-127.7,0c-6.5,0-8.5,1.6-12.2,8.7C156.5,404,155.3,407.1,154,410L154,410z"/>
</g>
<g>
	<polygon fill-rule="evenodd" clip-rule="evenodd" fill="#AE4925" points="251.1,131 331.2,131 331.2,216.7 251.1,216.7 251.1,131 	
		"/>
	<polygon fill-rule="evenodd" clip-rule="evenodd" fill="#E32D26" points="255,134.7 326.6,134.7 326.6,212.8 255,212.8 255,134.7 	
		"/>
	<path fill-rule="evenodd" clip-rule="evenodd" fill="#FFFFFF" d="M290.9,168.2c3,0,5.5,2.4,5.5,5.5c0,3-2.4,5.5-5.5,5.5
		c-3,0-5.5-2.4-5.5-5.5C285.4,170.7,287.8,168.2,290.9,168.2L290.9,168.2z"/>
	<path fill-rule="evenodd" clip-rule="evenodd" fill="#F5B2B6" d="M273.7,144c1.6-0.9,6,3.8,9.8,10.4c3.8,6.7,5.7,12.8,4.1,13.7
		c-1.6,0.9-6-3.8-9.8-10.4C274,151.1,272.1,144.9,273.7,144L273.7,144z"/>
	<path fill-rule="evenodd" clip-rule="evenodd" fill="#F5B2B6" d="M261.1,156.6c0.9-1.6,7,0.3,13.7,4.1c6.7,3.8,11.3,8.2,10.4,9.8
		c-0.9,1.6-7-0.3-13.7-4.1C264.9,162.5,260.2,158.1,261.1,156.6L261.1,156.6z"/>
	<path fill-rule="evenodd" clip-rule="evenodd" fill="#F5B2B6" d="M256.5,173.7c0-1.8,6.2-3.3,13.9-3.3c7.7,0,13.9,1.5,13.9,3.3
		c0,1.8-6.2,3.3-13.9,3.3C262.7,177,256.5,175.5,256.5,173.7L256.5,173.7z"/>
	<path fill-rule="evenodd" clip-rule="evenodd" fill="#F5B2B6" d="M261.1,190.8c-0.9-1.6,3.8-6,10.4-9.8c6.7-3.8,12.8-5.7,13.7-4.1
		c0.9,1.6-3.8,6-10.4,9.8C268.1,190.5,262,192.4,261.1,190.8L261.1,190.8z"/>
	<path fill-rule="evenodd" clip-rule="evenodd" fill="#F5B2B6" d="M273.6,203.4c-1.6-0.9,0.3-7,4.1-13.7c3.8-6.7,8.2-11.3,9.8-10.4
		c1.6,0.9-0.3,7-4.1,13.7C279.5,199.6,275.1,204.3,273.6,203.4L273.6,203.4z"/>
	<path fill-rule="evenodd" clip-rule="evenodd" fill="#F5B2B6" d="M290.7,208c-1.8,0-3.3-6.2-3.3-13.9c0-7.7,1.5-13.9,3.3-13.9
		c1.8,0,3.3,6.2,3.3,13.9C294,201.8,292.5,208,290.7,208L290.7,208z"/>
	<path fill-rule="evenodd" clip-rule="evenodd" fill="#F5B2B6" d="M307.8,203.5c-1.6,0.9-6-3.8-9.8-10.4c-3.8-6.7-5.7-12.8-4.1-13.7
		c1.6-0.9,6,3.8,9.8,10.4C307.5,196.4,309.4,202.6,307.8,203.5L307.8,203.5z"/>
	<path fill-rule="evenodd" clip-rule="evenodd" fill="#F5B2B6" d="M320.4,191c-0.9,1.6-7-0.3-13.7-4.1c-6.7-3.8-11.3-8.2-10.4-9.8
		c0.9-1.6,7,0.3,13.7,4.1C316.6,185,321.3,189.4,320.4,191L320.4,191z"/>
	<path fill-rule="evenodd" clip-rule="evenodd" fill="#F5B2B6" d="M325,173.8c0,1.8-6.2,3.3-13.9,3.3c-7.7,0-13.9-1.5-13.9-3.3
		c0-1.8,6.2-3.3,13.9-3.3C318.8,170.6,325,172,325,173.8L325,173.8z"/>
	<path fill-rule="evenodd" clip-rule="evenodd" fill="#F5B2B6" d="M320.5,156.7c0.9,1.6-3.8,6-10.4,9.8c-6.7,3.8-12.8,5.7-13.7,4.1
		c-0.9-1.6,3.8-6,10.4-9.8C313.4,157,319.6,155.1,320.5,156.7L320.5,156.7z"/>
	<path fill-rule="evenodd" clip-rule="evenodd" fill="#F5B2B6" d="M308,144.1c1.6,0.9-0.3,7-4.1,13.7c-3.8,6.7-8.2,11.3-9.8,10.4
		c-1.6-0.9,0.3-7,4.1-13.7C302,147.9,306.4,143.2,308,144.1L308,144.1z"/>
	<path fill-rule="evenodd" clip-rule="evenodd" fill="#F5B2B6" d="M290.9,139.5c1.8,0,3.3,6.2,3.3,13.9c0,7.7-1.5,13.9-3.3,13.9
		c-1.8,0-3.3-6.2-3.3-13.9C287.6,145.7,289,139.5,290.9,139.5L290.9,139.5z"/>
</g>
<polygon fill-rule="evenodd" clip-rule="evenodd" fill="#F3A378" points="0,428.2 399.4,428.2 399.4,0 0,0 0,428.2 "/>
<polygon fill-rule="evenodd" clip-rule="evenodd" fill="#FAC7AD" points="0.2,0 24.4,0 24.4,530.1 0.2,530.1 0.2,0 "/>
<polygon fill-rule="evenodd" clip-rule="evenodd" fill="#FBDAC0" points="32.9,0 24.4,0 24.4,530.1 32.9,530.1 32.9,0 "/>
<polygon fill-rule="evenodd" clip-rule="evenodd" fill="#FAC7AD" points="52.6,0 76.7,0 76.7,530.1 52.6,530.1 52.6,0 "/>
<polygon fill-rule="evenodd" clip-rule="evenodd" fill="#FBDAC0" points="85.3,0 76.7,0 76.7,530.1 85.3,530.1 85.3,0 "/>
<polygon fill-rule="evenodd" clip-rule="evenodd" fill="#FAC7AD" points="104.9,0 129.1,0 129.1,530.1 104.9,530.1 104.9,0 "/>
<polygon fill-rule="evenodd" clip-rule="evenodd" fill="#FBDAC0" points="137.6,0 129.1,0 129.1,530.1 137.6,530.1 137.6,0 "/>
<polygon fill-rule="evenodd" clip-rule="evenodd" fill="#FAC7AD" points="157.3,0 181.4,0 181.4,530.1 157.3,530.1 157.3,0 "/>
<polygon fill-rule="evenodd" clip-rule="evenodd" fill="#FBDAC0" points="190,0 181.4,0 181.4,530.1 190,530.1 190,0 "/>
<polygon fill-rule="evenodd" clip-rule="evenodd" fill="#FAC7AD" points="209.6,0 233.8,0 233.8,530.1 209.6,530.1 209.6,0 "/>
<polygon fill-rule="evenodd" clip-rule="evenodd" fill="#FBDAC0" points="242.3,0 233.8,0 233.8,530.1 242.3,530.1 242.3,0 "/>
<polygon fill-rule="evenodd" clip-rule="evenodd" fill="#FAC7AD" points="262,0 286.1,0 286.1,530.1 262,530.1 262,0 "/>
<polygon fill-rule="evenodd" clip-rule="evenodd" fill="#FBDAC0" points="294.7,0 286.1,0 286.1,530.1 294.7,530.1 294.7,0 "/>
<polygon fill-rule="evenodd" clip-rule="evenodd" fill="#FAC7AD" points="314.4,0 338.5,0 338.5,530.1 314.4,530.1 314.4,0 "/>
<polygon fill-rule="evenodd" clip-rule="evenodd" fill="#FBDAC0" points="347,0 338.5,0 338.5,530.1 347,530.1 347,0 "/>
<polygon fill-rule="evenodd" clip-rule="evenodd" fill="#FAC7AD" points="366.7,0 390.8,0 390.8,530.1 366.7,530.1 366.7,0 "/>
<polygon fill-rule="evenodd" clip-rule="evenodd" fill="#FBDAC0" points="399.4,0 390.8,0 390.8,530.1 399.4,530.1 399.4,0 "/>
<polygon fill-rule="evenodd" clip-rule="evenodd" fill="#B8CE33" points="0,428.3 399.4,428.3 399.4,578.8 0,578.8 0,428.3 "/>
<polygon fill-rule="evenodd" clip-rule="evenodd" fill="#F3A378" points="0,428.2 399.4,428.2 399.4,0 0,0 0,428.2 "/>
<polygon fill-rule="evenodd" clip-rule="evenodd" fill="#FAC7AD" points="0.2,0 24.4,0 24.4,530.1 0.2,530.1 0.2,0 "/>
<polygon fill-rule="evenodd" clip-rule="evenodd" fill="#FBDAC0" points="32.9,0 24.4,0 24.4,530.1 32.9,530.1 32.9,0 "/>
<polygon fill-rule="evenodd" clip-rule="evenodd" fill="#FAC7AD" points="52.6,0 76.7,0 76.7,530.1 52.6,530.1 52.6,0 "/>
<polygon fill-rule="evenodd" clip-rule="evenodd" fill="#FBDAC0" points="85.3,0 76.7,0 76.7,530.1 85.3,530.1 85.3,0 "/>
<polygon fill-rule="evenodd" clip-rule="evenodd" fill="#FAC7AD" points="104.9,0 129.1,0 129.1,530.1 104.9,530.1 104.9,0 "/>
<polygon fill-rule="evenodd" clip-rule="evenodd" fill="#FBDAC0" points="137.6,0 129.1,0 129.1,530.1 137.6,530.1 137.6,0 "/>
<polygon fill-rule="evenodd" clip-rule="evenodd" fill="#FAC7AD" points="157.3,0 181.4,0 181.4,530.1 157.3,530.1 157.3,0 "/>
<polygon fill-rule="evenodd" clip-rule="evenodd" fill="#FBDAC0" points="190,0 181.4,0 181.4,530.1 190,530.1 190,0 "/>
<polygon fill-rule="evenodd" clip-rule="evenodd" fill="#FAC7AD" points="209.6,0 233.8,0 233.8,530.1 209.6,530.1 209.6,0 "/>
<polygon fill-rule="evenodd" clip-rule="evenodd" fill="#FBDAC0" points="242.3,0 233.8,0 233.8,530.1 242.3,530.1 242.3,0 "/>
<polygon fill-rule="evenodd" clip-rule="evenodd" fill="#FAC7AD" points="262,0 286.1,0 286.1,530.1 262,530.1 262,0 "/>
<polygon fill-rule="evenodd" clip-rule="evenodd" fill="#FBDAC0" points="294.7,0 286.1,0 286.1,530.1 294.7,530.1 294.7,0 "/>
<polygon fill-rule="evenodd" clip-rule="evenodd" fill="#FAC7AD" points="314.4,0 338.5,0 338.5,530.1 314.4,530.1 314.4,0 "/>
<polygon fill-rule="evenodd" clip-rule="evenodd" fill="#FBDAC0" points="347,0 338.5,0 338.5,530.1 347,530.1 347,0 "/>
<polygon fill-rule="evenodd" clip-rule="evenodd" fill="#FAC7AD" points="366.7,0 390.8,0 390.8,530.1 366.7,530.1 366.7,0 "/>
<polygon fill-rule="evenodd" clip-rule="evenodd" fill="#FBDAC0" points="399.4,0 390.8,0 390.8,530.1 399.4,530.1 399.4,0 "/>
<polygon fill-rule="evenodd" clip-rule="evenodd" fill="#B8CE33" points="0,428.3 399.4,428.3 399.4,578.8 0,578.8 0,428.3 "/>
<g>
	<polygon fill-rule="evenodd" clip-rule="evenodd" fill="#AE4925" points="4.4,397.2 131,397.2 131,482.1 4.4,482.1 4.4,397.2 	"/>
	<polygon fill-rule="evenodd" clip-rule="evenodd" fill="#AE4925" points="4.4,397.2 131,397.2 131,229.8 4.4,229.8 4.4,397.2 	"/>
	<polygon fill-rule="evenodd" clip-rule="evenodd" fill="#83391B" points="11.1,390.4 124.2,390.4 124.2,236.6 11.1,236.6 
		11.1,390.4 	"/>
	<polygon fill-rule="evenodd" clip-rule="evenodd" fill="#AE4925" points="4.4,397.2 131,397.2 131,390.5 4.4,390.5 4.4,397.2 	"/>
	<polygon fill-rule="evenodd" clip-rule="evenodd" fill="#AE4925" points="4.4,344 131,344 131,337.8 4.4,337.8 4.4,344 	"/>
	<polygon fill-rule="evenodd" clip-rule="evenodd" fill="#AE4925" points="4.4,286 131,286 131,279.8 4.4,279.8 4.4,286 	"/>
	<polygon fill-rule="evenodd" clip-rule="evenodd" fill="#E8C19B" points="4.4,397.3 131,397.3 131,399.2 4.4,399.2 4.4,397.3 	"/>
	<polygon fill-rule="evenodd" clip-rule="evenodd" fill="#E8C19B" points="66.8,397.8 68.6,397.8 68.6,482.1 66.8,482.1 66.8,397.8 
			"/>
	<path fill-rule="evenodd" clip-rule="evenodd" fill="#E8C19B" d="M57.3,403.8c2.6,0,4.6,2.1,4.6,4.6c0,2.6-2.1,4.6-4.6,4.6
		c-2.6,0-4.6-2.1-4.6-4.6C52.7,405.9,54.7,403.8,57.3,403.8L57.3,403.8z"/>
	<path fill-rule="evenodd" clip-rule="evenodd" fill="#E8C19B" d="M78.5,403.8c2.6,0,4.6,2.1,4.6,4.6c0,2.6-2.1,4.6-4.6,4.6
		c-2.6,0-4.6-2.1-4.6-4.6C73.8,405.9,75.9,403.8,78.5,403.8L78.5,403.8z"/>
	<polygon fill-rule="evenodd" clip-rule="evenodd" fill="#E32D26" points="121.1,357.6 124.2,357.6 124.2,390.4 121.1,390.4 
		121.1,357.6 	"/>
	<polygon fill-rule="evenodd" clip-rule="evenodd" fill="#BED031" points="121.1,369.1 112.2,369.1 112.2,390.4 121.1,390.4 
		121.1,369.1 	"/>
	<polygon fill-rule="evenodd" clip-rule="evenodd" fill="#E32D26" points="108.2,362.3 112.2,362.3 112.2,390.4 108.2,390.4 
		108.2,362.3 	"/>
	<polygon fill-rule="evenodd" clip-rule="evenodd" fill="#F0E5E4" points="108.2,364.3 100,364.3 100,390.4 108.2,390.4 
		108.2,364.3 	"/>
	<polygon fill-rule="evenodd" clip-rule="evenodd" fill="#58A3A3" points="96.8,359.1 100,359.1 100,390.4 96.8,390.4 96.8,359.1 	
		"/>
	<polygon fill-rule="evenodd" clip-rule="evenodd" fill="#FEE67D" points="93.7,359.1 96.8,359.1 96.8,390.4 93.7,390.4 93.7,359.1 
			"/>
	<polygon fill-rule="evenodd" clip-rule="evenodd" fill="#A14A95" points="90.5,359.1 93.7,359.1 93.7,390.4 90.5,390.4 90.5,359.1 
			"/>
	<polygon fill-rule="evenodd" clip-rule="evenodd" fill="#BED031" points="87.4,359.1 90.5,359.1 90.5,390.4 87.4,390.4 87.4,359.1 
			"/>
	<polygon fill-rule="evenodd" clip-rule="evenodd" fill="#A7D1AE" points="83.4,362.3 87.4,362.3 87.4,390.4 83.4,390.4 83.4,362.3 
			"/>
	<polygon fill-rule="evenodd" clip-rule="evenodd" fill="#58A3A3" points="83.4,364.3 75.1,364.3 75.1,390.4 83.4,390.4 83.4,364.3 
			"/>
	<polygon fill-rule="evenodd" clip-rule="evenodd" fill="#E32D26" points="57.6,316.2 48.8,316.2 48.8,337.4 57.6,337.4 57.6,316.2 
			"/>
	<polygon fill-rule="evenodd" clip-rule="evenodd" fill="#A14A95" points="44.8,309.3 48.8,309.3 48.8,337.4 44.8,337.4 44.8,309.3 
			"/>
	<polygon fill-rule="evenodd" clip-rule="evenodd" fill="#58A3A3" points="44.8,311.3 36.5,311.3 36.5,337.4 44.8,337.4 44.8,311.3 
			"/>
	<polygon fill-rule="evenodd" clip-rule="evenodd" fill="#BED031" points="33.4,306.2 36.5,306.2 36.5,337.4 33.4,337.4 33.4,306.2 
			"/>
	<polygon fill-rule="evenodd" clip-rule="evenodd" fill="#FEE67D" points="30.2,306.2 33.4,306.2 33.4,337.4 30.2,337.4 30.2,306.2 
			"/>
	<polygon fill-rule="evenodd" clip-rule="evenodd" fill="#A14A95" points="27.1,306.2 30.2,306.2 30.2,337.4 27.1,337.4 27.1,306.2 
			"/>
	<polygon fill-rule="evenodd" clip-rule="evenodd" fill="#58A3A3" points="24,306.2 27.1,306.2 27.1,337.4 24,337.4 24,306.2 	"/>
	<polygon fill-rule="evenodd" clip-rule="evenodd" fill="#DEE4EE" points="20,309.3 24,309.3 24,337.4 20,337.4 20,309.3 	"/>
	<polygon fill-rule="evenodd" clip-rule="evenodd" fill="#E32D26" points="20,311.3 11.7,311.3 11.7,337.4 20,337.4 20,311.3 	"/>
	<polygon fill-rule="evenodd" clip-rule="evenodd" fill="#BED031" points="124.1,258.4 115.3,258.4 115.3,279.7 124.1,279.7 
		124.1,258.4 	"/>
	<polygon fill-rule="evenodd" clip-rule="evenodd" fill="#D5E9D8" points="111.3,251.6 115.3,251.6 115.3,279.7 111.3,279.7 
		111.3,251.6 	"/>
	<polygon fill-rule="evenodd" clip-rule="evenodd" fill="#58A3A3" points="111.3,253.6 103,253.6 103,279.7 111.3,279.7 
		111.3,253.6 	"/>
	<polygon fill-rule="evenodd" clip-rule="evenodd" fill="#FEE67D" points="103,258.4 94.1,258.4 94.1,279.7 103,279.7 103,258.4 	
		"/>
	<polygon fill-rule="evenodd" clip-rule="evenodd" fill="#E32D26" points="95.1,256.8 87.8,252.9 75.5,276 82.9,279.8 95.1,256.8 	
		"/>
	<polygon fill-rule="evenodd" clip-rule="evenodd" fill="#BED031" points="124.4,307.7 115.1,307.7 115.1,337.8 124.4,337.8 
		124.4,307.7 	"/>
	<polygon fill-rule="evenodd" clip-rule="evenodd" fill="#58A3A3" points="115.1,316.5 106.2,316.5 106.2,337.8 115.1,337.8 
		115.1,316.5 	"/>
	<polygon fill-rule="evenodd" clip-rule="evenodd" fill="#FEE67D" points="106.2,316.5 97.4,316.5 97.4,337.8 106.2,337.8 
		106.2,316.5 	"/>
	<polygon fill-rule="evenodd" clip-rule="evenodd" fill="#E32D26" points="97.7,319.3 89.9,315 79.6,333.6 87.4,337.9 97.7,319.3 	
		"/>
	<polygon fill-rule="evenodd" clip-rule="evenodd" fill="#58A3A3" points="65.3,245 69.1,245 69.1,279.9 65.3,279.9 65.3,245 	"/>
	<polygon fill-rule="evenodd" clip-rule="evenodd" fill="#FFCB06" points="65.3,257.3 54.6,257.3 54.6,279.9 65.3,279.9 65.3,257.3 
			"/>
	<polygon fill-rule="evenodd" clip-rule="evenodd" fill="#E32D26" points="49.7,250 54.6,250 54.6,279.9 49.7,279.9 49.7,250 	"/>
	<polygon fill-rule="evenodd" clip-rule="evenodd" fill="#ECECEC" points="49.7,252.2 39.7,252.2 39.7,279.9 49.7,279.9 49.7,252.2 
			"/>
	<polygon fill-rule="evenodd" clip-rule="evenodd" fill="#FFCB06" points="41.3,353.1 46,351.1 62.5,388.3 57.9,390.3 41.3,353.1 	
		"/>
	<polygon fill-rule="evenodd" clip-rule="evenodd" fill="#A14A95" points="36,350 41.1,350 41.1,390.7 36,390.7 36,350 	"/>
	<polygon fill-rule="evenodd" clip-rule="evenodd" fill="#58A3A3" points="31,350 36,350 36,390.7 31,390.7 31,350 	"/>
	<polygon fill-rule="evenodd" clip-rule="evenodd" fill="#A3D9F5" points="24.5,354.1 31,354.1 31,390.7 24.5,390.7 24.5,354.1 	"/>
	<polygon fill-rule="evenodd" clip-rule="evenodd" fill="#BED031" points="24.5,356.7 11.2,356.7 11.2,390.7 24.5,390.7 24.5,356.7 
			"/>
	<polygon fill-rule="evenodd" clip-rule="evenodd" fill="#BED031" points="35.4,238.8 39.6,238.8 39.6,279.9 35.4,279.9 35.4,238.8 
			"/>
	<polygon fill-rule="evenodd" clip-rule="evenodd" fill="#A14A95" points="31.3,238.8 35.4,238.8 35.4,279.9 31.3,279.9 31.3,238.8 
			"/>
	<polygon fill-rule="evenodd" clip-rule="evenodd" fill="#58A3A3" points="27.2,238.8 31.3,238.8 31.3,279.9 27.2,279.9 27.2,238.8 
			"/>
	<polygon fill-rule="evenodd" clip-rule="evenodd" fill="#A3D9F5" points="22,242.9 27.2,242.9 27.2,279.9 22,279.9 22,242.9 	"/>
	<polygon fill-rule="evenodd" clip-rule="evenodd" fill="#E32D26" points="22,245.6 11.1,245.6 11.1,279.9 22,279.9 22,245.6 	"/>
</g>
<g>
	<polygon fill-rule="evenodd" clip-rule="evenodd" fill="#AE4925" points="332.2,435.3 395.2,435.3 395.2,480.1 332.2,480.1 
		332.2,435.3 	"/>
	<polygon fill-rule="evenodd" clip-rule="evenodd" fill="#AE4925" points="332.2,410.5 395.2,410.5 395.2,433.7 332.2,433.7 
		332.2,410.5 	"/>
	<path fill-rule="evenodd" clip-rule="evenodd" fill="#EFCFAE" d="M363.7,415.4c2.1,0,3.8,1.7,3.8,3.8c0,2.1-1.7,3.8-3.8,3.8
		c-2.1,0-3.8-1.7-3.8-3.8C359.9,417.1,361.6,415.4,363.7,415.4L363.7,415.4z"/>
	<path fill-rule="evenodd" clip-rule="evenodd" fill="#EFCFAE" d="M363.7,438.2c2.1,0,3.8,1.7,3.8,3.8c0,2.1-1.7,3.8-3.8,3.8
		c-2.1,0-3.8-1.7-3.8-3.8C359.9,439.9,361.6,438.2,363.7,438.2L363.7,438.2z"/>
	<path fill-rule="evenodd" clip-rule="evenodd" fill="#FFF37A" d="M364.7,407.8v-67.6h-1.9v67.6c-6.8,0.1-13.4,0.7-13.4,1.7
		c0,0.3,0,0.6,0,1c4.5,0,8.9,0,13.4,0h1.9c4.5,0,8.9,0,13.4,0c0-0.3,0-0.6,0-0.9C378.1,408.5,371.5,407.9,364.7,407.8z"/>
	<path fill-rule="evenodd" clip-rule="evenodd" fill="#E32D26" d="M356.6,310.6c4.9,0,9.8,0,14.7,0c0.9,19.2,5.3,37.3,16.3,53.6
		c-15.9,0-31.9,0-47.8,0C350.8,347.9,355.8,329.8,356.6,310.6L356.6,310.6z"/>
</g>
<g>
	<path fill-rule="evenodd" clip-rule="evenodd" fill="#488786" d="M136.2,396.6c12.1-37.4,44.7-45.6,95.5-45.6s86.1,6.9,98.6,45.6
		c-8.2,38.4-15.4,73.9-36.8,77.1c-32.8-3.9-86.6,4.1-123.9-0.7C152.3,464.9,143.6,431.2,136.2,396.6L136.2,396.6z"/>
	<path fill-rule="evenodd" clip-rule="evenodd" fill="#5DADAC" d="M136.2,396.6c4.8,28.1,9.5,56.6,14.3,84.7
		c55.3,0.4,110.3,0.4,165.6,0c4.8-28.1,9.5-56.6,14.3-84.7c-11.6-10.2-16.3,42-18.1,51c-1.8,8.9-5.5,7-8.2,7.1H162.6
		c-2.7-0.1-6.5,1.9-8.2-7.1C152.5,438.6,147.8,386.5,136.2,396.6L136.2,396.6z"/>
	<path fill-rule="evenodd" clip-rule="evenodd" fill="#58A3A3" d="M304.9,429.9c-1.6-21.8,2.9-41.1,8.6-59.8
		c-17.8-15.6-46-19.1-81.8-19.1c-33.3,0-58.7,3.5-75.7,16.5c6.1,19.6,11.1,39.6,9.4,62.4l66,2.4l0,0.3l3.8-0.1l3.8,0.1l0-0.3
		L304.9,429.9L304.9,429.9z"/>
	<path fill-rule="evenodd" clip-rule="evenodd" fill="#488786" d="M188.5,354.3v76.5l-17-0.6V359C176.7,357,182.4,355.4,188.5,354.3
		L188.5,354.3z"/>
	<path fill-rule="evenodd" clip-rule="evenodd" fill="#488786" d="M216.2,351.3v80.5l-17-0.6v-78.5
		C204.6,352,210.3,351.6,216.2,351.3L216.2,351.3z"/>
	<path fill-rule="evenodd" clip-rule="evenodd" fill="#488786" d="M243.9,351.2v81l-5,0.2l0,0.3l-3.5-0.1l-0.3,0l0,0l0,0l-3.7,0.1
		l0-0.3l-4.4-0.2V351c1.5,0,3,0,4.5,0h0.2h0.1h0.1h0.2l0.2,0h0.2l0.2,0h0.2l1,0l0.2,0l0.2,0l0.2,0l0.2,0l0.2,0l0.4,0l0.2,0
		C238.4,351,241.2,351.1,243.9,351.2L243.9,351.2z"/>
	<path fill-rule="evenodd" clip-rule="evenodd" fill="#488786" d="M271.7,353.3v77.8l-17,0.6v-80.1
		C260.6,352,266.3,352.6,271.7,353.3L271.7,353.3z"/>
	<path fill-rule="evenodd" clip-rule="evenodd" fill="#488786" d="M299.4,361.1v69.1l-17,0.6v-75.4
		C288.6,356.8,294.2,358.7,299.4,361.1L299.4,361.1z"/>
	<path fill-rule="evenodd" clip-rule="evenodd" fill="#5DADAC" d="M154,444c53.3,0,106.5,0,159.8,0c-1.3-2.9-2.5-6-3.9-8.7
		c-3.6-7.2-5.6-8.7-12.2-8.7c-42.6,0-85.2,0-127.7,0c-6.5,0-8.5,1.6-12.2,8.7C156.5,438,155.3,441.1,154,444L154,444z"/>
</g>
<g>
	<polygon fill-rule="evenodd" clip-rule="evenodd" fill="#AE4925" points="251.1,165 331.2,165 331.2,250.7 251.1,250.7 251.1,165 	
		"/>
	<polygon fill-rule="evenodd" clip-rule="evenodd" fill="#E32D26" points="255,168.7 326.6,168.7 326.6,246.8 255,246.8 255,168.7 	
		"/>
	<path fill-rule="evenodd" clip-rule="evenodd" fill="#FFFFFF" d="M290.9,202.2c3,0,5.5,2.4,5.5,5.5c0,3-2.4,5.5-5.5,5.5
		c-3,0-5.5-2.4-5.5-5.5C285.4,204.7,287.8,202.2,290.9,202.2L290.9,202.2z"/>
	<path fill-rule="evenodd" clip-rule="evenodd" fill="#F5B2B6" d="M273.7,178c1.6-0.9,6,3.8,9.8,10.4c3.8,6.7,5.7,12.8,4.1,13.7
		c-1.6,0.9-6-3.8-9.8-10.4C274,185.1,272.1,178.9,273.7,178L273.7,178z"/>
	<path fill-rule="evenodd" clip-rule="evenodd" fill="#F5B2B6" d="M261.1,190.6c0.9-1.6,7,0.3,13.7,4.1c6.7,3.8,11.3,8.2,10.4,9.8
		c-0.9,1.6-7-0.3-13.7-4.1C264.9,196.5,260.2,192.1,261.1,190.6L261.1,190.6z"/>
	<path fill-rule="evenodd" clip-rule="evenodd" fill="#F5B2B6" d="M256.5,207.7c0-1.8,6.2-3.3,13.9-3.3c7.7,0,13.9,1.5,13.9,3.3
		c0,1.8-6.2,3.3-13.9,3.3C262.7,211,256.5,209.5,256.5,207.7L256.5,207.7z"/>
	<path fill-rule="evenodd" clip-rule="evenodd" fill="#F5B2B6" d="M261.1,224.8c-0.9-1.6,3.8-6,10.4-9.8c6.7-3.8,12.8-5.7,13.7-4.1
		c0.9,1.6-3.8,6-10.4,9.8C268.1,224.5,262,226.4,261.1,224.8L261.1,224.8z"/>
	<path fill-rule="evenodd" clip-rule="evenodd" fill="#F5B2B6" d="M273.6,237.4c-1.6-0.9,0.3-7,4.1-13.7c3.8-6.7,8.2-11.3,9.8-10.4
		c1.6,0.9-0.3,7-4.1,13.7C279.5,233.6,275.1,238.3,273.6,237.4L273.6,237.4z"/>
	<path fill-rule="evenodd" clip-rule="evenodd" fill="#F5B2B6" d="M290.7,242c-1.8,0-3.3-6.2-3.3-13.9c0-7.7,1.5-13.9,3.3-13.9
		c1.8,0,3.3,6.2,3.3,13.9C294,235.8,292.5,242,290.7,242L290.7,242z"/>
	<path fill-rule="evenodd" clip-rule="evenodd" fill="#F5B2B6" d="M307.8,237.5c-1.6,0.9-6-3.8-9.8-10.4c-3.8-6.7-5.7-12.8-4.1-13.7
		c1.6-0.9,6,3.8,9.8,10.4C307.5,230.4,309.4,236.6,307.8,237.5L307.8,237.5z"/>
	<path fill-rule="evenodd" clip-rule="evenodd" fill="#F5B2B6" d="M320.4,225c-0.9,1.6-7-0.3-13.7-4.1c-6.7-3.8-11.3-8.2-10.4-9.8
		c0.9-1.6,7,0.3,13.7,4.1C316.6,219,321.3,223.4,320.4,225L320.4,225z"/>
	<path fill-rule="evenodd" clip-rule="evenodd" fill="#F5B2B6" d="M325,207.8c0,1.8-6.2,3.3-13.9,3.3c-7.7,0-13.9-1.5-13.9-3.3
		c0-1.8,6.2-3.3,13.9-3.3C318.8,204.6,325,206,325,207.8L325,207.8z"/>
	<path fill-rule="evenodd" clip-rule="evenodd" fill="#F5B2B6" d="M320.5,190.7c0.9,1.6-3.8,6-10.4,9.8c-6.7,3.8-12.8,5.7-13.7,4.1
		c-0.9-1.6,3.8-6,10.4-9.8C313.4,191,319.6,189.1,320.5,190.7L320.5,190.7z"/>
	<path fill-rule="evenodd" clip-rule="evenodd" fill="#F5B2B6" d="M308,178.1c1.6,0.9-0.3,7-4.1,13.7c-3.8,6.7-8.2,11.3-9.8,10.4
		c-1.6-0.9,0.3-7,4.1-13.7C302,181.9,306.4,177.2,308,178.1L308,178.1z"/>
	<path fill-rule="evenodd" clip-rule="evenodd" fill="#F5B2B6" d="M290.9,173.5c1.8,0,3.3,6.2,3.3,13.9c0,7.7-1.5,13.9-3.3,13.9
		c-1.8,0-3.3-6.2-3.3-13.9C287.6,179.7,289,173.5,290.9,173.5L290.9,173.5z"/>
</g>
</svg>
