<?xml version="1.0" encoding="utf-8"?>
<!-- Generator: Adobe Illustrator 18.1.1, SVG Export Plug-In . SVG Version: 6.00 Build 0)  -->
<!DOCTYPE svg PUBLIC "-//W3C//DTD SVG 1.1//EN" "http://www.w3.org/Graphics/SVG/1.1/DTD/svg11.dtd">
<svg version="1.1" id="Layer_1" xmlns="http://www.w3.org/2000/svg" xmlns:xlink="http://www.w3.org/1999/xlink" x="0px" y="0px"
	 viewBox="0 0 99.4 106.1" enable-background="new 0 0 99.4 106.1" xml:space="preserve">
<g>
	<g>
		<path fill="#FFF8DE" d="M35,14.2c5.1,0.3,9.6-1.2,12.1-5.9c-4.8-0.4-9.3-3-10.8-7.6c0.7,2.1-10.5,3.8-9.7,5.7
			C28.2,10.2,30.3,13.9,35,14.2z"/>
		<path fill="#FFF8DE" d="M63,14c3.7-0.2,6.3-1.3,8.1-4.6c0.5-0.9,2.6-4,0.6-4.7c-2.3-0.8-4.6-1.4-6.7-2.6c-0.5-0.2-1.5-0.7-1.9-1.2
			c-0.2-0.3-0.2-0.5-0.2-0.6c0,0.1-0.1,0.2-0.2,0.4C60.6,5,56.8,7.2,52.2,8C54.3,12.1,58.3,14.2,63,14z"/>
		<path fill="#FFF8DE" d="M48.2,99.2C49,94.8,49,90.3,49,85.9c0.1-8.3-0.7-16.6-0.6-24.9c0.2-17.3-1.2-34.6-1.3-51.9
			c-5.1,8.4-17.9,7.1-20.9-2.2c-0.1,0-0.2,0-0.2,0c-5-2.3-17-7.7-20.8-0.4c-2,3.8-4.1,9.3-4.6,13.6c-1.3,11.4,12.7,10.4,19.8,14.6
			c0.4-2.3,0.3-4.7-1.5-5.9c-0.2-0.1,0.3-0.3,0.4-0.2c3.5,2.3,1.1,8.5,0.1,11.5c-1.3,3.9-2.9,8.3-1.2,12.4c1.8,4.1,5.3,7.5,9.9,8.2
			c0.3,0-0.1,0.3-0.3,0.3c-2.9-0.4-5.8-2.1-7.9-4.4c0.4,6.6,1.5,13.4,1.5,20c0,3.6,0.2,7.4-0.2,11c-0.4,3.2-1.5,6.8-0.9,9.9
			c0.4,2,0.7,5.1,3,5.7c1.7,0.4,3.3,0.8,5,1.1c6.5,1.2,13.1,1.9,19.6,1.9C46.9,103.9,47.8,101.2,48.2,99.2z"/>
		<path fill="#FFF8DE" d="M72.9,6.7C69.8,16.1,56.4,17.4,51.7,8c-0.8,0.1-1.7,0.2-2.6,0.3c-0.5,0-1,0-1.4,0c0,17.5,1.5,35,1.3,52.5
			c-0.1,8.9,0.7,17.8,0.5,26.6c-0.1,3.4,0.1,6.8-0.5,10.1c-0.4,2.4-1.7,6-0.6,8.3c0,0,0,0,0,0c0.8,0,1.7,0,2.5-0.1
			c6.9-0.3,13.8-0.9,20.6-2.2c1.4-0.3,2.9-0.5,4.3-0.9c1.7-0.4,2.4-5.8,2.3-6.9c-0.3-7-1.9-13.8-1.1-21c0.6-5.7,0.9-11.5,1.4-17.3
			c-1.8,1.7-4,2.8-6.6,3.2c-0.3,0-0.2-0.2,0.1-0.3c2.4-0.4,4.7-1.6,6.6-3.3c0,0,0,0,0,0c0,0,0.1-0.1,0.1-0.1c2.1-2,3.6-4.7,3.7-7.6
			c0.2-4.6-1.8-8.4-2.9-12.7c-0.7-2.5-1.4-6.5,1.2-8.3c0.2-0.1,0.6,0,0.3,0.1c-1.8,1.2-2,3.4-1.6,5.6c2.5-1.5,5.1-2.1,7.9-2.8
			c3.6-0.9,7.2-2.2,9.9-4.9c3.3-3.2,1.9-6.3,0.9-9.8c-1-3.6-2.7-9.5-5.2-12.2C87.7-0.5,78.2,4.4,72.9,6.7z"/>
	</g>
	<g>
		<circle fill="none" cx="63.2" cy="25.5" r="1"/>
		<circle fill="none" cx="72.4" cy="90.1" r="1"/>
		<circle fill="none" cx="63.2" cy="62.4" r="1"/>
		<circle fill="none" cx="63.2" cy="44" r="1"/>
		<circle fill="none" cx="72.4" cy="53.2" r="1"/>
		<circle fill="none" cx="81.7" cy="7.1" r="1"/>
		<circle fill="none" cx="81.7" cy="25.5" r="1"/>
		<circle fill="none" cx="63.2" cy="80.9" r="1"/>
		<circle fill="none" cx="72.4" cy="16.3" r="1"/>
		<circle fill="none" cx="72.4" cy="34.7" r="1"/>
		<circle fill="none" cx="72.4" cy="71.6" r="1"/>
		<circle fill="none" cx="63.2" cy="99.3" r="1"/>
		<circle fill="none" cx="54" cy="90.1" r="1"/>
		<path fill="none" d="M80.7,44c0,0.5,0.4,1,1,1c0,0,0,0,0,0c-0.1-0.6-0.3-1.2-0.5-1.8C80.9,43.3,80.7,43.6,80.7,44z"/>
		<path fill="none" d="M82.6,44c0-0.5-0.4-0.9-0.8-0.9c0.2,0.6,0.3,1.1,0.4,1.7C82.5,44.5,82.6,44.3,82.6,44z"/>
		<circle fill="none" cx="54" cy="71.6" r="1"/>
		<circle fill="none" cx="54" cy="16.3" r="1"/>
		<circle fill="none" cx="54" cy="34.7" r="1"/>
		<circle fill="none" cx="54" cy="53.2" r="1"/>
		<circle fill="none" cx="90.9" cy="16.3" r="1"/>
		<circle fill="none" cx="7.9" cy="25.5" r="1"/>
		<circle fill="none" cx="44.8" cy="99.3" r="1"/>
		<circle fill="none" cx="44.8" cy="80.9" r="1"/>
		<circle fill="none" cx="44.8" cy="62.4" r="1"/>
		<path fill="none" d="M26.3,8c0.1,0,0.3,0,0.4-0.1c-0.2-0.3-0.3-0.7-0.4-1.1c-0.1,0-0.2,0-0.2,0c-0.2-0.1-0.4-0.2-0.6-0.3
			c-0.1,0.1-0.1,0.3-0.1,0.5C25.3,7.6,25.8,8,26.3,8z"/>
		<circle fill="none" cx="7.9" cy="7.1" r="1"/>
		<circle fill="none" cx="44.8" cy="44" r="1"/>
		<path fill="none" d="M38.2,15.6c0.2,0.6-0.2,1.3-0.8,1.5c0.2,0.6,0.1,1.1-0.3,1.4c-0.5,0.3-1.1,0-1.4-0.5
			c-0.3,0.5-0.9,0.7-1.4,0.5c-0.5-0.3-0.7-0.9-0.4-1.5c0,0,0,0,0,0c-0.7-0.3-1-1-0.7-1.6c0.3-0.6,1-0.9,1.7-0.6c0,0,0,0,0,0
			c0-0.2,0.1-0.3,0.1-0.5c-2.9-0.6-5.6-2.3-7.3-5c-0.4,0.1-0.8-0.2-1.1-0.6c-0.3,0.5-0.9,0.7-1.4,0.5c-0.5-0.3-0.7-0.9-0.4-1.5
			c0,0,0,0,0,0c-0.7-0.3-1-1-0.7-1.6C23.8,6.1,23.9,6,24,6c-5.5-2.4-14.8-5.7-18.4,0C5.9,5.5,6.5,5.4,7,5.6c0,0,0,0,0,0
			C7.1,5,7.5,4.4,8.1,4.4c0.6,0,1,0.5,1.1,1.2c0.6-0.1,1.2,0.2,1.3,0.8C10.7,7,10.4,7.7,9.7,8c0.2,0.6,0.1,1.1-0.3,1.4
			c-0.5,0.3-1.1,0-1.4-0.5C7.6,9.4,7,9.6,6.5,9.4C6,9.1,5.8,8.4,6.1,7.9c0,0,0,0,0,0C5.4,7.6,5.1,6.9,5.3,6.3c0,0-0.1,0.1-0.1,0.1
			c-2,3.8-4.1,9.3-4.6,13.6C-0.4,29.5,9,30.5,16.3,32.9c0.2-0.5,0.5-0.8,1-0.8c0.6,0,1,0.5,1.1,1.2c0.6-0.1,1.2,0.2,1.3,0.8
			c0,0.1,0,0.2,0,0.2c0.2,0.1,0.5,0.2,0.7,0.4c0.4-2.3,0.3-4.7-1.5-5.9c-0.2-0.1,0.3-0.3,0.4-0.2c3.5,2.3,1.1,8.5,0.1,11.5
			c-1.1,3.3-2.5,7.1-1.7,10.6c0.4,0.2,0.7,0.6,0.8,1.1c0.6-0.1,1.2,0.2,1.3,0.8c0.2,0.6-0.1,1.2-0.7,1.5c1.6,2.7,3.9,4.9,6.9,6
			c0.2-0.1,0.4-0.2,0.6-0.2c0.4,0,0.7,0.3,0.9,0.7c0.2,0,0.4,0.1,0.6,0.1c0.3,0-0.1,0.3-0.3,0.3c-0.1,0-0.1,0-0.2,0
			c0,0.1,0,0.1,0,0.2c0.6-0.1,1.2,0.2,1.3,0.8c0.2,0.6-0.2,1.3-0.8,1.5c0.2,0.6,0.1,1.1-0.3,1.4c-0.5,0.3-1.1,0-1.4-0.5
			c-0.3,0.5-0.9,0.7-1.4,0.5c-0.5-0.3-0.7-0.9-0.4-1.5c0,0,0,0,0,0c-0.7-0.3-1-1-0.7-1.6c0.3-0.6,1-0.9,1.7-0.6c0,0,0,0,0,0
			c0-0.3,0.1-0.5,0.2-0.7c-2.2-0.8-4.2-2.1-5.8-3.9c0.4,6.6,1.5,13.4,1.5,20c0,3.6,0.2,7.4-0.2,11c-0.4,3.2-1.5,6.8-0.9,9.9
			c0.4,2,0.7,5.1,3,5.7c1.7,0.4,3.3,0.8,5,1.1c6.5,1.2,13.1,1.9,19.6,1.9c-0.9-2,0-4.7,0.3-6.7C49,94.8,49,90.3,49,85.9
			c0.1-8.3-0.7-16.6-0.6-24.9c0.2-17.3-1.2-34.6-1.3-51.9c-2.4,3.9-6.4,5.7-10.4,5.6c0,0.1,0,0.1,0.1,0.2
			C37.4,14.8,38,15.1,38.2,15.6z M9.7,26.4c0.2,0.6,0.1,1.1-0.3,1.4c-0.5,0.3-1.1,0-1.4-0.5c-0.3,0.5-0.9,0.7-1.4,0.5
			c-0.5-0.3-0.7-0.9-0.4-1.5c0,0,0,0,0,0c-0.7-0.3-1-1-0.7-1.6c0.3-0.6,1-0.9,1.7-0.6c0,0,0,0,0,0c0.1-0.7,0.5-1.2,1.1-1.2
			c0.6,0,1,0.5,1.1,1.2c0.6-0.1,1.2,0.2,1.3,0.8C10.7,25.5,10.4,26.2,9.7,26.4z M18.9,17.2c0.2,0.6,0.1,1.1-0.3,1.4
			c-0.5,0.3-1.1,0-1.4-0.5c-0.3,0.5-0.9,0.7-1.4,0.5c-0.5-0.3-0.7-0.9-0.4-1.5c0,0,0,0,0,0c-0.7-0.3-1-1-0.7-1.6
			c0.3-0.6,1-0.9,1.7-0.6c0,0,0,0,0,0c0.1-0.7,0.5-1.2,1.1-1.2c0.6,0,1,0.5,1.1,1.2c0.6-0.1,1.2,0.2,1.3,0.8
			C20,16.3,19.6,16.9,18.9,17.2z M28.1,100.2c0.2,0.5,0.1,1.1-0.3,1.4c-0.5,0.3-1.1,0-1.4-0.5c-0.3,0.5-0.9,0.7-1.4,0.5
			c-0.5-0.3-0.7-0.9-0.4-1.5c0,0,0,0,0,0c-0.7-0.3-1-1-0.7-1.6c0.3-0.6,1-0.9,1.7-0.6c0,0,0,0,0,0c0.1-0.7,0.5-1.2,1.1-1.2
			c0.6,0,1,0.5,1.1,1.2c0.6-0.1,1.2,0.2,1.3,0.8C29.2,99.3,28.8,99.9,28.1,100.2z M28.1,81.8c0.2,0.6,0.1,1.1-0.3,1.4
			c-0.5,0.3-1.1,0-1.4-0.5c-0.3,0.5-0.9,0.7-1.4,0.5c-0.5-0.3-0.7-0.9-0.4-1.5c0,0,0,0,0,0c-0.7-0.3-1-1-0.7-1.6
			c0.3-0.6,1-0.9,1.7-0.6c0,0,0,0,0,0c0.1-0.7,0.5-1.2,1.1-1.2c0.6,0,1,0.5,1.1,1.2c0.6-0.1,1.2,0.2,1.3,0.8
			C29.2,80.8,28.8,81.5,28.1,81.8z M28.1,44.9c0.2,0.5,0.1,1.1-0.3,1.4c-0.5,0.3-1.1,0-1.4-0.5c-0.3,0.5-0.9,0.8-1.4,0.5
			c-0.5-0.3-0.7-0.9-0.4-1.5c0,0,0,0,0,0c-0.7-0.3-1-1-0.7-1.6c0.3-0.6,1-0.9,1.7-0.6c0,0,0,0,0,0c0.1-0.7,0.5-1.2,1.1-1.2
			c0.6,0,1,0.5,1.1,1.2c0.6-0.1,1.2,0.2,1.3,0.8C29.2,43.9,28.8,44.6,28.1,44.9z M28.1,26.4c0.2,0.6,0.1,1.1-0.3,1.4
			c-0.5,0.3-1.1,0-1.4-0.5c-0.3,0.5-0.9,0.7-1.4,0.5c-0.5-0.3-0.7-0.9-0.4-1.5c0,0,0,0,0,0c-0.7-0.3-1-1-0.7-1.6
			c0.3-0.6,1-0.9,1.7-0.6c0,0,0,0,0,0c0.1-0.7,0.5-1.2,1.1-1.2c0.6,0,1,0.5,1.1,1.2c0.6-0.1,1.2,0.2,1.3,0.8
			C29.2,25.5,28.8,26.2,28.1,26.4z M37.4,91c0.2,0.6,0.1,1.1-0.3,1.4c-0.5,0.3-1.1,0-1.4-0.5c-0.3,0.5-0.9,0.7-1.4,0.5
			c-0.5-0.3-0.7-0.9-0.4-1.5c0,0,0,0,0,0c-0.7-0.3-1-1-0.7-1.6c0.3-0.6,1-0.9,1.7-0.6c0,0,0,0,0,0c0.1-0.7,0.5-1.2,1.1-1.2
			c0.6,0,1,0.5,1.1,1.2c0.6-0.1,1.2,0.2,1.3,0.8C38.4,90,38,90.7,37.4,91z M37.4,72.5c0.2,0.5,0.1,1.1-0.3,1.4
			c-0.5,0.3-1.1,0-1.4-0.5c-0.3,0.5-0.9,0.8-1.4,0.5c-0.5-0.3-0.7-0.9-0.4-1.5c0,0,0,0,0,0c-0.7-0.3-1-1-0.7-1.6
			c0.3-0.6,1-0.9,1.7-0.6c0,0,0,0,0,0c0.1-0.7,0.5-1.2,1.1-1.2c0.6,0,1,0.5,1.1,1.2c0.6-0.1,1.2,0.2,1.3,0.8
			C38.4,71.6,38,72.3,37.4,72.5z M37.4,54.1c0.2,0.6,0.1,1.1-0.3,1.4c-0.5,0.3-1.1,0-1.4-0.5c-0.3,0.5-0.9,0.8-1.4,0.5
			c-0.5-0.3-0.7-0.9-0.4-1.5c0,0,0,0,0,0c-0.7-0.3-1-1-0.7-1.6c0.3-0.6,1-0.9,1.7-0.6c0,0,0,0,0,0c0.1-0.7,0.5-1.2,1.1-1.2
			c0.6,0,1,0.5,1.1,1.2c0.6-0.1,1.2,0.2,1.3,0.8C38.4,53.2,38,53.8,37.4,54.1z M37.4,35.6c0.2,0.6,0.1,1.1-0.3,1.4
			c-0.5,0.3-1.1,0-1.4-0.5c-0.3,0.5-0.9,0.7-1.4,0.5c-0.5-0.3-0.7-0.9-0.4-1.5c0,0,0,0,0,0c-0.7-0.3-1-1-0.7-1.6
			c0.3-0.6,1-0.9,1.7-0.6c0,0,0,0,0,0c0.1-0.7,0.5-1.2,1.1-1.2c0.6,0,1,0.5,1.1,1.2c0.6-0.1,1.2,0.2,1.3,0.8
			C38.4,34.7,38,35.4,37.4,35.6z M42.2,24.7c0.3-0.6,1-0.9,1.7-0.6c0,0,0,0,0,0c0.1-0.7,0.5-1.2,1.1-1.2c0.6,0,1,0.5,1.1,1.2
			c0.6-0.1,1.2,0.2,1.3,0.8c0.2,0.6-0.2,1.3-0.8,1.5c0.2,0.6,0.1,1.1-0.3,1.4c-0.5,0.3-1.1,0-1.4-0.5c-0.3,0.5-0.9,0.7-1.4,0.5
			c-0.5-0.3-0.7-0.9-0.4-1.5c0,0,0,0,0,0C42.3,26,42,25.3,42.2,24.7z M42.2,43.1c0.3-0.6,1-0.9,1.7-0.6c0,0,0,0,0,0
			c0.1-0.7,0.5-1.2,1.1-1.2c0.6,0,1,0.5,1.1,1.2c0.6-0.1,1.2,0.2,1.3,0.8c0.2,0.6-0.2,1.3-0.8,1.5c0.2,0.5,0.1,1.1-0.3,1.4
			c-0.5,0.3-1.1,0-1.4-0.5c-0.3,0.5-0.9,0.8-1.4,0.5c-0.5-0.3-0.7-0.9-0.4-1.5c0,0,0,0,0,0C42.3,44.5,42,43.8,42.2,43.1z M42.2,61.6
			c0.3-0.6,1-0.9,1.7-0.6c0,0,0,0,0,0c0.1-0.7,0.5-1.2,1.1-1.2c0.6,0,1,0.5,1.1,1.2c0.6-0.1,1.2,0.2,1.3,0.8
			c0.2,0.6-0.2,1.3-0.8,1.5c0.2,0.6,0.1,1.1-0.3,1.4c-0.5,0.3-1.1,0-1.4-0.5c-0.3,0.5-0.9,0.7-1.4,0.5c-0.5-0.3-0.7-0.9-0.4-1.5
			c0,0,0,0,0,0C42.3,62.9,42,62.2,42.2,61.6z M42.2,80c0.3-0.6,1-0.9,1.7-0.6c0,0,0,0,0,0c0.1-0.7,0.5-1.2,1.1-1.2
			c0.6,0,1,0.5,1.1,1.2c0.6-0.1,1.2,0.2,1.3,0.8c0.2,0.6-0.2,1.3-0.8,1.5c0.2,0.6,0.1,1.1-0.3,1.4c-0.5,0.3-1.1,0-1.4-0.5
			c-0.3,0.5-0.9,0.7-1.4,0.5c-0.5-0.3-0.7-0.9-0.4-1.5c0,0,0,0,0,0C42.3,81.4,42,80.7,42.2,80z M42.2,98.5c0.3-0.6,1-0.9,1.7-0.6
			c0,0,0,0,0,0c0.1-0.7,0.5-1.2,1.1-1.2c0.6,0,1,0.5,1.1,1.2c0.6-0.1,1.2,0.2,1.3,0.8c0.2,0.6-0.2,1.3-0.8,1.5
			c0.2,0.5,0.1,1.1-0.3,1.4c-0.5,0.3-1.1,0-1.4-0.5c-0.3,0.5-0.9,0.7-1.4,0.5c-0.5-0.3-0.7-0.9-0.4-1.5c0,0,0,0,0,0
			C42.3,99.8,42,99.1,42.2,98.5z"/>
		<path fill="none" d="M46.2,9.4c-0.5,0.3-1.1,0-1.4-0.5c-0.3,0.5-0.9,0.7-1.4,0.5c-0.5-0.3-0.7-0.9-0.4-1.5c0,0,0,0,0,0
			c-0.4-0.2-0.6-0.5-0.7-0.9c-2.7-1.2-4.9-3.4-5.8-6.3c0.5,1.7-6.3,3.1-8.8,4.5c0.1,0.1,0.1,0.3,0.1,0.4c0.6-0.1,1.2,0.2,1.3,0.8
			C29.2,7,28.8,7.7,28.1,8c0.2,0.5,0.1,0.9-0.2,1.2c1.5,2.6,3.5,4.7,7,5c0.2-0.3,0.5-0.5,0.8-0.5c0.4,0,0.7,0.2,0.9,0.5
			c4.4-0.1,8.3-1.7,10.5-5.9c-0.2,0-0.3,0-0.5,0C46.7,8.7,46.6,9.1,46.2,9.4z"/>
		<circle fill="none" cx="35.5" cy="16.3" r="1"/>
		<circle fill="none" cx="44.8" cy="25.5" r="1"/>
		<circle fill="none" cx="26.3" cy="99.3" r="1"/>
		<circle fill="none" cx="26.3" cy="80.9" r="1"/>
		<circle fill="none" cx="26.3" cy="25.5" r="1"/>
		<circle fill="none" cx="35.5" cy="90.1" r="1"/>
		<circle fill="none" cx="35.5" cy="71.6" r="1"/>
		<circle fill="none" cx="26.3" cy="62.4" r="1"/>
		<circle fill="none" cx="17.1" cy="16.3" r="1"/>
		<path fill="none" d="M63,14c3.7-0.2,6.3-1.3,8.1-4.6c0.5-0.9,2.6-4,0.6-4.7c-2.3-0.8-4.6-1.4-6.7-2.6c-0.5-0.2-1.5-0.7-1.9-1.2
			c-0.2-0.3-0.2-0.5-0.2-0.6c0,0.1-0.1,0.2-0.2,0.4C60.6,5,56.8,7.2,52.2,8C54.3,12.1,58.3,14.2,63,14z M60.7,6.3
			c0.3-0.6,1-0.9,1.7-0.6c0,0,0,0,0,0c0.1-0.7,0.5-1.2,1.1-1.2c0.6,0,1,0.5,1.1,1.2c0.6-0.1,1.2,0.2,1.3,0.8C66.1,7,65.7,7.7,65,8
			c0.2,0.6,0.1,1.1-0.3,1.4c-0.5,0.3-1.1,0-1.4-0.5c-0.3,0.5-0.9,0.7-1.4,0.5c-0.5-0.3-0.7-0.9-0.4-1.5c0,0,0,0,0,0
			C60.7,7.6,60.4,6.9,60.7,6.3z"/>
		<circle fill="none" cx="35.5" cy="53.2" r="1"/>
		<circle fill="none" cx="35.5" cy="34.7" r="1"/>
		<path fill="none" d="M97.8,16.9c-1-3.6-2.7-9.5-5.2-12.2c-4.9-5.2-14.4-0.3-19.7,2C69.8,16.1,56.4,17.4,51.7,8
			c-0.8,0.1-1.7,0.2-2.6,0.3c-0.5,0-1,0-1.4,0c0,17.5,1.5,35,1.3,52.5c-0.1,8.9,0.7,17.8,0.5,26.6c-0.1,3.4,0.1,6.8-0.5,10.1
			c-0.4,2.4-1.7,6-0.6,8.3c0,0,0,0,0,0c0.8,0,1.7,0,2.5-0.1c6.9-0.3,13.8-0.9,20.6-2.2c1.4-0.3,2.9-0.5,4.3-0.9
			c1.7-0.4,2.4-5.8,2.3-6.9c-0.3-7-1.9-13.8-1.1-21c0.6-5.7,0.9-11.5,1.4-17.3c-1.8,1.7-4,2.8-6.6,3.2c-0.3,0-0.2-0.2,0.1-0.3
			c2.4-0.4,4.7-1.6,6.6-3.3c0,0,0,0,0,0c0,0,0.1-0.1,0.1-0.1c2.1-2,3.6-4.7,3.7-7.6c0.1-1.2-0.1-2.4-0.3-3.5
			c-0.1-0.1-0.2-0.2-0.2-0.3c-0.3,0.5-0.9,0.8-1.4,0.5c-0.5-0.3-0.7-0.9-0.4-1.5c0,0,0,0,0,0c-0.7-0.3-1-1-0.7-1.6
			c0.3-0.6,1-0.9,1.7-0.6c0,0,0,0,0,0c0-0.2,0.1-0.3,0.1-0.4c-0.6-1.7-1.2-3.4-1.7-5.2c-0.7-2.5-1.4-6.5,1.2-8.3
			c0.2-0.1,0.6,0,0.3,0.1c-1.8,1.2-2,3.4-1.6,5.6c2.5-1.5,5.1-2.1,7.9-2.8c3.6-0.9,7.2-2.2,9.9-4.9c0.3-0.3,0.6-0.6,0.8-1
			c-0.2-0.3-0.3-0.7-0.1-1.1c0.2-0.4,0.6-0.7,1.1-0.7C99.3,21.7,98.4,19.4,97.8,16.9z M49.9,9.5c0.8,0,1.5,0.7,1.5,1.5
			c0,0.8-0.7,1.5-1.5,1.5c-0.8,0-1.5-0.7-1.5-1.5C48.4,10.2,49,9.5,49.9,9.5z M48.7,18.2c0-0.6,0.4-1,1-1c0.6,0,1,0.4,1,1
			c0,0.6-0.4,1-1,1C49.2,19.2,48.7,18.8,48.7,18.2z M50,24.9c0.6,0,1,0.4,1,1c0,0.6-0.4,1-1,1c-0.6,0-1-0.4-1-1
			C49,25.4,49.5,24.9,50,24.9z M49.2,33.2c0-0.6,0.4-1,1-1c0.6,0,1,0.4,1,1c0,0.6-0.4,1-1,1C49.7,34.2,49.2,33.8,49.2,33.2z
			 M51.2,76.2c-0.6,0-1-0.4-1-1c0-0.6,0.4-1,1-1c0.6,0,1,0.4,1,1C52.2,75.8,51.8,76.2,51.2,76.2z M52.5,83.6c0,0.6-0.4,1-1,1
			c-0.6,0-1-0.4-1-1c0-0.6,0.4-1,1-1C52,82.6,52.5,83.1,52.5,83.6z M51.1,67.9c-0.6,0-1-0.4-1-1c0-0.6,0.4-1,1-1c0.6,0,1,0.4,1,1
			C52.1,67.4,51.7,67.9,51.1,67.9z M51.2,59.4c-0.6,0-1-0.4-1-1c0-0.6,0.4-1,1-1c0.6,0,1,0.4,1,1C52.2,58.9,51.8,59.4,51.2,59.4z
			 M51.1,50.1c-0.6,0-1-0.4-1-1c0-0.6,0.4-1,1-1c0.6,0,1,0.4,1,1C52.1,49.7,51.7,50.1,51.1,50.1z M50.7,41.4c-0.6,0-1-0.4-1-1
			c0-0.6,0.4-1,1-1c0.6,0,1,0.4,1,1C51.7,41,51.3,41.4,50.7,41.4z M50.7,101c-0.6,0-1-0.4-1-1c0-0.6,0.4-1,1-1c0.6,0,1,0.4,1,1
			C51.7,100.5,51.3,101,50.7,101z M55.8,91c0.2,0.6,0.1,1.1-0.3,1.4c-0.5,0.3-1.1,0-1.4-0.5c-0.3,0.5-0.9,0.7-1.4,0.5
			c-0.1,0-0.1-0.1-0.2-0.2c-0.2,0.2-0.5,0.4-0.8,0.4c-0.6,0-1-0.4-1-1c0-0.6,0.4-1,1-1c0.1,0,0.1,0,0.2,0c-0.4-0.3-0.6-0.9-0.4-1.4
			c0.3-0.6,1-0.9,1.7-0.6c0,0,0,0,0,0c0.1-0.7,0.5-1.2,1.1-1.2c0.6,0,1,0.5,1.1,1.2c0.6-0.1,1.2,0.2,1.3,0.8
			C56.8,90,56.5,90.7,55.8,91z M55.8,72.5c0.2,0.5,0.1,1.1-0.3,1.4c-0.5,0.3-1.1,0-1.4-0.5c-0.3,0.5-0.9,0.8-1.4,0.5
			c-0.5-0.3-0.7-0.9-0.4-1.5c0,0,0,0,0,0c-0.7-0.3-1-1-0.7-1.6c0.3-0.6,1-0.9,1.7-0.6c0,0,0,0,0,0c0.1-0.7,0.5-1.2,1.1-1.2
			c0.6,0,1,0.5,1.1,1.2c0.6-0.1,1.2,0.2,1.3,0.8C56.8,71.6,56.5,72.3,55.8,72.5z M55.8,54.1c0.2,0.6,0.1,1.1-0.3,1.4
			c-0.5,0.3-1.1,0-1.4-0.5c-0.3,0.5-0.9,0.8-1.4,0.5c-0.5-0.3-0.7-0.9-0.4-1.5c0,0,0,0,0,0c-0.7-0.3-1-1-0.7-1.6
			c0.3-0.6,1-0.9,1.7-0.6c0,0,0,0,0,0c0.1-0.7,0.5-1.2,1.1-1.2c0.6,0,1,0.5,1.1,1.2c0.6-0.1,1.2,0.2,1.3,0.8
			C56.8,53.2,56.5,53.8,55.8,54.1z M55.8,35.6c0.2,0.6,0.1,1.1-0.3,1.4c-0.5,0.3-1.1,0-1.4-0.5c-0.3,0.5-0.9,0.7-1.4,0.5
			c-0.5-0.3-0.7-0.9-0.4-1.5c0,0,0,0,0,0c-0.7-0.3-1-1-0.7-1.6c0.3-0.6,1-0.9,1.7-0.6c0,0,0,0,0,0c0.1-0.7,0.5-1.2,1.1-1.2
			c0.6,0,1,0.5,1.1,1.2c0.6-0.1,1.2,0.2,1.3,0.8C56.8,34.7,56.5,35.4,55.8,35.6z M55.8,17.2c0.2,0.6,0.1,1.1-0.3,1.4
			c-0.5,0.3-1.1,0-1.4-0.5c-0.3,0.5-0.9,0.7-1.4,0.5c-0.5-0.3-0.7-0.9-0.4-1.5c0,0,0,0,0,0c-0.7-0.3-1-1-0.7-1.6
			c0.3-0.6,1-0.9,1.7-0.6c0,0,0,0,0,0c0.1-0.7,0.5-1.2,1.1-1.2c0.6,0,1,0.5,1.1,1.2c0.6-0.1,1.2,0.2,1.3,0.8
			C56.8,16.3,56.5,16.9,55.8,17.2z M65,100.2c0.2,0.5,0.1,1.1-0.3,1.4c-0.5,0.3-1.1,0-1.4-0.5c-0.3,0.5-0.9,0.7-1.4,0.5
			c-0.5-0.3-0.7-0.9-0.4-1.5c0,0,0,0,0,0c-0.7-0.3-1-1-0.7-1.6c0.3-0.6,1-0.9,1.7-0.6c0,0,0,0,0,0c0.1-0.7,0.5-1.2,1.1-1.2
			c0.6,0,1,0.5,1.1,1.2c0.6-0.1,1.2,0.2,1.3,0.8C66.1,99.3,65.7,99.9,65,100.2z M65,81.8c0.2,0.6,0.1,1.1-0.3,1.4
			c-0.5,0.3-1.1,0-1.4-0.5c-0.3,0.5-0.9,0.7-1.4,0.5c-0.5-0.3-0.7-0.9-0.4-1.5c0,0,0,0,0,0c-0.7-0.3-1-1-0.7-1.6
			c0.3-0.6,1-0.9,1.7-0.6c0,0,0,0,0,0c0.1-0.7,0.5-1.2,1.1-1.2c0.6,0,1,0.5,1.1,1.2c0.6-0.1,1.2,0.2,1.3,0.8
			C66.1,80.8,65.7,81.5,65,81.8z M65,63.3c0.2,0.6,0.1,1.1-0.3,1.4c-0.5,0.3-1.1,0-1.4-0.5c-0.3,0.5-0.9,0.7-1.4,0.5
			c-0.5-0.3-0.7-0.9-0.4-1.5c0,0,0,0,0,0c-0.7-0.3-1-1-0.7-1.6c0.3-0.6,1-0.9,1.7-0.6c0,0,0,0,0,0c0.1-0.7,0.5-1.2,1.1-1.2
			c0.6,0,1,0.5,1.1,1.2c0.6-0.1,1.2,0.2,1.3,0.8C66.1,62.4,65.7,63.1,65,63.3z M65,44.9c0.2,0.5,0.1,1.1-0.3,1.4
			c-0.5,0.3-1.1,0-1.4-0.5c-0.3,0.5-0.9,0.8-1.4,0.5c-0.5-0.3-0.7-0.9-0.4-1.5c0,0,0,0,0,0c-0.7-0.3-1-1-0.7-1.6
			c0.3-0.6,1-0.9,1.7-0.6c0,0,0,0,0,0c0.1-0.7,0.5-1.2,1.1-1.2c0.6,0,1,0.5,1.1,1.2c0.6-0.1,1.2,0.2,1.3,0.8
			C66.1,43.9,65.7,44.6,65,44.9z M65,26.4c0.2,0.6,0.1,1.1-0.3,1.4c-0.5,0.3-1.1,0-1.4-0.5c-0.3,0.5-0.9,0.7-1.4,0.5
			c-0.5-0.3-0.7-0.9-0.4-1.5c0,0,0,0,0,0c-0.7-0.3-1-1-0.7-1.6c0.3-0.6,1-0.9,1.7-0.6c0,0,0,0,0,0c0.1-0.7,0.5-1.2,1.1-1.2
			c0.6,0,1,0.5,1.1,1.2c0.6-0.1,1.2,0.2,1.3,0.8C66.1,25.5,65.7,26.2,65,26.4z M74.3,91c0.2,0.6,0.1,1.1-0.3,1.4
			c-0.5,0.3-1.1,0-1.4-0.5c-0.3,0.5-0.9,0.7-1.4,0.5c-0.5-0.3-0.7-0.9-0.4-1.5c0,0,0,0,0,0c-0.7-0.3-1-1-0.7-1.6
			c0.3-0.6,1-0.9,1.7-0.6c0,0,0,0,0,0c0.1-0.7,0.5-1.2,1.1-1.2c0.6,0,1,0.5,1.1,1.2c0.6-0.1,1.2,0.2,1.3,0.8
			C75.3,90,74.9,90.7,74.3,91z M71.5,70.2C71.5,70.2,71.6,70.2,71.5,70.2c0.1-0.7,0.5-1.2,1.1-1.2c0.6,0,1,0.5,1.1,1.2
			c0.6-0.1,1.2,0.2,1.3,0.8c0.2,0.6-0.2,1.3-0.8,1.5c0.2,0.5,0.1,1.1-0.3,1.4c-0.5,0.3-1.1,0-1.4-0.5c-0.3,0.5-0.9,0.8-1.4,0.5
			c-0.5-0.3-0.7-0.9-0.4-1.5c0,0,0,0,0,0c-0.7-0.3-1-1-0.7-1.6C70.1,70.2,70.9,69.9,71.5,70.2z M74.3,54.1c0.2,0.6,0.1,1.1-0.3,1.4
			c-0.5,0.3-1.1,0-1.4-0.5c-0.3,0.5-0.9,0.8-1.4,0.5c-0.5-0.3-0.7-0.9-0.4-1.5c0,0,0,0,0,0c-0.7-0.3-1-1-0.7-1.6
			c0.3-0.6,1-0.9,1.7-0.6c0,0,0,0,0,0c0.1-0.7,0.5-1.2,1.1-1.2c0.6,0,1,0.5,1.1,1.2c0.6-0.1,1.2,0.2,1.3,0.8
			C75.3,53.2,74.9,53.8,74.3,54.1z M74.3,35.6c0.2,0.6,0.1,1.1-0.3,1.4c-0.5,0.3-1.1,0-1.4-0.5c-0.3,0.5-0.9,0.7-1.4,0.5
			c-0.5-0.3-0.7-0.9-0.4-1.5c0,0,0,0,0,0c-0.7-0.3-1-1-0.7-1.6c0.3-0.6,1-0.9,1.7-0.6c0,0,0,0,0,0c0.1-0.7,0.5-1.2,1.1-1.2
			c0.6,0,1,0.5,1.1,1.2c0.6-0.1,1.2,0.2,1.3,0.8C75.3,34.7,74.9,35.4,74.3,35.6z M74.3,17.2c0.2,0.6,0.1,1.1-0.3,1.4
			c-0.5,0.3-1.1,0-1.4-0.5c-0.3,0.5-0.9,0.7-1.4,0.5c-0.5-0.3-0.7-0.9-0.4-1.5c0,0,0,0,0,0c-0.7-0.3-1-1-0.7-1.6
			c0.3-0.6,1-0.9,1.7-0.6c0,0,0,0,0,0c0.1-0.7,0.5-1.2,1.1-1.2c0.6,0,1,0.5,1.1,1.2c0.6-0.1,1.2,0.2,1.3,0.8
			C75.3,16.3,74.9,16.9,74.3,17.2z M83.5,26.4c0.2,0.6,0.1,1.1-0.3,1.4c-0.5,0.3-1.1,0-1.4-0.5c-0.3,0.5-0.9,0.7-1.4,0.5
			c-0.5-0.3-0.7-0.9-0.4-1.5c0,0,0,0,0,0c-0.7-0.3-1-1-0.7-1.6c0.3-0.6,1-0.9,1.7-0.6c0,0,0,0,0,0c0.1-0.7,0.5-1.2,1.1-1.2
			c0.6,0,1,0.5,1.1,1.2c0.6-0.1,1.2,0.2,1.3,0.8C84.5,25.5,84.1,26.2,83.5,26.4z M83.5,8c0.2,0.6,0.1,1.1-0.3,1.4
			c-0.5,0.3-1.1,0-1.4-0.5c-0.3,0.5-0.9,0.7-1.4,0.5c-0.5-0.3-0.7-0.9-0.4-1.5c0,0,0,0,0,0c-0.7-0.3-1-1-0.7-1.6
			c0.3-0.6,1-0.9,1.7-0.6c0,0,0,0,0,0c0.1-0.7,0.5-1.2,1.1-1.2c0.6,0,1,0.5,1.1,1.2c0.6-0.1,1.2,0.2,1.3,0.8C84.5,7,84.1,7.7,83.5,8
			z M92.7,17.2c0.2,0.6,0.1,1.1-0.3,1.4c-0.5,0.3-1.1,0-1.4-0.5c-0.3,0.5-0.9,0.7-1.4,0.5c-0.5-0.3-0.7-0.9-0.4-1.5c0,0,0,0,0,0
			c-0.7-0.3-1-1-0.7-1.6c0.3-0.6,1-0.9,1.7-0.6c0,0,0,0,0,0c0.1-0.7,0.5-1.2,1.1-1.2c0.6,0,1,0.5,1.1,1.2c0.6-0.1,1.2,0.2,1.3,0.8
			C93.7,16.3,93.4,16.9,92.7,17.2z"/>
		<path fill="none" d="M44.8,8C44.9,8,45,8,45.1,8c-0.4-0.1-0.7-0.2-1.1-0.3C44.2,7.9,44.5,8,44.8,8z"/>
		<path fill="none" d="M26.6,6.4c0.2,0.4,0.3,0.8,0.5,1.1c0.1-0.1,0.2-0.3,0.2-0.5c0-0.4-0.3-0.8-0.7-0.9
			C26.6,6.2,26.6,6.3,26.6,6.4z"/>
		<path fill="none" d="M26.1,6.1c-0.1,0-0.3,0.1-0.4,0.2c0.2,0.1,0.3,0.1,0.5,0.2C26.1,6.4,26.1,6.3,26.1,6.1z"/>
		<circle fill="none" cx="26.3" cy="44" r="1"/>
		<circle fill="none" cx="63.2" cy="7.1" r="1"/>
		<path fill="#8CC541" d="M18.4,14.9c-0.1-0.7-0.5-1.2-1.1-1.2c-0.6,0-1,0.5-1.1,1.2c0,0,0,0,0,0c-0.7-0.3-1.4,0-1.7,0.6
			c-0.3,0.6,0.1,1.3,0.7,1.6c0,0,0,0,0,0c-0.3,0.5-0.1,1.2,0.4,1.5c0.5,0.3,1.1,0.1,1.4-0.5c0.4,0.5,1,0.7,1.4,0.5
			c0.4-0.2,0.6-0.8,0.3-1.4c0.7-0.3,1-0.9,0.8-1.5C19.6,15.1,19,14.8,18.4,14.9z M17.1,17.3c-0.5,0-1-0.4-1-1c0-0.5,0.4-1,1-1
			c0.5,0,1,0.4,1,1C18.1,16.8,17.6,17.3,17.1,17.3z"/>
		<path fill="#8CC541" d="M34.7,14.9C34.7,14.9,34.7,14.8,34.7,14.9c-0.7-0.3-1.4,0-1.7,0.6c-0.3,0.6,0.1,1.3,0.7,1.6c0,0,0,0,0,0
			c-0.3,0.5-0.1,1.2,0.4,1.5c0.5,0.3,1.1,0.1,1.4-0.5c0.4,0.5,1,0.7,1.4,0.5c0.4-0.2,0.6-0.8,0.3-1.4c0.7-0.3,1-0.9,0.8-1.5
			c-0.2-0.5-0.7-0.8-1.3-0.8c0-0.1,0-0.2-0.1-0.2c-0.7,0-1.3-0.1-2-0.2C34.7,14.5,34.7,14.7,34.7,14.9z M36.5,16.3c0,0.5-0.4,1-1,1
			c-0.5,0-1-0.4-1-1c0-0.5,0.4-1,1-1C36.1,15.3,36.5,15.8,36.5,16.3z"/>
		<path fill="#8CC541" d="M35.8,13.7c-0.3,0-0.6,0.2-0.8,0.5c0,0,0.1,0,0.1,0c0.5,0,1.1,0,1.6,0C36.4,13.9,36.1,13.7,35.8,13.7z"/>
		<path fill="#8CC541" d="M55.3,14.9c-0.1-0.7-0.5-1.2-1.1-1.2c-0.6,0-1,0.5-1.1,1.2c0,0,0,0,0,0c-0.7-0.3-1.4,0-1.7,0.6
			c-0.3,0.6,0.1,1.3,0.7,1.6c0,0,0,0,0,0c-0.3,0.5-0.1,1.2,0.4,1.5c0.5,0.3,1.1,0.1,1.4-0.5c0.4,0.5,1,0.7,1.4,0.5
			c0.4-0.2,0.6-0.8,0.3-1.4c0.7-0.3,1-0.9,0.8-1.5C56.5,15.1,55.9,14.8,55.3,14.9z M54,17.3c-0.5,0-1-0.4-1-1c0-0.5,0.4-1,1-1
			c0.5,0,1,0.4,1,1C55,16.8,54.5,17.3,54,17.3z"/>
		<path fill="#8CC541" d="M73.7,14.9c-0.1-0.7-0.5-1.2-1.1-1.2c-0.6,0-1,0.5-1.1,1.2c0,0,0,0,0,0c-0.7-0.3-1.4,0-1.7,0.6
			c-0.3,0.6,0.1,1.3,0.7,1.6c0,0,0,0,0,0c-0.3,0.5-0.1,1.2,0.4,1.5c0.5,0.3,1.1,0.1,1.4-0.5c0.4,0.5,1,0.7,1.4,0.5
			c0.4-0.2,0.6-0.8,0.3-1.4c0.7-0.3,1-0.9,0.8-1.5C74.9,15.1,74.3,14.8,73.7,14.9z M72.4,17.3c-0.5,0-1-0.4-1-1c0-0.5,0.4-1,1-1
			c0.5,0,1,0.4,1,1C73.4,16.8,73,17.3,72.4,17.3z"/>
		<path fill="#8CC541" d="M92.2,14.9c-0.1-0.7-0.5-1.2-1.1-1.2c-0.6,0-1,0.5-1.1,1.2c0,0,0,0,0,0c-0.7-0.3-1.4,0-1.7,0.6
			c-0.3,0.6,0.1,1.3,0.7,1.6c0,0,0,0,0,0c-0.3,0.5-0.1,1.2,0.4,1.5c0.5,0.3,1.1,0.1,1.4-0.5c0.4,0.5,1,0.7,1.4,0.5
			c0.4-0.2,0.6-0.8,0.3-1.4c0.7-0.3,1-0.9,0.8-1.5C93.3,15.1,92.8,14.8,92.2,14.9z M90.9,17.3c-0.5,0-1-0.4-1-1c0-0.5,0.4-1,1-1
			c0.5,0,1,0.4,1,1C91.8,16.8,91.4,17.3,90.9,17.3z"/>
		<path fill="#8CC541" d="M18.4,33.3c-0.1-0.7-0.5-1.2-1.1-1.2c-0.5,0-0.8,0.3-1,0.8c1.2,0.4,2.4,0.9,3.5,1.4c0-0.1,0-0.2,0-0.2
			C19.6,33.6,19,33.2,18.4,33.3z"/>
		<path fill="#8CC541" d="M36.8,33.3c-0.1-0.7-0.5-1.2-1.1-1.2c-0.6,0-1,0.5-1.1,1.2c0,0,0,0,0,0c-0.7-0.3-1.4,0-1.7,0.6
			c-0.3,0.6,0.1,1.3,0.7,1.6c0,0,0,0,0,0c-0.3,0.5-0.1,1.2,0.4,1.5c0.5,0.3,1.1,0.1,1.4-0.5c0.4,0.5,1,0.7,1.4,0.5
			c0.4-0.2,0.6-0.8,0.3-1.4c0.7-0.3,1-0.9,0.8-1.5C38,33.6,37.4,33.2,36.8,33.3z M35.5,35.7c-0.5,0-1-0.4-1-1c0-0.5,0.4-1,1-1
			c0.5,0,1,0.4,1,1C36.5,35.3,36.1,35.7,35.5,35.7z"/>
		<path fill="#8CC541" d="M55.3,33.3c-0.1-0.7-0.5-1.2-1.1-1.2c-0.6,0-1,0.5-1.1,1.2c0,0,0,0,0,0c-0.7-0.3-1.4,0-1.7,0.6
			c-0.3,0.6,0.1,1.3,0.7,1.6c0,0,0,0,0,0c-0.3,0.5-0.1,1.2,0.4,1.5c0.5,0.3,1.1,0.1,1.4-0.5c0.4,0.5,1,0.7,1.4,0.5
			c0.4-0.2,0.6-0.8,0.3-1.4c0.7-0.3,1-0.9,0.8-1.5C56.5,33.6,55.9,33.2,55.3,33.3z M54,35.7c-0.5,0-1-0.4-1-1c0-0.5,0.4-1,1-1
			c0.5,0,1,0.4,1,1C55,35.3,54.5,35.7,54,35.7z"/>
		<path fill="#8CC541" d="M73.7,33.3c-0.1-0.7-0.5-1.2-1.1-1.2c-0.6,0-1,0.5-1.1,1.2c0,0,0,0,0,0c-0.7-0.3-1.4,0-1.7,0.6
			c-0.3,0.6,0.1,1.3,0.7,1.6c0,0,0,0,0,0c-0.3,0.5-0.1,1.2,0.4,1.5c0.5,0.3,1.1,0.1,1.4-0.5c0.4,0.5,1,0.7,1.4,0.5
			c0.4-0.2,0.6-0.8,0.3-1.4c0.7-0.3,1-0.9,0.8-1.5C74.9,33.6,74.3,33.2,73.7,33.3z M72.4,35.7c-0.5,0-1-0.4-1-1c0-0.5,0.4-1,1-1
			c0.5,0,1,0.4,1,1C73.4,35.3,73,35.7,72.4,35.7z"/>
		<path fill="#8CC541" d="M19.7,52.5c-0.2-0.5-0.7-0.8-1.3-0.8c0-0.5-0.4-1-0.8-1.1c0.1,0.6,0.3,1.2,0.6,1.8
			c0.2,0.6,0.5,1.1,0.8,1.6C19.6,53.7,19.9,53.1,19.7,52.5z"/>
		<path fill="#8CC541" d="M36.8,51.8c-0.1-0.7-0.5-1.2-1.1-1.2c-0.6,0-1,0.5-1.1,1.2c0,0,0,0,0,0c-0.7-0.3-1.4,0-1.7,0.6
			c-0.3,0.6,0.1,1.3,0.7,1.6c0,0,0,0,0,0c-0.3,0.5-0.1,1.2,0.4,1.5c0.5,0.3,1.1,0.1,1.4-0.5c0.4,0.5,1,0.7,1.4,0.5
			c0.4-0.2,0.6-0.8,0.3-1.4c0.7-0.3,1-0.9,0.8-1.5C38,52,37.4,51.7,36.8,51.8z M35.5,54.2c-0.5,0-1-0.4-1-1c0-0.5,0.4-1,1-1
			c0.5,0,1,0.4,1,1C36.5,53.7,36.1,54.2,35.5,54.2z"/>
		<path fill="#8CC541" d="M55.3,51.8c-0.1-0.7-0.5-1.2-1.1-1.2c-0.6,0-1,0.5-1.1,1.2c0,0,0,0,0,0c-0.7-0.3-1.4,0-1.7,0.6
			c-0.3,0.6,0.1,1.3,0.7,1.6c0,0,0,0,0,0c-0.3,0.5-0.1,1.2,0.4,1.5c0.5,0.3,1.1,0.1,1.4-0.5c0.4,0.5,1,0.7,1.4,0.5
			c0.4-0.2,0.6-0.8,0.3-1.4c0.7-0.3,1-0.9,0.8-1.5C56.5,52,55.9,51.7,55.3,51.8z M54,54.2c-0.5,0-1-0.4-1-1c0-0.5,0.4-1,1-1
			c0.5,0,1,0.4,1,1C55,53.7,54.5,54.2,54,54.2z"/>
		<path fill="#8CC541" d="M73.7,51.8c-0.1-0.7-0.5-1.2-1.1-1.2c-0.6,0-1,0.5-1.1,1.2c0,0,0,0,0,0c-0.7-0.3-1.4,0-1.7,0.6
			c-0.3,0.6,0.1,1.3,0.7,1.6c0,0,0,0,0,0c-0.3,0.5-0.1,1.2,0.4,1.5c0.5,0.3,1.1,0.1,1.4-0.5c0.4,0.5,1,0.7,1.4,0.5
			c0.4-0.2,0.6-0.8,0.3-1.4c0.7-0.3,1-0.9,0.8-1.5C74.9,52,74.3,51.7,73.7,51.8z M72.4,54.2c-0.5,0-1-0.4-1-1c0-0.5,0.4-1,1-1
			c0.5,0,1,0.4,1,1C73.4,53.7,73,54.2,72.4,54.2z"/>
		<path fill="#8CC541" d="M36.8,70.2c-0.1-0.7-0.5-1.2-1.1-1.2c-0.6,0-1,0.5-1.1,1.2c0,0,0,0,0,0c-0.7-0.3-1.4,0-1.7,0.6
			c-0.3,0.6,0.1,1.3,0.7,1.6c0,0,0,0,0,0c-0.3,0.5-0.1,1.2,0.4,1.5c0.5,0.3,1.1,0.1,1.4-0.5c0.4,0.5,1,0.7,1.4,0.5
			c0.4-0.2,0.6-0.8,0.3-1.4c0.7-0.3,1-0.9,0.8-1.5C38,70.4,37.4,70.1,36.8,70.2z M35.5,72.6c-0.5,0-1-0.4-1-1c0-0.5,0.4-1,1-1
			c0.5,0,1,0.4,1,1C36.5,72.2,36.1,72.6,35.5,72.6z"/>
		<path fill="#8CC541" d="M55.3,70.2c-0.1-0.7-0.5-1.2-1.1-1.2c-0.6,0-1,0.5-1.1,1.2c0,0,0,0,0,0c-0.7-0.3-1.4,0-1.7,0.6
			c-0.3,0.6,0.1,1.3,0.7,1.6c0,0,0,0,0,0c-0.3,0.5-0.1,1.2,0.4,1.5c0.5,0.3,1.1,0.1,1.4-0.5c0.4,0.5,1,0.7,1.4,0.5
			c0.4-0.2,0.6-0.8,0.3-1.4c0.7-0.3,1-0.9,0.8-1.5C56.5,70.4,55.9,70.1,55.3,70.2z M54,72.6c-0.5,0-1-0.4-1-1c0-0.5,0.4-1,1-1
			c0.5,0,1,0.4,1,1C55,72.2,54.5,72.6,54,72.6z"/>
		<path fill="#8CC541" d="M69.9,70.8c-0.3,0.6,0.1,1.3,0.7,1.6c0,0,0,0,0,0c-0.3,0.5-0.1,1.2,0.4,1.5c0.5,0.3,1.1,0.1,1.4-0.5
			c0.4,0.5,1,0.7,1.4,0.5c0.4-0.2,0.6-0.8,0.3-1.4c0.7-0.3,1-0.9,0.8-1.5c-0.2-0.5-0.7-0.8-1.3-0.8c-0.1-0.7-0.5-1.2-1.1-1.2
			c-0.6,0-1,0.5-1.1,1.2c0,0,0,0,0,0C70.9,69.9,70.1,70.2,69.9,70.8z M72.4,70.7c0.5,0,1,0.4,1,1c0,0.5-0.4,1-1,1c-0.5,0-1-0.4-1-1
			C71.5,71.1,71.9,70.7,72.4,70.7z"/>
		<path fill="#8CC541" d="M36.8,88.7c-0.1-0.7-0.5-1.2-1.1-1.2c-0.6,0-1,0.5-1.1,1.2c0,0,0,0,0,0c-0.7-0.3-1.4,0-1.7,0.6
			c-0.3,0.6,0.1,1.3,0.7,1.6c0,0,0,0,0,0c-0.3,0.5-0.1,1.2,0.4,1.5c0.5,0.3,1.1,0.1,1.4-0.5c0.4,0.5,1,0.7,1.4,0.5
			c0.4-0.2,0.6-0.8,0.3-1.4c0.7-0.3,1-0.9,0.8-1.5C38,88.9,37.4,88.6,36.8,88.7z M35.5,91.1c-0.5,0-1-0.4-1-1c0-0.5,0.4-1,1-1
			c0.5,0,1,0.4,1,1C36.5,90.6,36.1,91.1,35.5,91.1z"/>
		<path fill="#8CC541" d="M55.3,88.7c-0.1-0.7-0.5-1.2-1.1-1.2c-0.6,0-1,0.5-1.1,1.2c0,0,0,0,0,0c-0.7-0.3-1.4,0-1.7,0.6
			c-0.2,0.5,0,1,0.4,1.4c0.5,0.1,0.8,0.5,0.8,1c0,0.2-0.1,0.4-0.2,0.6c0.1,0.1,0.1,0.1,0.2,0.2c0.5,0.3,1.1,0.1,1.4-0.5
			c0.4,0.5,1,0.7,1.4,0.5c0.4-0.2,0.6-0.8,0.3-1.4c0.7-0.3,1-0.9,0.8-1.5C56.5,88.9,55.9,88.6,55.3,88.7z M54,91.1c-0.5,0-1-0.4-1-1
			c0-0.5,0.4-1,1-1c0.5,0,1,0.4,1,1C55,90.6,54.5,91.1,54,91.1z"/>
		<path fill="#8CC541" d="M73.7,88.7c-0.1-0.7-0.5-1.2-1.1-1.2c-0.6,0-1,0.5-1.1,1.2c0,0,0,0,0,0c-0.7-0.3-1.4,0-1.7,0.6
			c-0.3,0.6,0.1,1.3,0.7,1.6c0,0,0,0,0,0c-0.3,0.5-0.1,1.2,0.4,1.5c0.5,0.3,1.1,0.1,1.4-0.5c0.4,0.5,1,0.7,1.4,0.5
			c0.4-0.2,0.6-0.8,0.3-1.4c0.7-0.3,1-0.9,0.8-1.5C74.9,88.9,74.3,88.6,73.7,88.7z M72.4,91.1c-0.5,0-1-0.4-1-1c0-0.5,0.4-1,1-1
			c0.5,0,1,0.4,1,1C73.4,90.6,73,91.1,72.4,91.1z"/>
		<path fill="#8CC541" d="M6,7.9C6,7.9,6.1,7.9,6,7.9C5.8,8.4,6,9.1,6.5,9.4C7,9.6,7.6,9.4,7.9,8.9c0.4,0.5,1,0.7,1.4,0.5
			C9.8,9.1,9.9,8.5,9.7,8c0.7-0.3,1-0.9,0.8-1.5c-0.2-0.5-0.7-0.8-1.3-0.8C9.1,5,8.7,4.4,8.1,4.4C7.5,4.4,7.1,5,7,5.6c0,0,0,0,0,0
			C6.5,5.4,5.9,5.5,5.6,5.9C5.5,6.1,5.4,6.2,5.3,6.3C5.1,6.9,5.4,7.6,6,7.9z M7.9,6.1c0.5,0,1,0.4,1,1c0,0.5-0.4,1-1,1
			c-0.5,0-1-0.4-1-1C6.9,6.5,7.3,6.1,7.9,6.1z"/>
		<path fill="#8CC541" d="M24.5,7.9C24.5,7.9,24.5,7.9,24.5,7.9c-0.2,0.6-0.1,1.2,0.4,1.5c0.5,0.3,1.1,0.1,1.4-0.5
			c0.3,0.4,0.7,0.6,1.1,0.6c-0.3-0.5-0.6-1-0.8-1.5C26.6,8,26.5,8,26.3,8c-0.5,0-1-0.4-1-1c0-0.2,0.1-0.3,0.1-0.5
			C25,6.4,24.5,6.2,24,6c-0.1,0.1-0.2,0.2-0.2,0.3C23.5,6.9,23.8,7.6,24.5,7.9z"/>
		<path fill="#8CC541" d="M27.3,7.1c0,0.2-0.1,0.3-0.2,0.5c0.3,0.6,0.5,1.1,0.8,1.6c0.3-0.3,0.4-0.8,0.2-1.2c0.7-0.3,1-0.9,0.8-1.5
			c-0.2-0.5-0.7-0.8-1.3-0.8c0-0.2-0.1-0.3-0.1-0.4c-0.5,0.3-0.9,0.6-0.9,1C27,6.3,27.3,6.6,27.3,7.1z"/>
		<path fill="#8CC541" d="M44.8,8c-0.3,0-0.5-0.1-0.7-0.3c-0.6-0.2-1.3-0.4-1.8-0.7c0.1,0.4,0.3,0.7,0.7,0.9c0,0,0,0,0,0
			c-0.3,0.5-0.1,1.2,0.4,1.5c0.5,0.3,1.1,0.1,1.4-0.5c0.4,0.5,1,0.7,1.4,0.5c0.4-0.2,0.5-0.7,0.4-1.1c-0.5-0.1-1-0.1-1.5-0.2
			C45,8,44.9,8,44.8,8z"/>
		<path fill="#8CC541" d="M61.4,7.9C61.4,7.9,61.4,7.9,61.4,7.9c-0.2,0.6-0.1,1.2,0.4,1.5c0.5,0.3,1.1,0.1,1.4-0.5
			c0.4,0.5,1,0.7,1.4,0.5C65.1,9.1,65.2,8.5,65,8c0.7-0.3,1-0.9,0.8-1.5c-0.2-0.5-0.7-0.8-1.3-0.8C64.5,5,64,4.4,63.4,4.4
			c-0.6,0-1,0.5-1.1,1.2c0,0,0,0,0,0c-0.7-0.3-1.4,0-1.7,0.6C60.4,6.9,60.7,7.6,61.4,7.9z M63.2,6.1c0.5,0,1,0.4,1,1
			c0,0.5-0.4,1-1,1c-0.5,0-1-0.4-1-1C62.2,6.5,62.7,6.1,63.2,6.1z"/>
		<path fill="#8CC541" d="M83,5.6c-0.1-0.7-0.5-1.2-1.1-1.2c-0.6,0-1,0.5-1.1,1.2c0,0,0,0,0,0c-0.7-0.3-1.4,0-1.7,0.6
			c-0.3,0.6,0.1,1.3,0.7,1.6c0,0,0,0,0,0c-0.3,0.5-0.1,1.2,0.4,1.5c0.5,0.3,1.1,0.1,1.4-0.5c0.4,0.5,1,0.7,1.4,0.5
			c0.4-0.2,0.6-0.8,0.3-1.4c0.7-0.3,1-0.9,0.8-1.5C84.1,5.9,83.6,5.6,83,5.6z M81.7,8c-0.5,0-1-0.4-1-1c0-0.5,0.4-1,1-1
			c0.5,0,1,0.4,1,1C82.6,7.6,82.2,8,81.7,8z"/>
		<path fill="#8CC541" d="M9.2,24.1c-0.1-0.7-0.5-1.2-1.1-1.2c-0.6,0-1,0.5-1.1,1.2c0,0,0,0,0,0c-0.7-0.3-1.4,0-1.7,0.6
			C5.1,25.3,5.4,26,6,26.3c0,0,0,0,0,0c-0.3,0.5-0.1,1.2,0.4,1.5c0.5,0.3,1.1,0.1,1.4-0.5c0.4,0.5,1,0.7,1.4,0.5
			c0.4-0.2,0.6-0.8,0.3-1.4c0.7-0.3,1-0.9,0.8-1.5C10.3,24.3,9.8,24,9.2,24.1z M7.9,26.5c-0.5,0-1-0.4-1-1c0-0.5,0.4-1,1-1
			c0.5,0,1,0.4,1,1C8.8,26.1,8.4,26.5,7.9,26.5z"/>
		<path fill="#8CC541" d="M27.6,24.1c-0.1-0.7-0.5-1.2-1.1-1.2c-0.6,0-1,0.5-1.1,1.2c0,0,0,0,0,0c-0.7-0.3-1.4,0-1.7,0.6
			c-0.3,0.6,0.1,1.3,0.7,1.6c0,0,0,0,0,0c-0.3,0.5-0.1,1.2,0.4,1.5c0.5,0.3,1.1,0.1,1.4-0.5c0.4,0.5,1,0.7,1.4,0.5
			c0.4-0.2,0.6-0.8,0.3-1.4c0.7-0.3,1-0.9,0.8-1.5C28.8,24.3,28.2,24,27.6,24.1z M26.3,26.5c-0.5,0-1-0.4-1-1c0-0.5,0.4-1,1-1
			c0.5,0,1,0.4,1,1C27.3,26.1,26.8,26.5,26.3,26.5z"/>
		<path fill="#8CC541" d="M42.9,26.3C42.9,26.3,43,26.3,42.9,26.3c-0.2,0.6-0.1,1.2,0.4,1.5c0.5,0.3,1.1,0.1,1.4-0.5
			c0.4,0.5,1,0.7,1.4,0.5c0.4-0.2,0.6-0.8,0.3-1.4c0.7-0.3,1-0.9,0.8-1.5c-0.2-0.5-0.7-0.8-1.3-0.8c-0.1-0.7-0.5-1.2-1.1-1.2
			c-0.6,0-1,0.5-1.1,1.2c0,0,0,0,0,0c-0.7-0.3-1.4,0-1.7,0.6C42,25.3,42.3,26,42.9,26.3z M44.8,24.5c0.5,0,1,0.4,1,1
			c0,0.5-0.4,1-1,1c-0.5,0-1-0.4-1-1C43.8,25,44.2,24.5,44.8,24.5z"/>
		<path fill="#8CC541" d="M64.5,24.1c-0.1-0.7-0.5-1.2-1.1-1.2c-0.6,0-1,0.5-1.1,1.2c0,0,0,0,0,0c-0.7-0.3-1.4,0-1.7,0.6
			c-0.3,0.6,0.1,1.3,0.7,1.6c0,0,0,0,0,0c-0.3,0.5-0.1,1.2,0.4,1.5c0.5,0.3,1.1,0.1,1.4-0.5c0.4,0.5,1,0.7,1.4,0.5
			c0.4-0.2,0.6-0.8,0.3-1.4c0.7-0.3,1-0.9,0.8-1.5C65.7,24.3,65.1,24,64.5,24.1z M63.2,26.5c-0.5,0-1-0.4-1-1c0-0.5,0.4-1,1-1
			c0.5,0,1,0.4,1,1C64.2,26.1,63.7,26.5,63.2,26.5z"/>
		<path fill="#8CC541" d="M83,24.1c-0.1-0.7-0.5-1.2-1.1-1.2c-0.6,0-1,0.5-1.1,1.2c0,0,0,0,0,0c-0.7-0.3-1.4,0-1.7,0.6
			c-0.3,0.6,0.1,1.3,0.7,1.6c0,0,0,0,0,0c-0.3,0.5-0.1,1.2,0.4,1.5c0.5,0.3,1.1,0.1,1.4-0.5c0.4,0.5,1,0.7,1.4,0.5
			c0.4-0.2,0.6-0.8,0.3-1.4c0.7-0.3,1-0.9,0.8-1.5C84.1,24.3,83.6,24,83,24.1z M81.7,26.5c-0.5,0-1-0.4-1-1c0-0.5,0.4-1,1-1
			c0.5,0,1,0.4,1,1C82.6,26.1,82.2,26.5,81.7,26.5z"/>
		<path fill="#8CC541" d="M97.6,24.7c-0.2,0.4-0.1,0.8,0.1,1.1c0.4-0.6,0.7-1.2,0.9-1.8C98.2,24,97.7,24.3,97.6,24.7z"/>
		<path fill="#8CC541" d="M27.6,42.5c-0.1-0.7-0.5-1.2-1.1-1.2c-0.6,0-1,0.5-1.1,1.2c0,0,0,0,0,0c-0.7-0.3-1.4,0-1.7,0.6
			c-0.3,0.6,0.1,1.3,0.7,1.6c0,0,0,0,0,0c-0.3,0.5-0.1,1.2,0.4,1.5c0.5,0.3,1.1,0.1,1.4-0.5c0.4,0.5,1,0.7,1.4,0.5
			c0.4-0.2,0.6-0.8,0.3-1.4c0.7-0.3,1-0.9,0.8-1.5C28.8,42.8,28.2,42.5,27.6,42.5z M26.3,44.9c-0.5,0-1-0.4-1-1c0-0.5,0.4-1,1-1
			c0.5,0,1,0.4,1,1C27.3,44.5,26.8,44.9,26.3,44.9z"/>
		<path fill="#8CC541" d="M42.9,44.8C42.9,44.8,43,44.8,42.9,44.8c-0.2,0.6-0.1,1.2,0.4,1.5c0.5,0.3,1.1,0.1,1.4-0.5
			c0.4,0.5,1,0.7,1.4,0.5c0.4-0.2,0.6-0.8,0.3-1.4c0.7-0.3,1-0.9,0.8-1.5c-0.2-0.5-0.7-0.8-1.3-0.8c-0.1-0.7-0.5-1.2-1.1-1.2
			c-0.6,0-1,0.5-1.1,1.2c0,0,0,0,0,0c-0.7-0.3-1.4,0-1.7,0.6C42,43.8,42.3,44.5,42.9,44.8z M44.8,43c0.5,0,1,0.4,1,1
			c0,0.5-0.4,1-1,1c-0.5,0-1-0.4-1-1C43.8,43.4,44.2,43,44.8,43z"/>
		<path fill="#8CC541" d="M64.5,42.5c-0.1-0.7-0.5-1.2-1.1-1.2c-0.6,0-1,0.5-1.1,1.2c0,0,0,0,0,0c-0.7-0.3-1.4,0-1.7,0.6
			c-0.3,0.6,0.1,1.3,0.7,1.6c0,0,0,0,0,0c-0.3,0.5-0.1,1.2,0.4,1.5c0.5,0.3,1.1,0.1,1.4-0.5c0.4,0.5,1,0.7,1.4,0.5
			c0.4-0.2,0.6-0.8,0.3-1.4c0.7-0.3,1-0.9,0.8-1.5C65.7,42.8,65.1,42.5,64.5,42.5z M63.2,44.9c-0.5,0-1-0.4-1-1c0-0.5,0.4-1,1-1
			c0.5,0,1,0.4,1,1C64.2,44.5,63.7,44.9,63.2,44.9z"/>
		<path fill="#8CC541" d="M80.8,42.5c-0.7-0.3-1.4,0-1.7,0.6c-0.3,0.6,0.1,1.3,0.7,1.6c0,0,0,0,0,0c-0.3,0.5-0.1,1.2,0.4,1.5
			c0.5,0.3,1.1,0.1,1.4-0.5c0.1,0.1,0.2,0.2,0.2,0.3c-0.1-0.4-0.1-0.7-0.2-1.1c0,0,0,0,0,0c-0.5,0-1-0.4-1-1c0-0.4,0.2-0.7,0.5-0.9
			c-0.1-0.3-0.2-0.7-0.3-1C80.8,42.2,80.8,42.4,80.8,42.5C80.8,42.5,80.8,42.5,80.8,42.5z"/>
		<path fill="#8CC541" d="M25.4,61c-0.7-0.3-1.4,0-1.7,0.6c-0.3,0.6,0.1,1.3,0.7,1.6c0,0,0,0,0,0c-0.3,0.5-0.1,1.2,0.4,1.5
			c0.5,0.3,1.1,0.1,1.4-0.5c0.4,0.5,1,0.7,1.4,0.5c0.4-0.2,0.6-0.8,0.3-1.4c0.7-0.3,1-0.9,0.8-1.5c-0.2-0.5-0.7-0.8-1.3-0.8
			c0-0.1,0-0.1,0-0.2c-0.6-0.1-1.3-0.3-1.9-0.5C25.6,60.5,25.5,60.7,25.4,61C25.4,61,25.4,61,25.4,61z M26.3,61.4c0.5,0,1,0.4,1,1
			c0,0.5-0.4,1-1,1c-0.5,0-1-0.4-1-1C25.3,61.9,25.8,61.4,26.3,61.4z"/>
		<path fill="#8CC541" d="M26.5,59.8c-0.2,0-0.4,0.1-0.6,0.2c0.5,0.2,1,0.3,1.5,0.4C27.3,60,26.9,59.8,26.5,59.8z"/>
		<path fill="#8CC541" d="M42.9,63.2C42.9,63.2,43,63.2,42.9,63.2c-0.2,0.6-0.1,1.2,0.4,1.5c0.5,0.3,1.1,0.1,1.4-0.5
			c0.4,0.5,1,0.7,1.4,0.5c0.4-0.2,0.6-0.8,0.3-1.4c0.7-0.3,1-0.9,0.8-1.5c-0.2-0.5-0.7-0.8-1.3-0.8c-0.1-0.7-0.5-1.2-1.1-1.2
			c-0.6,0-1,0.5-1.1,1.2c0,0,0,0,0,0c-0.7-0.3-1.4,0-1.7,0.6C42,62.2,42.3,62.9,42.9,63.2z M44.8,61.4c0.5,0,1,0.4,1,1
			c0,0.5-0.4,1-1,1c-0.5,0-1-0.4-1-1C43.8,61.9,44.2,61.4,44.8,61.4z"/>
		<path fill="#8CC541" d="M64.5,61c-0.1-0.7-0.5-1.2-1.1-1.2c-0.6,0-1,0.5-1.1,1.2c0,0,0,0,0,0c-0.7-0.3-1.4,0-1.7,0.6
			c-0.3,0.6,0.1,1.3,0.7,1.6c0,0,0,0,0,0c-0.3,0.5-0.1,1.2,0.4,1.5c0.5,0.3,1.1,0.1,1.4-0.5c0.4,0.5,1,0.7,1.4,0.5
			c0.4-0.2,0.6-0.8,0.3-1.4c0.7-0.3,1-0.9,0.8-1.5C65.7,61.2,65.1,60.9,64.5,61z M63.2,63.4c-0.5,0-1-0.4-1-1c0-0.5,0.4-1,1-1
			c0.5,0,1,0.4,1,1C64.2,62.9,63.7,63.4,63.2,63.4z"/>
		<path fill="#8CC541" d="M27.6,79.4c-0.1-0.7-0.5-1.2-1.1-1.2c-0.6,0-1,0.5-1.1,1.2c0,0,0,0,0,0c-0.7-0.3-1.4,0-1.7,0.6
			c-0.3,0.6,0.1,1.3,0.7,1.6c0,0,0,0,0,0c-0.3,0.5-0.1,1.2,0.4,1.5c0.5,0.3,1.1,0.1,1.4-0.5c0.4,0.5,1,0.7,1.4,0.5
			c0.4-0.2,0.6-0.8,0.3-1.4c0.7-0.3,1-0.9,0.8-1.5C28.8,79.7,28.2,79.4,27.6,79.4z M26.3,81.8c-0.5,0-1-0.4-1-1s0.4-1,1-1
			c0.5,0,1,0.4,1,1S26.8,81.8,26.3,81.8z"/>
		<path fill="#8CC541" d="M42.9,81.7C42.9,81.7,43,81.7,42.9,81.7c-0.2,0.6-0.1,1.2,0.4,1.5c0.5,0.3,1.1,0.1,1.4-0.5
			c0.4,0.5,1,0.7,1.4,0.5c0.4-0.2,0.6-0.8,0.3-1.4c0.7-0.3,1-0.9,0.8-1.5c-0.2-0.5-0.7-0.8-1.3-0.8c-0.1-0.7-0.5-1.2-1.1-1.2
			c-0.6,0-1,0.5-1.1,1.2c0,0,0,0,0,0c-0.7-0.3-1.4,0-1.7,0.6C42,80.7,42.3,81.4,42.9,81.7z M44.8,79.9c0.5,0,1,0.4,1,1s-0.4,1-1,1
			c-0.5,0-1-0.4-1-1S44.2,79.9,44.8,79.9z"/>
		<path fill="#8CC541" d="M64.5,79.4c-0.1-0.7-0.5-1.2-1.1-1.2c-0.6,0-1,0.5-1.1,1.2c0,0,0,0,0,0c-0.7-0.3-1.4,0-1.7,0.6
			c-0.3,0.6,0.1,1.3,0.7,1.6c0,0,0,0,0,0c-0.3,0.5-0.1,1.2,0.4,1.5c0.5,0.3,1.1,0.1,1.4-0.5c0.4,0.5,1,0.7,1.4,0.5
			c0.4-0.2,0.6-0.8,0.3-1.4c0.7-0.3,1-0.9,0.8-1.5C65.7,79.7,65.1,79.4,64.5,79.4z M63.2,81.8c-0.5,0-1-0.4-1-1s0.4-1,1-1
			c0.5,0,1,0.4,1,1S63.7,81.8,63.2,81.8z"/>
		<path fill="#8CC541" d="M27.6,97.9c-0.1-0.7-0.5-1.2-1.1-1.2c-0.6,0-1,0.5-1.1,1.2c0,0,0,0,0,0c-0.7-0.3-1.4,0-1.7,0.6
			c-0.3,0.6,0.1,1.3,0.7,1.6c0,0,0,0,0,0c-0.3,0.5-0.1,1.2,0.4,1.5c0.5,0.3,1.1,0.1,1.4-0.5c0.4,0.5,1,0.7,1.4,0.5
			c0.4-0.2,0.6-0.8,0.3-1.4c0.7-0.3,1-0.9,0.8-1.5C28.8,98.1,28.2,97.8,27.6,97.9z M26.3,100.3c-0.5,0-1-0.4-1-1c0-0.5,0.4-1,1-1
			c0.5,0,1,0.4,1,1C27.3,99.8,26.8,100.3,26.3,100.3z"/>
		<path fill="#8CC541" d="M42.9,100.1C42.9,100.1,43,100.1,42.9,100.1c-0.2,0.6-0.1,1.2,0.4,1.5c0.5,0.3,1.1,0.1,1.4-0.5
			c0.4,0.5,1,0.7,1.4,0.5c0.4-0.2,0.6-0.8,0.3-1.4c0.7-0.3,1-0.9,0.8-1.5c-0.2-0.5-0.7-0.8-1.3-0.8c-0.1-0.7-0.5-1.2-1.1-1.2
			c-0.6,0-1,0.5-1.1,1.2c0,0,0,0,0,0c-0.7-0.3-1.4,0-1.7,0.6C42,99.1,42.3,99.8,42.9,100.1z M44.8,98.3c0.5,0,1,0.4,1,1
			c0,0.5-0.4,1-1,1c-0.5,0-1-0.4-1-1C43.8,98.8,44.2,98.3,44.8,98.3z"/>
		<path fill="#8CC541" d="M64.5,97.9c-0.1-0.7-0.5-1.2-1.1-1.2c-0.6,0-1,0.5-1.1,1.2c0,0,0,0,0,0c-0.7-0.3-1.4,0-1.7,0.6
			c-0.3,0.6,0.1,1.3,0.7,1.6c0,0,0,0,0,0c-0.3,0.5-0.1,1.2,0.4,1.5c0.5,0.3,1.1,0.1,1.4-0.5c0.4,0.5,1,0.7,1.4,0.5
			c0.4-0.2,0.6-0.8,0.3-1.4c0.7-0.3,1-0.9,0.8-1.5C65.7,98.1,65.1,97.8,64.5,97.9z M63.2,100.3c-0.5,0-1-0.4-1-1c0-0.5,0.4-1,1-1
			c0.5,0,1,0.4,1,1C64.2,99.8,63.7,100.3,63.2,100.3z"/>
		<g>
			<path fill="#603A17" d="M99.4,23.6c-0.1-3.9-1-7.5-2.3-11.1c-1.1-3.1-3.8-9.8-8.1-10.2c-3.1-0.3-4.8,0.3-7.9,0.9
				c-3.1,0.6-5.2,1.9-8,3.2c0.1-0.4,0.2-0.8,0.3-1.2c0-0.1-0.1-0.1-0.1-0.2C70,3.4,65.4,3,63,0.1c-0.1-0.1-0.4-0.1-0.5,0.1
				C60.3,5.8,53,8.6,46.7,7.9c-0.4,0-0.8-0.1-1.2-0.2c-0.6-0.1-1.1-0.2-1.6-0.4c-0.6-0.2-1.1-0.4-1.7-0.7c-2.5-1.2-4.5-3.3-5.4-6.3
				c-0.1-0.2-0.4-0.1-0.5,0c-2.2,2.6-6,3.2-9.1,4.4c-0.4,0.2-0.8,0.3-1.2,0.5c-0.1,0-0.2,0.1-0.1,0.2c0,0.2,0.1,0.4,0.2,0.6
				c0,0.1,0.1,0.3,0.1,0.4c-0.2-0.1-0.3-0.1-0.5-0.2c-0.5-0.2-1-0.4-1.4-0.6c-4.9-2.2-9.2-3.5-15.1-2.9c-4,0.4-5.6,6.1-6.6,9.1
				C0.7,17.6-2.3,23.4,3,27.9c3.8,3.3,8.7,3.7,13.3,5.3c1.2,0.4,2.4,0.9,3.5,1.5c0.2,0.1,0.4,0.2,0.5,0.3c0,0,0.1,0,0.1,0
				c-0.3,1.3-0.7,2.5-1,3.4c-1.2,3.7-2.6,7.2-2.4,11.1c0,0.3,0.1,0.7,0.1,1c0.1,0.6,0.2,1.2,0.4,1.8c0.1,0.4,0.3,0.8,0.5,1.1
				c0.3,0.5,0.6,1.1,0.9,1.6c0.2,0.2,0.3,0.4,0.5,0.7c0.4,7.5,1.5,15.1,1.5,22.7c0,4.8-0.2,9.4-0.9,14.3c-0.6,3.6-0.2,7,1.8,10.2
				c0.9,1.5,8.4,1.8,9.9,2.1c5.4,0.9,10.9,1.2,16.4,1.1c0,0,0.1,0,0.1,0c2.1,0,4.2-0.1,6.3-0.2c6-0.3,11.9-1.1,17.8-2.1
				c0.6-0.1,3.8-0.3,4.2-1c4.1-6.6,0.8-15.4,0.8-22.6c0-7.7,0.9-15.4,1.6-23c0,0,0,0,0,0c1.3-1.3,2.4-2.9,3.2-4.7
				c0.9-2,0.9-4,0.6-6.1c-0.1-0.5-0.2-1.1-0.3-1.6c-0.1-0.6-0.3-1.1-0.4-1.7c-0.1-0.5-0.3-0.9-0.4-1.4c0,0,0-0.1,0-0.1
				c-0.5-1.6-1.7-4.3-2.2-6.8c0,0,0,0,0,0c5.1-3.1,11.5-2.7,16.3-6.4c0.6-0.5,1.7-1.2,2.5-2.1c0.7-0.7,1.3-1.5,1.3-2.3
				C99.4,23.8,99.4,23.7,99.4,23.6z M62.8,0.8c0.1-0.2,0.1-0.3,0.2-0.4c0,0.1,0,0.3,0.2,0.6c0.3,0.4,1.4,0.9,1.9,1.2
				c2.1,1.1,4.4,1.7,6.7,2.6c2,0.7-0.1,3.8-0.6,4.7c-1.8,3.3-4.4,4.4-8.1,4.6c-4.7,0.3-8.7-1.9-10.8-6C56.8,7.2,60.6,5,62.8,0.8z
				 M27.5,5.2c2.5-1.5,9.3-2.9,8.8-4.5c0.9,3,3.1,5.1,5.8,6.3c0.6,0.3,1.2,0.5,1.8,0.7c0.3,0.1,0.7,0.2,1.1,0.3
				c0.5,0.1,1,0.2,1.5,0.2c0.2,0,0.3,0,0.5,0c-2.2,4.2-6,5.8-10.5,5.9c-0.5,0-1.1,0-1.6,0c0,0-0.1,0-0.1,0c-3.5-0.2-5.5-2.3-7-5
				c-0.3-0.5-0.6-1.1-0.8-1.6c-0.2-0.4-0.3-0.8-0.5-1.1c0-0.1,0-0.2,0-0.3C26.6,5.8,27,5.5,27.5,5.2z M28.2,104.1
				c-1.7-0.3-3.4-0.7-5-1.1c-2.3-0.6-2.6-3.7-3-5.7c-0.6-3.1,0.5-6.7,0.9-9.9c0.4-3.6,0.2-7.4,0.2-11c0-6.6-1-13.4-1.5-20
				c1.6,1.8,3.6,3.2,5.8,3.9c0.6,0.2,1.2,0.4,1.9,0.5c0.1,0,0.1,0,0.2,0c0.2,0,0.6-0.2,0.3-0.3c-0.2,0-0.4-0.1-0.6-0.1
				c-0.5-0.1-1-0.3-1.5-0.4c-3-1.1-5.3-3.3-6.9-6c-0.3-0.5-0.6-1.1-0.8-1.6c-0.3-0.6-0.4-1.2-0.6-1.8c-0.7-3.5,0.6-7.3,1.7-10.6
				c1-2.9,3.5-9.1-0.1-11.5c-0.1-0.1-0.6,0.1-0.4,0.2c1.9,1.2,2,3.6,1.5,5.9c-0.2-0.1-0.4-0.3-0.7-0.4c-1-0.5-2.2-1-3.5-1.4
				C9,30.5-0.4,29.5,0.6,20.1c0.5-4.3,2.6-9.8,4.6-13.6c0,0,0.1-0.1,0.1-0.1c0.1-0.1,0.2-0.3,0.2-0.4C9.2,0.2,18.5,3.6,24,6
				c0.5,0.2,1,0.5,1.5,0.7c0.2,0.1,0.4,0.2,0.6,0.3c0.1,0,0.1,0,0.2,0c0.1,0.4,0.3,0.7,0.4,1.1c0.2,0.5,0.5,1,0.8,1.5
				c1.7,2.7,4.4,4.4,7.3,5c0.7,0.1,1.3,0.2,2,0.2c4,0.1,8-1.7,10.4-5.6c0,17.3,1.5,34.6,1.3,51.9c-0.1,8.3,0.7,16.6,0.6,24.9
				c0,4.5,0,8.9-0.8,13.3c-0.4,2-1.3,4.7-0.3,6.7C41.3,106,34.7,105.3,28.2,104.1z M97.7,25.8c-0.2,0.3-0.5,0.6-0.8,1
				c-2.7,2.6-6.3,4-9.9,4.9c-2.8,0.7-5.4,1.3-7.9,2.8c-0.4-2.3-0.2-4.5,1.6-5.6c0.3-0.2-0.1-0.2-0.3-0.1c-2.6,1.7-1.9,5.7-1.2,8.3
				c0.5,1.8,1.1,3.5,1.7,5.2c0.1,0.3,0.2,0.7,0.3,1c0.2,0.6,0.3,1.2,0.5,1.8c0.1,0.4,0.2,0.7,0.2,1.1c0.2,1.1,0.3,2.3,0.3,3.5
				c-0.1,2.8-1.6,5.6-3.7,7.6c-0.1,0-0.1,0.1-0.1,0.1c0,0,0,0,0,0c-1.9,1.7-4.2,2.9-6.6,3.3c-0.2,0-0.4,0.3-0.1,0.3
				c2.6-0.4,4.8-1.6,6.6-3.2c-0.5,5.7-0.8,11.6-1.4,17.3c-0.8,7.1,0.8,13.9,1.1,21c0,1.1-0.6,6.5-2.3,6.9c-1.4,0.3-2.9,0.6-4.3,0.9
				c-6.8,1.2-13.7,1.8-20.6,2.2c-0.8,0-1.7,0.1-2.5,0.1c0,0,0,0,0,0c-1.2-2.3,0.2-5.9,0.6-8.3c0.6-3.3,0.4-6.7,0.5-10.1
				c0.2-8.9-0.6-17.7-0.5-26.6c0.2-17.5-1.3-35-1.3-52.5c0.5,0,1,0,1.4,0c0.9,0,1.8-0.1,2.6-0.3c4.7,9.3,18.1,8,21.3-1.3
				c5.3-2.3,14.8-7.2,19.7-2c2.5,2.7,4.2,8.5,5.2,12.2c0.7,2.5,1.6,4.8,0.8,7.1C98.4,24.6,98.1,25.2,97.7,25.8z"/>
			<circle fill="#603A17" cx="49.9" cy="11" r="1.5"/>
			<circle fill="#603A17" cx="49.7" cy="18.2" r="1"/>
			<circle fill="#603A17" cx="50" cy="25.9" r="1"/>
			<circle fill="#603A17" cx="50.2" cy="33.2" r="1"/>
			<circle fill="#603A17" cx="50.7" cy="40.4" r="1"/>
			<circle fill="#603A17" cx="51.1" cy="49.1" r="1"/>
			<circle fill="#603A17" cx="51.2" cy="58.4" r="1"/>
			<circle fill="#603A17" cx="51.1" cy="66.9" r="1"/>
			<circle fill="#603A17" cx="51.2" cy="75.2" r="1"/>
			<circle fill="#603A17" cx="51.5" cy="83.6" r="1"/>
			<path fill="#603A17" d="M51.8,90.7c-0.1,0-0.1,0-0.2,0c-0.6,0-1,0.4-1,1c0,0.6,0.4,1,1,1c0.3,0,0.6-0.2,0.8-0.4
				c0.1-0.2,0.2-0.4,0.2-0.6C52.6,91.1,52.3,90.7,51.8,90.7z"/>
			<circle fill="#603A17" cx="50.7" cy="100" r="1"/>
		</g>
	</g>
</g>
</svg>
