<?xml version="1.0" encoding="utf-8"?>
<!-- Generator: Adobe Illustrator 18.1.1, SVG Export Plug-In . SVG Version: 6.00 Build 0)  -->
<!DOCTYPE svg PUBLIC "-//W3C//DTD SVG 1.1//EN" "http://www.w3.org/Graphics/SVG/1.1/DTD/svg11.dtd">
<svg version="1.1" id="Layer_1" xmlns="http://www.w3.org/2000/svg" xmlns:xlink="http://www.w3.org/1999/xlink" x="0px" y="0px"
	 viewBox="0 0 99.4 106.1" enable-background="new 0 0 99.4 106.1" xml:space="preserve">
<g>
	<g>
		<path fill="#FFF8DE" d="M35,14.2c5.1,0.3,9.6-1.2,12.1-5.9c-4.8-0.4-9.3-3-10.8-7.6c0.7,2.1-10.5,3.8-9.7,5.7
			C28.2,10.2,30.3,13.9,35,14.2z"/>
		<path fill="#FFF8DE" d="M63,14c3.7-0.2,6.3-1.3,8.1-4.6c0.5-0.9,2.6-4,0.6-4.7c-2.3-0.8-4.6-1.4-6.7-2.6c-0.5-0.2-1.5-0.7-1.9-1.2
			c-0.2-0.3-0.2-0.5-0.2-0.6c0,0.1-0.1,0.2-0.2,0.4C60.6,5,56.8,7.2,52.2,8C54.3,12.1,58.3,14.2,63,14z"/>
		<path fill="#FFF8DE" d="M48.2,99.2C49,94.8,49,90.3,49,85.9c0.1-8.3-0.7-16.6-0.6-24.9c0.2-17.3-1.2-34.6-1.3-51.9
			c-5.1,8.4-17.9,7.1-20.9-2.2c-0.1,0-0.2,0-0.2,0c-5-2.3-17-7.7-20.8-0.4c-2,3.8-4.1,9.3-4.6,13.6c-1.3,11.4,12.7,10.4,19.8,14.6
			c0.4-2.3,0.3-4.7-1.5-5.9c-0.2-0.1,0.3-0.3,0.4-0.2c3.5,2.3,1.1,8.5,0.1,11.5c-1.3,3.9-2.9,8.3-1.2,12.4c1.8,4.1,5.3,7.5,9.9,8.2
			c0.3,0-0.1,0.3-0.3,0.3c-2.9-0.4-5.8-2.1-7.9-4.4c0.4,6.6,1.5,13.4,1.5,20c0,3.6,0.2,7.4-0.2,11c-0.4,3.2-1.5,6.8-0.9,9.9
			c0.4,2,0.7,5.1,3,5.7c1.7,0.4,3.3,0.8,5,1.1c6.5,1.2,13.1,1.9,19.6,1.9C46.9,103.9,47.8,101.2,48.2,99.2z"/>
		<path fill="#FFF8DE" d="M72.9,6.7C69.8,16.1,56.4,17.4,51.7,8c-0.8,0.1-1.7,0.2-2.6,0.3c-0.5,0-1,0-1.4,0c0,17.5,1.5,35,1.3,52.5
			c-0.1,8.9,0.7,17.8,0.5,26.6c-0.1,3.4,0.1,6.8-0.5,10.1c-0.4,2.4-1.7,6-0.6,8.3c0,0,0,0,0,0c0.8,0,1.7,0,2.5-0.1
			c6.9-0.3,13.8-0.9,20.6-2.2c1.4-0.3,2.9-0.5,4.3-0.9c1.7-0.4,2.4-5.8,2.3-6.9c-0.3-7-1.9-13.8-1.1-21c0.6-5.7,0.9-11.5,1.4-17.3
			c-1.8,1.7-4,2.8-6.6,3.2c-0.3,0-0.2-0.2,0.1-0.3c2.4-0.4,4.7-1.6,6.6-3.3c0,0,0,0,0,0c0,0,0.1-0.1,0.1-0.1c2.1-2,3.6-4.7,3.7-7.6
			c0.2-4.6-1.8-8.4-2.9-12.7c-0.7-2.5-1.4-6.5,1.2-8.3c0.2-0.1,0.6,0,0.3,0.1c-1.8,1.2-2,3.4-1.6,5.6c2.5-1.5,5.1-2.1,7.9-2.8
			c3.6-0.9,7.2-2.2,9.9-4.9c3.3-3.2,1.9-6.3,0.9-9.8c-1-3.6-2.7-9.5-5.2-12.2C87.7-0.5,78.2,4.4,72.9,6.7z"/>
		<path fill="#603A17" d="M88.9,2.3c-3.1-0.3-4.8,0.3-7.9,0.9c-3.1,0.6-5.2,1.9-8,3.2c0.1-0.4,0.2-0.8,0.3-1.2
			c0-0.1-0.1-0.1-0.1-0.2C70,3.4,65.4,3,63,0.1c-0.1-0.1-0.4-0.1-0.5,0.1c-3.8,9.6-22.7,11.2-25.7,0.2c-0.1-0.2-0.4-0.1-0.5,0
			c-2.5,3-7,3.3-10.3,4.9c-0.1,0-0.2,0.1-0.1,0.2c0.1,0.4,0.2,0.7,0.2,1c-5.8-2.6-10.4-4.5-17-3.8c-4,0.4-5.6,6.1-6.6,9.1
			C0.7,17.6-2.3,23.4,3,27.9c5,4.3,11.9,3.8,17.3,7.1c0,0,0.1,0,0.1,0c-0.3,1.3-0.7,2.5-1,3.4c-1.2,3.7-2.6,7.2-2.4,11.1
			c0.1,2.2,1,4.3,2.4,6.1c0.4,7.5,1.5,15.1,1.5,22.7c0,4.8-0.2,9.4-0.9,14.3c-0.6,3.6-0.2,7,1.8,10.2c0.9,1.5,8.4,1.8,9.9,2.1
			c5.4,0.9,10.9,1.2,16.4,1.1c0,0,0.1,0,0.1,0c2.1,0,4.2-0.1,6.3-0.2c6-0.3,11.9-1.1,17.8-2.1c0.6-0.1,3.8-0.3,4.2-1
			c4.1-6.6,0.8-15.4,0.8-22.6c0-7.7,0.9-15.4,1.6-23c0,0,0,0,0,0c1.3-1.3,2.4-2.9,3.2-4.7c1.5-3.5,0.5-7.4-0.6-10.8
			c-0.5-1.6-1.7-4.3-2.2-6.9c0,0,0,0,0,0c5.1-3.1,11.5-2.7,16.3-6.4c1.1-0.8,3.8-2.7,3.8-4.4c0-4-1-7.7-2.3-11.4
			C95.9,9.4,93.2,2.7,88.9,2.3z M62.8,0.8c0.1-0.2,0.1-0.3,0.2-0.4c0,0.1,0,0.3,0.2,0.6c0.3,0.4,1.4,0.9,1.9,1.2
			c2.1,1.1,4.4,1.7,6.7,2.6c2,0.7-0.1,3.8-0.6,4.7c-1.8,3.3-4.4,4.4-8.1,4.6c-4.7,0.3-8.7-1.9-10.8-6C56.8,7.2,60.6,5,62.8,0.8z
			 M36.3,0.7c1.5,4.6,5.9,7.2,10.8,7.6c-2.5,4.7-7,6.2-12.1,5.9c-4.7-0.3-6.8-4-8.4-7.7C25.8,4.5,37,2.8,36.3,0.7z M28.2,104.1
			c-1.7-0.3-3.4-0.7-5-1.1c-2.3-0.6-2.6-3.7-3-5.7c-0.6-3.1,0.5-6.7,0.9-9.9c0.4-3.6,0.2-7.4,0.2-11c0-6.6-1-13.4-1.5-20
			c2.1,2.3,4.9,4,7.9,4.4c0.2,0,0.6-0.2,0.3-0.3c-4.6-0.7-8.1-4.1-9.9-8.2c-1.8-4-0.2-8.5,1.2-12.4c1-2.9,3.5-9.1-0.1-11.5
			c-0.1-0.1-0.6,0.1-0.4,0.2c1.9,1.2,2,3.6,1.5,5.9c-7.1-4.2-21.1-3.2-19.8-14.6c0.5-4.3,2.6-9.8,4.6-13.6
			c3.8-7.3,15.9-1.8,20.8,0.4c0.1,0,0.1,0,0.2,0c2.9,9.3,15.8,10.5,20.9,2.2c0,17.3,1.5,34.6,1.3,51.9c-0.1,8.3,0.7,16.6,0.6,24.9
			c0,4.5,0,8.9-0.8,13.3c-0.4,2-1.3,4.7-0.3,6.7C41.3,106,34.7,105.3,28.2,104.1z M96.8,26.8c-2.7,2.6-6.3,4-9.9,4.9
			c-2.8,0.7-5.4,1.3-7.9,2.8c-0.4-2.3-0.2-4.5,1.6-5.6c0.3-0.2-0.1-0.2-0.3-0.1c-2.6,1.7-1.9,5.7-1.2,8.3c1.2,4.3,3.1,8.1,2.9,12.7
			c-0.1,2.8-1.6,5.6-3.7,7.6c-0.1,0-0.1,0.1-0.1,0.1c0,0,0,0,0,0c-1.9,1.7-4.2,2.9-6.6,3.3c-0.2,0-0.4,0.3-0.1,0.3
			c2.6-0.4,4.8-1.6,6.6-3.2c-0.5,5.7-0.8,11.6-1.4,17.3c-0.8,7.1,0.8,13.9,1.1,21c0,1.1-0.6,6.5-2.3,6.9c-1.4,0.3-2.9,0.6-4.3,0.9
			c-6.8,1.2-13.7,1.8-20.6,2.2c-0.8,0-1.7,0.1-2.5,0.1c0,0,0,0,0,0c-1.2-2.3,0.2-5.9,0.6-8.3c0.6-3.3,0.4-6.7,0.5-10.1
			c0.2-8.9-0.6-17.7-0.5-26.6c0.2-17.5-1.3-35-1.3-52.5c0.5,0,1,0,1.4,0c0.9,0,1.8-0.1,2.6-0.3c4.7,9.3,18.1,8,21.3-1.3
			c5.3-2.3,14.8-7.2,19.7-2c2.5,2.7,4.2,8.5,5.2,12.2C98.7,20.4,100.1,23.5,96.8,26.8z"/>
	</g>
	<circle fill="#603A17" cx="49.9" cy="11" r="1.5"/>
	<circle fill="#603A17" cx="49.7" cy="18.2" r="1"/>
	<circle fill="#603A17" cx="50" cy="25.9" r="1"/>
	<circle fill="#603A17" cx="50.2" cy="33.2" r="1"/>
	<circle fill="#603A17" cx="50.7" cy="40.4" r="1"/>
	<circle fill="#603A17" cx="51.1" cy="49.1" r="1"/>
	<circle fill="#603A17" cx="51.2" cy="58.4" r="1"/>
	<circle fill="#603A17" cx="51.1" cy="66.9" r="1"/>
	<circle fill="#603A17" cx="51.2" cy="75.2" r="1"/>
	<circle fill="#603A17" cx="51.5" cy="83.6" r="1"/>
	<circle fill="#603A17" cx="51.6" cy="91.6" r="1"/>
	<circle fill="#603A17" cx="50.7" cy="100" r="1"/>
</g>
</svg>
