<?xml version="1.0" encoding="utf-8"?>
<!-- Generator: Adobe Illustrator 18.1.1, SVG Export Plug-In . SVG Version: 6.00 Build 0)  -->
<!DOCTYPE svg PUBLIC "-//W3C//DTD SVG 1.1//EN" "http://www.w3.org/Graphics/SVG/1.1/DTD/svg11.dtd">
<svg version="1.1" id="Layer_1" xmlns="http://www.w3.org/2000/svg" xmlns:xlink="http://www.w3.org/1999/xlink" x="0px" y="0px"
	 viewBox="0 0 99.4 101.9" enable-background="new 0 0 99.4 101.9" xml:space="preserve">
<g>
	<path fill="#8CC541" d="M70.8,9.1c-0.4,1.8-1.1,3.4-1.9,5.1c-0.4,0.7-5.8,11-7.3,8.8c-1.5-2.1-2.7-4.7-3.4-7.1
		c-0.2-0.6-2.4-11.4-4-9.4c-0.1,0.1-0.6,0.2-0.4,0c1.7-2.1,3.3,1.8,3.6,3c0.9,3,1,5.9,2.3,8.8c0.4,0.9,0.8,1.6,1.2,2.4
		c1.7,3.5,3,1.2,4.4-1C67.8,16,73.1,8.8,68.3,5c-1.5-1.2-3.1-2.3-4.7-3.4c-2.3-1.5-2.7-0.9-4.3,0.8c-2.7,2.9-4.7,3.1-8.2,3.1
		c-1.3,0-2.4,0.1-3.5,0c0,16.8,1.5,38.4,1.3,55.1c-0.1,8.5,0.7,17,0.5,25.5c-0.1,3.2,0.1,4.5-0.5,7.6c-0.4,2.3-1.7,5.7-0.6,8
		c0,0,0,0,0,0c0.8,0,1.7,0,2.5-0.1c6.9-0.3,12.8-0.9,19.6-2.1c1.4-0.2,2.9-0.5,4.3-0.8c1.7-0.4,3.4-5.6,3.3-6.6
		c-0.3-6.7-1.9-11.2-1.1-18.1c0.6-5.5,0.9-11,1.4-16.5c-1.8,1.6-4,2.7-6.6,3.1c-0.3,0-0.2-0.2,0.1-0.3c2.4-0.3,4.7-1.5,6.6-3.1
		c0,0,0,0,0,0c0,0,0.1-0.1,0.1-0.1c2.1-1.9,3.6-4.5,3.7-7.3c0.2-4.4-1.8-8-2.9-12.1c-0.7-2.4-1.4-6.3,1.2-7.9c0.2-0.1,0.6,0,0.3,0.1
		c-1.8,1.1-2,3.2-1.6,5.4c2.5-1.4,5.1-2,7.9-2.7c3.6-0.9,7.2-2.1,9.9-4.7c3.3-3.1,1.9-6.1,0.9-9.4c-1-3.5-2.7-9.1-5.2-11.7
		C87.8,2,76.2,6.8,70.8,9.1z M48.4,12.9c0-0.8,0.7-1.4,1.5-1.4c0.8,0,1.5,0.6,1.5,1.4c0,0.8-0.7,1.4-1.5,1.4
		C49,14.4,48.4,13.7,48.4,12.9z M49,27.2c0-0.5,0.4-1,1-1c0.6,0,1,0.4,1,1c0,0.5-0.4,1-1,1C49.5,28.1,49,27.7,49,27.2z M49.7,41.1
		c0-0.5,0.4-1,1-1c0.6,0,1,0.4,1,1c0,0.5-0.4,1-1,1C50.2,42,49.7,41.6,49.7,41.1z M51.2,57.3c0.6,0,1,0.4,1,1s-0.4,1-1,1
		c-0.6,0-1-0.4-1-1S50.7,57.3,51.2,57.3z M50.2,74.4c0-0.5,0.4-1,1-1c0.6,0,1,0.4,1,1c0,0.5-0.4,1-1,1
		C50.7,75.4,50.2,74.9,50.2,74.4z M51.6,91c-0.6,0-1-0.4-1-1c0-0.5,0.4-1,1-1c0.6,0,1,0.4,1,1C52.6,90.6,52.2,91,51.6,91z"/>
	<path fill="#8CC541" d="M48.2,95.3C49,91.1,49,88.9,49,84.6c0.1-8-0.7-15.9-0.6-23.8c0.2-16.6-1.3-38.7-1.3-55.2
		c-1.9-0.1-3.6-0.5-5.6-2.1C39.5,1.8,38,0.3,35,2.2c-1.7,1.1-3.3,2.4-4.9,3.7C27.1,8.5,32,16,33.6,18.4c1.8,2.6,3.8,6.3,5.9,1.4
		c0.3-0.7,0.6-1.5,0.9-2.2c1-2.6,1-5.4,1.9-8c0.3-0.9,2-5.2,3.6-3.1c0.1,0.1-0.4,0.3-0.5,0.2c-1.6-1.9-3.5,6.7-3.5,6.8
		c-0.2,1.5-0.6,2.8-1.1,4.2c-0.7,1.8-1.5,4.6-3.2,5.7c-2.1,1.4-7.8-10.7-8.2-11.8c-0.3-0.7-0.4-1.3-0.6-1.9C23.8,7.3,9,1.7,5.2,8.6
		c-2,3.7-4.1,8.9-4.6,13c-1.3,10.9,12.7,10,19.8,14c0.4-2.2,0.3-4.5-1.5-5.6c-0.2-0.1,0.3-0.3,0.4-0.2c3.5,2.2,1.1,8.2,0.1,11
		c-1.3,3.7-2.9,8-1.2,11.8c1.8,3.9,5.3,7.2,9.9,7.8c0.3,0-0.1,0.3-0.3,0.3c-2.9-0.4-5.8-2-7.9-4.3c0.4,6.3,1.5,12.8,1.5,19.1
		c0,3.5,0.2,7.1-0.2,10.5c-0.4,3-1.5,4.5-0.9,7.5c0.4,1.9,1.7,4.9,4,5.4c1.7,0.4,2.3,0.8,4,1.1c6.5,1.1,13.1,1.8,19.6,1.8
		C46.9,99.8,47.8,97.3,48.2,95.3z"/>
	<path fill="#603A17" d="M88.9,4.6c-3.1-0.3-4.8,0.3-7.9,0.9C78,6,73.7,7.6,70.9,8.8c0.1-0.6,0.2-1.3,0.3-2c0-0.5-3.3-2.7-3.7-3.1
		c-1.9-1.5-4.5-3.9-7.1-3.7c-0.8,0-2.4,3.1-2.6,3.3c-2.4,1.9-4.4,2-7.3,2c-0.8,0-1.8,0.1-2.8,0.1c0,0,0,0,0,0l0,0
		c-1.3,0-2.6-0.1-3.6-0.7c-1.8-1.1-2.8-2.4-3.9-4C39.6,0,39.8,0,38.7,0c-1.8,0.1-3.8,2-5.2,2.8c-3.7,2.4-5.2,3.3-4.7,6.2
		C23.2,6.7,15.6,4.4,9.2,5c-4,0.4-5.6,5.8-6.6,8.7C0.7,19.3-2.3,24.8,3,29.1c5,4.1,11.9,3.6,17.3,6.8c0,0,0.1,0,0.1,0
		c-0.3,1.2-0.7,2.4-1,3.2c-1.2,3.6-2.6,6.9-2.4,10.6c0.1,2.1,1,4.1,2.4,5.9c0.4,7.2,1.5,14.5,1.5,21.7c0,4.6-0.2,9-0.9,13.6
		c-0.6,3.5,0.8,4.7,2.8,7.8c0.9,1.4,7.4,1.8,8.9,2c5.4,0.8,10.9,1.1,16.4,1.1c0,0,0.1,0,0.1,0c2.1,0,4.2-0.1,6.3-0.2
		c6-0.3,10.9-1,16.8-2.1c0.6-0.1,3.8-0.3,4.2-0.9c4.1-6.3,1.8-12.7,1.8-19.6c0-7.3,0.9-14.7,1.6-22c0,0,0,0,0,0
		c1.3-1.3,2.4-2.8,3.2-4.5c1.5-3.4,0.5-7-0.6-10.3c-0.5-1.5-1.7-4.1-2.2-6.6c0,0,0,0,0,0c5.1-3,11.5-2.6,16.3-6.2
		c1.1-0.8,3.8-2.5,3.8-4.2c0-3.8-1-7.3-2.3-10.9C95.9,11.4,93.2,5,88.9,4.6z M28.2,100c-1.7-0.3-2.4-0.7-4-1.1
		c-2.3-0.5-3.6-3.5-4-5.4c-0.6-3,0.5-4.4,0.9-7.5c0.4-3.5,0.2-7,0.2-10.5c0-6.3-1-12.8-1.5-19.1c2.1,2.2,4.9,3.8,7.9,4.3
		c0.2,0,0.6-0.2,0.3-0.3c-4.6-0.6-8.1-3.9-9.9-7.8c-1.8-3.9-0.2-8.1,1.2-11.8c1-2.8,3.5-8.7-0.1-11c-0.1-0.1-0.6,0.1-0.4,0.2
		c1.9,1.2,2,3.5,1.5,5.6c-7.1-4-21.1-3.1-19.8-14c0.5-4.1,2.6-9.3,4.6-13C9,1.7,23.8,7.3,29,9.5c0.1,0.6,0.3,1.2,0.6,1.9
		c0.4,1.1,6.1,13.2,8.2,11.8c1.7-1.1,2.5-3.9,3.2-5.7c0.6-1.4,0.9-2.7,1.1-4.2c0-0.1,1.9-8.7,3.5-6.8c0.1,0.1,0.5-0.1,0.5-0.2
		c-1.7-2-3.3,2.3-3.6,3.1c-0.9,2.6-0.9,5.4-1.9,8c-0.3,0.7-0.6,1.5-0.9,2.2c-2.1,4.9-4.1,1.2-5.9-1.4C32,16,27.1,8.5,30.1,5.9
		c1.6-1.3,3.2-2.6,4.9-3.7c3-1.9,4.5-0.5,6.5,1.2c2,1.6,3.6,2,5.6,2.1c0,16.6,1.5,38.7,1.3,55.2c-0.1,8,0.7,15.9,0.6,23.8
		c0,4.3,0,6.5-0.8,10.7c-0.4,1.9-1.3,4.5-0.3,6.4C41.3,101.8,34.7,101.1,28.2,100z M96.8,28c-2.7,2.5-6.3,3.8-9.9,4.7
		c-2.8,0.7-5.4,1.2-7.9,2.7c-0.4-2.2-0.2-4.3,1.6-5.4c0.3-0.2-0.1-0.2-0.3-0.1c-2.6,1.6-1.9,5.5-1.2,7.9c1.2,4.1,3.1,7.7,2.9,12.1
		c-0.1,2.7-1.6,5.3-3.7,7.3c-0.1,0-0.1,0.1-0.1,0.1c0,0,0,0,0,0c-1.9,1.6-4.2,2.8-6.6,3.1c-0.2,0-0.4,0.3-0.1,0.3
		c2.6-0.4,4.8-1.5,6.6-3.1c-0.5,5.5-0.8,11.1-1.4,16.5c-0.8,6.8,0.8,11.3,1.1,18.1c0,1.1-1.6,6.2-3.3,6.6c-1.4,0.3-2.9,0.6-4.3,0.8
		c-6.8,1.2-12.7,1.8-19.6,2.1c-0.8,0-1.7,0.1-2.5,0.1c0,0,0,0,0,0c-1.2-2.2,0.2-5.7,0.6-8c0.6-3.2,0.4-4.4,0.5-7.6
		c0.2-8.5-0.6-17-0.5-25.5c0.2-16.7-1.2-38.3-1.3-55.1c1,0,2.2,0,3.5,0c3.6,0,5.5-0.2,8.2-3.1c1.6-1.7,2-2.3,4.3-0.8
		c1.6,1.1,3.2,2.2,4.7,3.4c4.8,3.8-0.5,11-3.1,14.9c-1.5,2.1-2.8,4.5-4.4,1c-0.4-0.8-0.8-1.6-1.2-2.4c-1.2-2.9-1.3-5.9-2.3-8.8
		c-0.4-1.2-1.9-5-3.6-3c-0.1,0.1,0.4,0.1,0.4,0c1.6-2,3.8,8.8,4,9.4c0.7,2.4,1.9,5,3.4,7.1c1.6,2.2,6.9-8.1,7.3-8.8
		c0.8-1.7,1.5-3.3,1.9-5.1c5.4-2.3,17-7.1,21.8-2.2c2.5,2.5,4.2,8.2,5.2,11.7C98.7,21.9,100.1,24.9,96.8,28z"/>
	<ellipse fill="#603A17" cx="49.9" cy="12.9" rx="1.5" ry="1.4"/>
	<ellipse fill="#603A17" cx="50" cy="27.2" rx="1" ry="1"/>
	<ellipse fill="#603A17" cx="50.7" cy="41.1" rx="1" ry="1"/>
	<ellipse fill="#603A17" cx="51.2" cy="58.2" rx="1" ry="1"/>
	<ellipse fill="#603A17" cx="51.2" cy="74.4" rx="1" ry="1"/>
	<ellipse fill="#603A17" cx="51.6" cy="90.1" rx="1" ry="1"/>
</g>
</svg>
