<?xml version="1.0" encoding="utf-8"?>
<!-- Generator: Adobe Illustrator 18.1.1, SVG Export Plug-In . SVG Version: 6.00 Build 0)  -->
<!DOCTYPE svg PUBLIC "-//W3C//DTD SVG 1.1//EN" "http://www.w3.org/Graphics/SVG/1.1/DTD/svg11.dtd">
<svg version="1.1" id="Layer_1" xmlns="http://www.w3.org/2000/svg" xmlns:xlink="http://www.w3.org/1999/xlink" x="0px" y="0px"
	 viewBox="0 0 98.9 178.2" enable-background="new 0 0 98.9 178.2" xml:space="preserve">
<g>
	<path fill="#FFF8DE" d="M60.7,55.2c2.2,7,1.9,14.7,6.2,21.2c5.2,7.9,11.8,14.7,21.8,15.5c-3.1-13.2-7.3-26.7-8.2-40.2
		C74,53.9,67.5,54.9,60.7,55.2z"/>
	<path fill="#FFF8DE" d="M30.5,76.8c3.3-6.3,6.3-15,6.3-22.2c-6.2-0.5-12.3-1.3-18.5-2.4c0,0.3,0,0.6-0.1,0.8c-0.4,3.7-1,7.4-1.8,11
		c-1.6,7.3-3.4,14.6-5.1,22c-0.4,1.8-0.8,3.7-1.2,5.5C18.5,88.9,26.2,85,30.5,76.8z"/>
	<path fill="#726659" d="M53.8,51.4c9,0,17.9-0.4,26.4-3.5c0,0,0.1,0,0.1,0c0-0.1,0-0.3,0-0.4c0,0,0,0,0,0c0,0,0,0,0,0
		c4.7-7.7-5.2-17.4-0.5-25.2c0.1-0.1,0.6-0.2,0.5,0c-0.4,0.7-0.7,1.4-0.9,2.1c1.9-1.8,3.9-3.5,6-5.2c2.4-2,5.6-3.9,7.2-6.6
		c1.4-2.3,2.3-6.5,5.1-7.6c-3-3.9-8.9-5-13.5-4.5c0,0,0,0-0.1,0C73.1,4.9,61.9,5.8,50.2,6.3c-6.7,0.3-13.4-0.1-20.1-0.9
		C24.6,4.7,19.5,1.7,14,0.6c-0.1,0-0.1,0-0.1,0C9.6-0.6,3.7,1.3,1.1,4.9C4.6,6.2,5,12,7.8,14.4c3.8,3.2,7.8,6.3,11.5,9.8
		c-0.2-0.7-0.5-1.4-0.9-2.1c-0.1-0.2,0.4-0.3,0.5-0.2c4.7,7.8-4.3,17.3-1,25.1c0.1,0.3,0.2,0.8,0.3,1.2
		C29.6,50.2,42.1,51.4,53.8,51.4z"/>
	<path fill="#726659" d="M96.9,141.1c-1.4-16.1-4.3-31.7-7.8-47.4c-0.1-0.5-0.2-1-0.3-1.5C79.8,91.6,73,86.1,68,79
		c-2.7-4-4.5-7.9-5.6-12.7c-0.8-3.5-1.2-7.6-2.2-11.1c-1,0-2,0.1-3.1,0.1c-6.7,0.1-13.3-0.1-19.9-0.7c-0.1,4.4-1.6,9.3-2.8,13.6
		c-1.2,4.2-3,8.5-5.8,12c-5.1,6.4-11.1,9.2-18.6,11.6C7,105.6,4,119.3,2.5,133.4c-0.9,8.3-1.4,16.6-1.7,24.9
		c-0.1,4.5-0.2,9.1-0.2,13.6c0,1.3-0.3,0.4,1.3,0.7c13.6,3.2,28.2,5.9,42.3,5.1c8.2-0.4,16.4-1.1,24.6-1.5c4-0.2,8.2-0.1,12.2-0.8
		c4-0.7,7.3-2.4,11.3-3.2c0.7-0.1,4.7-0.6,5.5-0.1c0.3,0.2,0.4-6.9,0.4-7.9C97.9,156.5,97.6,148.8,96.9,141.1z"/>
	<path fill="#603A17" d="M97.9,148.6c-0.6-11.4-2-22.8-3.9-34.1c-2-11.4-4.8-22.8-7.4-34.1c-2.2-9.6-4.9-19.1-5.7-28.9l0-0.5
		c-0.1-0.9-0.1-1.8-0.1-2.7c0,0,0,0,0-0.1c0-0.3,0-0.5,0-0.8c4.2-6.9-3.3-15.3-1.6-22.6c0,0,0.1,0,0.1,0c3.5-3.3,7.3-6.3,11-9.4
		c1.5-1.2,2.4-2.4,3.3-4c1-1.7,2.1-5.4,4-6.3c0,0,0.1,0.1,0.1,0.1c0.1,0.1,0.5-0.1,0.5-0.1C95.2,0.8,89-0.3,84,0.4c0,0,0,0,0,0
		c-0.1,0-0.2,0-0.2,0c-10.3,4.1-21,5.1-32,5.6C45.3,6.2,38.7,6,32.2,5.3c-6.1-0.6-11.9-3.8-17.9-5c0,0-0.1,0-0.1,0
		C9.6-0.8,3.4,1.1,0.6,5c0,0,0,0,0,0c0,0,0,0,0,0c2.1,0.7,3.4,4.7,4.4,6.5c0.9,1.6,1.9,2.8,3.3,4C12,18.5,16,21,19,24.5
		c0.2,0.2,0.3,0.3,0.4,0.3c0.9,4.8-1.5,10.5-2.4,14.9c-0.4,1.9-0.2,3.9,0.1,5.7c0.5,2.7,1,4.8,0.6,7.6c-1.9,13.4-5.6,27.3-8.6,40.6
		c-3,13.2-5.6,26.3-7.1,39.8c-0.8,7-1.2,14-1.6,21.1c-0.3,6,0.4,12.4-0.5,18.4c0,0.1,0.1,0.1,0.2,0.1c3.3-0.5,7.9,1.8,11.3,2.1
		c3.3,0.4,6.4,1.2,9.7,1.6c7.9,1,16.6,1.9,24.6,1.2c9.3-0.8,18.7-1.3,28-1.7c3-0.1,6-0.2,8.9-0.8c3.2-0.7,12.2-4.6,15-2.8
		c0.1,0.1,0.3,0,0.4-0.1c1.5-1.5,0.5-4.6,0.5-6.5C98.5,160.2,98.3,154.4,97.9,148.6z M88.7,91.9c-10-0.8-16.6-7.6-21.8-15.5
		c-4.2-6.5-4-14.1-6.2-21.2c6.8-0.3,13.3-1.3,19.7-3.5C81.4,65.2,85.6,78.7,88.7,91.9z M17.8,47c-3.3-7.8,5.7-17.3,1-25.1
		c-0.1-0.1-0.6,0-0.5,0.2c0.4,0.7,0.7,1.4,0.9,2.1c-3.7-3.5-7.6-6.5-11.5-9.8C5,12,4.6,6.2,1.1,4.9c2.5-3.6,8.5-5.5,12.8-4.3
		c0,0,0,0,0.1,0c5.4,1.1,10.6,4.1,16.1,4.8c6.7,0.8,13.4,1.2,20.1,0.9C61.9,5.8,73.1,4.9,84,0.6c0,0,0,0,0.1,0
		C88.7,0,94.6,1.1,97.6,5c-2.7,1.1-3.7,5.3-5.1,7.6c-1.6,2.7-4.8,4.6-7.2,6.6c-2.1,1.7-4.1,3.4-6,5.2c0.2-0.7,0.5-1.4,0.9-2.1
		c0.1-0.2-0.4-0.1-0.5,0c-4.7,7.8,5.2,17.5,0.5,25.2c0,0,0,0,0,0c0,0,0,0,0,0c0,0.1,0,0.3,0,0.4c0,0-0.1,0-0.1,0
		c-8.4,3.1-17.4,3.5-26.4,3.5c-11.7-0.1-24.2-1.2-35.7-3.2C18.1,47.7,18,47.3,17.8,47z M11.3,86.1c1.7-7.3,3.4-14.6,5.1-22
		c0.8-3.6,1.4-7.3,1.8-11c0-0.2,0-0.5,0.1-0.8c6.2,1.1,12.3,1.8,18.5,2.4c0,7.2-3,15.9-6.3,22.2C26.2,85,18.5,88.9,10.1,91.6
		C10.5,89.7,10.9,87.9,11.3,86.1z M97.7,172.1c-0.8-0.5-4.8,0-5.5,0.1c-4,0.9-7.2,2.5-11.3,3.2c-4,0.7-8.1,0.5-12.2,0.8
		c-8.2,0.4-16.4,1.1-24.6,1.5c-14.1,0.7-28.7-1.9-42.3-5.1c-1.5-0.4-1.3,0.6-1.3-0.7c0-4.5,0.1-9.1,0.2-13.6
		c0.3-8.3,0.8-16.6,1.7-24.9C4,119.3,7,105.6,10.1,91.8c7.5-2.4,13.5-5.2,18.6-11.6c2.8-3.5,4.6-7.8,5.8-12
		c1.2-4.2,2.7-9.1,2.8-13.6c6.6,0.5,13.2,0.8,19.9,0.7c1,0,2.1,0,3.1-0.1c1,3.5,1.4,7.6,2.2,11.1C63.5,71,65.3,75,68,79
		c4.9,7.2,11.8,12.6,20.7,13.3c0.1,0.5,0.2,1,0.3,1.5c3.5,15.7,6.5,31.3,7.8,47.4c0.7,7.7,1,15.4,1.1,23.1
		C98.1,165.2,98,172.3,97.7,172.1z"/>
</g>
</svg>
