<?xml version="1.0" encoding="utf-8"?>
<!-- Generator: Adobe Illustrator 18.1.1, SVG Export Plug-In . SVG Version: 6.00 Build 0)  -->
<!DOCTYPE svg PUBLIC "-//W3C//DTD SVG 1.1//EN" "http://www.w3.org/Graphics/SVG/1.1/DTD/svg11.dtd">
<svg version="1.1" id="Layer_1" xmlns="http://www.w3.org/2000/svg" xmlns:xlink="http://www.w3.org/1999/xlink" x="0px" y="0px"
	 viewBox="0 0 85.6 278.2" enable-background="new 0 0 85.6 278.2" xml:space="preserve">
<g>
	<g>
		<path fill="#4F87A0" d="M31.6,3C31.6,2.9,31.6,2.9,31.6,3c-8.1,0-16.2-0.7-24.4-2.6C6.4,2.2,5.6,4.1,4.9,6C5,6,5.1,6,5.2,6
			c8.9,1,17.7,1.7,26.5,2c0-0.1,0-0.3,0.1-0.4c0-0.5,0-0.9,0-1.4C31.6,5.1,31.6,4,31.6,3z"/>
		<path fill="#627F8F" d="M34.5,4.7c0,0-0.1,0.1-0.1,0.1c0,0,0,0.1-0.1,0.1c-0.4,0.9,1,2.2,1.4,1c0.2-0.4,0.1-0.7-0.2-1
			C35.4,4.7,34.7,4.2,34.5,4.7z"/>
		<path fill="#627F8F" d="M4.7,6.5c-0.8,2.3-1.5,4.7-2,7.1c0,0.1,0,0.2-0.1,0.3c-0.1,0.5-0.2,1.1-0.3,1.6c0,0.1,0,0.3-0.1,0.4
			c-0.1,1-0.3,2-0.3,2.9c0,0,0,0,0,0c-0.2,0.9-0.3,1.7-0.4,2.6c3.4-2,7-3.1,10.1-5.7c2.8-2.4,5.6-4.8,7.9-7.7C19.5,8,19.8,8,20,7.9
			C15,7.6,9.9,7.1,4.8,6.5C4.8,6.5,4.7,6.5,4.7,6.5z"/>
		<path fill="#4F87A0" d="M74.5,165.9c-1.1-6.3-2.5-12.6-3.9-18.9c-1.4-6.3-1-12.3-0.3-18.7c2.2-18.9,9-37,12.4-55.7
			c1.9-10.5,2.2-20.9,2.4-31.6c0.1-4.4,0.3-8.7-0.3-13c-0.2-1.1-0.3-2.3-0.5-3.4c0-0.1,0-0.1,0-0.2c-0.2-1.2-0.5-2.4-0.8-3.7
			C83.4,21,83.2,21,83,20.9c-3.9-1.8-8.3-2.2-11.9-4.5c-3.6-2.3-7-5.2-9.1-8.9c0,0,0,0,0-0.1C54,8.3,46.1,8.7,38.2,8.6
			c0,4,0.5,7.9,0.7,11.9C39,24.2,39,28,40.3,31.5c0.1,0.2-0.9,0.4-0.9,0.2c-1.2-3.5-1.2-7.3-1.4-10.9c-0.2-4-0.7-8-0.7-12
			c0-0.1,0.1-0.1,0.1-0.1c-1.8,0-3.6,0-5.4-0.1c-0.1,0-0.2,0-0.2,0C28,8.4,24.2,8.2,20.3,8c0,0,0,0,0,0c-2.5,3.1-5.6,5.8-8.7,8.3
			c-3.1,2.5-6.7,3.5-10,5.5c0,0-0.1,0.1-0.3,0.1C1.2,23.5,1.1,25,1,26.7c0,0.2,0,0.5,0,0.7c0,0.1,0,0.3,0,0.4
			c-1.3,19.3,0.5,38,4.9,56.8c4.2,17.8,10.4,35.3,10.7,53.8c0.1,5.6-1.6,10.9-2.8,16.3c-1.7,7.5-3.3,15.1-4.3,22.7
			c-0.6,4.7-0.9,9.4-1,14c0,0.8,0,1.7,0.1,2.5c0.2,3.2,0.2,6.4,0.2,9.5c0.7,11.4,2.4,22.8,4.2,34.3c2.4,13.4,6.2,25.1,7.4,38.7
			c0.1,0,0.2,0,0.2,0.1c0.7,0.9,6.5,1.1,7.5,1.2c2.3,0.2,4.6,0.2,6.5-1.3c0.1,0,0.2-0.1,0.3-0.1c-0.4-1.8-0.1-3.8-0.1-5.6
			c0.1-3.9,0.2-7.8,0.4-11.8c0.3-6.7,0.7-13.5,0.7-20.2c0,0,0,0,0,0c0.1-16.4,1.8-32.8,2.1-49.1c0.1-6.4-2.1-12.6-2.6-19
			c-0.5-5.9-0.8-11.8,0-17.7c-1.4,1.5-3.1,2.8-5.1,3.9c-0.1,0-0.4,0-0.2-0.1c2.3-1.2,4.1-2.6,5.4-4.3c0-0.1,0-0.1,0-0.2
			c0-0.1,0.1-0.1,0.2-0.1c2.8-3.8,3.4-8.6,3.4-14c0-2.3,0.1-4.6,0.2-6.9c0.3-8.4,0.7-16.8,1.1-25.2c0.4-8.1,1.2-16.2,1.4-24.4
			c0.3-7.5,0.1-15.1,0-22.6c0-6.9-1.8-13-2-19.9c-1.5-0.5-2.8-1.2-4.2-2c-0.1-0.1-0.2-0.1-0.3-0.2c-0.2-0.1-0.4-0.3-0.6-0.4
			c-0.1,0,0.2-0.2,0.3-0.1c3.6,2.3,7.8,4.6,12.2,2c2-1.2,3.8-2.7,5.7-4.1c0.1,0,0.4-0.1,0.2,0c-1.1,0.8-2.1,1.7-3.3,2.6
			c-0.1,0.1-0.1,0.1-0.2,0.2c-1,0.8-2.1,1.5-3.3,2c-0.1,7.4-1.9,13.8-2,21.2c0,7.5-0.3,15.1,0.1,22.6c0.4,8,1,15.9,1.4,23.9
			c0.4,8.5,0.8,16.9,1.1,25.4c0.1,2.7,0.1,5.4,0.1,8c0,4.6,1,8.7,3.5,12c0.1,0,0.1,0,0.1,0c0,0.1,0,0.1,0,0.2
			c1.4,1.7,3.1,3.2,5.4,4.3c0.1,0.1-0.1,0.2-0.2,0.2c-2-1-3.7-2.3-5.1-3.8c0.8,6,0.5,12.2-0.1,18.3c-0.6,6.1-2.8,12.1-2.6,18.2
			c0.3,8.2,0.4,16.4,1,24.5c0.5,8.2,1.1,16.4,1.1,24.6c0,0,0,0,0,0c0,6.9,0.5,13.7,0.7,20.6c0.1,3.9,0.3,7.7,0.3,11.6
			c0,1.6,0.2,3.5-0.1,5.1c0.7,1.2,4.5,1.6,5.5,1.7c2,0.3,7,0.3,8.8-0.7c0,0,0,0,0,0c0,0,0-0.1,0-0.1l0,0c0,0,0-0.1,0.1-0.1
			c1.2-13.6,5.1-25.4,7.6-38.8c0,0,0,0,0,0c0.6-3.7,1.2-7.4,2-11c0.5-3.2,0.9-6.5,1.3-9.7c0.5-7.3,0.3-14.6,0.8-22
			C77.8,185,76.2,175.8,74.5,165.9z"/>
		<path fill="#627F8F" d="M82.6,16.9c-0.1-1.2-0.3-2.3-0.5-3.3c-0.1-0.2-0.1-0.4-0.2-0.7c0-0.1-0.1-0.2-0.1-0.3
			c-0.1-0.5-0.2-1-0.4-1.5c0-0.1,0-0.2-0.1-0.2c0,0,0-0.1,0-0.1v0c-0.4-1.3-0.8-2.5-1.3-3.8c-0.3-0.7-0.5-1.4-0.8-2.1
			c-5.5,1.1-11,1.9-16.4,2.6c2.1,3.5,5.3,6.5,8.8,8.6c3.6,2.1,7.8,2.7,11.6,4.4C83.1,19.1,82.9,18,82.6,16.9L82.6,16.9z"/>
		<path fill="#4F87A0" d="M77.6,0.5C62.3,0.8,47.5,2.9,32.5,2.9c0,1,0,2,0.1,2.9c0,0.4,0.1,0.9,0,1.4c0,0.3-0.1,0.5,0,0.7
			c15.5,0.4,30.9-0.6,46.6-3.7C78.7,3,78.3,1.7,77.6,0.5z M36.2,6.6c-0.6,0.6-2.1,0.7-2.6-0.2c-0.3-0.5-0.4-1.6,0.1-1.9
			C34.7,2.7,38,4.8,36.2,6.6z"/>
		<path fill="#603A17" d="M75.2,226.1c0.6-3,0.9-6,1.1-9.1c-0.4,3.2-0.8,6.5-1.3,9.7C75.1,226.6,75.1,226.4,75.2,226.1z"/>
		<path fill="#603A17" d="M8.5,191.4c-0.1,4,0,8.1,0.3,12.1c0-3.1,0-6.3-0.2-9.5C8.5,193,8.5,192.2,8.5,191.4z"/>
		<path fill="#603A17" d="M73.1,237.9c-2.4,13.4-6.3,25.2-7.6,38.8c0,0-0.1,0-0.1,0.1l0,0c0,0,0,0.1,0,0.1c0,0,0,0,0,0
			c-1.8,1-6.8,1-8.8,0.7c-0.9-0.1-4.8-0.5-5.5-1.7c0.3-1.6,0.1-3.5,0.1-5.1c0-3.9-0.2-7.7-0.3-11.6c-0.2-6.9-0.7-13.7-0.7-20.6
			c0,0,0,0,0,0c0-8.2-0.6-16.4-1.1-24.6c-0.5-8.2-0.7-16.3-1-24.5c-0.2-6.1,2-12.1,2.6-18.2c0.6-6,0.9-12.2,0.1-18.3
			c1.4,1.5,3.1,2.8,5.1,3.8c0.1,0.1,0.4-0.1,0.2-0.2c-2.3-1.2-4.1-2.6-5.4-4.3c0-0.1,0-0.1,0-0.2c0,0-0.1,0-0.1,0
			c-2.5-3.2-3.5-7.3-3.5-12c0-2.7,0-5.4-0.1-8c-0.3-8.5-0.7-16.9-1.1-25.4c-0.4-8-1-15.9-1.4-23.9c-0.4-7.5-0.1-15.1-0.1-22.6
			c0-7.4,1.8-13.8,2-21.2c1.1-0.5,2.2-1.2,3.3-2c0.1-0.1,0.2-0.1,0.2-0.2c1.1-0.9,2.2-1.8,3.3-2.6c0.1-0.1-0.2-0.1-0.2,0
			c-1.9,1.4-3.7,2.9-5.7,4.1c-4.3,2.6-8.6,0.3-12.2-2c-0.1-0.1-0.3,0.1-0.3,0.1c0.2,0.1,0.4,0.3,0.6,0.4c0.1,0.1,0.2,0.1,0.3,0.2
			c1.4,0.8,2.7,1.6,4.2,2c0.1,6.9,1.9,12.9,2,19.9c0,7.5,0.2,15.1,0,22.6c-0.3,8.1-1,16.3-1.4,24.4c-0.4,8.4-0.8,16.8-1.1,25.2
			c-0.1,2.3-0.2,4.6-0.2,6.9c0,5.4-0.6,10.2-3.4,14c-0.1,0-0.2,0-0.2,0.1c0,0.1,0,0.1,0,0.2c-1.3,1.7-3.1,3.1-5.4,4.3
			c-0.2,0.1,0.1,0.1,0.2,0.1c2.1-1.1,3.8-2.4,5.1-3.9c-0.8,5.9-0.5,11.8,0,17.7c0.6,6.4,2.8,12.6,2.6,19
			c-0.4,16.4-2.1,32.8-2.1,49.1c0,0,0,0,0,0c0,6.7-0.5,13.5-0.7,20.2c-0.2,3.9-0.3,7.8-0.4,11.8c0,1.8-0.3,3.8,0.1,5.6
			c-0.1,0-0.2,0.1-0.3,0.1c-1.9,1.4-4.3,1.4-6.5,1.3c-1-0.1-6.9-0.3-7.5-1.2c0,0-0.1-0.1-0.2-0.1c-1.2-13.6-5-25.3-7.4-38.7
			c-1.8-11.5-3.5-22.8-4.2-34.3c0,6.8,0,13.5,1.3,20.2c0.9,4.7,1.8,9.4,2.5,14.1c2.4,13.4,6.2,25.1,7.4,38.6c-0.3,0.1,1.1,1,1.8,1.2
			c1.7,0.3,6.5,0.6,8.2,0.6c1.8,0,3.7-0.6,5.2-1.7c0.2-0.1,0.1-0.2-0.1-0.2c-0.5-1.9-0.1-4.2-0.1-6.2c0.1-4,0.2-8,0.4-11.9
			c0.2-6.5,0.7-13,0.7-19.5c0-8.2,0.6-16.4,1.1-24.6c0.5-8.2,0.7-16.4,1-24.5c0.2-5.9-1.9-11.6-2.5-17.5c-0.7-6.5-1.1-13.1-0.1-19.6
			c1.6-2,2.7-4.4,3.4-7.2c0.8-3.5,0.2-7.3,0.3-10.9c0.3-8.2,0.6-16.4,1-24.5c0.4-8.2,0.9-16.3,1.4-24.5c0.5-7.9,0.3-15.9,0.2-23.8
			c-0.1-7.8-1.9-14.5-2-22.3c1.5,0.4,3,0.6,4.6,0.3c0.4-0.1,0.9-0.2,1.3-0.3c-0.1,7.4-1.9,13.7-2,21.1c0,7.9-0.2,15.9,0.2,23.8
			c0.4,8.3,1.1,16.6,1.5,24.9c0.4,8.3,0.8,16.6,1.1,24.9c0.1,3.4-0.2,6.9,0.2,10.3c0.3,3.2,1.6,6.1,3.5,8.3c0.9,6.2,0.6,12.5,0,18.8
			c-0.6,6.1-2.7,12-2.6,18.2c0.4,16.4,2.1,32.7,2.1,49.1c0,0,0,0,0,0c0,6.4,0.4,12.8,0.7,19.2c0.1,4,0.3,7.9,0.4,11.9
			c0,1.9,0.3,4.2-0.1,6.2c-0.1,0.1-0.2,0.2-0.2,0.3c0,0,0.1,0.1,0.1,0.1c0,0,0,0,0,0c0,0,0,0,0.1,0c1.1,1.3,4.8,1.6,6.2,1.7
			c2.1,0.2,6.8,0,8.6-1.1c0.4-0.3,0.1-0.2,0.1-0.3c1.2-13.6,5.2-25.5,7.6-38.9c0.6-3.7,1.1-7.4,1.7-11.1
			C74.3,230.5,73.7,234.2,73.1,237.9C73.1,237.9,73.1,237.9,73.1,237.9z"/>
		<path fill="#603A17" d="M83.7,20.5C83.7,20.5,83.7,20.5,83.7,20.5c-0.3-1.3-0.5-2.5-0.8-3.8c0-0.3-0.1-0.6-0.1-0.9
			c-0.1-1-0.2-1.9-0.4-2.8c-0.2-0.9-0.4-1.7-0.6-2.5c0,0,0-0.1,0-0.1c0,0,0,0,0,0c-0.1-0.3-0.2-0.5-0.3-0.8c-0.2-0.7-0.5-1.4-0.7-2
			c-0.1-0.3-0.2-0.6-0.3-0.8c-0.3-0.7-0.5-1.4-0.8-2.1c0.2-0.1,0.1-0.3-0.1-0.4c-0.5-1.3-0.9-2.6-1.5-3.8c0.1-0.1,0-0.2-0.1-0.2
			l-0.3,0C62.2,0.6,47.3,2.7,32.4,2.7c0,0-0.1,0-0.1,0C24,2.7,15.7,2,7.3,0.1L7,0c0,0,0,0,0,0C6.8,0,6.7,0.2,6.9,0.3c0,0,0,0,0,0
			C4.3,6.2,2.1,12.5,1.6,18.9c0,0,0,0,0,0c-0.2,1-0.4,1.9-0.6,2.9c0,0,0,0-0.1,0c-0.2,0.1-0.1,0.1,0,0.1c-1,6-1,12.4-1,18.4
			c0.1,10,0.7,20,2.5,29.9c1.8,10,4.3,19.8,6.8,29.6c2.4,9.1,4.8,18.1,6,27.5c0.8,6.7,1.4,13.1-0.1,19.7c-1.4,6.3-2.8,12.5-3.9,18.9
			c-1.5,8.6-2.9,16.8-2.7,25.4c0.1-4.6,0.4-9.3,1-14c0.9-7.6,2.6-15.2,4.3-22.7c1.2-5.4,2.9-10.8,2.8-16.3
			c-0.3-18.4-6.5-36-10.7-53.8C1.4,65.7-0.4,47,0.9,27.8c0-0.1,0-0.3,0-0.4c0-0.2,0-0.5,0-0.7c0.1-1.6,0.2-3.2,0.4-4.8
			c0.1,0,0.2,0,0.3-0.1c3.3-2,6.9-3,10-5.5c3.1-2.5,6.2-5.2,8.7-8.3c0,0,0,0,0,0c3.9,0.3,7.7,0.5,11.5,0.6c0.1,0,0.1,0,0.2,0
			c1.8,0,3.6,0.1,5.4,0.1c-0.1,0-0.1,0.1-0.1,0.1c0,4.1,0.5,8,0.7,12c0.2,3.7,0.1,7.4,1.4,10.9c0.1,0.2,1-0.1,0.9-0.2
			C39,28,39,24.2,38.9,20.5c-0.1-4-0.7-7.9-0.7-11.9c7.9,0,15.8-0.4,23.7-1.2c0,0,0,0,0,0.1c2.1,3.8,5.5,6.7,9.1,8.9
			c3.6,2.3,8.1,2.8,11.9,4.5c0.2,0.1,0.4,0,0.5-0.1c0.3,1.2,0.5,2.4,0.8,3.7c0,0.1,0,0.1,0,0.2c0.2,1.1,0.4,2.3,0.5,3.4
			c0.6,4.3,0.4,8.7,0.3,13c-0.2,10.7-0.5,21-2.4,31.6c-3.4,18.7-10.2,36.8-12.4,55.7c-0.8,6.4-1.2,12.4,0.3,18.7
			c1.4,6.3,2.8,12.5,3.9,18.9c1.7,9.8,3.2,19.1,2.6,29.2c-0.5,7.4-0.3,14.7-0.8,22c1.4-12.4,2.1-24.8,0.9-37.5
			c-0.8-7.8-2.5-15.8-4.2-23.5c-1.2-5.6-3.2-11.2-3.2-17c0-18.7,6.5-36.6,10.7-54.6c2.3-9.6,4.1-19.3,4.6-29.2
			c0.3-4.8,0.2-9.6,0.3-14.4c0-4.4,0.4-8.7-0.3-13C84.7,25.5,84.3,23,83.7,20.5z M19.4,8.1c-2.3,2.9-5.1,5.3-7.9,7.7
			c-3.1,2.6-6.7,3.8-10.1,5.7c0.1-0.9,0.2-1.7,0.4-2.6c0,0,0,0,0,0c0.1-1,0.2-2,0.3-2.9c0-0.1,0.1-0.3,0.1-0.4
			c0.1-0.5,0.2-1.1,0.3-1.6c0-0.1,0-0.2,0.1-0.3c0.5-2.4,1.2-4.8,2-7.1c0,0,0.1,0,0.1,0C9.9,7.1,15,7.6,20,7.9
			C19.8,8,19.5,8,19.4,8.1z M31.7,7.5c0,0.2,0,0.3-0.1,0.4C22.9,7.7,14.1,7,5.2,6C5.1,6,5,6,4.9,6c0.7-1.9,1.5-3.8,2.3-5.7
			c8.2,1.9,16.3,2.6,24.4,2.6c0,0,0,0,0,0c0,1.1,0.1,2.1,0.1,3.2C31.7,6.6,31.8,7.1,31.7,7.5z M32.6,8c0-0.2,0-0.5,0-0.7
			c0.1-0.4,0-0.9,0-1.4c-0.1-1-0.1-2-0.1-2.9c15,0,29.8-2.1,45.1-2.4c0.6,1.2,1.1,2.4,1.5,3.7C63.5,7.4,48.1,8.4,32.6,8z M71.8,15.8
			c-3.5-2-6.8-5-8.8-8.6c5.4-0.6,10.9-1.5,16.4-2.6c0.2,0.7,0.5,1.4,0.8,2.1c0.5,1.3,0.9,2.6,1.3,3.8v0c0,0,0,0.1,0,0.1
			c0,0.1,0,0.2,0.1,0.2c0.1,0.5,0.2,1,0.4,1.5c0,0.1,0.1,0.2,0.1,0.3c0.1,0.2,0.1,0.5,0.2,0.7c0.2,1.1,0.4,2.2,0.5,3.3h0
			c0.3,1.1,0.5,2.2,0.8,3.4C79.6,18.5,75.4,17.9,71.8,15.8z"/>
		<path fill="#603A17" d="M33.7,4.4c-0.6,0.4-0.4,1.4-0.1,1.9c0.5,0.9,1.9,0.9,2.6,0.2C38,4.8,34.7,2.7,33.7,4.4z M35.7,5.9
			c-0.4,1.2-1.8-0.1-1.4-1c0,0,0,0,0.1-0.1c0,0,0.1-0.1,0.1-0.1c0.2-0.5,0.9,0,1.1,0.1C35.8,5.2,35.9,5.5,35.7,5.9z"/>
	</g>
</g>
</svg>
