<?xml version="1.0" encoding="utf-8"?>
<!-- Generator: Adobe Illustrator 18.1.1, SVG Export Plug-In . SVG Version: 6.00 Build 0)  -->
<!DOCTYPE svg PUBLIC "-//W3C//DTD SVG 1.1//EN" "http://www.w3.org/Graphics/SVG/1.1/DTD/svg11.dtd">
<svg version="1.1" id="Layer_1" xmlns="http://www.w3.org/2000/svg" xmlns:xlink="http://www.w3.org/1999/xlink" x="0px" y="0px"
	 viewBox="0 0 93.9 112.1" enable-background="new 0 0 93.9 112.1" xml:space="preserve">
<path fill="#FFFEF3" d="M93.9,13.1c-0.3,2.6-3.3,5.6-5.6,7c-2.1,1.3-5.1,2.2-7.3,3.7c-1.5,1-2.7,2.3-3,4c0,0.1-0.1,0.3-0.1,0.4
	c0,0,0,0,0,0c0,0.6,0.1,1.2,0.2,1.8c0.4,2,1.4,3.8,2,5.7c0.1,0.3,0.2,0.7,0.3,1c0.1,0.5,0.2,1,0.3,1.5c0.5,3,0.3,6.4-1.2,9.1
	c0,0,0,0,0,0l0,0l-0.2,0.3c-0.2,0.3-0.4,0.6-0.6,0.9c-0.7,0.8-1.5,1.7-2.3,2.5c0,0,0.1,0,0.1,0c0,0,0,0.1,0,0.1
	c0.1,2.7-0.6,5.4-1.1,8c-0.1,0.3-0.1,0.6-0.2,0.9c-0.2,1-0.4,1.9-0.5,2.9c-0.4,2.3-0.8,4.6-1.2,6.9c-0.1,0.7-0.3,1.3-0.4,2
	c-0.2,0.9-0.4,1.9-0.6,2.8c-0.6,2.9-1.2,5.8-1.5,8.8c-0.1,0.9-0.1,1.8-0.1,2.7c0,2.7,0.3,5.5,1.2,8.2c0.3,0.8,0.6,1.6,1,2.5
	c0.1,0.1,0.1,0.3,0.2,0.4c1.3,2.5,3.2,4.7,5,6.9c0.1,0.1,0.2,0.2,0.3,0.3c0.1,0,0.2,0,0.1,0.1c-2.1,1.7-5.1,3-8.1,3.9
	c-1.7,0.5-3.5,0.9-5,1.2c-6.4,1.2-13,2.4-19.6,2.5c-6.7,0.2-13.6-0.6-20.1-2.1c-1.9-0.4-4.1-1-6.2-1.9c-2.1-0.8-4-1.9-5.4-3.2
	c0,0,0,0,0-0.1l-0.1-0.1c0.2-0.2,0.4-0.4,0.6-0.7c1.7-2,3.4-4.7,4.3-7.2c0.2-0.5,0.3-1,0.4-1.4c0.1-0.4,0.2-0.9,0.3-1.4
	c0.5-2.6,0.8-5.3,1.1-7.9c0-0.4,0.1-0.9,0.1-1.3c0-0.5,0.1-1.1,0.1-1.6c0.1-2.8-0.4-5.6-1-8.4c-0.2-1.1-0.5-2.1-0.7-3.2
	c-0.1-0.3-0.1-0.6-0.2-0.9c-0.6-2.5-1-5.1-1.4-7.6c-0.1-1.1-0.3-2.1-0.4-3.2c-0.3-2.7-0.5-5.5-0.6-8.2c0-0.7-0.1-1.3-0.1-2
	c0,0,0-0.1,0.1-0.1c-0.5-0.5-0.9-1-1.2-1.5c-0.2-0.2-0.3-0.5-0.4-0.7c-0.1-0.1-0.1-0.3-0.2-0.4l-0.2-0.4c0,0,0,0,0,0
	c-1-2.2-1.5-4.7-1.4-7.2c0.1-1,0.2-2.1,0.6-3c0.1-0.4,0.2-0.7,0.4-1.1c0.9-2,1.6-4.1,1.9-6.3c0.1-0.4,0.1-0.8,0.2-1.1
	c0,0-0.1,0-0.1,0c-0.1-0.9-0.3-1.6-0.7-2.3c-1.7-2.8-6-3.7-8.8-5.4c-2.5-1.6-6.1-4.4-6.4-7.4c0-0.1,0.1-0.1,0.2-0.1
	c0.2-0.7,0.4-1.4,0.6-2c0.3-1,0.7-1.9,1.2-2.8c0.3-0.5,0.5-1,0.8-1.5C3.7,5.2,4.7,3,6.1,1.8c0.5-0.5,1.1-0.8,1.8-1
	c0.4-0.1,0.8-0.1,1.2-0.2C13.5,0.1,17.8,1,22,1c0,0,0.1,0,0.1,0l0.2,0.1c0-0.1,0.3-0.2,0.4,0c6.9,7,19.4,5.9,28.6,5.3
	c7-0.5,15.4-1.2,21.1-5.5c0,0,0,0,0,0c0,0,0-0.1,0-0.1c1,0,1.6-0.1,2.6-0.2c2.1-0.3,4-0.6,6-0.6c0.7,0,1.5,0,2.2,0.1
	c0.6,0.1,1.2,0.2,1.8,0.4c2.7,0.8,4.6,3,6,5.5c0.4,0.7,0.7,1.5,1,2.3c0.6,1.6,1,3.3,1.2,4.8"/>
<path fill="#FFFEF3" d="M22.3,53.2c1.2,0.4,2.4,0.7,3.6,0.7C24.6,53.7,23.5,53.5,22.3,53.2z"/>
<path fill="#FFFEF3" d="M30.5,32.7c-4.7-0.8-9.5-2-14.1-3.4c-0.1,0.5-0.1,1-0.3,1.5c-0.1,0.3-0.1,0.5-0.2,0.8
	c-0.1,0.2-0.1,0.4-0.2,0.6c-0.2,0.5-0.4,1.1-0.6,1.6c0,0.1-0.1,0.2-0.1,0.2c-0.3,0.9-0.6,1.7-0.9,2.6c7.4,2.3,15,4.5,22.7,5.2
	c14.5,1.4,29.2-0.6,42.9-6c-0.1-0.3-0.3-0.7-0.4-1c-0.1-0.2-0.2-0.3-0.2-0.5c0-0.1-0.1-0.1-0.1-0.2c-0.2-0.5-0.4-1-0.6-1.5
	c-0.1-0.3-0.2-0.5-0.3-0.8c-0.2-0.6-0.3-1.2-0.4-1.8c-0.1-0.7-0.1-1.4-0.1-2.1C62.5,33.8,46.2,35.5,30.5,32.7z"/>
<path fill="#FFFEF3" d="M29.4,43.6c-5.4-0.9-10.7-2.2-16-3.9c-0.1,1-0.1,2.1,0.2,3.2c0.4,2,1.2,3.9,2.4,5.6c6.7,2,13.4,3.6,20.2,4.3
	c14.3,1.4,28.9-0.4,42.6-5.1c1-1.6,1.6-3.3,1.7-5.2c0.1-1.4,0.1-2.8-0.2-4.1C64.1,44.7,46.5,46.6,29.4,43.6z"/>
<path fill="#FFFEF3" d="M93.2,13.8c-0.1-0.8-0.1-1.2-0.4-2.2c-0.2-0.9-0.6-1.9-1-3c-17.9,12.3-39.6,17-60.2,13.3
	c-8.7-1.5-17.3-4.1-25.5-8.1c-1.6-0.8-3.4-1.7-5-2.9c-0.2,0.5-0.3,1.1-0.5,1.6c0,0.1-0.1,0.3-0.1,0.4c0.3,1.8,2.3,4.4,3.8,5.5
	c1.8,1.3,3.6,2.4,5.6,3.4c2.4,1.1,4.9,2.1,5.9,4.2c0,0,0.1,0,0.1,0c-0.1-1.4-0.4-2.8-1-4.1c-0.1-0.1,0.3-0.2,0.3-0.1
	c0.5,1.2,0.9,2.8,1,4.3c6.9,2.1,13.9,4.2,21,4.9c13.6,1.4,27.5-0.6,40.4-5.8c0.1-1.1,0.4-2.1,0.8-3.1c0-0.1,0.4-0.1,0.3,0
	c-0.4,0.9-0.6,1.9-0.8,3c0.4-0.2,0.8-0.3,1.2-0.5c0.7-0.6,1.5-1.1,2.6-1.5c2.4-1.1,4.8-2.2,6.9-3.8C90.4,18,92.6,15.7,93.2,13.8"/>
<path fill="#FFFEF3" d="M65.6,54.2c0.1,0,0.1,0,0.2,0c0.4,0,0.8,0.1,1.2,0.1c0.1,0,0.1,0,0.2,0c0.3,0,0.7,0,1,0
	c1.8,0,3.7-0.5,5.6-1.7c0.6-0.4,1.2-0.8,1.7-1.2c-3.5,1.1-7.1,2-10.8,2.6C64.9,54.1,65.2,54.2,65.6,54.2z"/>
<path fill="#FFFEF3" d="M15.2,14.3c7.4,2.3,15,4.9,22.8,5.7c18.3,1.9,37-2.8,52.8-13.7c-1.3-2.6-3.2-5-5.7-5.7
	C69.2,10.6,50.5,14.3,32.6,11c-8-1.4-16-3.9-23.5-7.6C8.4,3,7.6,2.6,6.8,2.2C4.8,3.6,3.3,5.7,2.2,8C4.8,11.3,12,13.5,15.2,14.3z"/>
<path fill="#FFFEF3" d="M38.5,9.1c14.3,1.5,29-1.5,42-8.7c-2.1,0.1-4.2,0.4-6.5,0.6C74,1,74,1,73.9,1c-0.1,0-0.1,0-0.2,0
	C73.3,1,73.1,1,72.8,1c0,0,0,0-0.1,0.1c-6.7,5-16.7,5.3-24.9,5.8c-8.1,0.5-19.3,0.4-25.4-5.5c-0.1,0-0.1,0-0.2,0c-0.1,0-0.2,0-0.3,0
	c-0.7,0-1.3,0-2-0.1c-0.1,0-0.2,0-0.3,0c-2.8-0.3-5.6-0.8-8.5-0.6c-0.6,0-1.1,0.1-1.6,0.3c2.8,1.4,6.1,2.4,8,2.9
	C24.4,5.9,31.4,8.4,38.5,9.1z"/>
<path fill="#FFFEF3" d="M25.1,87c-1.4-0.2-2.8-0.5-4.2-0.8c-0.1,2.6-0.5,5.3-1,8c4.6,1,9.3,1.8,13.9,2.2c12.6,1.2,25.3,0.5,37.8-2
	c-0.9-2.8-1.2-5.5-1.2-8.2C55.5,89.2,40.1,89.6,25.1,87z"/>
<path fill="#FFFEF3" d="M23,108.7c-0.6-0.1-1.1-0.2-1.7-0.3c2.3,0.8,4.6,1.3,6.5,1.7c5.3,1,10.9,1.9,16.4,1.7
	c5.8-0.1,11.8-0.8,17.5-1.8c1.8-0.3,3.9-0.7,6-1.2C52.8,111.2,37.8,111.2,23,108.7z"/>
<path fill="#FFFEF3" d="M27.3,65.3c-3.1-0.5-6.2-1.2-9.3-1.9c0.4,2.8,0.9,5.6,1.6,8.5c5.1,1.3,10.3,2.2,15.5,2.7
	c12.5,1.2,25.2,0.3,37.5-2.7c0.6-2.9,1.1-5.9,1.6-8.9C58.8,67.2,42.8,68,27.3,65.3z"/>
<path fill="#FFFEF3" d="M68.1,54.5C68.1,54.5,68.1,54.5,68.1,54.5c-0.1,0-0.1,0-0.2,0c-0.4,0-0.7,0-1.1,0c0,0-0.1,0-0.1,0
	c-0.4,0-0.7,0-1.1-0.1c-0.1,0-0.1,0-0.2,0c-0.4,0-0.8-0.1-1.1-0.1c0,0-0.1,0-0.1,0c0,0-0.1,0-0.1,0c-11.8,2.2-23.9,2.3-35.8,0.2
	c-0.2,0-0.5-0.1-0.7-0.1c-1.8,0.1-3.7-0.1-5.7-0.8c-0.5-0.2-1-0.4-1.5-0.7c-1.2-0.3-2.4-0.6-3.6-0.9c0,0.5,0.1,1,0.1,1.5
	c0,0.1,0,0.2,0,0.4c0.1,2.1,0.3,4.2,0.6,6.3c6,1.6,12,2.9,18,3.5c13.1,1.3,26.3,0.1,39.1-3.5c0.5-2.4,1.2-5,1.3-7.5
	c0-0.3,0-0.6,0-0.9c0-0.2,0-0.4,0-0.5c0,0,0,0,0,0c-1.4,1.3-3.1,2.3-5,2.8C70,54.3,69,54.5,68.1,54.5z"/>
<path fill="#FFFEF3" d="M26.2,76.2c-2-0.3-4-0.7-6-1.2c0.5,2.8,0.8,5.6,0.8,8.3c4.5,1,8.9,1.8,13.4,2.2c12,1.1,24.2,0.5,36.1-2
	c0.2-2.9,0.8-5.8,1.4-8.7C56.9,78.2,41.4,78.7,26.2,76.2z"/>
<path fill="#FFFEF3" d="M24.1,97.9c-1.6-0.3-3.3-0.6-4.9-0.9c-1.2,3.4-3.3,6-4.3,7.2c6.1,1.5,12.3,2.6,18.4,3.1
	c14.8,1.4,29.8,0.3,44.4-3.1c-1.8-2.2-3.7-4.4-4.9-6.9c-0.1-0.1-0.1-0.3-0.2-0.4C56.6,100.2,40.2,100.6,24.1,97.9z"/>
<path fill="#FDE700" d="M32.6,11c17.9,3.3,36.6-0.4,52.5-10.4c-0.3-0.1-0.6-0.1-0.9-0.2c-1.3-0.1-2.4-0.1-3.6,0
	c-13,7.2-27.7,10.2-42,8.7c-7.1-0.7-14.1-3.1-21-5.3c-1.8-0.5-5.2-1.5-8-2.9c-1,0.3-2,0.7-2.8,1.3C7.6,2.6,8.4,3,9.1,3.4
	C16.6,7.1,24.6,9.5,32.6,11z"/>
<path fill="#FDE700" d="M37.9,20c-7.7-0.8-15.4-3.3-22.8-5.7C12,13.5,4.8,11.3,2.2,8C1.8,9,1.4,9.9,1.1,10.8c1.6,1.1,3.3,2.1,5,2.9
	c8.2,4,16.8,6.6,25.5,8.1c20.6,3.8,42.3-1,60.2-13.3c-0.3-0.7-0.6-1.5-1-2.3C75,17.2,56.2,21.9,37.9,20z"/>
<path fill="#FDE700" d="M16.1,26.1c0-0.1,0-0.1,0-0.2c0,0-0.1,0-0.1,0C16,26,16,26,16.1,26.1z"/>
<path fill="#FDE700" d="M37.4,30.9c-7.1-0.7-14.1-2.7-21-4.9c0,0.5,0.1,1.1,0.1,1.6c0,0.1,0,0.1,0,0.2c0,0,0,0,0,0
	c0,0.5,0,1-0.1,1.4c4.7,1.5,9.4,2.6,14.1,3.4c15.8,2.8,32.1,1.1,47.1-4.7c0-0.9,0-1.9,0.2-2.8C64.9,30.3,51,32.3,37.4,30.9z"/>
<path fill="#FDE700" d="M77.9,26.6c0.3-0.9,0.7-1.5,1.4-2.1c-0.4,0.2-0.8,0.3-1.2,0.5C78,25.5,78,26.1,77.9,26.6z"/>
<path fill="#FDE700" d="M36.8,41.8c-7.7-0.7-15.3-2.9-22.7-5.2c-0.3,1-0.5,2-0.7,3c5.3,1.7,10.6,3,16,3.9c17.1,3,34.7,1.2,51-5.2
	c-0.1-0.8-0.4-1.7-0.7-2.5C66,41.2,51.2,43.3,36.8,41.8z"/>
<path fill="#FDE700" d="M16.8,50.1c0,0.6,0.1,1.2,0.1,1.8c1.2,0.3,2.4,0.6,3.6,0.9C19.2,52.1,17.8,51.2,16.8,50.1z"/>
<path fill="#FDE700" d="M36.2,52.7c-6.8-0.6-13.6-2.3-20.2-4.3c1.1,1.6,2.6,2.9,4.4,3.9c0.6,0.3,1.3,0.6,1.9,0.9
	c1.2,0.3,2.4,0.5,3.6,0.7c2.7,0.2,5.4-0.4,8.4-0.8c0.2,0,0.2,0.2,0,0.2c-2.4,0.3-4.5,0.8-6.6,0.9c0.2,0,0.5,0.1,0.7,0.1
	c11.8,2.1,23.9,2,35.8-0.2c-0.4-0.1-0.8-0.1-1.2-0.2c-0.3,0-0.6-0.1-0.9-0.1c-0.1,0-0.2,0-0.3,0c-0.3,0-0.6-0.1-0.9-0.1
	c-0.1,0-0.1,0-0.2,0c-0.4,0-0.7-0.1-1.1-0.1c-0.1,0-0.2,0-0.3,0c-0.4,0-0.8,0-1.2,0c-0.2,0,0-0.2,0.1-0.2c0.4,0,0.8,0,1.2,0
	c0.1,0,0.3,0,0.4,0c0.3,0,0.6,0,0.8,0.1c0.1,0,0.3,0,0.4,0c0.3,0,0.6,0.1,0.9,0.1c0.1,0,0.2,0,0.3,0c0.4,0.1,0.7,0.1,1.1,0.2
	c0.4,0.1,0.8,0.1,1.2,0.2c0.1,0,0.2,0,0.3,0c0,0,0,0,0.1,0c3.6-0.7,7.2-1.6,10.8-2.6c1.4-1.1,2.5-2.4,3.4-3.8
	C65.1,52.4,50.5,54.1,36.2,52.7z"/>
<path fill="#FDE700" d="M35.6,63.7c-6.1-0.6-12.1-1.9-18-3.5c0.1,1.1,0.2,2.1,0.4,3.2c3.1,0.7,6.2,1.4,9.3,1.9
	c15.6,2.7,31.6,1.9,46.9-2.2c0.1-0.8,0.3-1.5,0.4-2.3c0-0.2,0.1-0.4,0.1-0.6C61.9,63.7,48.7,64.9,35.6,63.7z"/>
<path fill="#FDE700" d="M35,74.6c-5.2-0.5-10.4-1.5-15.5-2.7c0,0,0,0,0,0c0.3,1.1,0.5,2.1,0.7,3.1c2,0.4,4,0.8,6,1.2
	c15.2,2.6,30.7,2.1,45.7-1.4c0.2-0.8,0.3-1.6,0.5-2.4c0-0.1,0.1-0.3,0.1-0.4C60.2,74.9,47.5,75.8,35,74.6z"/>
<path fill="#FDE700" d="M34.4,85.5c-4.5-0.4-9-1.2-13.4-2.2c0,1,0,1.9-0.1,2.9c1.4,0.3,2.8,0.5,4.2,0.8c15,2.5,30.4,2.2,45.3-0.8
	c0-0.9,0-1.8,0.1-2.7C58.6,85.9,46.5,86.6,34.4,85.5z"/>
<path fill="#FDE700" d="M33.8,96.4c-4.7-0.4-9.3-1.2-13.9-2.2c0,0.2-0.1,0.4-0.1,0.6c-0.2,0.8-0.4,1.5-0.6,2.2
	c1.6,0.3,3.3,0.6,4.9,0.9c16.1,2.7,32.5,2.3,48.5-1c-0.4-0.8-0.7-1.7-1-2.5C59.2,96.9,46.4,97.6,33.8,96.4z"/>
<path fill="#FDE700" d="M33.3,107.3c-6.2-0.6-12.3-1.7-18.4-3.1c-0.2,0.2-0.3,0.4-0.4,0.5c0.1,0,0.2,0,0.2,0
	c1.6,1.6,4.1,2.8,6.7,3.7c0.6,0.1,1.1,0.2,1.7,0.3c14.8,2.5,29.9,2.5,44.6,0.1c3.8-0.9,7.7-2.2,10.3-4.3c-0.1-0.1-0.2-0.2-0.3-0.4
	C63.1,107.6,48.1,108.7,33.3,107.3z"/>
<path fill="#603A17" d="M14.1,36.6c-0.2-0.1-0.3-0.1-0.5-0.2c-0.3,1-0.5,2-0.6,3c0.1,0,0.3,0.1,0.4,0.1
	C13.5,38.6,13.8,37.6,14.1,36.6z"/>
<path fill="#603A17" d="M93.2,13.8c-0.6,2-2.8,4.3-4.4,5.5c-2.1,1.6-4.5,2.6-6.9,3.8c-1,0.5-1.9,1-2.6,1.5c-0.6,0.6-1.1,1.2-1.4,2.1
	c0-0.5,0.1-1.1,0.2-1.6c0.2-1.1,0.4-2.1,0.8-3c0-0.1-0.3-0.1-0.3,0c-0.4,1-0.7,2-0.8,3.1c-0.1,0.9-0.2,1.9-0.2,2.8
	c0,0.7,0.1,1.4,0.1,2.1c0.1,0.6,0.2,1.2,0.4,1.8c0.1,0.3,0.2,0.5,0.3,0.8c0.2,0.5,0.4,1,0.6,1.5c0,0.1,0.1,0.1,0.1,0.2
	c0.1,0.2,0.1,0.3,0.2,0.5c0.2,0.3,0.3,0.7,0.4,1c0.3,0.8,0.5,1.7,0.7,2.5c0.2,1.3,0.3,2.6,0.2,4.1c-0.2,1.9-0.8,3.7-1.7,5.2
	c-0.9,1.4-2,2.7-3.4,3.8c-0.6,0.4-1.1,0.9-1.7,1.2c-2,1.2-3.8,1.6-5.6,1.7c-0.3,0-0.7,0-1,0c-0.1,0-0.1,0-0.2,0
	c-0.4,0-0.8,0-1.2-0.1c-0.1,0-0.1,0-0.2,0c-0.3,0-0.6-0.1-0.9-0.1c0,0,0,0-0.1,0c-0.1,0-0.2,0-0.3,0c-0.4-0.1-0.8-0.1-1.2-0.2
	c-0.4-0.1-0.7-0.1-1.1-0.2c-0.1,0-0.2,0-0.3,0c-0.3,0-0.6-0.1-0.9-0.1c-0.1,0-0.3,0-0.4,0c-0.3,0-0.6,0-0.8-0.1c-0.1,0-0.3,0-0.4,0
	c-0.4,0-0.8,0-1.2,0c-0.1,0-0.4,0.2-0.1,0.2c0.4,0,0.8,0,1.2,0c0.1,0,0.2,0,0.3,0c0.4,0,0.8,0,1.1,0.1c0.1,0,0.2,0,0.2,0
	c0.3,0,0.6,0.1,0.9,0.1c0.1,0,0.2,0,0.3,0c0.3,0,0.6,0.1,0.9,0.1c0.4,0.1,0.8,0.1,1.2,0.2c0,0,0.1,0,0.1,0c0,0,0.1,0,0.1,0
	c0.4,0.1,0.8,0.1,1.1,0.1c0.1,0,0.1,0,0.2,0c0.4,0,0.7,0.1,1.1,0.1c0,0,0.1,0,0.1,0c0.4,0,0.7,0,1.1,0c0,0,0.1,0,0.1,0c0,0,0,0,0,0
	c1,0,2-0.1,3-0.4c1.9-0.5,3.5-1.5,5-2.8c0,0,0,0,0,0c0,0.2,0,0.4,0,0.5c0,0.3,0,0.6,0,0.9c-0.1,2.5-0.8,5-1.3,7.5
	c0,0.2-0.1,0.4-0.1,0.6c-0.2,0.8-0.3,1.5-0.4,2.3c-0.5,3-1,5.9-1.6,8.9c0,0.1-0.1,0.3-0.1,0.4c-0.2,0.8-0.3,1.6-0.5,2.4
	c-0.6,3-1.2,5.9-1.4,8.7c-0.1,0.9-0.1,1.8-0.1,2.7c0,2.7,0.3,5.4,1.2,8.2c0.3,0.8,0.6,1.6,1,2.5c0.1,0.1,0.1,0.3,0.2,0.4
	c1.2,2.5,3,4.7,4.9,6.9c0.1,0.1,0.2,0.2,0.3,0.4c-2.6,2.1-6.5,3.4-10.3,4.3c0.9-0.1,1.8-0.3,2.7-0.5c3-0.9,6.1-2.2,8.1-3.9
	c0.1-0.1,0-0.1-0.1-0.1c-0.1-0.1-0.2-0.2-0.3-0.3c-1.8-2.2-3.7-4.4-5-6.9c-0.1-0.1-0.1-0.3-0.2-0.4c-0.4-0.8-0.7-1.6-1-2.5
	c-0.9-2.7-1.3-5.4-1.2-8.2c0-0.9,0.1-1.8,0.1-2.7c0.3-2.9,0.8-5.8,1.5-8.8c0.2-0.9,0.4-1.9,0.6-2.8c0.1-0.7,0.3-1.3,0.4-2
	c0.5-2.3,0.8-4.6,1.2-6.9c0.2-1,0.3-1.9,0.5-2.9c0.1-0.3,0.1-0.6,0.2-0.9c0.5-2.6,1.2-5.3,1.1-8c0,0,0-0.1,0-0.1c0,0,0,0-0.1,0
	c0.9-0.8,1.6-1.6,2.3-2.5c0.2-0.3,0.4-0.6,0.6-0.9l0.2-0.3l0,0c0,0,0,0,0,0c1.5-2.7,1.7-6.1,1.2-9.1c-0.1-0.5-0.2-1-0.3-1.5
	c-0.1-0.3-0.2-0.7-0.3-1c-0.7-1.9-1.7-3.7-2-5.7c-0.1-0.5-0.2-1.1-0.2-1.8c0,0,0,0,0,0c0-0.1,0-0.3,0.1-0.4c0.3-1.8,1.5-3,3-4
	c2.3-1.5,5.2-2.4,7.3-3.7c2.3-1.4,5.3-4.3,5.6-7"/>
<path fill="#603A17" d="M93.5,13c-0.2-1.5-0.6-3.2-1.2-4.8c-0.3-0.8-0.6-1.5-1-2.3c-1.4-2.5-3.3-4.6-6-5.5c-0.6-0.2-1.2-0.3-1.8-0.4
	C82.6,0,81.9,0,81.2,0c-2,0-4,0.3-6,0.6c-1.1,0.2-1.6,0.3-2.6,0.2c0,0,0,0.1,0,0.1c0,0,0,0,0,0c-5.7,4.3-14.1,5-21.1,5.5
	C42.2,7,29.7,8.1,22.8,1.1c-0.1-0.1-0.4-0.1-0.4,0L22.2,1c0,0-0.1,0-0.1,0c-4.2,0-8.6-0.9-12.9-0.4C8.7,0.7,8.3,0.7,7.9,0.8
	C7.3,1,6.7,1.3,6.1,1.8C4.7,3,3.7,5.2,2.9,6.4c-0.3,0.5-0.6,1-0.8,1.5c-0.5,0.9-0.9,1.8-1.2,2.8c-0.2,0.7-0.5,1.3-0.6,2
	c-0.1,0-0.2,0.1-0.2,0.1c0.3,3,3.9,5.9,6.4,7.4c2.8,1.8,7.1,2.6,8.8,5.4c0.4,0.6,0.7,1.4,0.7,2.3c0,0,0,0,0.1,0
	c0,0.4-0.1,0.8-0.2,1.1c-0.3,2.2-1,4.3-1.9,6.3c-0.2,0.3-0.3,0.7-0.4,1.1c0.2,0.1,0.3,0.1,0.5,0.2c0.3-0.9,0.6-1.7,0.9-2.6
	c0-0.1,0.1-0.2,0.1-0.2c0.2-0.5,0.4-1.1,0.6-1.6c0.1-0.2,0.1-0.4,0.2-0.6c0.1-0.3,0.2-0.5,0.2-0.8c0.1-0.5,0.2-1,0.3-1.5
	c0.1-0.5,0.1-0.9,0.1-1.4c0,0,0,0,0,0c0-0.1,0-0.1,0-0.2c0-0.5,0-1.1-0.1-1.6c-0.1-1.5-0.5-3.1-1-4.3c-0.1-0.1-0.4-0.1-0.3,0.1
	c0.6,1.3,0.9,2.7,1,4.1c0,0.1,0,0.1,0,0.2c0-0.1-0.1-0.1-0.1-0.2c-1.1-2.1-3.5-3.1-5.9-4.2c-2-0.9-3.8-2-5.6-3.4
	c-1.5-1.1-3.5-3.7-3.8-5.5c0-0.1,0.1-0.3,0.1-0.4c0.1-0.5,0.3-1.1,0.5-1.6C1.4,9.9,1.8,9,2.2,8c1.1-2.3,2.6-4.5,4.6-5.8
	c0.8-0.6,1.8-1,2.8-1.3c0.5-0.1,1-0.2,1.6-0.3c2.9-0.1,5.7,0.4,8.5,0.6c0.1,0,0.2,0,0.3,0c0.7,0.1,1.3,0.1,2,0.1c0.1,0,0.2,0,0.3,0
	c0.1,0,0.1,0,0.2,0c6.1,5.9,17.3,6.1,25.4,5.5C56,6.4,66.1,6.2,72.8,1.1c0,0,0.1-0.1,0.1-0.1C73.1,1,73.3,1,73.7,1
	c0.1,0,0.1,0,0.2,0c0,0,0.1,0,0.2,0c2.2-0.2,4.3-0.5,6.5-0.6c1.2-0.1,2.4-0.1,3.6,0c0.3,0,0.6,0.1,0.9,0.2c2.4,0.7,4.3,3.1,5.7,5.7
	c0.4,0.8,0.7,1.5,1,2.3c0.5,1.1,0.8,2.2,1,3c0.3,1,0.3,1.4,0.4,2.2"/>
<path fill="#603A17" d="M67.6,108.8c-2.1,0.5-4.2,0.9-6,1.2c-5.7,1.1-11.7,1.7-17.5,1.8c-5.5,0.1-11-0.7-16.4-1.7
	c-1.9-0.4-4.3-0.9-6.5-1.7c-2.6-0.9-5.1-2.1-6.7-3.7c0,0-0.1,0-0.2,0c0.1-0.1,0.3-0.3,0.4-0.5c1-1.2,3.1-3.8,4.3-7.2
	c0.3-0.7,0.5-1.4,0.6-2.2c0-0.2,0.1-0.4,0.1-0.6c0.6-2.7,0.9-5.3,1-8c0-1,0.1-1.9,0.1-2.9c0-2.8-0.3-5.5-0.8-8.3
	c-0.2-1-0.4-2.1-0.7-3.1c0,0,0,0,0,0c-0.7-2.8-1.2-5.7-1.6-8.5c-0.1-1.1-0.3-2.1-0.4-3.2c-0.2-2.1-0.4-4.2-0.6-6.3
	c0-0.1,0-0.2,0-0.4c0-0.5-0.1-1-0.1-1.5c0-0.6-0.1-1.2-0.1-1.8c1.1,1.1,2.4,2,3.7,2.7c0.5,0.3,1,0.5,1.5,0.7c2,0.7,3.8,0.9,5.7,0.8
	c2.1-0.1,4.2-0.6,6.6-0.9c0.2,0,0.3-0.3,0-0.2c-3,0.4-5.7,1-8.4,0.8c-1.2-0.1-2.3-0.3-3.6-0.7c-0.6-0.2-1.3-0.5-1.9-0.9
	c-1.9-1-3.3-2.3-4.4-3.9c-1.2-1.6-1.9-3.5-2.4-5.6c-0.2-1.1-0.3-2.2-0.2-3.2c-0.1,0-0.3-0.1-0.4-0.1c-0.1,2.5,0.4,5,1.4,7.2
	c0,0,0,0,0,0l0.2,0.4c0.1,0.1,0.1,0.3,0.2,0.4c0.1,0.2,0.3,0.5,0.4,0.7c0.3,0.5,0.8,1,1.2,1.5c0,0-0.1,0.1-0.1,0.1
	c0,0.7,0.1,1.3,0.1,2c0.2,2.8,0.3,5.5,0.6,8.2c0.1,1.1,0.2,2.1,0.4,3.2c0.3,2.5,0.8,5,1.4,7.6c0.1,0.3,0.1,0.6,0.2,0.9
	c0.3,1.1,0.5,2.1,0.7,3.2c0.6,2.8,1,5.5,1,8.4c0,0.5,0,1.1-0.1,1.6c0,0.4-0.1,0.9-0.1,1.3c-0.2,2.6-0.6,5.3-1.1,7.9
	c-0.1,0.5-0.2,0.9-0.3,1.4c-0.1,0.5-0.3,1-0.4,1.4c-0.9,2.5-2.6,5.2-4.3,7.2c-0.2,0.2-0.4,0.5-0.6,0.7l0.1,0.1c0,0,0,0,0,0.1
	c1.4,1.3,3.3,2.4,5.4,3.2c2.1,0.8,4.3,1.4,6.2,1.9c6.5,1.6,13.4,2.3,20.1,2.1c6.5-0.2,13.2-1.3,19.6-2.5c1.5-0.3,3.3-0.7,5-1.2
	C69.4,108.5,68.5,108.7,67.6,108.8z"/>
</svg>
