<?xml version="1.0" encoding="utf-8"?>
<!-- Generator: Adobe Illustrator 18.1.1, SVG Export Plug-In . SVG Version: 6.00 Build 0)  -->
<!DOCTYPE svg PUBLIC "-//W3C//DTD SVG 1.1//EN" "http://www.w3.org/Graphics/SVG/1.1/DTD/svg11.dtd">
<svg version="1.1" id="Layer_1" xmlns="http://www.w3.org/2000/svg" xmlns:xlink="http://www.w3.org/1999/xlink" x="0px" y="0px"
	 viewBox="0 0 99.4 119" enable-background="new 0 0 99.4 119" xml:space="preserve">
<g display="none">
	<g display="inline">
		<path fill="#FFF8DD" d="M35,15.1c5.1,0.3,9.6-1.2,12.1-5.9c-4.8-0.4-9.3-3-10.8-7.6c0.7,2.1-10.5,3.8-9.7,5.7
			C28.2,11.1,30.3,14.8,35,15.1z"/>
		<path fill="#FFF8DD" d="M63,14.9c3.7-0.2,6.3-1.3,8.1-4.6c0.5-0.9,2.6-4,0.6-4.7c-2.3-0.8-4.6-1.4-6.7-2.6
			c-0.5-0.2-1.5-0.7-1.9-1.2c-0.2-0.3-0.2-0.5-0.2-0.6c0,0.1-0.1,0.2-0.2,0.4c-2.2,4.3-6,6.4-10.6,7.2C54.3,13,58.3,15.2,63,14.9z"
			/>
		<path fill="#FFF8DD" d="M48.2,100.1C49,95.7,49,91.3,49,86.8c0.1-8.3-0.7-16.6-0.6-24.9c0.2-17.3-1.2-34.6-1.3-51.9
			c-5.1,8.4-17.9,7.1-20.9-2.2c-0.1,0-0.2,0-0.2,0c-5-2.3-17-7.7-20.8-0.4c-2,3.8-4.1,9.3-4.6,13.6c-1.3,11.4,12.7,10.4,19.8,14.6
			c0.4-2.3,0.3-4.7-1.5-5.9c-0.2-0.1,0.3-0.3,0.4-0.2c3.5,2.3,1.1,8.5,0.1,11.5c-1.3,3.9-2.9,8.3-1.2,12.4c1.8,4.1,5.3,7.5,9.9,8.2
			c0.3,0-0.1,0.3-0.3,0.3c-2.9-0.4-5.8-2.1-7.9-4.4c0.4,6.6,1.5,13.4,1.5,20c0,3.6,0.2,7.4-0.2,11c-0.4,3.2-1.5,6.8-0.9,9.9
			c0.4,2,0.7,5.1,3,5.7c1.7,0.4,3.3,0.8,5,1.1c6.5,1.2,13.1,1.9,19.6,1.9C46.9,104.8,47.8,102.1,48.2,100.1z"/>
		<path fill="#FFF8DD" d="M72.9,7.7C69.8,17,56.4,18.3,51.7,9c-0.8,0.1-1.7,0.2-2.6,0.3c-0.5,0-1,0-1.4,0c0,17.5,1.5,35,1.3,52.5
			c-0.1,8.9,0.7,17.8,0.5,26.6c-0.1,3.4,0.1,6.8-0.5,10.1c-0.4,2.4-1.7,6-0.6,8.3c0,0,0,0,0,0c0.8,0,1.7,0,2.5-0.1
			c6.9-0.3,13.8-0.9,20.6-2.2c1.4-0.3,2.9-0.5,4.3-0.9c1.7-0.4,2.4-5.8,2.3-6.9c-0.3-7-1.9-13.8-1.1-21c0.6-5.7,0.9-11.5,1.4-17.3
			c-1.8,1.7-4,2.8-6.6,3.2c-0.3,0-0.2-0.2,0.1-0.3c2.4-0.4,4.7-1.6,6.6-3.3c0,0,0,0,0,0c0,0,0.1-0.1,0.1-0.1c2.1-2,3.6-4.7,3.7-7.6
			c0.2-4.6-1.8-8.4-2.9-12.7c-0.7-2.5-1.4-6.5,1.2-8.3c0.2-0.1,0.6,0,0.3,0.1c-1.8,1.2-2,3.4-1.6,5.6c2.5-1.5,5.1-2.1,7.9-2.8
			c3.6-0.9,7.2-2.2,9.9-4.9c3.3-3.2,1.9-6.3,0.9-9.8c-1-3.6-2.7-9.5-5.2-12.2C87.7,0.4,78.2,5.3,72.9,7.7z"/>
		<path fill="#603813" d="M88.9,3.2c-3.1-0.3-4.8,0.3-7.9,0.9c-3.1,0.6-5.2,1.9-8,3.2c0.1-0.4,0.2-0.8,0.3-1.2
			c0-0.1-0.1-0.1-0.1-0.2C70,4.3,65.4,3.9,63,1c-0.1-0.1-0.4-0.1-0.5,0.1c-3.8,9.6-22.7,11.2-25.7,0.2c-0.1-0.2-0.4-0.1-0.5,0
			c-2.5,3-7,3.3-10.3,4.9c-0.1,0-0.2,0.1-0.1,0.2c0.1,0.4,0.2,0.7,0.2,1C20.4,4.8,15.8,3,9.2,3.7c-4,0.4-5.6,6.1-6.6,9.1
			C0.7,18.6-2.3,24.4,3,28.9c5,4.3,11.9,3.8,17.3,7.1c0,0,0.1,0,0.1,0c-0.3,1.3-0.7,2.5-1,3.4c-1.2,3.7-2.6,7.2-2.4,11.1
			c0.1,2.2,1,4.3,2.4,6.1c0.4,7.5,1.5,15.1,1.5,22.7c0,4.8-0.2,9.4-0.9,14.3c-0.6,3.6-0.2,7,1.8,10.2c0.9,1.5,8.4,1.8,9.9,2.1
			c5.4,0.9,10.9,1.2,16.4,1.1c0,0,0.1,0,0.1,0c2.1,0,4.2-0.1,6.3-0.2c6-0.3,11.9-1.1,17.8-2.1c0.6-0.1,3.8-0.3,4.2-1
			c4.1-6.6,0.8-15.4,0.8-22.6c0-7.7,0.9-15.4,1.6-23c0,0,0,0,0,0c1.3-1.3,2.4-2.9,3.2-4.7c1.5-3.5,0.5-7.4-0.6-10.8
			c-0.5-1.6-1.7-4.3-2.2-6.9c0,0,0,0,0,0c5.1-3.1,11.5-2.7,16.3-6.4c1.1-0.8,3.8-2.7,3.8-4.4c0-4-1-7.7-2.3-11.4
			C95.9,10.3,93.2,3.6,88.9,3.2z M62.8,1.7c0.1-0.2,0.1-0.3,0.2-0.4c0,0.1,0,0.3,0.2,0.6c0.3,0.4,1.4,0.9,1.9,1.2
			c2.1,1.1,4.4,1.7,6.7,2.6c2,0.7-0.1,3.8-0.6,4.7c-1.8,3.3-4.4,4.4-8.1,4.6c-4.7,0.3-8.7-1.9-10.8-6C56.8,8.1,60.6,5.9,62.8,1.7z
			 M36.3,1.6c1.5,4.6,5.9,7.2,10.8,7.6c-2.5,4.7-7,6.2-12.1,5.9c-4.7-0.3-6.8-4-8.4-7.7C25.8,5.4,37,3.7,36.3,1.6z M28.2,105
			c-1.7-0.3-3.4-0.7-5-1.1c-2.3-0.6-2.6-3.7-3-5.7c-0.6-3.1,0.5-6.7,0.9-9.9c0.4-3.6,0.2-7.4,0.2-11c0-6.6-1-13.4-1.5-20
			c2.1,2.3,4.9,4,7.9,4.4c0.2,0,0.6-0.2,0.3-0.3c-4.6-0.7-8.1-4.1-9.9-8.2c-1.8-4-0.2-8.5,1.2-12.4c1-2.9,3.5-9.1-0.1-11.5
			c-0.1-0.1-0.6,0.1-0.4,0.2c1.9,1.2,2,3.6,1.5,5.9C13.3,31.4-0.7,32.4,0.6,21c0.5-4.3,2.6-9.8,4.6-13.6c3.8-7.3,15.9-1.8,20.8,0.4
			c0.1,0,0.1,0,0.2,0c2.9,9.3,15.8,10.5,20.9,2.2c0,17.3,1.5,34.6,1.3,51.9c-0.1,8.3,0.7,16.6,0.6,24.9c0,4.5,0,8.9-0.8,13.3
			c-0.4,2-1.3,4.7-0.3,6.7C41.3,106.9,34.7,106.2,28.2,105z M96.8,27.7c-2.7,2.6-6.3,4-9.9,4.9c-2.8,0.7-5.4,1.3-7.9,2.8
			c-0.4-2.3-0.2-4.5,1.6-5.6c0.3-0.2-0.1-0.2-0.3-0.1c-2.6,1.7-1.9,5.7-1.2,8.3c1.2,4.3,3.1,8.1,2.9,12.7c-0.1,2.8-1.6,5.6-3.7,7.6
			c-0.1,0-0.1,0.1-0.1,0.1c0,0,0,0,0,0c-1.9,1.7-4.2,2.9-6.6,3.3c-0.2,0-0.4,0.3-0.1,0.3c2.6-0.4,4.8-1.6,6.6-3.2
			c-0.5,5.7-0.8,11.6-1.4,17.3c-0.8,7.1,0.8,13.9,1.1,21c0,1.1-0.6,6.5-2.3,6.9c-1.4,0.3-2.9,0.6-4.3,0.9
			c-6.8,1.2-13.7,1.8-20.6,2.2c-0.8,0-1.7,0.1-2.5,0.1c0,0,0,0,0,0c-1.2-2.3,0.2-5.9,0.6-8.3c0.6-3.3,0.4-6.7,0.5-10.1
			c0.2-8.9-0.6-17.7-0.5-26.6c0.2-17.5-1.3-35-1.3-52.5c0.5,0,1,0,1.4,0c0.9,0,1.8-0.1,2.6-0.3c4.7,9.3,18.1,8,21.3-1.3
			c5.3-2.3,14.8-7.2,19.7-2c2.5,2.7,4.2,8.5,5.2,12.2C98.7,21.3,100.1,24.4,96.8,27.7z"/>
	</g>
	<circle display="inline" fill="#603813" cx="49.9" cy="11.9" r="1.5"/>
	<circle display="inline" fill="#603813" cx="49.7" cy="19.2" r="1"/>
	<circle display="inline" fill="#603813" cx="50" cy="26.8" r="1"/>
	<circle display="inline" fill="#603813" cx="50.2" cy="34.2" r="1"/>
	<circle display="inline" fill="#603813" cx="50.7" cy="41.3" r="1"/>
	<circle display="inline" fill="#603813" cx="51.1" cy="50" r="1"/>
	<circle display="inline" fill="#603813" cx="51.2" cy="59.3" r="1"/>
	<circle display="inline" fill="#603813" cx="51.1" cy="67.8" r="1"/>
	<circle display="inline" fill="#603813" cx="51.2" cy="76.2" r="1"/>
	<circle display="inline" fill="#603813" cx="51.5" cy="84.5" r="1"/>
	<circle display="inline" fill="#603813" cx="51.6" cy="92.5" r="1"/>
	<circle display="inline" fill="#603813" cx="50.7" cy="100.9" r="1"/>
</g>
<g display="none">
	<g display="inline">
		<path fill="#FFF8DD" d="M35,15.1c5.1,0.3,9.6-1.2,12.1-5.9c-4.8-0.4-9.3-3-10.8-7.6c0.7,2.1-10.5,3.8-9.7,5.7
			C28.2,11.1,30.3,14.8,35,15.1z"/>
		<path fill="#FFF8DD" d="M63,14.9c3.7-0.2,6.3-1.3,8.1-4.6c0.5-0.9,2.6-4,0.6-4.7c-2.3-0.8-4.6-1.4-6.7-2.6
			c-0.5-0.2-1.5-0.7-1.9-1.2c-0.2-0.3-0.2-0.5-0.2-0.6c0,0.1-0.1,0.2-0.2,0.4c-2.2,4.3-6,6.4-10.6,7.2C54.3,13,58.3,15.2,63,14.9z"
			/>
		<path fill="#FFF8DD" d="M48.2,100.1C49,95.7,49,91.3,49,86.8c0.1-8.3-0.7-16.6-0.6-24.9c0.2-17.3-1.2-34.6-1.3-51.9
			c-5.1,8.4-17.9,7.1-20.9-2.2c-0.1,0-0.2,0-0.2,0c-5-2.3-17-7.7-20.8-0.4c-2,3.8-4.1,9.3-4.6,13.6c-1.3,11.4,12.7,10.4,19.8,14.6
			c0.4-2.3,0.3-4.7-1.5-5.9c-0.2-0.1,0.3-0.3,0.4-0.2c3.5,2.3,1.1,8.5,0.1,11.5c-1.3,3.9-2.9,8.3-1.2,12.4c1.8,4.1,5.3,7.5,9.9,8.2
			c0.3,0-0.1,0.3-0.3,0.3c-2.9-0.4-5.8-2.1-7.9-4.4c0.4,6.6,1.5,13.4,1.5,20c0,3.6,0.2,7.4-0.2,11c-0.4,3.2-1.5,6.8-0.9,9.9
			c0.4,2,0.7,5.1,3,5.7c1.7,0.4,3.3,0.8,5,1.1c6.5,1.2,13.1,1.9,19.6,1.9C46.9,104.8,47.8,102.1,48.2,100.1z"/>
		<path fill="#FFF8DD" d="M72.9,7.7C69.8,17,56.4,18.3,51.7,9c-0.8,0.1-1.7,0.2-2.6,0.3c-0.5,0-1,0-1.4,0c0,17.5,1.5,35,1.3,52.5
			c-0.1,8.9,0.7,17.8,0.5,26.6c-0.1,3.4,0.1,6.8-0.5,10.1c-0.4,2.4-1.7,6-0.6,8.3c0,0,0,0,0,0c0.8,0,1.7,0,2.5-0.1
			c6.9-0.3,13.8-0.9,20.6-2.2c1.4-0.3,2.9-0.5,4.3-0.9c1.7-0.4,2.4-5.8,2.3-6.9c-0.3-7-1.9-13.8-1.1-21c0.6-5.7,0.9-11.5,1.4-17.3
			c-1.8,1.7-4,2.8-6.6,3.2c-0.3,0-0.2-0.2,0.1-0.3c2.4-0.4,4.7-1.6,6.6-3.3c0,0,0,0,0,0c0,0,0.1-0.1,0.1-0.1c2.1-2,3.6-4.7,3.7-7.6
			c0.2-4.6-1.8-8.4-2.9-12.7c-0.7-2.5-1.4-6.5,1.2-8.3c0.2-0.1,0.6,0,0.3,0.1c-1.8,1.2-2,3.4-1.6,5.6c2.5-1.5,5.1-2.1,7.9-2.8
			c3.6-0.9,7.2-2.2,9.9-4.9c3.3-3.2,1.9-6.3,0.9-9.8c-1-3.6-2.7-9.5-5.2-12.2C87.7,0.4,78.2,5.3,72.9,7.7z"/>
	</g>
	<g display="inline">
		<circle fill="none" cx="63.2" cy="26.4" r="1"/>
		<circle fill="none" cx="72.4" cy="91" r="1"/>
		<circle fill="none" cx="63.2" cy="63.3" r="1"/>
		<circle fill="none" cx="63.2" cy="44.9" r="1"/>
		<circle fill="none" cx="72.4" cy="54.1" r="1"/>
		<circle fill="none" cx="81.7" cy="8" r="1"/>
		<circle fill="none" cx="81.7" cy="26.4" r="1"/>
		<circle fill="none" cx="63.2" cy="81.8" r="1"/>
		<circle fill="none" cx="72.4" cy="17.2" r="1"/>
		<circle fill="none" cx="72.4" cy="35.7" r="1"/>
		<circle fill="none" cx="72.4" cy="72.5" r="1"/>
		<circle fill="none" cx="63.2" cy="100.2" r="1"/>
		<circle fill="none" cx="54" cy="91" r="1"/>
		<path fill="none" d="M80.7,44.9c0,0.5,0.4,1,1,1c0,0,0,0,0,0c-0.1-0.6-0.3-1.2-0.5-1.8C80.9,44.2,80.7,44.5,80.7,44.9z"/>
		<path fill="none" d="M82.6,44.9c0-0.5-0.4-0.9-0.8-0.9c0.2,0.6,0.3,1.1,0.4,1.7C82.5,45.4,82.6,45.2,82.6,44.9z"/>
		<circle fill="none" cx="54" cy="72.5" r="1"/>
		<circle fill="none" cx="54" cy="17.2" r="1"/>
		<circle fill="none" cx="54" cy="35.7" r="1"/>
		<circle fill="none" cx="54" cy="54.1" r="1"/>
		<circle fill="none" cx="90.9" cy="17.2" r="1"/>
		<circle fill="none" cx="7.9" cy="26.4" r="1"/>
		<circle fill="none" cx="44.8" cy="100.2" r="1"/>
		<circle fill="none" cx="44.8" cy="81.8" r="1"/>
		<circle fill="none" cx="44.8" cy="63.3" r="1"/>
		<path fill="none" d="M26.3,9c0.1,0,0.3,0,0.4-0.1c-0.2-0.3-0.3-0.7-0.4-1.1c-0.1,0-0.2,0-0.2,0c-0.2-0.1-0.4-0.2-0.6-0.3
			c-0.1,0.1-0.1,0.3-0.1,0.5C25.3,8.5,25.8,9,26.3,9z"/>
		<circle fill="none" cx="7.9" cy="8" r="1"/>
		<circle fill="none" cx="44.8" cy="44.9" r="1"/>
		<path fill="none" d="M38.2,16.6c0.2,0.6-0.2,1.3-0.8,1.5c0.2,0.6,0.1,1.1-0.3,1.4c-0.5,0.3-1.1,0-1.4-0.5
			c-0.3,0.5-0.9,0.7-1.4,0.5c-0.5-0.3-0.7-0.9-0.4-1.5c0,0,0,0,0,0c-0.7-0.3-1-1-0.7-1.6c0.3-0.6,1-0.9,1.7-0.6c0,0,0,0,0,0
			c0-0.2,0.1-0.3,0.1-0.5c-2.9-0.6-5.6-2.3-7.3-5c-0.4,0.1-0.8-0.2-1.1-0.6c-0.3,0.5-0.9,0.7-1.4,0.5c-0.5-0.3-0.7-0.9-0.4-1.5
			c0,0,0,0,0,0c-0.7-0.3-1-1-0.7-1.6C23.8,7,23.9,7,24,6.9c-5.5-2.4-14.8-5.7-18.4,0C5.9,6.5,6.5,6.3,7,6.5c0,0,0,0,0,0
			c0.1-0.7,0.5-1.2,1.1-1.2c0.6,0,1,0.5,1.1,1.2c0.6-0.1,1.2,0.2,1.3,0.8c0.2,0.6-0.2,1.3-0.8,1.5c0.2,0.6,0.1,1.1-0.3,1.4
			c-0.5,0.3-1.1,0-1.4-0.5c-0.3,0.5-0.9,0.7-1.4,0.5C6,10,5.8,9.3,6.1,8.8c0,0,0,0,0,0C5.4,8.5,5.1,7.9,5.3,7.3c0,0-0.1,0.1-0.1,0.1
			c-2,3.8-4.1,9.3-4.6,13.6C-0.4,30.5,9,31.4,16.3,33.8c0.2-0.5,0.5-0.8,1-0.8c0.6,0,1,0.5,1.1,1.2c0.6-0.1,1.2,0.2,1.3,0.8
			c0,0.1,0,0.2,0,0.2c0.2,0.1,0.5,0.2,0.7,0.4c0.4-2.3,0.3-4.7-1.5-5.9c-0.2-0.1,0.3-0.3,0.4-0.2c3.5,2.3,1.1,8.5,0.1,11.5
			c-1.1,3.3-2.5,7.1-1.7,10.6c0.4,0.2,0.7,0.6,0.8,1.1c0.6-0.1,1.2,0.2,1.3,0.8c0.2,0.6-0.1,1.2-0.7,1.5c1.6,2.7,3.9,4.9,6.9,6
			c0.2-0.1,0.4-0.2,0.6-0.2c0.4,0,0.7,0.3,0.9,0.7c0.2,0,0.4,0.1,0.6,0.1c0.3,0-0.1,0.3-0.3,0.3c-0.1,0-0.1,0-0.2,0
			c0,0.1,0,0.1,0,0.2c0.6-0.1,1.2,0.2,1.3,0.8c0.2,0.6-0.2,1.3-0.8,1.5c0.2,0.6,0.1,1.1-0.3,1.4c-0.5,0.3-1.1,0-1.4-0.5
			c-0.3,0.5-0.9,0.7-1.4,0.5c-0.5-0.3-0.7-0.9-0.4-1.5c0,0,0,0,0,0c-0.7-0.3-1-1-0.7-1.6c0.3-0.6,1-0.9,1.7-0.6c0,0,0,0,0,0
			c0-0.3,0.1-0.5,0.2-0.7c-2.2-0.8-4.2-2.1-5.8-3.9c0.4,6.6,1.5,13.4,1.5,20c0,3.6,0.2,7.4-0.2,11c-0.4,3.2-1.5,6.8-0.9,9.9
			c0.4,2,0.7,5.1,3,5.7c1.7,0.4,3.3,0.8,5,1.1c6.5,1.2,13.1,1.9,19.6,1.9c-0.9-2,0-4.7,0.3-6.7C49,95.7,49,91.3,49,86.8
			c0.1-8.3-0.7-16.6-0.6-24.9c0.2-17.3-1.2-34.6-1.3-51.9c-2.4,3.9-6.4,5.7-10.4,5.6c0,0.1,0,0.1,0.1,0.2C37.4,15.7,38,16,38.2,16.6
			z M9.7,27.3c0.2,0.6,0.1,1.1-0.3,1.4c-0.5,0.3-1.1,0-1.4-0.5C7.6,28.8,7,29,6.5,28.7c-0.5-0.3-0.7-0.9-0.4-1.5c0,0,0,0,0,0
			c-0.7-0.3-1-1-0.7-1.6C5.6,25,6.3,24.7,7,25c0,0,0,0,0,0c0.1-0.7,0.5-1.2,1.1-1.2c0.6,0,1,0.5,1.1,1.2c0.6-0.1,1.2,0.2,1.3,0.8
			C10.7,26.4,10.4,27.1,9.7,27.3z M18.9,18.1c0.2,0.6,0.1,1.1-0.3,1.4c-0.5,0.3-1.1,0-1.4-0.5c-0.3,0.5-0.9,0.7-1.4,0.5
			c-0.5-0.3-0.7-0.9-0.4-1.5c0,0,0,0,0,0c-0.7-0.3-1-1-0.7-1.6c0.3-0.6,1-0.9,1.7-0.6c0,0,0,0,0,0c0.1-0.7,0.5-1.2,1.1-1.2
			c0.6,0,1,0.5,1.1,1.2c0.6-0.1,1.2,0.2,1.3,0.8C20,17.2,19.6,17.9,18.9,18.1z M28.1,101.1c0.2,0.5,0.1,1.1-0.3,1.4
			c-0.5,0.3-1.1,0-1.4-0.5c-0.3,0.5-0.9,0.7-1.4,0.5c-0.5-0.3-0.7-0.9-0.4-1.5c0,0,0,0,0,0c-0.7-0.3-1-1-0.7-1.6
			c0.3-0.6,1-0.9,1.7-0.6c0,0,0,0,0,0c0.1-0.7,0.5-1.2,1.1-1.2c0.6,0,1,0.5,1.1,1.2c0.6-0.1,1.2,0.2,1.3,0.8
			C29.2,100.2,28.8,100.9,28.1,101.1z M28.1,82.7c0.2,0.6,0.1,1.1-0.3,1.4c-0.5,0.3-1.1,0-1.4-0.5c-0.3,0.5-0.9,0.7-1.4,0.5
			c-0.5-0.3-0.7-0.9-0.4-1.5c0,0,0,0,0,0c-0.7-0.3-1-1-0.7-1.6c0.3-0.6,1-0.9,1.7-0.6c0,0,0,0,0,0c0.1-0.7,0.5-1.2,1.1-1.2
			c0.6,0,1,0.5,1.1,1.2c0.6-0.1,1.2,0.2,1.3,0.8C29.2,81.7,28.8,82.4,28.1,82.7z M28.1,45.8c0.2,0.5,0.1,1.1-0.3,1.4
			c-0.5,0.3-1.1,0-1.4-0.5c-0.3,0.5-0.9,0.8-1.4,0.5c-0.5-0.3-0.7-0.9-0.4-1.5c0,0,0,0,0,0c-0.7-0.3-1-1-0.7-1.6
			c0.3-0.6,1-0.9,1.7-0.6c0,0,0,0,0,0c0.1-0.7,0.5-1.2,1.1-1.2c0.6,0,1,0.5,1.1,1.2c0.6-0.1,1.2,0.2,1.3,0.8
			C29.2,44.8,28.8,45.5,28.1,45.8z M28.1,27.3c0.2,0.6,0.1,1.1-0.3,1.4c-0.5,0.3-1.1,0-1.4-0.5c-0.3,0.5-0.9,0.7-1.4,0.5
			c-0.5-0.3-0.7-0.9-0.4-1.5c0,0,0,0,0,0c-0.7-0.3-1-1-0.7-1.6c0.3-0.6,1-0.9,1.7-0.6c0,0,0,0,0,0c0.1-0.7,0.5-1.2,1.1-1.2
			c0.6,0,1,0.5,1.1,1.2c0.6-0.1,1.2,0.2,1.3,0.8C29.2,26.4,28.8,27.1,28.1,27.3z M37.4,91.9c0.2,0.6,0.1,1.1-0.3,1.4
			c-0.5,0.3-1.1,0-1.4-0.5c-0.3,0.5-0.9,0.7-1.4,0.5c-0.5-0.3-0.7-0.9-0.4-1.5c0,0,0,0,0,0c-0.7-0.3-1-1-0.7-1.6
			c0.3-0.6,1-0.9,1.7-0.6c0,0,0,0,0,0c0.1-0.7,0.5-1.2,1.1-1.2c0.6,0,1,0.5,1.1,1.2c0.6-0.1,1.2,0.2,1.3,0.8
			C38.4,91,38,91.6,37.4,91.9z M37.4,73.4c0.2,0.5,0.1,1.1-0.3,1.4c-0.5,0.3-1.1,0-1.4-0.5c-0.3,0.5-0.9,0.8-1.4,0.5
			c-0.5-0.3-0.7-0.9-0.4-1.5c0,0,0,0,0,0c-0.7-0.3-1-1-0.7-1.6c0.3-0.6,1-0.9,1.7-0.6c0,0,0,0,0,0c0.1-0.7,0.5-1.2,1.1-1.2
			c0.6,0,1,0.5,1.1,1.2c0.6-0.1,1.2,0.2,1.3,0.8C38.4,72.5,38,73.2,37.4,73.4z M37.4,55c0.2,0.6,0.1,1.1-0.3,1.4
			c-0.5,0.3-1.1,0-1.4-0.5c-0.3,0.5-0.9,0.8-1.4,0.5c-0.5-0.3-0.7-0.9-0.4-1.5c0,0,0,0,0,0c-0.7-0.3-1-1-0.7-1.6
			c0.3-0.6,1-0.9,1.7-0.6c0,0,0,0,0,0c0.1-0.7,0.5-1.2,1.1-1.2c0.6,0,1,0.5,1.1,1.2c0.6-0.1,1.2,0.2,1.3,0.8
			C38.4,54.1,38,54.7,37.4,55z M37.4,36.6c0.2,0.6,0.1,1.1-0.3,1.4c-0.5,0.3-1.1,0-1.4-0.5c-0.3,0.5-0.9,0.7-1.4,0.5
			c-0.5-0.3-0.7-0.9-0.4-1.5c0,0,0,0,0,0c-0.7-0.3-1-1-0.7-1.6c0.3-0.6,1-0.9,1.7-0.6c0,0,0,0,0,0c0.1-0.7,0.5-1.2,1.1-1.2
			c0.6,0,1,0.5,1.1,1.2c0.6-0.1,1.2,0.2,1.3,0.8C38.4,35.6,38,36.3,37.4,36.6z M42.2,25.6c0.3-0.6,1-0.9,1.7-0.6c0,0,0,0,0,0
			c0.1-0.7,0.5-1.2,1.1-1.2c0.6,0,1,0.5,1.1,1.2c0.6-0.1,1.2,0.2,1.3,0.8c0.2,0.6-0.2,1.3-0.8,1.5c0.2,0.6,0.1,1.1-0.3,1.4
			c-0.5,0.3-1.1,0-1.4-0.5c-0.3,0.5-0.9,0.7-1.4,0.5c-0.5-0.3-0.7-0.9-0.4-1.5c0,0,0,0,0,0C42.3,27,42,26.2,42.2,25.6z M42.2,44.1
			c0.3-0.6,1-0.9,1.7-0.6c0,0,0,0,0,0c0.1-0.7,0.5-1.2,1.1-1.2c0.6,0,1,0.5,1.1,1.2c0.6-0.1,1.2,0.2,1.3,0.8
			c0.2,0.6-0.2,1.3-0.8,1.5c0.2,0.5,0.1,1.1-0.3,1.4c-0.5,0.3-1.1,0-1.4-0.5c-0.3,0.5-0.9,0.8-1.4,0.5c-0.5-0.3-0.7-0.9-0.4-1.5
			c0,0,0,0,0,0C42.3,45.4,42,44.7,42.2,44.1z M42.2,62.5c0.3-0.6,1-0.9,1.7-0.6c0,0,0,0,0,0c0.1-0.7,0.5-1.2,1.1-1.2
			c0.6,0,1,0.5,1.1,1.2c0.6-0.1,1.2,0.2,1.3,0.8c0.2,0.6-0.2,1.3-0.8,1.5c0.2,0.6,0.1,1.1-0.3,1.4c-0.5,0.3-1.1,0-1.4-0.5
			c-0.3,0.5-0.9,0.7-1.4,0.5c-0.5-0.3-0.7-0.9-0.4-1.5c0,0,0,0,0,0C42.3,63.9,42,63.1,42.2,62.5z M42.2,81c0.3-0.6,1-0.9,1.7-0.6
			c0,0,0,0,0,0c0.1-0.7,0.5-1.2,1.1-1.2c0.6,0,1,0.5,1.1,1.2c0.6-0.1,1.2,0.2,1.3,0.8c0.2,0.6-0.2,1.3-0.8,1.5
			c0.2,0.6,0.1,1.1-0.3,1.4c-0.5,0.3-1.1,0-1.4-0.5c-0.3,0.5-0.9,0.7-1.4,0.5c-0.5-0.3-0.7-0.9-0.4-1.5c0,0,0,0,0,0
			C42.3,82.3,42,81.6,42.2,81z M42.2,99.4c0.3-0.6,1-0.9,1.7-0.6c0,0,0,0,0,0c0.1-0.7,0.5-1.2,1.1-1.2c0.6,0,1,0.5,1.1,1.2
			c0.6-0.1,1.2,0.2,1.3,0.8c0.2,0.6-0.2,1.3-0.8,1.5c0.2,0.5,0.1,1.1-0.3,1.4c-0.5,0.3-1.1,0-1.4-0.5c-0.3,0.5-0.9,0.7-1.4,0.5
			c-0.5-0.3-0.7-0.9-0.4-1.5c0,0,0,0,0,0C42.3,100.7,42,100,42.2,99.4z"/>
		<path fill="none" d="M46.2,10.3c-0.5,0.3-1.1,0-1.4-0.5c-0.3,0.5-0.9,0.7-1.4,0.5C42.9,10,42.7,9.3,43,8.8c0,0,0,0,0,0
			c-0.4-0.2-0.6-0.5-0.7-0.9c-2.7-1.2-4.9-3.4-5.8-6.3c0.5,1.7-6.3,3.1-8.8,4.5c0.1,0.1,0.1,0.3,0.1,0.4c0.6-0.1,1.2,0.2,1.3,0.8
			c0.2,0.6-0.2,1.3-0.8,1.5c0.2,0.5,0.1,0.9-0.2,1.2c1.5,2.6,3.5,4.7,7,5c0.2-0.3,0.5-0.5,0.8-0.5c0.4,0,0.7,0.2,0.9,0.5
			c4.4-0.1,8.3-1.7,10.5-5.9c-0.2,0-0.3,0-0.5,0C46.7,9.6,46.6,10.1,46.2,10.3z"/>
		<circle fill="none" cx="35.5" cy="17.2" r="1"/>
		<circle fill="none" cx="44.8" cy="26.4" r="1"/>
		<circle fill="none" cx="26.3" cy="100.2" r="1"/>
		<circle fill="none" cx="26.3" cy="81.8" r="1"/>
		<circle fill="none" cx="26.3" cy="26.4" r="1"/>
		<circle fill="none" cx="35.5" cy="91" r="1"/>
		<circle fill="none" cx="35.5" cy="72.5" r="1"/>
		<circle fill="none" cx="26.3" cy="63.3" r="1"/>
		<circle fill="none" cx="17.1" cy="17.2" r="1"/>
		<path fill="none" d="M63,14.9c3.7-0.2,6.3-1.3,8.1-4.6c0.5-0.9,2.6-4,0.6-4.7c-2.3-0.8-4.6-1.4-6.7-2.6c-0.5-0.2-1.5-0.7-1.9-1.2
			c-0.2-0.3-0.2-0.5-0.2-0.6c0,0.1-0.1,0.2-0.2,0.4c-2.2,4.3-6,6.4-10.6,7.2C54.3,13,58.3,15.2,63,14.9z M60.7,7.2
			c0.3-0.6,1-0.9,1.7-0.6c0,0,0,0,0,0c0.1-0.7,0.5-1.2,1.1-1.2c0.6,0,1,0.5,1.1,1.2c0.6-0.1,1.2,0.2,1.3,0.8
			c0.2,0.6-0.2,1.3-0.8,1.5c0.2,0.6,0.1,1.1-0.3,1.4c-0.5,0.3-1.1,0-1.4-0.5c-0.3,0.5-0.9,0.7-1.4,0.5c-0.5-0.3-0.7-0.9-0.4-1.5
			c0,0,0,0,0,0C60.7,8.5,60.4,7.8,60.7,7.2z"/>
		<circle fill="none" cx="35.5" cy="54.1" r="1"/>
		<circle fill="none" cx="35.5" cy="35.7" r="1"/>
		<path fill="none" d="M97.8,17.8c-1-3.6-2.7-9.5-5.2-12.2c-4.9-5.2-14.4-0.3-19.7,2C69.8,17,56.4,18.3,51.7,9
			c-0.8,0.1-1.7,0.2-2.6,0.3c-0.5,0-1,0-1.4,0c0,17.5,1.5,35,1.3,52.5c-0.1,8.9,0.7,17.8,0.5,26.6c-0.1,3.4,0.1,6.8-0.5,10.1
			c-0.4,2.4-1.7,6-0.6,8.3c0,0,0,0,0,0c0.8,0,1.7,0,2.5-0.1c6.9-0.3,13.8-0.9,20.6-2.2c1.4-0.3,2.9-0.5,4.3-0.9
			c1.7-0.4,2.4-5.8,2.3-6.9c-0.3-7-1.9-13.8-1.1-21c0.6-5.7,0.9-11.5,1.4-17.3c-1.8,1.7-4,2.8-6.6,3.2c-0.3,0-0.2-0.2,0.1-0.3
			c2.4-0.4,4.7-1.6,6.6-3.3c0,0,0,0,0,0c0,0,0.1-0.1,0.1-0.1c2.1-2,3.6-4.7,3.7-7.6c0.1-1.2-0.1-2.4-0.3-3.5
			c-0.1-0.1-0.2-0.2-0.2-0.3c-0.3,0.5-0.9,0.8-1.4,0.5c-0.5-0.3-0.7-0.9-0.4-1.5c0,0,0,0,0,0c-0.7-0.3-1-1-0.7-1.6
			c0.3-0.6,1-0.9,1.7-0.6c0,0,0,0,0,0c0-0.2,0.1-0.3,0.1-0.4c-0.6-1.7-1.2-3.4-1.7-5.2c-0.7-2.5-1.4-6.5,1.2-8.3
			c0.2-0.1,0.6,0,0.3,0.1c-1.8,1.2-2,3.4-1.6,5.6c2.5-1.5,5.1-2.1,7.9-2.8c3.6-0.9,7.2-2.2,9.9-4.9c0.3-0.3,0.6-0.6,0.8-1
			c-0.2-0.3-0.3-0.7-0.1-1.1c0.2-0.4,0.6-0.7,1.1-0.7C99.3,22.6,98.4,20.3,97.8,17.8z M49.9,10.4c0.8,0,1.5,0.7,1.5,1.5
			c0,0.8-0.7,1.5-1.5,1.5c-0.8,0-1.5-0.7-1.5-1.5C48.4,11.1,49,10.4,49.9,10.4z M48.7,19.2c0-0.6,0.4-1,1-1c0.6,0,1,0.4,1,1
			c0,0.6-0.4,1-1,1C49.2,20.2,48.7,19.7,48.7,19.2z M50,25.8c0.6,0,1,0.4,1,1c0,0.6-0.4,1-1,1c-0.6,0-1-0.4-1-1
			C49,26.3,49.5,25.8,50,25.8z M49.2,34.2c0-0.6,0.4-1,1-1c0.6,0,1,0.4,1,1c0,0.6-0.4,1-1,1C49.7,35.2,49.2,34.7,49.2,34.2z
			 M51.2,77.2c-0.6,0-1-0.4-1-1c0-0.6,0.4-1,1-1c0.6,0,1,0.4,1,1C52.2,76.7,51.8,77.2,51.2,77.2z M52.5,84.5c0,0.6-0.4,1-1,1
			c-0.6,0-1-0.4-1-1c0-0.6,0.4-1,1-1C52,83.5,52.5,84,52.5,84.5z M51.1,68.8c-0.6,0-1-0.4-1-1c0-0.6,0.4-1,1-1c0.6,0,1,0.4,1,1
			C52.1,68.3,51.7,68.8,51.1,68.8z M51.2,60.3c-0.6,0-1-0.4-1-1c0-0.6,0.4-1,1-1c0.6,0,1,0.4,1,1C52.2,59.8,51.8,60.3,51.2,60.3z
			 M51.1,51c-0.6,0-1-0.4-1-1c0-0.6,0.4-1,1-1c0.6,0,1,0.4,1,1C52.1,50.6,51.7,51,51.1,51z M50.7,42.3c-0.6,0-1-0.4-1-1
			c0-0.6,0.4-1,1-1c0.6,0,1,0.4,1,1C51.7,41.9,51.3,42.3,50.7,42.3z M50.7,101.9c-0.6,0-1-0.4-1-1c0-0.6,0.4-1,1-1c0.6,0,1,0.4,1,1
			C51.7,101.5,51.3,101.9,50.7,101.9z M55.8,91.9c0.2,0.6,0.1,1.1-0.3,1.4c-0.5,0.3-1.1,0-1.4-0.5c-0.3,0.5-0.9,0.7-1.4,0.5
			c-0.1,0-0.1-0.1-0.2-0.2c-0.2,0.2-0.5,0.4-0.8,0.4c-0.6,0-1-0.4-1-1c0-0.6,0.4-1,1-1c0.1,0,0.1,0,0.2,0c-0.4-0.3-0.6-0.9-0.4-1.4
			c0.3-0.6,1-0.9,1.7-0.6c0,0,0,0,0,0c0.1-0.7,0.5-1.2,1.1-1.2c0.6,0,1,0.5,1.1,1.2c0.6-0.1,1.2,0.2,1.3,0.8
			C56.8,91,56.5,91.6,55.8,91.9z M55.8,73.4c0.2,0.5,0.1,1.1-0.3,1.4c-0.5,0.3-1.1,0-1.4-0.5c-0.3,0.5-0.9,0.8-1.4,0.5
			c-0.5-0.3-0.7-0.9-0.4-1.5c0,0,0,0,0,0c-0.7-0.3-1-1-0.7-1.6c0.3-0.6,1-0.9,1.7-0.6c0,0,0,0,0,0c0.1-0.7,0.5-1.2,1.1-1.2
			c0.6,0,1,0.5,1.1,1.2c0.6-0.1,1.2,0.2,1.3,0.8C56.8,72.5,56.5,73.2,55.8,73.4z M55.8,55c0.2,0.6,0.1,1.1-0.3,1.4
			c-0.5,0.3-1.1,0-1.4-0.5c-0.3,0.5-0.9,0.8-1.4,0.5c-0.5-0.3-0.7-0.9-0.4-1.5c0,0,0,0,0,0c-0.7-0.3-1-1-0.7-1.6
			c0.3-0.6,1-0.9,1.7-0.6c0,0,0,0,0,0c0.1-0.7,0.5-1.2,1.1-1.2c0.6,0,1,0.5,1.1,1.2c0.6-0.1,1.2,0.2,1.3,0.8
			C56.8,54.1,56.5,54.7,55.8,55z M55.8,36.6c0.2,0.6,0.1,1.1-0.3,1.4c-0.5,0.3-1.1,0-1.4-0.5c-0.3,0.5-0.9,0.7-1.4,0.5
			c-0.5-0.3-0.7-0.9-0.4-1.5c0,0,0,0,0,0c-0.7-0.3-1-1-0.7-1.6c0.3-0.6,1-0.9,1.7-0.6c0,0,0,0,0,0c0.1-0.7,0.5-1.2,1.1-1.2
			c0.6,0,1,0.5,1.1,1.2c0.6-0.1,1.2,0.2,1.3,0.8C56.8,35.6,56.5,36.3,55.8,36.6z M55.8,18.1c0.2,0.6,0.1,1.1-0.3,1.4
			c-0.5,0.3-1.1,0-1.4-0.5c-0.3,0.5-0.9,0.7-1.4,0.5c-0.5-0.3-0.7-0.9-0.4-1.5c0,0,0,0,0,0c-0.7-0.3-1-1-0.7-1.6
			c0.3-0.6,1-0.9,1.7-0.6c0,0,0,0,0,0c0.1-0.7,0.5-1.2,1.1-1.2c0.6,0,1,0.5,1.1,1.2c0.6-0.1,1.2,0.2,1.3,0.8
			C56.8,17.2,56.5,17.9,55.8,18.1z M65,101.1c0.2,0.5,0.1,1.1-0.3,1.4c-0.5,0.3-1.1,0-1.4-0.5c-0.3,0.5-0.9,0.7-1.4,0.5
			c-0.5-0.3-0.7-0.9-0.4-1.5c0,0,0,0,0,0c-0.7-0.3-1-1-0.7-1.6c0.3-0.6,1-0.9,1.7-0.6c0,0,0,0,0,0c0.1-0.7,0.5-1.2,1.1-1.2
			c0.6,0,1,0.5,1.1,1.2c0.6-0.1,1.2,0.2,1.3,0.8C66.1,100.2,65.7,100.9,65,101.1z M65,82.7c0.2,0.6,0.1,1.1-0.3,1.4
			c-0.5,0.3-1.1,0-1.4-0.5c-0.3,0.5-0.9,0.7-1.4,0.5c-0.5-0.3-0.7-0.9-0.4-1.5c0,0,0,0,0,0c-0.7-0.3-1-1-0.7-1.6
			c0.3-0.6,1-0.9,1.7-0.6c0,0,0,0,0,0c0.1-0.7,0.5-1.2,1.1-1.2c0.6,0,1,0.5,1.1,1.2c0.6-0.1,1.2,0.2,1.3,0.8
			C66.1,81.7,65.7,82.4,65,82.7z M65,64.2c0.2,0.6,0.1,1.1-0.3,1.4c-0.5,0.3-1.1,0-1.4-0.5c-0.3,0.5-0.9,0.7-1.4,0.5
			c-0.5-0.3-0.7-0.9-0.4-1.5c0,0,0,0,0,0c-0.7-0.3-1-1-0.7-1.6c0.3-0.6,1-0.9,1.7-0.6c0,0,0,0,0,0c0.1-0.7,0.5-1.2,1.1-1.2
			c0.6,0,1,0.5,1.1,1.2c0.6-0.1,1.2,0.2,1.3,0.8C66.1,63.3,65.7,64,65,64.2z M65,45.8c0.2,0.5,0.1,1.1-0.3,1.4
			c-0.5,0.3-1.1,0-1.4-0.5c-0.3,0.5-0.9,0.8-1.4,0.5c-0.5-0.3-0.7-0.9-0.4-1.5c0,0,0,0,0,0c-0.7-0.3-1-1-0.7-1.6
			c0.3-0.6,1-0.9,1.7-0.6c0,0,0,0,0,0c0.1-0.7,0.5-1.2,1.1-1.2c0.6,0,1,0.5,1.1,1.2c0.6-0.1,1.2,0.2,1.3,0.8
			C66.1,44.8,65.7,45.5,65,45.8z M65,27.3c0.2,0.6,0.1,1.1-0.3,1.4c-0.5,0.3-1.1,0-1.4-0.5c-0.3,0.5-0.9,0.7-1.4,0.5
			c-0.5-0.3-0.7-0.9-0.4-1.5c0,0,0,0,0,0c-0.7-0.3-1-1-0.7-1.6c0.3-0.6,1-0.9,1.7-0.6c0,0,0,0,0,0c0.1-0.7,0.5-1.2,1.1-1.2
			c0.6,0,1,0.5,1.1,1.2c0.6-0.1,1.2,0.2,1.3,0.8C66.1,26.4,65.7,27.1,65,27.3z M74.3,91.9c0.2,0.6,0.1,1.1-0.3,1.4
			c-0.5,0.3-1.1,0-1.4-0.5c-0.3,0.5-0.9,0.7-1.4,0.5c-0.5-0.3-0.7-0.9-0.4-1.5c0,0,0,0,0,0c-0.7-0.3-1-1-0.7-1.6
			c0.3-0.6,1-0.9,1.7-0.6c0,0,0,0,0,0c0.1-0.7,0.5-1.2,1.1-1.2c0.6,0,1,0.5,1.1,1.2c0.6-0.1,1.2,0.2,1.3,0.8
			C75.3,91,74.9,91.6,74.3,91.9z M71.5,71.1C71.5,71.1,71.6,71.1,71.5,71.1c0.1-0.7,0.5-1.2,1.1-1.2c0.6,0,1,0.5,1.1,1.2
			c0.6-0.1,1.2,0.2,1.3,0.8c0.2,0.6-0.2,1.3-0.8,1.5c0.2,0.5,0.1,1.1-0.3,1.4c-0.5,0.3-1.1,0-1.4-0.5c-0.3,0.5-0.9,0.8-1.4,0.5
			c-0.5-0.3-0.7-0.9-0.4-1.5c0,0,0,0,0,0c-0.7-0.3-1-1-0.7-1.6C70.1,71.1,70.9,70.8,71.5,71.1z M74.3,55c0.2,0.6,0.1,1.1-0.3,1.4
			c-0.5,0.3-1.1,0-1.4-0.5c-0.3,0.5-0.9,0.8-1.4,0.5c-0.5-0.3-0.7-0.9-0.4-1.5c0,0,0,0,0,0c-0.7-0.3-1-1-0.7-1.6
			c0.3-0.6,1-0.9,1.7-0.6c0,0,0,0,0,0c0.1-0.7,0.5-1.2,1.1-1.2c0.6,0,1,0.5,1.1,1.2c0.6-0.1,1.2,0.2,1.3,0.8
			C75.3,54.1,74.9,54.7,74.3,55z M74.3,36.6c0.2,0.6,0.1,1.1-0.3,1.4c-0.5,0.3-1.1,0-1.4-0.5c-0.3,0.5-0.9,0.7-1.4,0.5
			c-0.5-0.3-0.7-0.9-0.4-1.5c0,0,0,0,0,0c-0.7-0.3-1-1-0.7-1.6c0.3-0.6,1-0.9,1.7-0.6c0,0,0,0,0,0c0.1-0.7,0.5-1.2,1.1-1.2
			c0.6,0,1,0.5,1.1,1.2c0.6-0.1,1.2,0.2,1.3,0.8C75.3,35.6,74.9,36.3,74.3,36.6z M74.3,18.1c0.2,0.6,0.1,1.1-0.3,1.4
			c-0.5,0.3-1.1,0-1.4-0.5c-0.3,0.5-0.9,0.7-1.4,0.5c-0.5-0.3-0.7-0.9-0.4-1.5c0,0,0,0,0,0c-0.7-0.3-1-1-0.7-1.6
			c0.3-0.6,1-0.9,1.7-0.6c0,0,0,0,0,0c0.1-0.7,0.5-1.2,1.1-1.2c0.6,0,1,0.5,1.1,1.2c0.6-0.1,1.2,0.2,1.3,0.8
			C75.3,17.2,74.9,17.9,74.3,18.1z M83.5,27.3c0.2,0.6,0.1,1.1-0.3,1.4c-0.5,0.3-1.1,0-1.4-0.5c-0.3,0.5-0.9,0.7-1.4,0.5
			c-0.5-0.3-0.7-0.9-0.4-1.5c0,0,0,0,0,0c-0.7-0.3-1-1-0.7-1.6c0.3-0.6,1-0.9,1.7-0.6c0,0,0,0,0,0c0.1-0.7,0.5-1.2,1.1-1.2
			c0.6,0,1,0.5,1.1,1.2c0.6-0.1,1.2,0.2,1.3,0.8C84.5,26.4,84.1,27.1,83.5,27.3z M83.5,8.9c0.2,0.6,0.1,1.1-0.3,1.4
			c-0.5,0.3-1.1,0-1.4-0.5c-0.3,0.5-0.9,0.7-1.4,0.5c-0.5-0.3-0.7-0.9-0.4-1.5c0,0,0,0,0,0c-0.7-0.3-1-1-0.7-1.6
			c0.3-0.6,1-0.9,1.7-0.6c0,0,0,0,0,0c0.1-0.7,0.5-1.2,1.1-1.2c0.6,0,1,0.5,1.1,1.2c0.6-0.1,1.2,0.2,1.3,0.8
			C84.5,7.9,84.1,8.6,83.5,8.9z M92.7,18.1c0.2,0.6,0.1,1.1-0.3,1.4c-0.5,0.3-1.1,0-1.4-0.5c-0.3,0.5-0.9,0.7-1.4,0.5
			c-0.5-0.3-0.7-0.9-0.4-1.5c0,0,0,0,0,0c-0.7-0.3-1-1-0.7-1.6c0.3-0.6,1-0.9,1.7-0.6c0,0,0,0,0,0c0.1-0.7,0.5-1.2,1.1-1.2
			c0.6,0,1,0.5,1.1,1.2c0.6-0.1,1.2,0.2,1.3,0.8C93.7,17.2,93.4,17.9,92.7,18.1z"/>
		<path fill="none" d="M44.8,9c0.1,0,0.2,0,0.3-0.1c-0.4-0.1-0.7-0.2-1.1-0.3C44.2,8.8,44.5,9,44.8,9z"/>
		<path fill="none" d="M26.6,7.3c0.2,0.4,0.3,0.8,0.5,1.1c0.1-0.1,0.2-0.3,0.2-0.5c0-0.4-0.3-0.8-0.7-0.9
			C26.6,7.2,26.6,7.2,26.6,7.3z"/>
		<path fill="none" d="M26.1,7.1c-0.1,0-0.3,0.1-0.4,0.2c0.2,0.1,0.3,0.1,0.5,0.2C26.1,7.3,26.1,7.2,26.1,7.1z"/>
		<circle fill="none" cx="26.3" cy="44.9" r="1"/>
		<circle fill="none" cx="63.2" cy="8" r="1"/>
		<path fill="#8BC53F" d="M18.4,15.8c-0.1-0.7-0.5-1.2-1.1-1.2c-0.6,0-1,0.5-1.1,1.2c0,0,0,0,0,0c-0.7-0.3-1.4,0-1.7,0.6
			c-0.3,0.6,0.1,1.3,0.7,1.6c0,0,0,0,0,0c-0.3,0.5-0.1,1.2,0.4,1.5c0.5,0.3,1.1,0.1,1.4-0.5c0.4,0.5,1,0.7,1.4,0.5
			c0.4-0.2,0.6-0.8,0.3-1.4c0.7-0.3,1-0.9,0.8-1.5C19.6,16,19,15.7,18.4,15.8z M17.1,18.2c-0.5,0-1-0.4-1-1c0-0.5,0.4-1,1-1
			c0.5,0,1,0.4,1,1C18.1,17.7,17.6,18.2,17.1,18.2z"/>
		<path fill="#8BC53F" d="M34.7,15.8C34.7,15.8,34.7,15.8,34.7,15.8c-0.7-0.3-1.4,0-1.7,0.6c-0.3,0.6,0.1,1.3,0.7,1.6c0,0,0,0,0,0
			c-0.3,0.5-0.1,1.2,0.4,1.5c0.5,0.3,1.1,0.1,1.4-0.5c0.4,0.5,1,0.7,1.4,0.5c0.4-0.2,0.6-0.8,0.3-1.4c0.7-0.3,1-0.9,0.8-1.5
			c-0.2-0.5-0.7-0.8-1.3-0.8c0-0.1,0-0.2-0.1-0.2c-0.7,0-1.3-0.1-2-0.2C34.7,15.5,34.7,15.6,34.7,15.8z M36.5,17.2c0,0.5-0.4,1-1,1
			c-0.5,0-1-0.4-1-1c0-0.5,0.4-1,1-1C36.1,16.2,36.5,16.7,36.5,17.2z"/>
		<path fill="#8BC53F" d="M35.8,14.6c-0.3,0-0.6,0.2-0.8,0.5c0,0,0.1,0,0.1,0c0.5,0,1.1,0,1.6,0C36.4,14.8,36.1,14.6,35.8,14.6z"/>
		<path fill="#8BC53F" d="M55.3,15.8c-0.1-0.7-0.5-1.2-1.1-1.2c-0.6,0-1,0.5-1.1,1.2c0,0,0,0,0,0c-0.7-0.3-1.4,0-1.7,0.6
			c-0.3,0.6,0.1,1.3,0.7,1.6c0,0,0,0,0,0c-0.3,0.5-0.1,1.2,0.4,1.5c0.5,0.3,1.1,0.1,1.4-0.5c0.4,0.5,1,0.7,1.4,0.5
			c0.4-0.2,0.6-0.8,0.3-1.4c0.7-0.3,1-0.9,0.8-1.5C56.5,16,55.9,15.7,55.3,15.8z M54,18.2c-0.5,0-1-0.4-1-1c0-0.5,0.4-1,1-1
			c0.5,0,1,0.4,1,1C55,17.7,54.5,18.2,54,18.2z"/>
		<path fill="#8BC53F" d="M73.7,15.8c-0.1-0.7-0.5-1.2-1.1-1.2c-0.6,0-1,0.5-1.1,1.2c0,0,0,0,0,0c-0.7-0.3-1.4,0-1.7,0.6
			c-0.3,0.6,0.1,1.3,0.7,1.6c0,0,0,0,0,0c-0.3,0.5-0.1,1.2,0.4,1.5c0.5,0.3,1.1,0.1,1.4-0.5c0.4,0.5,1,0.7,1.4,0.5
			c0.4-0.2,0.6-0.8,0.3-1.4c0.7-0.3,1-0.9,0.8-1.5C74.9,16,74.3,15.7,73.7,15.8z M72.4,18.2c-0.5,0-1-0.4-1-1c0-0.5,0.4-1,1-1
			c0.5,0,1,0.4,1,1C73.4,17.7,73,18.2,72.4,18.2z"/>
		<path fill="#8BC53F" d="M92.2,15.8c-0.1-0.7-0.5-1.2-1.1-1.2c-0.6,0-1,0.5-1.1,1.2c0,0,0,0,0,0c-0.7-0.3-1.4,0-1.7,0.6
			C88.1,17,88.4,17.7,89,18c0,0,0,0,0,0c-0.3,0.5-0.1,1.2,0.4,1.5c0.5,0.3,1.1,0.1,1.4-0.5c0.4,0.5,1,0.7,1.4,0.5
			c0.4-0.2,0.6-0.8,0.3-1.4c0.7-0.3,1-0.9,0.8-1.5C93.3,16,92.8,15.7,92.2,15.8z M90.9,18.2c-0.5,0-1-0.4-1-1c0-0.5,0.4-1,1-1
			c0.5,0,1,0.4,1,1C91.8,17.7,91.4,18.2,90.9,18.2z"/>
		<path fill="#8BC53F" d="M18.4,34.2c-0.1-0.7-0.5-1.2-1.1-1.2c-0.5,0-0.8,0.3-1,0.8c1.2,0.4,2.4,0.9,3.5,1.4c0-0.1,0-0.2,0-0.2
			C19.6,34.5,19,34.2,18.4,34.2z"/>
		<path fill="#8BC53F" d="M36.8,34.2c-0.1-0.7-0.5-1.2-1.1-1.2c-0.6,0-1,0.5-1.1,1.2c0,0,0,0,0,0c-0.7-0.3-1.4,0-1.7,0.6
			c-0.3,0.6,0.1,1.3,0.7,1.6c0,0,0,0,0,0c-0.3,0.5-0.1,1.2,0.4,1.5c0.5,0.3,1.1,0.1,1.4-0.5c0.4,0.5,1,0.7,1.4,0.5
			c0.4-0.2,0.6-0.8,0.3-1.4c0.7-0.3,1-0.9,0.8-1.5C38,34.5,37.4,34.2,36.8,34.2z M35.5,36.6c-0.5,0-1-0.4-1-1c0-0.5,0.4-1,1-1
			c0.5,0,1,0.4,1,1C36.5,36.2,36.1,36.6,35.5,36.6z"/>
		<path fill="#8BC53F" d="M55.3,34.2c-0.1-0.7-0.5-1.2-1.1-1.2c-0.6,0-1,0.5-1.1,1.2c0,0,0,0,0,0c-0.7-0.3-1.4,0-1.7,0.6
			c-0.3,0.6,0.1,1.3,0.7,1.6c0,0,0,0,0,0c-0.3,0.5-0.1,1.2,0.4,1.5c0.5,0.3,1.1,0.1,1.4-0.5c0.4,0.5,1,0.7,1.4,0.5
			c0.4-0.2,0.6-0.8,0.3-1.4c0.7-0.3,1-0.9,0.8-1.5C56.5,34.5,55.9,34.2,55.3,34.2z M54,36.6c-0.5,0-1-0.4-1-1c0-0.5,0.4-1,1-1
			c0.5,0,1,0.4,1,1C55,36.2,54.5,36.6,54,36.6z"/>
		<path fill="#8BC53F" d="M73.7,34.2c-0.1-0.7-0.5-1.2-1.1-1.2c-0.6,0-1,0.5-1.1,1.2c0,0,0,0,0,0c-0.7-0.3-1.4,0-1.7,0.6
			c-0.3,0.6,0.1,1.3,0.7,1.6c0,0,0,0,0,0c-0.3,0.5-0.1,1.2,0.4,1.5c0.5,0.3,1.1,0.1,1.4-0.5c0.4,0.5,1,0.7,1.4,0.5
			c0.4-0.2,0.6-0.8,0.3-1.4c0.7-0.3,1-0.9,0.8-1.5C74.9,34.5,74.3,34.2,73.7,34.2z M72.4,36.6c-0.5,0-1-0.4-1-1c0-0.5,0.4-1,1-1
			c0.5,0,1,0.4,1,1C73.4,36.2,73,36.6,72.4,36.6z"/>
		<path fill="#8BC53F" d="M19.7,53.5c-0.2-0.5-0.7-0.8-1.3-0.8c0-0.5-0.4-1-0.8-1.1c0.1,0.6,0.3,1.2,0.6,1.8
			c0.2,0.6,0.5,1.1,0.8,1.6C19.6,54.6,19.9,54,19.7,53.5z"/>
		<path fill="#8BC53F" d="M36.8,52.7c-0.1-0.7-0.5-1.2-1.1-1.2c-0.6,0-1,0.5-1.1,1.2c0,0,0,0,0,0c-0.7-0.3-1.4,0-1.7,0.6
			c-0.3,0.6,0.1,1.3,0.7,1.6c0,0,0,0,0,0c-0.3,0.5-0.1,1.2,0.4,1.5c0.5,0.3,1.1,0.1,1.4-0.5c0.4,0.5,1,0.7,1.4,0.5
			c0.4-0.2,0.6-0.8,0.3-1.4c0.7-0.3,1-0.9,0.8-1.5C38,52.9,37.4,52.6,36.8,52.7z M35.5,55.1c-0.5,0-1-0.4-1-1c0-0.5,0.4-1,1-1
			c0.5,0,1,0.4,1,1C36.5,54.6,36.1,55.1,35.5,55.1z"/>
		<path fill="#8BC53F" d="M55.3,52.7c-0.1-0.7-0.5-1.2-1.1-1.2c-0.6,0-1,0.5-1.1,1.2c0,0,0,0,0,0c-0.7-0.3-1.4,0-1.7,0.6
			c-0.3,0.6,0.1,1.3,0.7,1.6c0,0,0,0,0,0c-0.3,0.5-0.1,1.2,0.4,1.5c0.5,0.3,1.1,0.1,1.4-0.5c0.4,0.5,1,0.7,1.4,0.5
			c0.4-0.2,0.6-0.8,0.3-1.4c0.7-0.3,1-0.9,0.8-1.5C56.5,52.9,55.9,52.6,55.3,52.7z M54,55.1c-0.5,0-1-0.4-1-1c0-0.5,0.4-1,1-1
			c0.5,0,1,0.4,1,1C55,54.6,54.5,55.1,54,55.1z"/>
		<path fill="#8BC53F" d="M73.7,52.7c-0.1-0.7-0.5-1.2-1.1-1.2c-0.6,0-1,0.5-1.1,1.2c0,0,0,0,0,0c-0.7-0.3-1.4,0-1.7,0.6
			c-0.3,0.6,0.1,1.3,0.7,1.6c0,0,0,0,0,0c-0.3,0.5-0.1,1.2,0.4,1.5c0.5,0.3,1.1,0.1,1.4-0.5c0.4,0.5,1,0.7,1.4,0.5
			c0.4-0.2,0.6-0.8,0.3-1.4c0.7-0.3,1-0.9,0.8-1.5C74.9,52.9,74.3,52.6,73.7,52.7z M72.4,55.1c-0.5,0-1-0.4-1-1c0-0.5,0.4-1,1-1
			c0.5,0,1,0.4,1,1C73.4,54.6,73,55.1,72.4,55.1z"/>
		<path fill="#8BC53F" d="M36.8,71.1c-0.1-0.7-0.5-1.2-1.1-1.2c-0.6,0-1,0.5-1.1,1.2c0,0,0,0,0,0c-0.7-0.3-1.4,0-1.7,0.6
			c-0.3,0.6,0.1,1.3,0.7,1.6c0,0,0,0,0,0c-0.3,0.5-0.1,1.2,0.4,1.5c0.5,0.3,1.1,0.1,1.4-0.5c0.4,0.5,1,0.7,1.4,0.5
			c0.4-0.2,0.6-0.8,0.3-1.4c0.7-0.3,1-0.9,0.8-1.5C38,71.4,37.4,71.1,36.8,71.1z M35.5,73.5c-0.5,0-1-0.4-1-1c0-0.5,0.4-1,1-1
			c0.5,0,1,0.4,1,1C36.5,73.1,36.1,73.5,35.5,73.5z"/>
		<path fill="#8BC53F" d="M55.3,71.1c-0.1-0.7-0.5-1.2-1.1-1.2c-0.6,0-1,0.5-1.1,1.2c0,0,0,0,0,0c-0.7-0.3-1.4,0-1.7,0.6
			c-0.3,0.6,0.1,1.3,0.7,1.6c0,0,0,0,0,0c-0.3,0.5-0.1,1.2,0.4,1.5c0.5,0.3,1.1,0.1,1.4-0.5c0.4,0.5,1,0.7,1.4,0.5
			c0.4-0.2,0.6-0.8,0.3-1.4c0.7-0.3,1-0.9,0.8-1.5C56.5,71.4,55.9,71.1,55.3,71.1z M54,73.5c-0.5,0-1-0.4-1-1c0-0.5,0.4-1,1-1
			c0.5,0,1,0.4,1,1C55,73.1,54.5,73.5,54,73.5z"/>
		<path fill="#8BC53F" d="M69.9,71.7c-0.3,0.6,0.1,1.3,0.7,1.6c0,0,0,0,0,0c-0.3,0.5-0.1,1.2,0.4,1.5c0.5,0.3,1.1,0.1,1.4-0.5
			c0.4,0.5,1,0.7,1.4,0.5c0.4-0.2,0.6-0.8,0.3-1.4c0.7-0.3,1-0.9,0.8-1.5c-0.2-0.5-0.7-0.8-1.3-0.8c-0.1-0.7-0.5-1.2-1.1-1.2
			c-0.6,0-1,0.5-1.1,1.2c0,0,0,0,0,0C70.9,70.8,70.1,71.1,69.9,71.7z M72.4,71.6c0.5,0,1,0.4,1,1c0,0.5-0.4,1-1,1c-0.5,0-1-0.4-1-1
			C71.5,72,71.9,71.6,72.4,71.6z"/>
		<path fill="#8BC53F" d="M36.8,89.6c-0.1-0.7-0.5-1.2-1.1-1.2c-0.6,0-1,0.5-1.1,1.2c0,0,0,0,0,0c-0.7-0.3-1.4,0-1.7,0.6
			c-0.3,0.6,0.1,1.3,0.7,1.6c0,0,0,0,0,0c-0.3,0.5-0.1,1.2,0.4,1.5c0.5,0.3,1.1,0.1,1.4-0.5c0.4,0.5,1,0.7,1.4,0.5
			c0.4-0.2,0.6-0.8,0.3-1.4c0.7-0.3,1-0.9,0.8-1.5C38,89.8,37.4,89.5,36.8,89.6z M35.5,92c-0.5,0-1-0.4-1-1c0-0.5,0.4-1,1-1
			c0.5,0,1,0.4,1,1C36.5,91.5,36.1,92,35.5,92z"/>
		<path fill="#8BC53F" d="M55.3,89.6c-0.1-0.7-0.5-1.2-1.1-1.2c-0.6,0-1,0.5-1.1,1.2c0,0,0,0,0,0c-0.7-0.3-1.4,0-1.7,0.6
			c-0.2,0.5,0,1,0.4,1.4c0.5,0.1,0.8,0.5,0.8,1c0,0.2-0.1,0.4-0.2,0.6c0.1,0.1,0.1,0.1,0.2,0.2c0.5,0.3,1.1,0.1,1.4-0.5
			c0.4,0.5,1,0.7,1.4,0.5c0.4-0.2,0.6-0.8,0.3-1.4c0.7-0.3,1-0.9,0.8-1.5C56.5,89.8,55.9,89.5,55.3,89.6z M54,92c-0.5,0-1-0.4-1-1
			c0-0.5,0.4-1,1-1c0.5,0,1,0.4,1,1C55,91.5,54.5,92,54,92z"/>
		<path fill="#8BC53F" d="M73.7,89.6c-0.1-0.7-0.5-1.2-1.1-1.2c-0.6,0-1,0.5-1.1,1.2c0,0,0,0,0,0c-0.7-0.3-1.4,0-1.7,0.6
			c-0.3,0.6,0.1,1.3,0.7,1.6c0,0,0,0,0,0c-0.3,0.5-0.1,1.2,0.4,1.5c0.5,0.3,1.1,0.1,1.4-0.5c0.4,0.5,1,0.7,1.4,0.5
			c0.4-0.2,0.6-0.8,0.3-1.4c0.7-0.3,1-0.9,0.8-1.5C74.9,89.8,74.3,89.5,73.7,89.6z M72.4,92c-0.5,0-1-0.4-1-1c0-0.5,0.4-1,1-1
			c0.5,0,1,0.4,1,1C73.4,91.5,73,92,72.4,92z"/>
		<path fill="#8BC53F" d="M6,8.8C6,8.8,6.1,8.8,6,8.8C5.8,9.3,6,10,6.5,10.3c0.5,0.3,1.1,0.1,1.4-0.5c0.4,0.5,1,0.7,1.4,0.5
			C9.8,10,9.9,9.4,9.7,8.9c0.7-0.3,1-0.9,0.8-1.5c-0.2-0.5-0.7-0.8-1.3-0.8C9.1,5.9,8.7,5.3,8.1,5.3c-0.6,0-1,0.5-1.1,1.2
			c0,0,0,0,0,0C6.5,6.3,5.9,6.5,5.6,6.8C5.5,7,5.4,7.1,5.3,7.3C5.1,7.9,5.4,8.5,6,8.8z M7.9,7c0.5,0,1,0.4,1,1c0,0.5-0.4,1-1,1
			c-0.5,0-1-0.4-1-1C6.9,7.4,7.3,7,7.9,7z"/>
		<path fill="#8BC53F" d="M24.5,8.8C24.5,8.8,24.5,8.8,24.5,8.8c-0.2,0.6-0.1,1.2,0.4,1.5c0.5,0.3,1.1,0.1,1.4-0.5
			c0.3,0.4,0.7,0.6,1.1,0.6c-0.3-0.5-0.6-1-0.8-1.5C26.6,8.9,26.5,9,26.3,9c-0.5,0-1-0.4-1-1c0-0.2,0.1-0.3,0.1-0.5
			c-0.5-0.2-1-0.4-1.5-0.7C23.9,7,23.8,7,23.8,7.2C23.5,7.8,23.8,8.5,24.5,8.8z"/>
		<path fill="#8BC53F" d="M27.3,8c0,0.2-0.1,0.3-0.2,0.5c0.3,0.6,0.5,1.1,0.8,1.6c0.3-0.3,0.4-0.8,0.2-1.2c0.7-0.3,1-0.9,0.8-1.5
			c-0.2-0.5-0.7-0.8-1.3-0.8c0-0.2-0.1-0.3-0.1-0.4c-0.5,0.3-0.9,0.6-0.9,1C27,7.2,27.3,7.6,27.3,8z"/>
		<path fill="#8BC53F" d="M44.8,9c-0.3,0-0.5-0.1-0.7-0.3c-0.6-0.2-1.3-0.4-1.8-0.7c0.1,0.4,0.3,0.7,0.7,0.9c0,0,0,0,0,0
			c-0.3,0.5-0.1,1.2,0.4,1.5c0.5,0.3,1.1,0.1,1.4-0.5c0.4,0.5,1,0.7,1.4,0.5c0.4-0.2,0.5-0.7,0.4-1.1c-0.5-0.1-1-0.1-1.5-0.2
			C45,8.9,44.9,9,44.8,9z"/>
		<path fill="#8BC53F" d="M61.4,8.8C61.4,8.8,61.4,8.8,61.4,8.8c-0.2,0.6-0.1,1.2,0.4,1.5c0.5,0.3,1.1,0.1,1.4-0.5
			c0.4,0.5,1,0.7,1.4,0.5c0.4-0.2,0.6-0.8,0.3-1.4c0.7-0.3,1-0.9,0.8-1.5c-0.2-0.5-0.7-0.8-1.3-0.8c-0.1-0.7-0.5-1.2-1.1-1.2
			c-0.6,0-1,0.5-1.1,1.2c0,0,0,0,0,0c-0.7-0.3-1.4,0-1.7,0.6C60.4,7.8,60.7,8.5,61.4,8.8z M63.2,7c0.5,0,1,0.4,1,1c0,0.5-0.4,1-1,1
			c-0.5,0-1-0.4-1-1C62.2,7.4,62.7,7,63.2,7z"/>
		<path fill="#8BC53F" d="M83,6.6c-0.1-0.7-0.5-1.2-1.1-1.2c-0.6,0-1,0.5-1.1,1.2c0,0,0,0,0,0c-0.7-0.3-1.4,0-1.7,0.6
			c-0.3,0.6,0.1,1.3,0.7,1.6c0,0,0,0,0,0c-0.3,0.5-0.1,1.2,0.4,1.5c0.5,0.3,1.1,0.1,1.4-0.5c0.4,0.5,1,0.7,1.4,0.5
			c0.4-0.2,0.6-0.8,0.3-1.4c0.7-0.3,1-0.9,0.8-1.5C84.1,6.8,83.6,6.5,83,6.6z M81.7,9c-0.5,0-1-0.4-1-1c0-0.5,0.4-1,1-1
			c0.5,0,1,0.4,1,1C82.6,8.5,82.2,9,81.7,9z"/>
		<path fill="#8BC53F" d="M9.2,25c-0.1-0.7-0.5-1.2-1.1-1.2c-0.6,0-1,0.5-1.1,1.2c0,0,0,0,0,0c-0.7-0.3-1.4,0-1.7,0.6
			C5.1,26.2,5.4,27,6,27.2c0,0,0,0,0,0c-0.3,0.5-0.1,1.2,0.4,1.5C7,29,7.6,28.8,7.9,28.2c0.4,0.5,1,0.7,1.4,0.5
			c0.4-0.2,0.6-0.8,0.3-1.4c0.7-0.3,1-0.9,0.8-1.5C10.3,25.2,9.8,24.9,9.2,25z M7.9,27.4c-0.5,0-1-0.4-1-1c0-0.5,0.4-1,1-1
			c0.5,0,1,0.4,1,1C8.8,27,8.4,27.4,7.9,27.4z"/>
		<path fill="#8BC53F" d="M27.6,25c-0.1-0.7-0.5-1.2-1.1-1.2c-0.6,0-1,0.5-1.1,1.2c0,0,0,0,0,0c-0.7-0.3-1.4,0-1.7,0.6
			c-0.3,0.6,0.1,1.3,0.7,1.6c0,0,0,0,0,0c-0.3,0.5-0.1,1.2,0.4,1.5c0.5,0.3,1.1,0.1,1.4-0.5c0.4,0.5,1,0.7,1.4,0.5
			c0.4-0.2,0.6-0.8,0.3-1.4c0.7-0.3,1-0.9,0.8-1.5C28.8,25.2,28.2,24.9,27.6,25z M26.3,27.4c-0.5,0-1-0.4-1-1c0-0.5,0.4-1,1-1
			c0.5,0,1,0.4,1,1C27.3,27,26.8,27.4,26.3,27.4z"/>
		<path fill="#8BC53F" d="M42.9,27.2C42.9,27.2,43,27.2,42.9,27.2c-0.2,0.6-0.1,1.2,0.4,1.5c0.5,0.3,1.1,0.1,1.4-0.5
			c0.4,0.5,1,0.7,1.4,0.5c0.4-0.2,0.6-0.8,0.3-1.4c0.7-0.3,1-0.9,0.8-1.5c-0.2-0.5-0.7-0.8-1.3-0.8c-0.1-0.7-0.5-1.2-1.1-1.2
			c-0.6,0-1,0.5-1.1,1.2c0,0,0,0,0,0c-0.7-0.3-1.4,0-1.7,0.6C42,26.2,42.3,27,42.9,27.2z M44.8,25.5c0.5,0,1,0.4,1,1
			c0,0.5-0.4,1-1,1c-0.5,0-1-0.4-1-1C43.8,25.9,44.2,25.5,44.8,25.5z"/>
		<path fill="#8BC53F" d="M64.5,25c-0.1-0.7-0.5-1.2-1.1-1.2c-0.6,0-1,0.5-1.1,1.2c0,0,0,0,0,0c-0.7-0.3-1.4,0-1.7,0.6
			c-0.3,0.6,0.1,1.3,0.7,1.6c0,0,0,0,0,0c-0.3,0.5-0.1,1.2,0.4,1.5c0.5,0.3,1.1,0.1,1.4-0.5c0.4,0.5,1,0.7,1.4,0.5
			c0.4-0.2,0.6-0.8,0.3-1.4c0.7-0.3,1-0.9,0.8-1.5C65.7,25.2,65.1,24.9,64.5,25z M63.2,27.4c-0.5,0-1-0.4-1-1c0-0.5,0.4-1,1-1
			c0.5,0,1,0.4,1,1C64.2,27,63.7,27.4,63.2,27.4z"/>
		<path fill="#8BC53F" d="M83,25c-0.1-0.7-0.5-1.2-1.1-1.2c-0.6,0-1,0.5-1.1,1.2c0,0,0,0,0,0c-0.7-0.3-1.4,0-1.7,0.6
			c-0.3,0.6,0.1,1.3,0.7,1.6c0,0,0,0,0,0c-0.3,0.5-0.1,1.2,0.4,1.5c0.5,0.3,1.1,0.1,1.4-0.5c0.4,0.5,1,0.7,1.4,0.5
			c0.4-0.2,0.6-0.8,0.3-1.4c0.7-0.3,1-0.9,0.8-1.5C84.1,25.2,83.6,24.9,83,25z M81.7,27.4c-0.5,0-1-0.4-1-1c0-0.5,0.4-1,1-1
			c0.5,0,1,0.4,1,1C82.6,27,82.2,27.4,81.7,27.4z"/>
		<path fill="#8BC53F" d="M97.6,25.6c-0.2,0.4-0.1,0.8,0.1,1.1c0.4-0.6,0.7-1.2,0.9-1.8C98.2,24.9,97.7,25.2,97.6,25.6z"/>
		<path fill="#8BC53F" d="M27.6,43.5c-0.1-0.7-0.5-1.2-1.1-1.2c-0.6,0-1,0.5-1.1,1.2c0,0,0,0,0,0c-0.7-0.3-1.4,0-1.7,0.6
			c-0.3,0.6,0.1,1.3,0.7,1.6c0,0,0,0,0,0c-0.3,0.5-0.1,1.2,0.4,1.5c0.5,0.3,1.1,0.1,1.4-0.5c0.4,0.5,1,0.7,1.4,0.5
			c0.4-0.2,0.6-0.8,0.3-1.4c0.7-0.3,1-0.9,0.8-1.5C28.8,43.7,28.2,43.4,27.6,43.5z M26.3,45.8c-0.5,0-1-0.4-1-1c0-0.5,0.4-1,1-1
			c0.5,0,1,0.4,1,1C27.3,45.4,26.8,45.8,26.3,45.8z"/>
		<path fill="#8BC53F" d="M42.9,45.7C42.9,45.7,43,45.7,42.9,45.7c-0.2,0.6-0.1,1.2,0.4,1.5c0.5,0.3,1.1,0.1,1.4-0.5
			c0.4,0.5,1,0.7,1.4,0.5c0.4-0.2,0.6-0.8,0.3-1.4c0.7-0.3,1-0.9,0.8-1.5c-0.2-0.5-0.7-0.8-1.3-0.8c-0.1-0.7-0.5-1.2-1.1-1.2
			c-0.6,0-1,0.5-1.1,1.2c0,0,0,0,0,0c-0.7-0.3-1.4,0-1.7,0.6C42,44.7,42.3,45.4,42.9,45.7z M44.8,43.9c0.5,0,1,0.4,1,1
			c0,0.5-0.4,1-1,1c-0.5,0-1-0.4-1-1C43.8,44.3,44.2,43.9,44.8,43.9z"/>
		<path fill="#8BC53F" d="M64.5,43.5c-0.1-0.7-0.5-1.2-1.1-1.2c-0.6,0-1,0.5-1.1,1.2c0,0,0,0,0,0c-0.7-0.3-1.4,0-1.7,0.6
			c-0.3,0.6,0.1,1.3,0.7,1.6c0,0,0,0,0,0c-0.3,0.5-0.1,1.2,0.4,1.5c0.5,0.3,1.1,0.1,1.4-0.5c0.4,0.5,1,0.7,1.4,0.5
			c0.4-0.2,0.6-0.8,0.3-1.4c0.7-0.3,1-0.9,0.8-1.5C65.7,43.7,65.1,43.4,64.5,43.5z M63.2,45.8c-0.5,0-1-0.4-1-1c0-0.5,0.4-1,1-1
			c0.5,0,1,0.4,1,1C64.2,45.4,63.7,45.8,63.2,45.8z"/>
		<path fill="#8BC53F" d="M80.8,43.4c-0.7-0.3-1.4,0-1.7,0.6c-0.3,0.6,0.1,1.3,0.7,1.6c0,0,0,0,0,0c-0.3,0.5-0.1,1.2,0.4,1.5
			c0.5,0.3,1.1,0.1,1.4-0.5c0.1,0.1,0.2,0.2,0.2,0.3c-0.1-0.4-0.1-0.7-0.2-1.1c0,0,0,0,0,0c-0.5,0-1-0.4-1-1c0-0.4,0.2-0.7,0.5-0.9
			c-0.1-0.3-0.2-0.7-0.3-1C80.8,43.1,80.8,43.3,80.8,43.4C80.8,43.4,80.8,43.4,80.8,43.4z"/>
		<path fill="#8BC53F" d="M25.4,61.9c-0.7-0.3-1.4,0-1.7,0.6c-0.3,0.6,0.1,1.3,0.7,1.6c0,0,0,0,0,0c-0.3,0.5-0.1,1.2,0.4,1.5
			c0.5,0.3,1.1,0.1,1.4-0.5c0.4,0.5,1,0.7,1.4,0.5c0.4-0.2,0.6-0.8,0.3-1.4c0.7-0.3,1-0.9,0.8-1.5c-0.2-0.5-0.7-0.8-1.3-0.8
			c0-0.1,0-0.1,0-0.2c-0.6-0.1-1.3-0.3-1.9-0.5C25.6,61.4,25.5,61.6,25.4,61.9C25.4,61.9,25.4,61.9,25.4,61.9z M26.3,62.4
			c0.5,0,1,0.4,1,1c0,0.5-0.4,1-1,1c-0.5,0-1-0.4-1-1C25.3,62.8,25.8,62.4,26.3,62.4z"/>
		<path fill="#8BC53F" d="M26.5,60.7c-0.2,0-0.4,0.1-0.6,0.2c0.5,0.2,1,0.3,1.5,0.4C27.3,61,26.9,60.7,26.5,60.7z"/>
		<path fill="#8BC53F" d="M42.9,64.1C42.9,64.1,43,64.1,42.9,64.1c-0.2,0.6-0.1,1.2,0.4,1.5c0.5,0.3,1.1,0.1,1.4-0.5
			c0.4,0.5,1,0.7,1.4,0.5c0.4-0.2,0.6-0.8,0.3-1.4c0.7-0.3,1-0.9,0.8-1.5c-0.2-0.5-0.7-0.8-1.3-0.8c-0.1-0.7-0.5-1.2-1.1-1.2
			c-0.6,0-1,0.5-1.1,1.2c0,0,0,0,0,0c-0.7-0.3-1.4,0-1.7,0.6C42,63.1,42.3,63.9,42.9,64.1z M44.8,62.4c0.5,0,1,0.4,1,1
			c0,0.5-0.4,1-1,1c-0.5,0-1-0.4-1-1C43.8,62.8,44.2,62.4,44.8,62.4z"/>
		<path fill="#8BC53F" d="M64.5,61.9c-0.1-0.7-0.5-1.2-1.1-1.2c-0.6,0-1,0.5-1.1,1.2c0,0,0,0,0,0c-0.7-0.3-1.4,0-1.7,0.6
			c-0.3,0.6,0.1,1.3,0.7,1.6c0,0,0,0,0,0c-0.3,0.5-0.1,1.2,0.4,1.5c0.5,0.3,1.1,0.1,1.4-0.5c0.4,0.5,1,0.7,1.4,0.5
			c0.4-0.2,0.6-0.8,0.3-1.4c0.7-0.3,1-0.9,0.8-1.5C65.7,62.1,65.1,61.8,64.5,61.9z M63.2,64.3c-0.5,0-1-0.4-1-1c0-0.5,0.4-1,1-1
			c0.5,0,1,0.4,1,1C64.2,63.9,63.7,64.3,63.2,64.3z"/>
		<path fill="#8BC53F" d="M27.6,80.3c-0.1-0.7-0.5-1.2-1.1-1.2c-0.6,0-1,0.5-1.1,1.2c0,0,0,0,0,0c-0.7-0.3-1.4,0-1.7,0.6
			c-0.3,0.6,0.1,1.3,0.7,1.6c0,0,0,0,0,0c-0.3,0.5-0.1,1.2,0.4,1.5c0.5,0.3,1.1,0.1,1.4-0.5c0.4,0.5,1,0.7,1.4,0.5
			c0.4-0.2,0.6-0.8,0.3-1.4c0.7-0.3,1-0.9,0.8-1.5C28.8,80.6,28.2,80.3,27.6,80.3z M26.3,82.7c-0.5,0-1-0.4-1-1s0.4-1,1-1
			c0.5,0,1,0.4,1,1S26.8,82.7,26.3,82.7z"/>
		<path fill="#8BC53F" d="M42.9,82.6C42.9,82.6,43,82.6,42.9,82.6c-0.2,0.6-0.1,1.2,0.4,1.5c0.5,0.3,1.1,0.1,1.4-0.5
			c0.4,0.5,1,0.7,1.4,0.5c0.4-0.2,0.6-0.8,0.3-1.4c0.7-0.3,1-0.9,0.8-1.5c-0.2-0.5-0.7-0.8-1.3-0.8c-0.1-0.7-0.5-1.2-1.1-1.2
			c-0.6,0-1,0.5-1.1,1.2c0,0,0,0,0,0c-0.7-0.3-1.4,0-1.7,0.6C42,81.6,42.3,82.3,42.9,82.6z M44.8,80.8c0.5,0,1,0.4,1,1s-0.4,1-1,1
			c-0.5,0-1-0.4-1-1S44.2,80.8,44.8,80.8z"/>
		<path fill="#8BC53F" d="M64.5,80.3c-0.1-0.7-0.5-1.2-1.1-1.2c-0.6,0-1,0.5-1.1,1.2c0,0,0,0,0,0c-0.7-0.3-1.4,0-1.7,0.6
			c-0.3,0.6,0.1,1.3,0.7,1.6c0,0,0,0,0,0c-0.3,0.5-0.1,1.2,0.4,1.5c0.5,0.3,1.1,0.1,1.4-0.5c0.4,0.5,1,0.7,1.4,0.5
			c0.4-0.2,0.6-0.8,0.3-1.4c0.7-0.3,1-0.9,0.8-1.5C65.7,80.6,65.1,80.3,64.5,80.3z M63.2,82.7c-0.5,0-1-0.4-1-1s0.4-1,1-1
			c0.5,0,1,0.4,1,1S63.7,82.7,63.2,82.7z"/>
		<path fill="#8BC53F" d="M27.6,98.8c-0.1-0.7-0.5-1.2-1.1-1.2c-0.6,0-1,0.5-1.1,1.2c0,0,0,0,0,0c-0.7-0.3-1.4,0-1.7,0.6
			c-0.3,0.6,0.1,1.3,0.7,1.6c0,0,0,0,0,0c-0.3,0.5-0.1,1.2,0.4,1.5c0.5,0.3,1.1,0.1,1.4-0.5c0.4,0.5,1,0.7,1.4,0.5
			c0.4-0.2,0.6-0.8,0.3-1.4c0.7-0.3,1-0.9,0.8-1.5C28.8,99,28.2,98.7,27.6,98.8z M26.3,101.2c-0.5,0-1-0.4-1-1c0-0.5,0.4-1,1-1
			c0.5,0,1,0.4,1,1C27.3,100.8,26.8,101.2,26.3,101.2z"/>
		<path fill="#8BC53F" d="M42.9,101C42.9,101,43,101,42.9,101c-0.2,0.6-0.1,1.2,0.4,1.5c0.5,0.3,1.1,0.1,1.4-0.5
			c0.4,0.5,1,0.7,1.4,0.5c0.4-0.2,0.6-0.8,0.3-1.4c0.7-0.3,1-0.9,0.8-1.5c-0.2-0.5-0.7-0.8-1.3-0.8c-0.1-0.7-0.5-1.2-1.1-1.2
			c-0.6,0-1,0.5-1.1,1.2c0,0,0,0,0,0c-0.7-0.3-1.4,0-1.7,0.6C42,100,42.3,100.7,42.9,101z M44.8,99.3c0.5,0,1,0.4,1,1
			c0,0.5-0.4,1-1,1c-0.5,0-1-0.4-1-1C43.8,99.7,44.2,99.3,44.8,99.3z"/>
		<path fill="#8BC53F" d="M64.5,98.8c-0.1-0.7-0.5-1.2-1.1-1.2c-0.6,0-1,0.5-1.1,1.2c0,0,0,0,0,0c-0.7-0.3-1.4,0-1.7,0.6
			c-0.3,0.6,0.1,1.3,0.7,1.6c0,0,0,0,0,0c-0.3,0.5-0.1,1.2,0.4,1.5c0.5,0.3,1.1,0.1,1.4-0.5c0.4,0.5,1,0.7,1.4,0.5
			c0.4-0.2,0.6-0.8,0.3-1.4c0.7-0.3,1-0.9,0.8-1.5C65.7,99,65.1,98.7,64.5,98.8z M63.2,101.2c-0.5,0-1-0.4-1-1c0-0.5,0.4-1,1-1
			c0.5,0,1,0.4,1,1C64.2,100.8,63.7,101.2,63.2,101.2z"/>
		<g>
			<path fill="#603813" d="M99.4,24.5c-0.1-3.9-1-7.5-2.3-11.1c-1.1-3.1-3.8-9.8-8.1-10.2c-3.1-0.3-4.8,0.3-7.9,0.9
				c-3.1,0.6-5.2,1.9-8,3.2c0.1-0.4,0.2-0.8,0.3-1.2c0-0.1-0.1-0.1-0.1-0.2C70,4.3,65.4,3.9,63,1c-0.1-0.1-0.4-0.1-0.5,0.1
				C60.3,6.7,53,9.5,46.7,8.8c-0.4,0-0.8-0.1-1.2-0.2c-0.6-0.1-1.1-0.2-1.6-0.4c-0.6-0.2-1.1-0.4-1.7-0.7c-2.5-1.2-4.5-3.3-5.4-6.3
				c-0.1-0.2-0.4-0.1-0.5,0c-2.2,2.6-6,3.2-9.1,4.4c-0.4,0.2-0.8,0.3-1.2,0.5c-0.1,0-0.2,0.1-0.1,0.2c0,0.2,0.1,0.4,0.2,0.6
				c0,0.1,0.1,0.3,0.1,0.4c-0.2-0.1-0.3-0.1-0.5-0.2c-0.5-0.2-1-0.4-1.4-0.6c-4.9-2.2-9.2-3.5-15.1-2.9c-4,0.4-5.6,6.1-6.6,9.1
				C0.7,18.6-2.3,24.4,3,28.9c3.8,3.3,8.7,3.7,13.3,5.3c1.2,0.4,2.4,0.9,3.5,1.5c0.2,0.1,0.4,0.2,0.5,0.3c0,0,0.1,0,0.1,0
				c-0.3,1.3-0.7,2.5-1,3.4c-1.2,3.7-2.6,7.2-2.4,11.1c0,0.3,0.1,0.7,0.1,1c0.1,0.6,0.2,1.2,0.4,1.8c0.1,0.4,0.3,0.8,0.5,1.1
				c0.3,0.5,0.6,1.1,0.9,1.6c0.2,0.2,0.3,0.4,0.5,0.7c0.4,7.5,1.5,15.1,1.5,22.7c0,4.8-0.2,9.4-0.9,14.3c-0.6,3.6-0.2,7,1.8,10.2
				c0.9,1.5,8.4,1.8,9.9,2.1c5.4,0.9,10.9,1.2,16.4,1.1c0,0,0.1,0,0.1,0c2.1,0,4.2-0.1,6.3-0.2c6-0.3,11.9-1.1,17.8-2.1
				c0.6-0.1,3.8-0.3,4.2-1c4.1-6.6,0.8-15.4,0.8-22.6c0-7.7,0.9-15.4,1.6-23c0,0,0,0,0,0c1.3-1.3,2.4-2.9,3.2-4.7
				c0.9-2,0.9-4,0.6-6.1c-0.1-0.5-0.2-1.1-0.3-1.6c-0.1-0.6-0.3-1.1-0.4-1.7c-0.1-0.5-0.3-0.9-0.4-1.4c0,0,0-0.1,0-0.1
				c-0.5-1.6-1.7-4.3-2.2-6.8c0,0,0,0,0,0c5.1-3.1,11.5-2.7,16.3-6.4c0.6-0.5,1.7-1.2,2.5-2.1c0.7-0.7,1.3-1.5,1.3-2.3
				C99.4,24.7,99.4,24.6,99.4,24.5z M62.8,1.7c0.1-0.2,0.1-0.3,0.2-0.4c0,0.1,0,0.3,0.2,0.6c0.3,0.4,1.4,0.9,1.9,1.2
				c2.1,1.1,4.4,1.7,6.7,2.6c2,0.7-0.1,3.8-0.6,4.7c-1.8,3.3-4.4,4.4-8.1,4.6c-4.7,0.3-8.7-1.9-10.8-6C56.8,8.1,60.6,5.9,62.8,1.7z
				 M27.5,6.1c2.5-1.5,9.3-2.9,8.8-4.5c0.9,3,3.1,5.1,5.8,6.3c0.6,0.3,1.2,0.5,1.8,0.7c0.3,0.1,0.7,0.2,1.1,0.3
				c0.5,0.1,1,0.2,1.5,0.2c0.2,0,0.3,0,0.5,0c-2.2,4.2-6,5.8-10.5,5.9c-0.5,0-1.1,0-1.6,0c0,0-0.1,0-0.1,0c-3.5-0.2-5.5-2.3-7-5
				c-0.3-0.5-0.6-1.1-0.8-1.6c-0.2-0.4-0.3-0.8-0.5-1.1c0-0.1,0-0.2,0-0.3C26.6,6.7,27,6.4,27.5,6.1z M28.2,105
				c-1.7-0.3-3.4-0.7-5-1.1c-2.3-0.6-2.6-3.7-3-5.7c-0.6-3.1,0.5-6.7,0.9-9.9c0.4-3.6,0.2-7.4,0.2-11c0-6.6-1-13.4-1.5-20
				c1.6,1.8,3.6,3.2,5.8,3.9c0.6,0.2,1.2,0.4,1.9,0.5c0.1,0,0.1,0,0.2,0c0.2,0,0.6-0.2,0.3-0.3c-0.2,0-0.4-0.1-0.6-0.1
				c-0.5-0.1-1-0.3-1.5-0.4c-3-1.1-5.3-3.3-6.9-6c-0.3-0.5-0.6-1.1-0.8-1.6c-0.3-0.6-0.4-1.2-0.6-1.8c-0.7-3.5,0.6-7.3,1.7-10.6
				c1-2.9,3.5-9.1-0.1-11.5c-0.1-0.1-0.6,0.1-0.4,0.2c1.9,1.2,2,3.6,1.5,5.9c-0.2-0.1-0.4-0.3-0.7-0.4c-1-0.5-2.2-1-3.5-1.4
				C9,31.4-0.4,30.5,0.6,21c0.5-4.3,2.6-9.8,4.6-13.6c0,0,0.1-0.1,0.1-0.1C5.4,7.1,5.5,7,5.6,6.8c3.6-5.7,12.9-2.4,18.4,0
				c0.5,0.2,1,0.5,1.5,0.7c0.2,0.1,0.4,0.2,0.6,0.3c0.1,0,0.1,0,0.2,0c0.1,0.4,0.3,0.7,0.4,1.1c0.2,0.5,0.5,1,0.8,1.5
				c1.7,2.7,4.4,4.4,7.3,5c0.7,0.1,1.3,0.2,2,0.2c4,0.1,8-1.7,10.4-5.6c0,17.3,1.5,34.6,1.3,51.9c-0.1,8.3,0.7,16.6,0.6,24.9
				c0,4.5,0,8.9-0.8,13.3c-0.4,2-1.3,4.7-0.3,6.7C41.3,106.9,34.7,106.2,28.2,105z M97.7,26.7c-0.2,0.3-0.5,0.6-0.8,1
				c-2.7,2.6-6.3,4-9.9,4.9c-2.8,0.7-5.4,1.3-7.9,2.8c-0.4-2.3-0.2-4.5,1.6-5.6c0.3-0.2-0.1-0.2-0.3-0.1c-2.6,1.7-1.9,5.7-1.2,8.3
				c0.5,1.8,1.1,3.5,1.7,5.2c0.1,0.3,0.2,0.7,0.3,1c0.2,0.6,0.3,1.2,0.5,1.8c0.1,0.4,0.2,0.7,0.2,1.1c0.2,1.1,0.3,2.3,0.3,3.5
				c-0.1,2.8-1.6,5.6-3.7,7.6c-0.1,0-0.1,0.1-0.1,0.1c0,0,0,0,0,0c-1.9,1.7-4.2,2.9-6.6,3.3c-0.2,0-0.4,0.3-0.1,0.3
				c2.6-0.4,4.8-1.6,6.6-3.2c-0.5,5.7-0.8,11.6-1.4,17.3c-0.8,7.1,0.8,13.9,1.1,21c0,1.1-0.6,6.5-2.3,6.9c-1.4,0.3-2.9,0.6-4.3,0.9
				c-6.8,1.2-13.7,1.8-20.6,2.2c-0.8,0-1.7,0.1-2.5,0.1c0,0,0,0,0,0c-1.2-2.3,0.2-5.9,0.6-8.3c0.6-3.3,0.4-6.7,0.5-10.1
				c0.2-8.9-0.6-17.7-0.5-26.6c0.2-17.5-1.3-35-1.3-52.5c0.5,0,1,0,1.4,0c0.9,0,1.8-0.1,2.6-0.3c4.7,9.3,18.1,8,21.3-1.3
				c5.3-2.3,14.8-7.2,19.7-2c2.5,2.7,4.2,8.5,5.2,12.2c0.7,2.5,1.6,4.8,0.8,7.1C98.4,25.5,98.1,26.1,97.7,26.7z"/>
			<circle fill="#603813" cx="49.9" cy="11.9" r="1.5"/>
			<circle fill="#603813" cx="49.7" cy="19.2" r="1"/>
			<circle fill="#603813" cx="50" cy="26.8" r="1"/>
			<circle fill="#603813" cx="50.2" cy="34.2" r="1"/>
			<circle fill="#603813" cx="50.7" cy="41.3" r="1"/>
			<circle fill="#603813" cx="51.1" cy="50" r="1"/>
			<circle fill="#603813" cx="51.2" cy="59.3" r="1"/>
			<circle fill="#603813" cx="51.1" cy="67.8" r="1"/>
			<circle fill="#603813" cx="51.2" cy="76.2" r="1"/>
			<circle fill="#603813" cx="51.5" cy="84.5" r="1"/>
			<path fill="#603813" d="M51.8,91.6c-0.1,0-0.1,0-0.2,0c-0.6,0-1,0.4-1,1c0,0.6,0.4,1,1,1c0.3,0,0.6-0.2,0.8-0.4
				c0.1-0.2,0.2-0.4,0.2-0.6C52.6,92,52.3,91.7,51.8,91.6z"/>
			<circle fill="#603813" cx="50.7" cy="100.9" r="1"/>
		</g>
	</g>
</g>
<g display="none">
	<path display="inline" fill="#8BC53F" d="M70.8,9.1c-0.4,1.8-1.1,3.4-1.9,5.1c-0.4,0.7-5.8,11-7.3,8.8c-1.5-2.1-2.7-4.7-3.4-7.1
		c-0.2-0.6-2.4-11.4-4-9.4c-0.1,0.1-0.6,0.2-0.4,0c1.7-2.1,3.3,1.8,3.6,3c0.9,3,1,5.9,2.3,8.8c0.4,0.9,0.8,1.6,1.2,2.4
		c1.7,3.5,3,1.2,4.4-1C67.8,16,73.1,8.8,68.3,5c-1.5-1.2-3.1-2.3-4.7-3.4c-2.3-1.5-2.7-0.9-4.3,0.8c-2.7,2.9-4.7,3.1-8.2,3.1
		c-1.3,0-2.4,0.1-3.5,0c0,16.8,1.5,38.4,1.3,55.1c-0.1,8.5,0.7,17,0.5,25.5c-0.1,3.2,0.1,4.5-0.5,7.6c-0.4,2.3-1.7,5.7-0.6,8
		c0,0,0,0,0,0c0.8,0,1.7,0,2.5-0.1c6.9-0.3,12.8-0.9,19.6-2.1c1.4-0.2,2.9-0.5,4.3-0.8c1.7-0.4,3.4-5.6,3.3-6.6
		c-0.3-6.7-1.9-11.2-1.1-18.1c0.6-5.5,0.9-11,1.4-16.5c-1.8,1.6-4,2.7-6.6,3.1c-0.3,0-0.2-0.2,0.1-0.3c2.4-0.3,4.7-1.5,6.6-3.1
		c0,0,0,0,0,0c0,0,0.1-0.1,0.1-0.1c2.1-1.9,3.6-4.5,3.7-7.3c0.2-4.4-1.8-8-2.9-12.1c-0.7-2.4-1.4-6.3,1.2-7.9c0.2-0.1,0.6,0,0.3,0.1
		c-1.8,1.1-2,3.2-1.6,5.4c2.5-1.4,5.1-2,7.9-2.7c3.6-0.9,7.2-2.1,9.9-4.7c3.3-3.1,1.9-6.1,0.9-9.4c-1-3.5-2.7-9.1-5.2-11.7
		C87.8,2,76.2,6.8,70.8,9.1z M48.4,12.9c0-0.8,0.7-1.4,1.5-1.4c0.8,0,1.5,0.6,1.5,1.4c0,0.8-0.7,1.4-1.5,1.4
		C49,14.4,48.4,13.7,48.4,12.9z M49,27.2c0-0.5,0.4-1,1-1c0.6,0,1,0.4,1,1c0,0.5-0.4,1-1,1C49.5,28.1,49,27.7,49,27.2z M49.7,41.1
		c0-0.5,0.4-1,1-1c0.6,0,1,0.4,1,1c0,0.5-0.4,1-1,1C50.2,42,49.7,41.6,49.7,41.1z M51.2,57.3c0.6,0,1,0.4,1,1s-0.4,1-1,1
		c-0.6,0-1-0.4-1-1S50.7,57.3,51.2,57.3z M50.2,74.4c0-0.5,0.4-1,1-1c0.6,0,1,0.4,1,1c0,0.5-0.4,1-1,1
		C50.7,75.4,50.2,74.9,50.2,74.4z M51.6,91c-0.6,0-1-0.4-1-1c0-0.5,0.4-1,1-1c0.6,0,1,0.4,1,1C52.6,90.6,52.2,91,51.6,91z"/>
	<path display="inline" fill="#8BC53F" d="M48.2,95.3C49,91.1,49,88.9,49,84.6c0.1-8-0.7-15.9-0.6-23.8c0.2-16.6-1.3-38.7-1.3-55.2
		c-1.9-0.1-3.6-0.5-5.6-2.1C39.5,1.8,38,0.3,35,2.2c-1.7,1.1-3.3,2.4-4.9,3.7C27.1,8.5,32,16,33.6,18.4c1.8,2.6,3.8,6.3,5.9,1.4
		c0.3-0.7,0.6-1.5,0.9-2.2c1-2.6,1-5.4,1.9-8c0.3-0.9,2-5.2,3.6-3.1c0.1,0.1-0.4,0.3-0.5,0.2c-1.6-1.9-3.5,6.7-3.5,6.8
		c-0.2,1.5-0.6,2.8-1.1,4.2c-0.7,1.8-1.5,4.6-3.2,5.7c-2.1,1.4-7.8-10.7-8.2-11.8c-0.3-0.7-0.4-1.3-0.6-1.9C23.8,7.3,9,1.7,5.2,8.6
		c-2,3.7-4.1,8.9-4.6,13c-1.3,10.9,12.7,10,19.8,14c0.4-2.2,0.3-4.5-1.5-5.6c-0.2-0.1,0.3-0.3,0.4-0.2c3.5,2.2,1.1,8.2,0.1,11
		c-1.3,3.7-2.9,8-1.2,11.8c1.8,3.9,5.3,7.2,9.9,7.8c0.3,0-0.1,0.3-0.3,0.3c-2.9-0.4-5.8-2-7.9-4.3c0.4,6.3,1.5,12.8,1.5,19.1
		c0,3.5,0.2,7.1-0.2,10.5c-0.4,3-1.5,4.5-0.9,7.5c0.4,1.9,1.7,4.9,4,5.4c1.7,0.4,2.3,0.8,4,1.1c6.5,1.1,13.1,1.8,19.6,1.8
		C46.9,99.8,47.9,97.3,48.2,95.3z"/>
	<path display="inline" fill="#603813" d="M88.9,4.6c-3.1-0.3-4.8,0.3-7.9,0.9C78,6,73.7,7.6,70.9,8.8c0.1-0.6,0.2-1.3,0.3-2
		c0-0.5-3.3-2.7-3.7-3.1c-1.9-1.5-4.5-3.9-7.1-3.7c-0.8,0-2.4,3.1-2.6,3.3c-2.4,1.9-4.4,2-7.3,2c-0.8,0-1.8,0.1-2.8,0.1c0,0,0,0,0,0
		l0,0c-1.3,0-2.6-0.1-3.6-0.7c-1.8-1.1-2.8-2.4-3.9-4C39.6,0,39.8,0,38.7,0c-1.8,0.1-3.8,2-5.2,2.8c-3.7,2.4-5.2,3.3-4.7,6.2
		C23.2,6.7,15.6,4.4,9.2,5c-4,0.4-5.6,5.8-6.6,8.7C0.7,19.3-2.3,24.8,3,29.1c5,4.1,11.9,3.6,17.3,6.8c0,0,0.1,0,0.1,0
		c-0.3,1.2-0.7,2.4-1,3.2c-1.2,3.6-2.6,6.9-2.4,10.6c0.1,2.1,1,4.1,2.4,5.9c0.4,7.2,1.5,14.5,1.5,21.7c0,4.6-0.2,9-0.9,13.6
		c-0.6,3.5,0.8,4.7,2.8,7.8c0.9,1.4,7.4,1.8,8.9,2c5.4,0.8,10.9,1.1,16.4,1.1c0,0,0.1,0,0.1,0c2.1,0,4.2-0.1,6.3-0.2
		c6-0.3,10.9-1,16.8-2.1c0.6-0.1,3.8-0.3,4.2-0.9c4.1-6.3,1.8-12.7,1.8-19.6c0-7.3,0.9-14.7,1.6-22c0,0,0,0,0,0
		c1.3-1.3,2.4-2.8,3.2-4.5c1.5-3.4,0.5-7-0.6-10.3c-0.5-1.5-1.7-4.1-2.2-6.6c0,0,0,0,0,0c5.1-3,11.5-2.6,16.3-6.2
		c1.1-0.8,3.8-2.5,3.8-4.2c0-3.8-1-7.3-2.3-10.9C95.9,11.4,93.2,5,88.9,4.6z M28.2,100c-1.7-0.3-2.4-0.7-4-1.1
		c-2.3-0.5-3.6-3.5-4-5.4c-0.6-3,0.5-4.4,0.9-7.5c0.4-3.5,0.2-7,0.2-10.5c0-6.3-1-12.8-1.5-19.1c2.1,2.2,4.9,3.8,7.9,4.3
		c0.2,0,0.6-0.2,0.3-0.3c-4.6-0.6-8.1-3.9-9.9-7.8c-1.8-3.9-0.2-8.1,1.2-11.8c1-2.8,3.5-8.7-0.1-11c-0.1-0.1-0.6,0.1-0.4,0.2
		c1.9,1.2,2,3.5,1.5,5.6c-7.1-4-21.1-3.1-19.8-14c0.5-4.1,2.6-9.3,4.6-13C9,1.7,23.8,7.3,29,9.5c0.1,0.6,0.3,1.2,0.6,1.9
		c0.4,1.1,6.1,13.2,8.2,11.8c1.7-1.1,2.5-3.9,3.2-5.7c0.6-1.4,0.9-2.7,1.1-4.2c0-0.1,1.9-8.7,3.5-6.8c0.1,0.1,0.5-0.1,0.5-0.2
		c-1.7-2-3.3,2.3-3.6,3.1c-0.9,2.6-0.9,5.4-1.9,8c-0.3,0.7-0.6,1.5-0.9,2.2c-2.1,4.9-4.1,1.2-5.9-1.4C32,16,27.1,8.5,30.1,5.9
		c1.6-1.3,3.2-2.6,4.9-3.7c3-1.9,4.5-0.5,6.5,1.2c2,1.6,3.6,2,5.6,2.1c0,16.6,1.5,38.7,1.3,55.2c-0.1,8,0.7,15.9,0.6,23.8
		c0,4.3,0,6.5-0.8,10.7c-0.4,1.9-1.3,4.5-0.3,6.4C41.3,101.8,34.7,101.1,28.2,100z M96.8,28c-2.7,2.5-6.3,3.8-9.9,4.7
		c-2.8,0.7-5.4,1.2-7.9,2.7c-0.4-2.2-0.2-4.3,1.6-5.4c0.3-0.2-0.1-0.2-0.3-0.1c-2.6,1.6-1.9,5.5-1.2,7.9c1.2,4.1,3.1,7.7,2.9,12.1
		c-0.1,2.7-1.6,5.3-3.7,7.3c-0.1,0-0.1,0.1-0.1,0.1c0,0,0,0,0,0c-1.9,1.6-4.2,2.8-6.6,3.1c-0.2,0-0.4,0.3-0.1,0.3
		c2.6-0.4,4.8-1.5,6.6-3.1c-0.5,5.5-0.8,11.1-1.4,16.5c-0.8,6.8,0.8,11.3,1.1,18.1c0,1.1-1.6,6.2-3.3,6.6c-1.4,0.3-2.9,0.6-4.3,0.8
		c-6.8,1.2-12.7,1.8-19.6,2.1c-0.8,0-1.7,0.1-2.5,0.1c0,0,0,0,0,0c-1.2-2.2,0.2-5.7,0.6-8c0.6-3.2,0.4-4.4,0.5-7.6
		c0.2-8.5-0.6-17-0.5-25.5c0.2-16.7-1.2-38.3-1.3-55.1c1,0,2.2,0,3.5,0c3.6,0,5.5-0.2,8.2-3.1c1.6-1.7,2-2.3,4.3-0.8
		c1.6,1.1,3.2,2.2,4.7,3.4c4.8,3.8-0.5,11-3.1,14.9c-1.5,2.1-2.8,4.5-4.4,1c-0.4-0.8-0.8-1.6-1.2-2.4c-1.2-2.9-1.3-5.9-2.3-8.8
		c-0.4-1.2-1.9-5-3.6-3c-0.1,0.1,0.4,0.1,0.4,0c1.6-2,3.8,8.8,4,9.4c0.7,2.4,1.9,5,3.4,7.1c1.6,2.2,6.9-8.1,7.3-8.8
		c0.8-1.7,1.5-3.3,1.9-5.1c5.4-2.3,17-7.1,21.8-2.2c2.5,2.5,4.2,8.2,5.2,11.7C98.7,21.9,100.1,24.9,96.8,28z"/>
	<ellipse display="inline" fill="#603813" cx="49.9" cy="12.9" rx="1.5" ry="1.4"/>
	<ellipse display="inline" fill="#603813" cx="50" cy="27.2" rx="1" ry="1"/>
	<ellipse display="inline" fill="#603813" cx="50.7" cy="41.1" rx="1" ry="1"/>
	<ellipse display="inline" fill="#603813" cx="51.2" cy="58.2" rx="1" ry="1"/>
	<ellipse display="inline" fill="#603813" cx="51.2" cy="74.4" rx="1" ry="1"/>
	<ellipse display="inline" fill="#603813" cx="51.6" cy="90.1" rx="1" ry="1"/>
</g>
<g display="none">
	<path display="inline" fill="#FFFDF1" d="M91,26.9c-2.1,1.3-5.1,2.2-7.3,3.7c-1.5,1-2.7,2.3-3,4c0,0.1-0.1,0.3-0.1,0.4c0,0,0,0,0,0
		c0,0.6,0.1,1.2,0.2,1.8c0.4,2,1.4,3.8,2,5.7c0.1,0.3,0.2,0.7,0.3,1c0.1,0.5,0.2,1,0.3,1.5c0.5,3,0.3,6.4-1.2,9.1c0,0,0,0,0,0l0,0
		L82,54.6c-0.2,0.3-0.4,0.6-0.6,0.9c-0.7,0.8-1.5,1.7-2.3,2.5c0,0,0.1,0,0.1,0c0,0,0,0.1,0,0.1c0.1,2.7-0.6,5.4-1.1,8
		c-0.1,0.3-0.1,0.6-0.2,0.9c-0.2,1-0.4,1.9-0.5,2.9c-0.4,2.3-0.8,4.6-1.2,6.9c-0.1,0.7-0.3,1.3-0.4,2c-0.2,0.9-0.4,1.9-0.6,2.8
		c-0.6,2.9-1.2,5.8-1.5,8.8c-0.1,0.9-0.1,1.8-0.1,2.7c0,2.7,0.3,5.5,1.2,8.2c0.3,0.8,0.6,1.6,1,2.5c0.1,0.1,0.1,0.3,0.2,0.4
		c1.3,2.5,3.2,4.7,5,6.9c0.1,0.1,0.2,0.2,0.3,0.3c0.1,0,0.2,0,0.1,0.1c-2.1,1.7-5.1,3-8.1,3.9c-1.7,0.5-3.5,0.9-5,1.2
		c-6.4,1.2-13,2.4-19.6,2.5c-6.7,0.2-13.6-0.6-20.1-2.1c-1.9-0.4-4.1-1-6.2-1.9c-2.1-0.8-4-1.9-5.4-3.2c0,0,0,0,0-0.1l-0.1-0.1
		c0.2-0.2,0.4-0.4,0.6-0.7c1.7-2,3.4-4.7,4.3-7.2c0.2-0.5,0.3-1,0.4-1.4c0.1-0.4,0.2-0.9,0.3-1.4c0.5-2.6,0.8-5.3,1.1-7.9
		c0-0.4,0.1-0.9,0.1-1.3c0-0.5,0.1-1.1,0.1-1.6c0.1-2.8-0.4-5.6-1-8.4c-0.2-1.1-0.5-2.1-0.7-3.2c-0.1-0.3-0.1-0.6-0.2-0.9
		c-0.6-2.5-1-5.1-1.4-7.6c-0.1-1.1-0.3-2.1-0.4-3.2c-0.3-2.7-0.5-5.5-0.6-8.2c0-0.7-0.1-1.3-0.1-2c0,0,0-0.1,0.1-0.1
		c-0.5-0.5-0.9-1-1.2-1.5c-0.2-0.2-0.3-0.5-0.4-0.7c-0.1-0.1-0.1-0.3-0.2-0.4l-0.2-0.4c0,0,0,0,0,0c-1-2.2-1.5-4.7-1.4-7.2
		c0.1-1,0.2-2.1,0.6-3c0.1-0.4,0.2-0.7,0.4-1.1c0.9-2,1.6-4.1,1.9-6.3c0.1-0.4,0.1-0.8,0.2-1.1c0,0-0.1,0-0.1,0
		c-0.1-0.9-0.3-1.6-0.7-2.3c-1.7-2.8-6-3.7-8.8-5.4c-2.5-1.6-6.1-4.4-6.4-7.4c0-0.1,0.1-0.1,0.2-0.1c0.2-0.7,0.4-1.4,0.6-2
		c0.3-1,0.7-1.9,1.2-2.8c0.3-0.5,0.5-1,0.8-1.5C6.5,12,7.5,9.9,8.9,8.7c0.5-0.5,1.1-0.8,1.8-1c0.4-0.1,0.8-0.1,1.2-0.2
		c4.3-0.6,8.7,0.3,12.9,0.4c0,0,0.1,0,0.1,0L25.1,8c0-0.1,0.3-0.2,0.4,0c6.9,7,19.4,5.9,28.6,5.3c7-0.5,15.4-1.2,21.1-5.5
		c0,0,0,0,0,0c0,0,0-0.1,0-0.1c1,0,1.6-0.1,2.6-0.2c2.1-0.3,4-0.6,6-0.6c0.7,0,1.5,0,2.2,0.1C86.8,7,87.4,7.1,88,7.3
		c2.7,0.8,4.6,3,6,5.5c0.4,0.7,0.7,1.5,1,2.3c0.6,1.6,1,3.3,1.2,4.8c0.2-0.1,0.4-0.1,0.4,0.1C96.3,22.6,93.3,25.5,91,26.9z"/>
	<path display="inline" fill="#FFFDF1" d="M25,60.1c1.2,0.4,2.4,0.7,3.6,0.7C27.4,60.6,26.2,60.4,25,60.1z"/>
	<path display="inline" fill="#FFFDF1" d="M33.2,39.6c-4.7-0.8-9.5-2-14.1-3.4c-0.1,0.5-0.1,1-0.3,1.5c-0.1,0.3-0.1,0.5-0.2,0.8
		c-0.1,0.2-0.1,0.4-0.2,0.6c-0.2,0.5-0.4,1.1-0.6,1.6c0,0.1-0.1,0.2-0.1,0.2c-0.3,0.9-0.6,1.7-0.9,2.6c7.4,2.3,15,4.5,22.7,5.2
		c14.5,1.4,29.2-0.6,42.9-6c-0.1-0.3-0.3-0.7-0.4-1c-0.1-0.2-0.2-0.3-0.2-0.5c0-0.1-0.1-0.1-0.1-0.2c-0.2-0.5-0.4-1-0.6-1.5
		c-0.1-0.3-0.2-0.5-0.3-0.8c-0.2-0.6-0.3-1.2-0.4-1.8c-0.1-0.7-0.1-1.4-0.1-2.1C65.3,40.7,49,42.4,33.2,39.6z"/>
	<path display="inline" fill="#FFFDF1" d="M32.1,50.4c-5.4-0.9-10.7-2.2-16-3.9c-0.1,1-0.1,2.1,0.2,3.2c0.4,2,1.2,3.9,2.4,5.6
		c6.7,2,13.4,3.6,20.2,4.3c14.3,1.4,28.9-0.4,42.6-5.1c1-1.6,1.6-3.3,1.7-5.2c0.1-1.4,0.1-2.8-0.2-4.1
		C66.8,51.6,49.2,53.4,32.1,50.4z"/>
	<path display="inline" fill="#FFFDF1" d="M34.3,28.7c-8.7-1.5-17.3-4.1-25.5-8.1c-1.6-0.8-3.4-1.7-5-2.9c-0.2,0.5-0.3,1.1-0.5,1.6
		c0,0.1-0.1,0.3-0.1,0.4c0.3,1.8,2.3,4.4,3.8,5.5c1.8,1.3,3.6,2.4,5.6,3.4c2.4,1.1,4.9,2.1,5.9,4.2c0,0,0.1,0,0.1,0
		c-0.1-1.4-0.4-2.8-1-4.1c-0.1-0.1,0.3-0.2,0.3-0.1c0.5,1.2,0.9,2.8,1,4.3c6.9,2.1,13.9,4.2,21,4.9c13.6,1.4,27.5-0.6,40.4-5.8
		c0.1-1.1,0.4-2.1,0.8-3.1c0-0.1,0.4-0.1,0.3,0c-0.4,0.9-0.6,1.9-0.8,3c0.4-0.2,0.8-0.3,1.2-0.5c0.7-0.6,1.5-1.1,2.6-1.5
		c2.4-1.1,4.8-2.2,6.9-3.8c1.6-1.2,3.8-3.5,4.4-5.5c-0.1-0.8-0.1-1.2-0.4-2.2c-0.2-0.9-0.6-1.9-1-3C76.6,27.8,54.9,32.5,34.3,28.7z"
		/>
	<path display="inline" fill="#FFFDF1" d="M68.3,61.1c0.1,0,0.1,0,0.2,0c0.4,0,0.8,0.1,1.2,0.1c0.1,0,0.1,0,0.2,0c0.3,0,0.7,0,1,0
		c1.8,0,3.7-0.5,5.6-1.7c0.6-0.4,1.2-0.8,1.7-1.2c-3.5,1.1-7.1,2-10.8,2.6C67.7,61,68,61.1,68.3,61.1z"/>
	<path display="inline" fill="#FFFDF1" d="M17.9,21.2c7.4,2.3,15,4.9,22.8,5.7c18.3,1.9,37-2.8,52.8-13.7c-1.3-2.6-3.2-5-5.7-5.7
		C72,17.5,53.2,21.2,35.4,17.8c-8-1.4-16-3.9-23.5-7.6C11.1,9.9,10.3,9.5,9.5,9c-2,1.4-3.5,3.5-4.6,5.8
		C7.6,18.1,14.8,20.4,17.9,21.2z"/>
	<path display="inline" fill="#FFFDF1" d="M41.3,16c14.3,1.5,29-1.5,42-8.7c-2.1,0.1-4.2,0.4-6.5,0.6c-0.1,0-0.1,0-0.2,0
		c-0.1,0-0.1,0-0.2,0c-0.4,0-0.6,0.1-0.9,0.1c0,0,0,0-0.1,0.1c-6.7,5-16.7,5.3-24.9,5.8c-8.1,0.5-19.3,0.4-25.4-5.5
		c-0.1,0-0.1,0-0.2,0c-0.1,0-0.2,0-0.3,0c-0.7,0-1.3,0-2-0.1c-0.1,0-0.2,0-0.3,0c-2.8-0.3-5.6-0.8-8.5-0.6c-0.6,0-1.1,0.1-1.6,0.3
		c2.8,1.4,6.1,2.4,8,2.9C27.1,12.8,34.1,15.2,41.3,16z"/>
	<path display="inline" fill="#FFFDF1" d="M27.9,93.9c-1.4-0.2-2.8-0.5-4.2-0.8c-0.1,2.6-0.5,5.3-1,8c4.6,1,9.3,1.8,13.9,2.2
		c12.6,1.2,25.3,0.5,37.8-2c-0.9-2.8-1.2-5.5-1.2-8.2C58.2,96.1,42.9,96.4,27.9,93.9z"/>
	<path display="inline" fill="#FFFDF1" d="M25.7,115.6c-0.6-0.1-1.1-0.2-1.7-0.3c2.3,0.8,4.6,1.3,6.5,1.7c5.3,1,10.9,1.9,16.4,1.7
		c5.8-0.1,11.8-0.8,17.5-1.8c1.8-0.3,3.9-0.7,6-1.2C55.6,118.1,40.5,118.1,25.7,115.6z"/>
	<path display="inline" fill="#FFFDF1" d="M30,72.2c-3.1-0.5-6.2-1.2-9.3-1.9c0.4,2.8,0.9,5.6,1.6,8.5c5.1,1.3,10.3,2.2,15.5,2.7
		c12.5,1.2,25.2,0.3,37.5-2.7c0.6-2.9,1.1-5.9,1.6-8.9C61.6,74,45.6,74.8,30,72.2z"/>
	<path display="inline" fill="#FFFDF1" d="M70.8,61.4C70.8,61.4,70.8,61.4,70.8,61.4c-0.1,0-0.1,0-0.2,0c-0.4,0-0.7,0-1.1,0
		c0,0-0.1,0-0.1,0c-0.4,0-0.7,0-1.1-0.1c-0.1,0-0.1,0-0.2,0c-0.4,0-0.8-0.1-1.1-0.1c0,0-0.1,0-0.1,0c0,0-0.1,0-0.1,0
		c-11.8,2.2-23.9,2.3-35.8,0.2c-0.2,0-0.5-0.1-0.7-0.1c-1.8,0.1-3.7-0.1-5.7-0.8c-0.5-0.2-1-0.4-1.5-0.7c-1.2-0.3-2.4-0.6-3.6-0.9
		c0,0.5,0.1,1,0.1,1.5c0,0.1,0,0.2,0,0.4c0.1,2.1,0.3,4.2,0.6,6.3c6,1.6,12,2.9,18,3.5c13.1,1.3,26.3,0.1,39.1-3.5
		c0.5-2.4,1.2-5,1.3-7.5c0-0.3,0-0.6,0-0.9c0-0.2,0-0.4,0-0.5c0,0,0,0,0,0c-1.4,1.3-3.1,2.3-5,2.8C72.8,61.2,71.8,61.3,70.8,61.4z"
		/>
	<path display="inline" fill="#FFFDF1" d="M28.9,83c-2-0.3-4-0.7-6-1.2c0.5,2.8,0.8,5.6,0.8,8.3c4.5,1,8.9,1.8,13.4,2.2
		c12,1.1,24.2,0.5,36.1-2c0.2-2.9,0.8-5.8,1.4-8.7C59.7,85.1,44.1,85.6,28.9,83z"/>
	<path display="inline" fill="#FFFDF1" d="M26.8,104.8c-1.6-0.3-3.3-0.6-4.9-0.9c-1.2,3.4-3.3,6-4.3,7.2c6.1,1.5,12.3,2.6,18.4,3.1
		c14.8,1.4,29.8,0.3,44.4-3.1c-1.8-2.2-3.7-4.4-4.9-6.9c-0.1-0.1-0.1-0.3-0.2-0.4C59.3,107.1,42.9,107.4,26.8,104.8z"/>
	<path display="inline" fill="#FFE800" d="M35.4,17.8C53.2,21.2,72,17.5,87.8,7.4c-0.3-0.1-0.6-0.1-0.9-0.2c-1.3-0.1-2.4-0.1-3.6,0
		c-13,7.2-27.7,10.2-42,8.7c-7.1-0.7-14.1-3.1-21-5.3c-1.8-0.5-5.2-1.5-8-2.9c-1,0.3-2,0.7-2.8,1.3c0.8,0.5,1.6,0.9,2.4,1.2
		C19.4,14,27.4,16.4,35.4,17.8z"/>
	<path display="inline" fill="#FFE800" d="M40.7,26.9c-7.7-0.8-15.4-3.3-22.8-5.7c-3.1-0.8-10.3-3.1-13-6.3
		c-0.4,0.9-0.8,1.9-1.1,2.8c1.6,1.1,3.3,2.1,5,2.9c8.2,4,16.8,6.6,25.5,8.1c20.6,3.8,42.3-1,60.2-13.3c-0.3-0.7-0.6-1.5-1-2.3
		C77.7,24,59,28.7,40.7,26.9z"/>
	<path display="inline" fill="#FFE800" d="M18.8,33c0-0.1,0-0.1,0-0.2c0,0-0.1,0-0.1,0C18.7,32.9,18.8,32.9,18.8,33z"/>
	<path display="inline" fill="#FFE800" d="M40.1,37.8c-7.1-0.7-14.1-2.7-21-4.9c0,0.5,0.1,1.1,0.1,1.6c0,0.1,0,0.1,0,0.2
		c0,0,0,0,0,0c0,0.5,0,1-0.1,1.4c4.7,1.5,9.4,2.6,14.1,3.4c15.8,2.8,32.1,1.1,47.1-4.7c0-0.9,0-1.9,0.2-2.8
		C67.6,37.2,53.7,39.2,40.1,37.8z"/>
	<path display="inline" fill="#FFE800" d="M80.7,33.5c0.3-0.9,0.7-1.5,1.4-2.1c-0.4,0.2-0.8,0.3-1.2,0.5
		C80.8,32.4,80.7,32.9,80.7,33.5z"/>
	<path display="inline" fill="#FFE800" d="M39.5,48.7c-7.7-0.7-15.3-2.9-22.7-5.2c-0.3,1-0.5,2-0.7,3c5.3,1.7,10.6,3,16,3.9
		c17.1,3,34.7,1.2,51-5.2c-0.1-0.8-0.4-1.7-0.7-2.5C68.7,48.1,54,50.1,39.5,48.7z"/>
	<path display="inline" fill="#FFE800" d="M19.5,57c0,0.6,0.1,1.2,0.1,1.8c1.2,0.3,2.4,0.6,3.6,0.9C21.9,59,20.6,58.1,19.5,57z"/>
	<path display="inline" fill="#FFE800" d="M38.9,59.6c-6.8-0.6-13.6-2.3-20.2-4.3c1.1,1.6,2.6,2.9,4.4,3.9c0.6,0.3,1.3,0.6,1.9,0.9
		c1.2,0.3,2.4,0.5,3.6,0.7c2.7,0.2,5.4-0.4,8.4-0.8c0.2,0,0.2,0.2,0,0.2c-2.4,0.3-4.5,0.8-6.6,0.9c0.2,0,0.5,0.1,0.7,0.1
		c11.8,2.1,23.9,2,35.8-0.2C66.4,61,66,61,65.6,60.9c-0.3,0-0.6-0.1-0.9-0.1c-0.1,0-0.2,0-0.3,0c-0.3,0-0.6-0.1-0.9-0.1
		c-0.1,0-0.1,0-0.2,0c-0.4,0-0.7-0.1-1.1-0.1c-0.1,0-0.2,0-0.3,0c-0.4,0-0.8,0-1.2,0c-0.2,0,0-0.2,0.1-0.2c0.4,0,0.8,0,1.2,0
		c0.1,0,0.3,0,0.4,0c0.3,0,0.6,0,0.8,0.1c0.1,0,0.3,0,0.4,0c0.3,0,0.6,0.1,0.9,0.1c0.1,0,0.2,0,0.3,0c0.4,0.1,0.7,0.1,1.1,0.2
		c0.4,0.1,0.8,0.1,1.2,0.2c0.1,0,0.2,0,0.3,0c0,0,0,0,0.1,0c3.6-0.7,7.2-1.6,10.8-2.6c1.4-1.1,2.5-2.4,3.4-3.8
		C67.8,59.3,53.3,61,38.9,59.6z"/>
	<path display="inline" fill="#FFE800" d="M38.3,70.5c-6.1-0.6-12.1-1.9-18-3.5c0.1,1.1,0.2,2.1,0.4,3.2c3.1,0.7,6.2,1.4,9.3,1.9
		c15.6,2.7,31.6,1.9,46.9-2.2c0.1-0.8,0.3-1.5,0.4-2.3c0-0.2,0.1-0.4,0.1-0.6C64.7,70.6,51.4,71.8,38.3,70.5z"/>
	<path display="inline" fill="#FFE800" d="M37.8,81.5C32.6,81,27.4,80,22.3,78.7c0,0,0,0,0,0c0.3,1.1,0.5,2.1,0.7,3.1
		c2,0.4,4,0.8,6,1.2c15.2,2.6,30.7,2.1,45.7-1.4c0.2-0.8,0.3-1.6,0.5-2.4c0-0.1,0.1-0.3,0.1-0.4C63,81.7,50.3,82.6,37.8,81.5z"/>
	<path display="inline" fill="#FFE800" d="M37.2,92.4c-4.5-0.4-9-1.2-13.4-2.2c0,1,0,1.9-0.1,2.9c1.4,0.3,2.8,0.5,4.2,0.8
		c15,2.5,30.4,2.2,45.3-0.8c0-0.9,0-1.8,0.1-2.7C61.4,92.8,49.2,93.5,37.2,92.4z"/>
	<path display="inline" fill="#FFE800" d="M36.6,103.3c-4.7-0.4-9.3-1.2-13.9-2.2c0,0.2-0.1,0.4-0.1,0.6c-0.2,0.8-0.4,1.5-0.6,2.2
		c1.6,0.3,3.3,0.6,4.9,0.9c16.1,2.7,32.5,2.3,48.5-1c-0.4-0.8-0.7-1.7-1-2.5C61.9,103.8,49.2,104.5,36.6,103.3z"/>
	<path display="inline" fill="#FFE800" d="M36,114.2c-6.2-0.6-12.3-1.7-18.4-3.1c-0.2,0.2-0.3,0.4-0.4,0.5c0.1,0,0.2,0,0.2,0
		c1.6,1.6,4.1,2.8,6.7,3.7c0.6,0.1,1.1,0.2,1.7,0.3c14.8,2.5,29.9,2.5,44.6,0.1c3.8-0.9,7.7-2.2,10.3-4.3c-0.1-0.1-0.2-0.2-0.3-0.4
		C65.8,114.5,50.8,115.6,36,114.2z"/>
	<path display="inline" fill="#603813" d="M16.8,43.5c-0.2-0.1-0.3-0.1-0.5-0.2c-0.3,1-0.5,2-0.6,3c0.1,0,0.3,0.1,0.4,0.1
		C16.3,45.5,16.5,44.5,16.8,43.5z"/>
	<path display="inline" fill="#603813" d="M96.2,19.9c-0.2-1.5-0.6-3.2-1.2-4.8c-0.3-0.8-0.6-1.5-1-2.3c-1.4-2.5-3.3-4.6-6-5.5
		c-0.6-0.2-1.2-0.3-1.8-0.4c-0.8-0.1-1.5-0.1-2.2-0.1c-2,0-4,0.3-6,0.6c-1.1,0.2-1.6,0.3-2.6,0.2c0,0,0,0.1,0,0.1c0,0,0,0,0,0
		c-5.7,4.3-14.1,5-21.1,5.5c-9.1,0.6-21.6,1.7-28.6-5.3c-0.1-0.1-0.4-0.1-0.4,0l-0.2-0.1c0,0-0.1,0-0.1,0c-4.2,0-8.6-0.9-12.9-0.4
		c-0.4,0.1-0.8,0.1-1.2,0.2c-0.7,0.1-1.3,0.5-1.8,1C7.5,9.9,6.5,12,5.7,13.3c-0.3,0.5-0.6,1-0.8,1.5c-0.5,0.9-0.9,1.8-1.2,2.8
		c-0.2,0.7-0.5,1.3-0.6,2c-0.1,0-0.2,0.1-0.2,0.1c0.3,3,3.9,5.9,6.4,7.4c2.8,1.8,7.1,2.6,8.8,5.4c0.4,0.6,0.7,1.4,0.7,2.3
		c0,0,0,0,0.1,0c0,0.4-0.1,0.8-0.2,1.1c-0.3,2.2-1,4.3-1.9,6.3c-0.2,0.3-0.3,0.7-0.4,1.1c0.2,0.1,0.3,0.1,0.5,0.2
		c0.3-0.9,0.6-1.7,0.9-2.6c0-0.1,0.1-0.2,0.1-0.2c0.2-0.5,0.4-1.1,0.6-1.6c0.1-0.2,0.1-0.4,0.2-0.6c0.1-0.3,0.2-0.5,0.2-0.8
		c0.1-0.5,0.2-1,0.3-1.5c0.1-0.5,0.1-0.9,0.1-1.4c0,0,0,0,0,0c0-0.1,0-0.1,0-0.2c0-0.5,0-1.1-0.1-1.6c-0.1-1.5-0.5-3.1-1-4.3
		c-0.1-0.1-0.4-0.1-0.3,0.1c0.6,1.3,0.9,2.7,1,4.1c0,0.1,0,0.1,0,0.2c0-0.1-0.1-0.1-0.1-0.2c-1.1-2.1-3.5-3.1-5.9-4.2
		c-2-0.9-3.8-2-5.6-3.4c-1.5-1.1-3.5-3.7-3.8-5.5c0-0.1,0.1-0.3,0.1-0.4c0.1-0.5,0.3-1.1,0.5-1.6c0.3-0.9,0.7-1.9,1.1-2.8
		C6,12.6,7.5,10.4,9.5,9c0.8-0.6,1.8-1,2.8-1.3c0.5-0.1,1-0.2,1.6-0.3c2.9-0.1,5.7,0.4,8.5,0.6c0.1,0,0.2,0,0.3,0
		c0.7,0.1,1.3,0.1,2,0.1c0.1,0,0.2,0,0.3,0c0.1,0,0.1,0,0.2,0c6.1,5.9,17.3,6.1,25.4,5.5C58.8,13.3,68.8,13,75.5,8
		c0,0,0.1-0.1,0.1-0.1c0.3,0,0.5-0.1,0.9-0.1c0.1,0,0.1,0,0.2,0c0,0,0.1,0,0.2,0c2.2-0.2,4.3-0.5,6.5-0.6c1.2-0.1,2.4-0.1,3.6,0
		c0.3,0,0.6,0.1,0.9,0.2c2.4,0.7,4.3,3.1,5.7,5.7c0.4,0.8,0.7,1.5,1,2.3c0.5,1.1,0.8,2.2,1,3c0.3,1,0.3,1.4,0.4,2.2
		c-0.6,2-2.8,4.3-4.4,5.5c-2.1,1.6-4.5,2.6-6.9,3.8c-1,0.5-1.9,1-2.6,1.5c-0.6,0.6-1.1,1.2-1.4,2.1c0-0.5,0.1-1.1,0.2-1.6
		c0.2-1.1,0.4-2.1,0.8-3c0-0.1-0.3-0.1-0.3,0c-0.4,1-0.7,2-0.8,3.1c-0.1,0.9-0.2,1.9-0.2,2.8c0,0.7,0.1,1.4,0.1,2.1
		c0.1,0.6,0.2,1.2,0.4,1.8c0.1,0.3,0.2,0.5,0.3,0.8c0.2,0.5,0.4,1,0.6,1.5c0,0.1,0.1,0.1,0.1,0.2c0.1,0.2,0.1,0.3,0.2,0.5
		c0.2,0.3,0.3,0.7,0.4,1c0.3,0.8,0.5,1.7,0.7,2.5c0.2,1.3,0.3,2.6,0.2,4.1c-0.2,1.9-0.8,3.7-1.7,5.2c-0.9,1.4-2,2.7-3.4,3.8
		c-0.6,0.4-1.1,0.9-1.7,1.2c-2,1.2-3.8,1.6-5.6,1.7c-0.3,0-0.7,0-1,0c-0.1,0-0.1,0-0.2,0c-0.4,0-0.8,0-1.2-0.1c-0.1,0-0.1,0-0.2,0
		c-0.3,0-0.6-0.1-0.9-0.1c0,0,0,0-0.1,0c-0.1,0-0.2,0-0.3,0c-0.4-0.1-0.8-0.1-1.2-0.2c-0.4-0.1-0.7-0.1-1.1-0.2c-0.1,0-0.2,0-0.3,0
		c-0.3,0-0.6-0.1-0.9-0.1c-0.1,0-0.3,0-0.4,0c-0.3,0-0.6,0-0.8-0.1c-0.1,0-0.3,0-0.4,0c-0.4,0-0.8,0-1.2,0c-0.1,0-0.4,0.2-0.1,0.2
		c0.4,0,0.8,0,1.2,0c0.1,0,0.2,0,0.3,0c0.4,0,0.8,0,1.1,0.1c0.1,0,0.2,0,0.2,0c0.3,0,0.6,0.1,0.9,0.1c0.1,0,0.2,0,0.3,0
		c0.3,0,0.6,0.1,0.9,0.1c0.4,0.1,0.8,0.1,1.2,0.2c0,0,0.1,0,0.1,0c0,0,0.1,0,0.1,0c0.4,0.1,0.8,0.1,1.1,0.1c0.1,0,0.1,0,0.2,0
		c0.4,0,0.7,0.1,1.1,0.1c0,0,0.1,0,0.1,0c0.4,0,0.7,0,1.1,0c0,0,0.1,0,0.1,0c0,0,0,0,0,0c1,0,2-0.1,3-0.4c1.9-0.5,3.5-1.5,5-2.8
		c0,0,0,0,0,0c0,0.2,0,0.4,0,0.5c0,0.3,0,0.6,0,0.9c-0.1,2.5-0.8,5-1.3,7.5c0,0.2-0.1,0.4-0.1,0.6c-0.2,0.8-0.3,1.5-0.4,2.3
		c-0.5,3-1,5.9-1.6,8.9c0,0.1-0.1,0.3-0.1,0.4c-0.2,0.8-0.3,1.6-0.5,2.4c-0.6,3-1.2,5.9-1.4,8.7c-0.1,0.9-0.1,1.8-0.1,2.7
		c0,2.7,0.3,5.4,1.2,8.2c0.3,0.8,0.6,1.6,1,2.5c0.1,0.1,0.1,0.3,0.2,0.4c1.2,2.5,3,4.7,4.9,6.9c0.1,0.1,0.2,0.2,0.3,0.4
		c-2.6,2.1-6.5,3.4-10.3,4.3c0.9-0.1,1.8-0.3,2.7-0.5c3-0.9,6.1-2.2,8.1-3.9c0.1-0.1,0-0.1-0.1-0.1c-0.1-0.1-0.2-0.2-0.3-0.3
		c-1.8-2.2-3.7-4.4-5-6.9c-0.1-0.1-0.1-0.3-0.2-0.4c-0.4-0.8-0.7-1.6-1-2.5c-0.9-2.7-1.3-5.4-1.2-8.2c0-0.9,0.1-1.8,0.1-2.7
		c0.3-2.9,0.8-5.8,1.5-8.8c0.2-0.9,0.4-1.9,0.6-2.8c0.1-0.7,0.3-1.3,0.4-2c0.5-2.3,0.8-4.6,1.2-6.9c0.2-1,0.3-1.9,0.5-2.9
		c0.1-0.3,0.1-0.6,0.2-0.9c0.5-2.6,1.2-5.3,1.1-8c0,0,0-0.1,0-0.1c0,0,0,0-0.1,0c0.9-0.8,1.6-1.6,2.3-2.5c0.2-0.3,0.4-0.6,0.6-0.9
		l0.2-0.3l0,0c0,0,0,0,0,0c1.5-2.7,1.7-6.1,1.2-9.1c-0.1-0.5-0.2-1-0.3-1.5c-0.1-0.3-0.2-0.7-0.3-1c-0.7-1.9-1.7-3.7-2-5.7
		c-0.1-0.5-0.2-1.1-0.2-1.8c0,0,0,0,0,0c0-0.1,0-0.3,0.1-0.4c0.3-1.8,1.5-3,3-4c2.3-1.5,5.2-2.4,7.3-3.7c2.3-1.4,5.3-4.3,5.6-7
		C96.6,19.8,96.4,19.8,96.2,19.9z"/>
	<path display="inline" fill="#603813" d="M70.4,115.7c-2.1,0.5-4.2,0.9-6,1.2c-5.7,1.1-11.7,1.7-17.5,1.8c-5.5,0.1-11-0.7-16.4-1.7
		c-1.9-0.4-4.3-0.9-6.5-1.7c-2.6-0.9-5.1-2.1-6.7-3.7c0,0-0.1,0-0.2,0c0.1-0.1,0.3-0.3,0.4-0.5c1-1.2,3.1-3.8,4.3-7.2
		c0.3-0.7,0.5-1.4,0.6-2.2c0-0.2,0.1-0.4,0.1-0.6c0.6-2.7,0.9-5.3,1-8c0-1,0.1-1.9,0.1-2.9c0-2.8-0.3-5.5-0.8-8.3
		c-0.2-1-0.4-2.1-0.7-3.1c0,0,0,0,0,0c-0.7-2.8-1.2-5.7-1.6-8.5c-0.1-1.1-0.3-2.1-0.4-3.2c-0.2-2.1-0.4-4.2-0.6-6.3
		c0-0.1,0-0.2,0-0.4c0-0.5-0.1-1-0.1-1.5c0-0.6-0.1-1.2-0.1-1.8c1.1,1.1,2.4,2,3.7,2.7c0.5,0.3,1,0.5,1.5,0.7c2,0.7,3.8,0.9,5.7,0.8
		c2.1-0.1,4.2-0.6,6.6-0.9c0.2,0,0.3-0.3,0-0.2c-3,0.4-5.7,1-8.4,0.8c-1.2-0.1-2.3-0.3-3.6-0.7c-0.6-0.2-1.3-0.5-1.9-0.9
		c-1.9-1-3.3-2.3-4.4-3.9c-1.2-1.6-1.9-3.5-2.4-5.6c-0.2-1.1-0.3-2.2-0.2-3.2c-0.1,0-0.3-0.1-0.4-0.1c-0.1,2.5,0.4,5,1.4,7.2
		c0,0,0,0,0,0l0.2,0.4c0.1,0.1,0.1,0.3,0.2,0.4c0.1,0.2,0.3,0.5,0.4,0.7c0.3,0.5,0.8,1,1.2,1.5c0,0-0.1,0.1-0.1,0.1
		c0,0.7,0.1,1.3,0.1,2c0.2,2.8,0.3,5.5,0.6,8.2c0.1,1.1,0.2,2.1,0.4,3.2c0.3,2.5,0.8,5,1.4,7.6c0.1,0.3,0.1,0.6,0.2,0.9
		c0.3,1.1,0.5,2.1,0.7,3.2c0.6,2.8,1,5.5,1,8.4c0,0.5,0,1.1-0.1,1.6c0,0.4-0.1,0.9-0.1,1.3c-0.2,2.6-0.6,5.3-1.1,7.9
		c-0.1,0.5-0.2,0.9-0.3,1.4c-0.1,0.5-0.3,1-0.4,1.4c-0.9,2.5-2.6,5.2-4.3,7.2c-0.2,0.2-0.4,0.5-0.6,0.7l0.1,0.1c0,0,0,0,0,0.1
		c1.4,1.3,3.3,2.4,5.4,3.2c2.1,0.8,4.3,1.4,6.2,1.9c6.5,1.6,13.4,2.3,20.1,2.1c6.5-0.2,13.2-1.3,19.6-2.5c1.5-0.3,3.3-0.7,5-1.2
		C72.2,115.4,71.3,115.6,70.4,115.7z"/>
</g>
<g display="none">
	<path display="inline" fill="#FFFDF1" d="M91,26.9c-2.1,1.3-5.1,2.2-7.3,3.7c-1.5,1-2.7,2.3-3,4c0,0.1-0.1,0.3-0.1,0.4c0,0,0,0,0,0
		c0,0.6,0.1,1.2,0.2,1.8c0.4,2,1.4,3.8,2,5.7c0.1,0.3,0.2,0.7,0.3,1c0.1,0.5,0.2,1,0.3,1.5c0.5,3,0.3,6.4-1.2,9.1c0,0,0,0,0,0l0,0
		L82,54.6c-0.2,0.3-0.4,0.6-0.6,0.9c-0.7,0.8-1.5,1.7-2.3,2.5c0,0,0.1,0,0.1,0c0,0,0,0.1,0,0.1c0.1,2.7-0.6,5.4-1.1,8
		c-0.1,0.3-0.1,0.6-0.2,0.9c-0.2,1-0.4,1.9-0.5,2.9c-0.4,2.3-0.8,4.6-1.2,6.9c-0.1,0.7-0.3,1.3-0.4,2c-0.2,0.9-0.4,1.9-0.6,2.8
		c-0.6,2.9-1.2,5.8-1.5,8.8c-0.1,0.9-0.1,1.8-0.1,2.7c0,2.7,0.3,5.5,1.2,8.2c0.3,0.8,0.6,1.6,1,2.5c0.1,0.1,0.1,0.3,0.2,0.4
		c1.3,2.5,3.2,4.7,5,6.9c0.1,0.1,0.2,0.2,0.3,0.3c0.1,0,0.2,0,0.1,0.1c-2.1,1.7-5.1,3-8.1,3.9c-1.7,0.5-3.5,0.9-5,1.2
		c-6.4,1.2-13,2.4-19.6,2.5c-6.7,0.2-13.6-0.6-20.1-2.1c-1.9-0.4-4.1-1-6.2-1.9c-2.1-0.8-4-1.9-5.4-3.2c0,0,0,0,0-0.1l-0.1-0.1
		c0.2-0.2,0.4-0.4,0.6-0.7c1.7-2,3.4-4.7,4.3-7.2c0.2-0.5,0.3-1,0.4-1.4c0.1-0.4,0.2-0.9,0.3-1.4c0.5-2.6,0.8-5.3,1.1-7.9
		c0-0.4,0.1-0.9,0.1-1.3c0-0.5,0.1-1.1,0.1-1.6c0.1-2.8-0.4-5.6-1-8.4c-0.2-1.1-0.5-2.1-0.7-3.2c-0.1-0.3-0.1-0.6-0.2-0.9
		c-0.6-2.5-1-5.1-1.4-7.6c-0.1-1.1-0.3-2.1-0.4-3.2c-0.3-2.7-0.5-5.5-0.6-8.2c0-0.7-0.1-1.3-0.1-2c0,0,0-0.1,0.1-0.1
		c-0.5-0.5-0.9-1-1.2-1.5c-0.2-0.2-0.3-0.5-0.4-0.7c-0.1-0.1-0.1-0.3-0.2-0.4l-0.2-0.4c0,0,0,0,0,0c-1-2.2-1.5-4.7-1.4-7.2
		c0.1-1,0.2-2.1,0.6-3c0.1-0.4,0.2-0.7,0.4-1.1c0.9-2,1.6-4.1,1.9-6.3c0.1-0.4,0.1-0.8,0.2-1.1c0,0-0.1,0-0.1,0
		c-0.1-0.9-0.3-1.6-0.7-2.3c-1.7-2.8-6-3.7-8.8-5.4c-2.5-1.6-6.1-4.4-6.4-7.4c0-0.1,0.1-0.1,0.2-0.1c0.2-0.7,0.4-1.4,0.6-2
		c0.3-1,0.7-1.9,1.2-2.8c0.3-0.5,0.5-1,0.8-1.5C6.5,12,7.5,9.9,8.9,8.7c0.5-0.5,1.1-0.8,1.8-1c0.4-0.1,0.8-0.1,1.2-0.2
		c4.3-0.6,8.7,0.3,12.9,0.4c0,0,0.1,0,0.1,0L25.1,8c0-0.1,0.3-0.2,0.4,0c6.9,7,19.4,5.9,28.6,5.3c7-0.5,15.4-1.2,21.1-5.5
		c0,0,0,0,0,0c0,0,0-0.1,0-0.1c1,0,1.6-0.1,2.6-0.2c2.1-0.3,4-0.6,6-0.6c0.7,0,1.5,0,2.2,0.1C86.8,7,87.4,7.1,88,7.3
		c2.7,0.8,4.6,3,6,5.5c0.4,0.7,0.7,1.5,1,2.3c0.6,1.6,1,3.3,1.2,4.8c0.2-0.1,0.4-0.1,0.4,0.1C96.3,22.6,93.3,25.5,91,26.9z"/>
	<path display="inline" fill="#38586D" d="M25,60.1c1.2,0.4,2.4,0.7,3.6,0.7C27.4,60.6,26.2,60.4,25,60.1z"/>
	<path display="inline" fill="#38586D" d="M33.2,39.6c-4.7-0.8-9.5-2-14.1-3.4c-0.1,0.5-0.1,1-0.3,1.5c-0.1,0.3-0.1,0.5-0.2,0.8
		c-0.1,0.2-0.1,0.4-0.2,0.6c-0.2,0.5-0.4,1.1-0.6,1.6c0,0.1-0.1,0.2-0.1,0.2c-0.3,0.9-0.6,1.7-0.9,2.6c7.4,2.3,15,4.5,22.7,5.2
		c14.5,1.4,29.2-0.6,42.9-6c-0.1-0.3-0.3-0.7-0.4-1c-0.1-0.2-0.2-0.3-0.2-0.5c0-0.1-0.1-0.1-0.1-0.2c-0.2-0.5-0.4-1-0.6-1.5
		c-0.1-0.3-0.2-0.5-0.3-0.8c-0.2-0.6-0.3-1.2-0.4-1.8c-0.1-0.7-0.1-1.4-0.1-2.1C65.3,40.7,49,42.4,33.2,39.6z"/>
	<path display="inline" fill="#38586D" d="M32.1,50.4c-5.4-0.9-10.7-2.2-16-3.9c-0.1,1-0.1,2.1,0.2,3.2c0.4,2,1.2,3.9,2.4,5.6
		c6.7,2,13.4,3.6,20.2,4.3c14.3,1.4,28.9-0.4,42.6-5.1c1-1.6,1.6-3.3,1.7-5.2c0.1-1.4,0.1-2.8-0.2-4.1
		C66.8,51.6,49.2,53.4,32.1,50.4z"/>
	<path display="inline" fill="#38586D" d="M34.3,28.7c-8.7-1.5-17.3-4.1-25.5-8.1c-1.6-0.8-3.4-1.7-5-2.9c-0.2,0.5-0.3,1.1-0.5,1.6
		c0,0.1-0.1,0.3-0.1,0.4c0.3,1.8,2.3,4.4,3.8,5.5c1.8,1.3,3.6,2.4,5.6,3.4c2.4,1.1,4.9,2.1,5.9,4.2c0,0,0.1,0,0.1,0
		c-0.1-1.4-0.4-2.8-1-4.1c-0.1-0.1,0.3-0.2,0.3-0.1c0.5,1.2,0.9,2.8,1,4.3c6.9,2.1,13.9,4.2,21,4.9c13.6,1.4,27.5-0.6,40.4-5.8
		c0.1-1.1,0.4-2.1,0.8-3.1c0-0.1,0.4-0.1,0.3,0c-0.4,0.9-0.6,1.9-0.8,3c0.4-0.2,0.8-0.3,1.2-0.5c0.7-0.6,1.5-1.1,2.6-1.5
		c2.4-1.1,4.8-2.2,6.9-3.8c1.6-1.2,3.8-3.5,4.4-5.5c-0.1-0.8-0.1-1.2-0.4-2.2c-0.2-0.9-0.6-1.9-1-3C76.6,27.8,54.9,32.5,34.3,28.7z"
		/>
	<path display="inline" fill="#38586D" d="M68.3,61.1c0.1,0,0.1,0,0.2,0c0.4,0,0.8,0.1,1.2,0.1c0.1,0,0.1,0,0.2,0c0.3,0,0.7,0,1,0
		c1.8,0,3.7-0.5,5.6-1.7c0.6-0.4,1.2-0.8,1.7-1.2c-3.5,1.1-7.1,2-10.8,2.6C67.7,61,68,61.1,68.3,61.1z"/>
	<path display="inline" fill="#38586D" d="M17.9,21.2c7.4,2.3,15,4.9,22.8,5.7c18.3,1.9,37-2.8,52.8-13.7c-1.3-2.6-3.2-5-5.7-5.7
		C72,17.5,53.2,21.2,35.4,17.8c-8-1.4-16-3.9-23.5-7.6C11.1,9.9,10.3,9.5,9.5,9c-2,1.4-3.5,3.5-4.6,5.8
		C7.6,18.1,14.8,20.4,17.9,21.2z"/>
	<path display="inline" fill="#38586D" d="M41.3,16c14.3,1.5,29-1.5,42-8.7c-2.1,0.1-4.2,0.4-6.5,0.6c-0.1,0-0.1,0-0.2,0
		c-0.1,0-0.1,0-0.2,0c-0.4,0-0.6,0.1-0.9,0.1c0,0,0,0-0.1,0.1c-6.7,5-16.7,5.3-24.9,5.8c-8.1,0.5-19.3,0.4-25.4-5.5
		c-0.1,0-0.1,0-0.2,0c-0.1,0-0.2,0-0.3,0c-0.7,0-1.3,0-2-0.1c-0.1,0-0.2,0-0.3,0c-2.8-0.3-5.6-0.8-8.5-0.6c-0.6,0-1.1,0.1-1.6,0.3
		c2.8,1.4,6.1,2.4,8,2.9C27.1,12.8,34.1,15.2,41.3,16z"/>
	<path display="inline" fill="#38586D" d="M27.9,93.9c-1.4-0.2-2.8-0.5-4.2-0.8c-0.1,2.6-0.5,5.3-1,8c4.6,1,9.3,1.8,13.9,2.2
		c12.6,1.2,25.3,0.5,37.8-2c-0.9-2.8-1.2-5.5-1.2-8.2C58.2,96.1,42.9,96.4,27.9,93.9z"/>
	<path display="inline" fill="#38586D" d="M25.7,115.6c-0.6-0.1-1.1-0.2-1.7-0.3c2.3,0.8,4.6,1.3,6.5,1.7c5.3,1,10.9,1.9,16.4,1.7
		c5.8-0.1,11.8-0.8,17.5-1.8c1.8-0.3,3.9-0.7,6-1.2C55.6,118.1,40.5,118.1,25.7,115.6z"/>
	<path display="inline" fill="#38586D" d="M30,72.2c-3.1-0.5-6.2-1.2-9.3-1.9c0.4,2.8,0.9,5.6,1.6,8.5c5.1,1.3,10.3,2.2,15.5,2.7
		c12.5,1.2,25.2,0.3,37.5-2.7c0.6-2.9,1.1-5.9,1.6-8.9C61.6,74,45.6,74.8,30,72.2z"/>
	<path display="inline" fill="#38586D" d="M70.8,61.4C70.8,61.4,70.8,61.4,70.8,61.4c-0.1,0-0.1,0-0.2,0c-0.4,0-0.7,0-1.1,0
		c0,0-0.1,0-0.1,0c-0.4,0-0.7,0-1.1-0.1c-0.1,0-0.1,0-0.2,0c-0.4,0-0.8-0.1-1.1-0.1c0,0-0.1,0-0.1,0c0,0-0.1,0-0.1,0
		c-11.8,2.2-23.9,2.3-35.8,0.2c-0.2,0-0.5-0.1-0.7-0.1c-1.8,0.1-3.7-0.1-5.7-0.8c-0.5-0.2-1-0.4-1.5-0.7c-1.2-0.3-2.4-0.6-3.6-0.9
		c0,0.5,0.1,1,0.1,1.5c0,0.1,0,0.2,0,0.4c0.1,2.1,0.3,4.2,0.6,6.3c6,1.6,12,2.9,18,3.5c13.1,1.3,26.3,0.1,39.1-3.5
		c0.5-2.4,1.2-5,1.3-7.5c0-0.3,0-0.6,0-0.9c0-0.2,0-0.4,0-0.5c0,0,0,0,0,0c-1.4,1.3-3.1,2.3-5,2.8C72.8,61.2,71.8,61.3,70.8,61.4z"
		/>
	<path display="inline" fill="#38586D" d="M28.9,83c-2-0.3-4-0.7-6-1.2c0.5,2.8,0.8,5.6,0.8,8.3c4.5,1,8.9,1.8,13.4,2.2
		c12,1.1,24.2,0.5,36.1-2c0.2-2.9,0.8-5.8,1.4-8.7C59.7,85.1,44.1,85.6,28.9,83z"/>
	<path display="inline" fill="#38586D" d="M26.8,104.8c-1.6-0.3-3.3-0.6-4.9-0.9c-1.2,3.4-3.3,6-4.3,7.2c6.1,1.5,12.3,2.6,18.4,3.1
		c14.8,1.4,29.8,0.3,44.4-3.1c-1.8-2.2-3.7-4.4-4.9-6.9c-0.1-0.1-0.1-0.3-0.2-0.4C59.3,107.1,42.9,107.4,26.8,104.8z"/>
	<path display="inline" fill="#FFF8DD" d="M35.4,17.8C53.2,21.2,72,17.5,87.8,7.4c-0.3-0.1-0.6-0.1-0.9-0.2c-1.3-0.1-2.4-0.1-3.6,0
		c-13,7.2-27.7,10.2-42,8.7c-7.1-0.7-14.1-3.1-21-5.3c-1.8-0.5-5.2-1.5-8-2.9c-1,0.3-2,0.7-2.8,1.3c0.8,0.5,1.6,0.9,2.4,1.2
		C19.4,14,27.4,16.4,35.4,17.8z"/>
	<path display="inline" fill="#FFF8DD" d="M40.7,26.9c-7.7-0.8-15.4-3.3-22.8-5.7c-3.1-0.8-10.3-3.1-13-6.3
		c-0.4,0.9-0.8,1.9-1.1,2.8c1.6,1.1,3.3,2.1,5,2.9c8.2,4,16.8,6.6,25.5,8.1c20.6,3.8,42.3-1,60.2-13.3c-0.3-0.7-0.6-1.5-1-2.3
		C77.7,24,59,28.7,40.7,26.9z"/>
	<path display="inline" fill="#FFF8DD" d="M18.8,33c0-0.1,0-0.1,0-0.2c0,0-0.1,0-0.1,0C18.7,32.9,18.8,32.9,18.8,33z"/>
	<path display="inline" fill="#FFF8DD" d="M40.1,37.8c-7.1-0.7-14.1-2.7-21-4.9c0,0.5,0.1,1.1,0.1,1.6c0,0.1,0,0.1,0,0.2
		c0,0,0,0,0,0c0,0.5,0,1-0.1,1.4c4.7,1.5,9.4,2.6,14.1,3.4c15.8,2.8,32.1,1.1,47.1-4.7c0-0.9,0-1.9,0.2-2.8
		C67.6,37.2,53.7,39.2,40.1,37.8z"/>
	<path display="inline" fill="#FFF8DD" d="M80.7,33.5c0.3-0.9,0.7-1.5,1.4-2.1c-0.4,0.2-0.8,0.3-1.2,0.5
		C80.8,32.4,80.7,32.9,80.7,33.5z"/>
	<path display="inline" fill="#FFF8DD" d="M39.5,48.7c-7.7-0.7-15.3-2.9-22.7-5.2c-0.3,1-0.5,2-0.7,3c5.3,1.7,10.6,3,16,3.9
		c17.1,3,34.7,1.2,51-5.2c-0.1-0.8-0.4-1.7-0.7-2.5C68.7,48.1,54,50.1,39.5,48.7z"/>
	<path display="inline" fill="#FFF8DD" d="M19.5,57c0,0.6,0.1,1.2,0.1,1.8c1.2,0.3,2.4,0.6,3.6,0.9C21.9,59,20.6,58.1,19.5,57z"/>
	<path display="inline" fill="#FFF8DD" d="M38.9,59.6c-6.8-0.6-13.6-2.3-20.2-4.3c1.1,1.6,2.6,2.9,4.4,3.9c0.6,0.3,1.3,0.6,1.9,0.9
		c1.2,0.3,2.4,0.5,3.6,0.7c2.7,0.2,5.4-0.4,8.4-0.8c0.2,0,0.2,0.2,0,0.2c-2.4,0.3-4.5,0.8-6.6,0.9c0.2,0,0.5,0.1,0.7,0.1
		c11.8,2.1,23.9,2,35.8-0.2C66.4,61,66,61,65.6,60.9c-0.3,0-0.6-0.1-0.9-0.1c-0.1,0-0.2,0-0.3,0c-0.3,0-0.6-0.1-0.9-0.1
		c-0.1,0-0.1,0-0.2,0c-0.4,0-0.7-0.1-1.1-0.1c-0.1,0-0.2,0-0.3,0c-0.4,0-0.8,0-1.2,0c-0.2,0,0-0.2,0.1-0.2c0.4,0,0.8,0,1.2,0
		c0.1,0,0.3,0,0.4,0c0.3,0,0.6,0,0.8,0.1c0.1,0,0.3,0,0.4,0c0.3,0,0.6,0.1,0.9,0.1c0.1,0,0.2,0,0.3,0c0.4,0.1,0.7,0.1,1.1,0.2
		c0.4,0.1,0.8,0.1,1.2,0.2c0.1,0,0.2,0,0.3,0c0,0,0,0,0.1,0c3.6-0.7,7.2-1.6,10.8-2.6c1.4-1.1,2.5-2.4,3.4-3.8
		C67.8,59.3,53.3,61,38.9,59.6z"/>
	<path display="inline" fill="#FFF8DD" d="M38.3,70.5c-6.1-0.6-12.1-1.9-18-3.5c0.1,1.1,0.2,2.1,0.4,3.2c3.1,0.7,6.2,1.4,9.3,1.9
		c15.6,2.7,31.6,1.9,46.9-2.2c0.1-0.8,0.3-1.5,0.4-2.3c0-0.2,0.1-0.4,0.1-0.6C64.7,70.6,51.4,71.8,38.3,70.5z"/>
	<path display="inline" fill="#FFF8DD" d="M37.8,81.5C32.6,81,27.4,80,22.3,78.7c0,0,0,0,0,0c0.3,1.1,0.5,2.1,0.7,3.1
		c2,0.4,4,0.8,6,1.2c15.2,2.6,30.7,2.1,45.7-1.4c0.2-0.8,0.3-1.6,0.5-2.4c0-0.1,0.1-0.3,0.1-0.4C63,81.7,50.3,82.6,37.8,81.5z"/>
	<path display="inline" fill="#FFF8DD" d="M37.2,92.4c-4.5-0.4-9-1.2-13.4-2.2c0,1,0,1.9-0.1,2.9c1.4,0.3,2.8,0.5,4.2,0.8
		c15,2.5,30.4,2.2,45.3-0.8c0-0.9,0-1.8,0.1-2.7C61.4,92.8,49.2,93.5,37.2,92.4z"/>
	<path display="inline" fill="#FFF8DD" d="M36.6,103.3c-4.7-0.4-9.3-1.2-13.9-2.2c0,0.2-0.1,0.4-0.1,0.6c-0.2,0.8-0.4,1.5-0.6,2.2
		c1.6,0.3,3.3,0.6,4.9,0.9c16.1,2.7,32.5,2.3,48.5-1c-0.4-0.8-0.7-1.7-1-2.5C61.9,103.8,49.2,104.5,36.6,103.3z"/>
	<path display="inline" fill="#FFF8DD" d="M36,114.2c-6.2-0.6-12.3-1.7-18.4-3.1c-0.2,0.2-0.3,0.4-0.4,0.5c0.1,0,0.2,0,0.2,0
		c1.6,1.6,4.1,2.8,6.7,3.7c0.6,0.1,1.1,0.2,1.7,0.3c14.8,2.5,29.9,2.5,44.6,0.1c3.8-0.9,7.7-2.2,10.3-4.3c-0.1-0.1-0.2-0.2-0.3-0.4
		C65.8,114.5,50.8,115.6,36,114.2z"/>
	<path display="inline" fill="#603813" d="M16.3,49.8c-0.2-1.1-0.3-2.2-0.2-3.2c-0.1,0-0.3-0.1-0.4-0.1c-0.1,2.5,0.4,5,1.4,7.2
		c0,0,0,0,0,0l0.2,0.4c0.1,0.1,0.1,0.3,0.2,0.4c0.1,0.2,0.3,0.5,0.4,0.7c0.2,0.1,0.5,0.1,0.7,0.2C17.5,53.7,16.8,51.8,16.3,49.8z"/>
	<path display="inline" fill="#603813" d="M23.7,93.1c-0.1,0-0.2,0-0.3-0.1c-0.2,2.6-0.6,5.3-1.1,7.9c0.1,0,0.2,0.1,0.3,0.1
		C23.2,98.4,23.6,95.8,23.7,93.1z"/>
	<path display="inline" fill="#603813" d="M30.4,61.2c-0.6-0.1-1.2-0.2-1.8-0.3c-1.2-0.1-2.3-0.3-3.6-0.7c-0.6-0.1-1.2-0.3-1.8-0.4
		c0.5,0.3,1,0.5,1.5,0.7C26.7,61.1,28.5,61.3,30.4,61.2z"/>
	<path display="inline" fill="#603813" d="M19.7,60.7c0-0.1,0-0.2,0-0.4c0-0.5-0.1-1-0.1-1.5c-0.1,0-0.2-0.1-0.4-0.1
		c0.2,2.8,0.3,5.5,0.6,8.2c0.1,0,0.3,0.1,0.4,0.1C20.1,64.9,19.9,62.8,19.7,60.7z"/>
	<path display="inline" fill="#603813" d="M70.8,61.2c-0.3,0-0.7,0-1,0c-0.1,0-0.1,0-0.2,0c-0.4,0-0.8,0-1.2-0.1c-0.1,0-0.1,0-0.2,0
		c-0.3,0-0.6-0.1-0.9-0.1c-0.2,0-0.4,0.1-0.5,0.1c0,0,0.1,0,0.1,0c0,0,0.1,0,0.1,0c0.4,0.1,0.8,0.1,1.1,0.1c0.1,0,0.1,0,0.2,0
		c0.4,0,0.7,0.1,1.1,0.1c0,0,0.1,0,0.1,0c0.4,0,0.7,0,1.1,0c0,0,0.1,0,0.1,0c0,0,0,0,0,0c1,0,2-0.1,3-0.4c1.9-0.5,3.5-1.5,5-2.8
		c-0.2,0.1-0.4,0.1-0.6,0.2c-0.6,0.4-1.1,0.9-1.7,1.2C74.4,60.8,72.6,61.2,70.8,61.2z"/>
	<path display="inline" fill="#603813" d="M21.9,103.9c-0.1,0-0.2,0-0.3-0.1c-0.9,2.5-2.6,5.2-4.3,7.2c0.1,0,0.1,0,0.2,0.1
		C18.6,109.9,20.7,107.3,21.9,103.9z"/>
	<path display="inline" fill="#603813" d="M17.8,28.7c0.6,1.3,0.9,2.7,1,4.1c0.1,0,0.2,0.1,0.4,0.1c-0.1-1.5-0.5-3.1-1-4.3
		C18.1,28.5,17.8,28.6,17.8,28.7z"/>
	<path display="inline" fill="#603813" d="M20.7,70.3c-0.1,0-0.3-0.1-0.4-0.1c0.3,2.5,0.8,5,1.4,7.6c0.1,0.3,0.1,0.6,0.2,0.9
		c0.1,0,0.3,0.1,0.4,0.1C21.6,75.9,21.1,73.1,20.7,70.3z"/>
	<path display="inline" fill="#603813" d="M81.3,28.9c-0.4,1-0.7,2-0.8,3.1c0.1,0,0.2-0.1,0.3-0.1c0.2-1.1,0.4-2.1,0.8-3
		C81.7,28.8,81.4,28.8,81.3,28.9z"/>
	<path display="inline" fill="#603813" d="M22.9,81.9c-0.1,0-0.2,0-0.3-0.1c0.6,2.8,1,5.5,1,8.4c0,0,0.1,0,0.1,0
		C23.7,87.4,23.4,84.7,22.9,81.9z"/>
	<path display="inline" fill="#603813" d="M75.5,104.2c1.2,2.5,3,4.7,4.9,6.9c0.1,0,0.3-0.1,0.4-0.1c-1.8-2.2-3.7-4.4-5-6.9
		c-0.1-0.1-0.1-0.3-0.2-0.4c-0.1,0-0.2,0-0.3,0.1C75.4,103.9,75.4,104,75.5,104.2z"/>
	<path display="inline" fill="#603813" d="M73.3,90.4c0.1,0,0.2,0,0.2-0.1c0.3-2.9,0.8-5.8,1.5-8.8c-0.1,0-0.2,0-0.3,0.1
		C74.1,84.6,73.5,87.5,73.3,90.4z"/>
	<path display="inline" fill="#603813" d="M80.5,36.9c0.1,0.6,0.2,1.2,0.4,1.8c0.1,0.3,0.2,0.5,0.3,0.8c0.2,0.5,0.4,1,0.6,1.5
		c0,0.1,0.1,0.1,0.1,0.2c0.1,0.2,0.1,0.3,0.2,0.5c0.2,0.3,0.3,0.7,0.4,1c0.1-0.1,0.3-0.1,0.4-0.2c-0.7-1.9-1.7-3.7-2-5.7
		c-0.1-0.5-0.2-1.1-0.2-1.8c0,0,0,0,0,0c0-0.1,0-0.3,0.1-0.4c-0.1,0-0.2,0.1-0.4,0.1C80.4,35.5,80.4,36.3,80.5,36.9z"/>
	<path display="inline" fill="#603813" d="M93.5,13.1c0.2-0.1,0.3-0.2,0.5-0.3c-1.4-2.5-3.3-4.6-6-5.5c-0.1,0-0.1,0.1-0.2,0.1
		C90.3,8.1,92.2,10.5,93.5,13.1z"/>
	<path display="inline" fill="#603813" d="M96.2,19.9c-0.2-1.5-0.6-3.2-1.2-4.8c-0.2,0.1-0.3,0.2-0.5,0.3c0.5,1.1,0.8,2.2,1,3
		c0.3,1,0.3,1.4,0.4,2.2c-0.6,2-2.8,4.3-4.4,5.5c-2.1,1.6-4.5,2.6-6.9,3.8c-1,0.5-1.9,1-2.6,1.5c0.6-0.2,1.1-0.5,1.7-0.7
		c2.3-1.5,5.2-2.4,7.3-3.7c2.3-1.4,5.3-4.3,5.6-7C96.6,19.8,96.4,19.8,96.2,19.9z"/>
	<path display="inline" fill="#603813" d="M75.3,78.8c0.1,0,0.2,0,0.3-0.1c0.1-0.7,0.3-1.3,0.4-2c0.5-2.3,0.8-4.6,1.2-6.9
		c-0.1,0-0.3,0.1-0.4,0.1C76.3,72.9,75.9,75.9,75.3,78.8z"/>
	<path display="inline" fill="#603813" d="M83.3,49.3c-0.2,1.9-0.8,3.7-1.7,5.2c0.2-0.1,0.5-0.2,0.7-0.2l0,0c0,0,0,0,0,0
		c1.5-2.7,1.7-6.1,1.2-9.1c-0.1,0-0.2,0.1-0.3,0.1C83.4,46.5,83.4,47.8,83.3,49.3z"/>
	<path display="inline" fill="#603813" d="M13.9,7.5c2.9-0.1,5.7,0.4,8.5,0.6c0.1,0,0.2,0,0.3,0c0.7,0.1,1.3,0.1,2,0.1
		c0.1,0,0.2,0,0.3,0c0.1,0,0.1,0,0.2,0c6.1,5.9,17.3,6.1,25.4,5.5C58.8,13.3,68.8,13,75.5,8c0,0,0.1-0.1,0.1-0.1
		c0.3,0,0.5-0.1,0.9-0.1c0.1,0,0.1,0,0.2,0c0,0,0.1,0,0.2,0c2.2-0.2,4.3-0.5,6.5-0.6c0.2-0.1,0.4-0.2,0.6-0.4c-2,0-4,0.3-6,0.6
		c-1.1,0.2-1.6,0.3-2.6,0.2c0,0,0,0.1,0,0.1c0,0,0,0,0,0c-5.7,4.3-14.1,5-21.1,5.5c-9.1,0.6-21.6,1.7-28.6-5.3
		c-0.1-0.1-0.4-0.1-0.4,0l-0.2-0.1c0,0-0.1,0-0.1,0c-4.2,0-8.6-0.9-12.9-0.4c0.1,0.1,0.3,0.2,0.5,0.2C12.8,7.6,13.4,7.5,13.9,7.5z"
		/>
	<path display="inline" fill="#603813" d="M78.8,58.7c0,0.3,0,0.6,0,0.9c-0.1,2.5-0.8,5-1.3,7.5c0.1,0,0.2-0.1,0.3-0.1
		c0.1-0.3,0.1-0.6,0.2-0.9c0.5-2.6,1.2-5.3,1.1-8c-0.1,0-0.2,0.1-0.3,0.1C78.8,58.3,78.8,58.5,78.8,58.7z"/>
	<path display="inline" fill="#603813" d="M74.4,101.3c0.1,0,0.2,0,0.3-0.1c-0.9-2.7-1.3-5.4-1.2-8.2c-0.1,0-0.2,0-0.2,0
		C73.1,95.8,73.5,98.5,74.4,101.3z"/>
	<path display="inline" fill="#603813" d="M9.5,9C9.3,8.9,9.1,8.8,8.9,8.7C7.5,9.9,6.5,12,5.7,13.3c-0.3,0.5-0.6,1-0.8,1.5
		c0,0,0.1,0.1,0.1,0.1C6,12.6,7.5,10.4,9.5,9z"/>
	<path display="inline" fill="#603813" d="M17.7,40.9c0-0.1,0.1-0.2,0.1-0.2c0.2-0.5,0.4-1.1,0.6-1.6c0.1-0.2,0.1-0.4,0.2-0.6
		c0.1-0.3,0.2-0.5,0.2-0.8c0.1-0.5,0.2-1,0.3-1.5c-0.2,0-0.3-0.1-0.5-0.2c-0.3,2.2-1,4.3-1.9,6.3c-0.2,0.3-0.3,0.7-0.4,1.1
		c0.2,0.1,0.3,0.1,0.5,0.2C17.1,42.6,17.4,41.8,17.7,40.9z"/>
	<path display="inline" fill="#603813" d="M64.4,116.9c-5.7,1.1-11.7,1.7-17.5,1.8c-5.5,0.1-11-0.7-16.4-1.7
		c-1.9-0.4-4.3-0.9-6.5-1.7c-0.6-0.1-1.2-0.2-1.8-0.3c2.1,0.8,4.3,1.4,6.2,1.9c6.5,1.6,13.4,2.3,20.1,2.1c6.5-0.2,13.2-1.3,19.6-2.5
		c1.5-0.3,3.3-0.7,5-1.2c-0.9,0.2-1.8,0.3-2.7,0.5C68.3,116.2,66.2,116.6,64.4,116.9z"/>
	<path display="inline" fill="#603813" d="M12.7,28.6c-2-0.9-3.8-2-5.6-3.4c-1.5-1.1-3.5-3.7-3.8-5.5c0-0.1,0.1-0.3,0.1-0.4
		c0.1-0.5,0.3-1.1,0.5-1.6c-0.1-0.1-0.2-0.1-0.2-0.2c-0.2,0.7-0.5,1.3-0.6,2c-0.1,0-0.2,0.1-0.2,0.1c0.3,3,3.9,5.9,6.4,7.4
		c2.8,1.8,7.1,2.6,8.8,5.4c0.2,0.1,0.5,0.1,0.7,0.2C17.6,30.7,15.2,29.7,12.7,28.6z"/>
	<path display="inline" fill="#603813" d="M12.3,7.8c-0.2-0.1-0.3-0.2-0.5-0.2c-0.4,0.1-0.8,0.1-1.2,0.2c-0.7,0.1-1.3,0.5-1.8,1
		C9.1,8.8,9.3,8.9,9.5,9C10.4,8.5,11.3,8,12.3,7.8z"/>
	<path display="inline" fill="#603813" d="M86.9,7.3c0.3,0,0.6,0.1,0.9,0.2c0.1,0,0.1-0.1,0.2-0.1c-0.6-0.2-1.2-0.3-1.8-0.4
		c-0.8-0.1-1.5-0.1-2.2-0.1c-0.2,0.1-0.4,0.2-0.6,0.4C84.5,7.2,85.6,7.2,86.9,7.3z"/>
	<path display="inline" fill="#603813" d="M4.9,14.9c0,0-0.1-0.1-0.1-0.1c-0.5,0.9-0.9,1.8-1.2,2.8c0.1,0.1,0.2,0.1,0.2,0.2
		C4.1,16.8,4.5,15.8,4.9,14.9z"/>
	<path display="inline" fill="#603813" d="M94.5,15.4c0.2-0.1,0.3-0.2,0.5-0.3c-0.3-0.8-0.6-1.5-1-2.3c-0.2,0.1-0.3,0.2-0.5,0.3
		C93.9,13.9,94.2,14.7,94.5,15.4z"/>
	<path display="inline" fill="#603813" d="M80.7,33.5c0-0.5,0.1-1.1,0.2-1.6c-0.1,0-0.2,0.1-0.3,0.1c-0.1,0.9-0.2,1.9-0.2,2.8
		c0.1,0,0.2-0.1,0.4-0.1c0.3-1.8,1.5-3,3-4c-0.6,0.3-1.1,0.5-1.7,0.7C81.4,31.9,80.9,32.6,80.7,33.5z"/>
	<path display="inline" fill="#603813" d="M19.2,34.7C19.2,34.7,19.2,34.7,19.2,34.7c0-0.1,0-0.2,0-0.2c0-0.5,0-1.1-0.1-1.6
		c-0.1,0-0.2-0.1-0.4-0.1c0,0.1,0,0.1,0,0.2c0-0.1-0.1-0.1-0.1-0.2c-0.2-0.1-0.5-0.1-0.7-0.2c0.4,0.6,0.7,1.4,0.7,2.3c0,0,0,0,0.1,0
		c0,0.4-0.1,0.8-0.2,1.1c0.2,0,0.3,0.1,0.5,0.2C19.1,35.7,19.2,35.2,19.2,34.7z"/>
	<path display="inline" fill="#603813" d="M83.1,45.2c0.1,0,0.2-0.1,0.3-0.1c-0.1-0.5-0.2-1-0.3-1.5c-0.1-0.3-0.2-0.7-0.3-1
		c-0.1,0.1-0.3,0.1-0.4,0.2C82.8,43.6,83,44.4,83.1,45.2z"/>
	<path display="inline" fill="#603813" d="M16.8,43.5c-0.2-0.1-0.3-0.1-0.5-0.2c-0.3,1-0.5,2-0.6,3c0.1,0,0.3,0.1,0.4,0.1
		C16.3,45.5,16.5,44.5,16.8,43.5z"/>
	<path display="inline" fill="#603813" d="M78.1,58.3c0.2-0.1,0.4-0.1,0.6-0.2c0,0,0,0,0,0c0.1,0,0.2-0.1,0.3-0.1c0,0,0-0.1,0-0.1
		c0,0,0,0-0.1,0c0.9-0.8,1.6-1.6,2.3-2.5c0.2-0.3,0.4-0.6,0.6-0.9l0.2-0.3c-0.2,0.1-0.5,0.2-0.7,0.2C80.7,56,79.5,57.2,78.1,58.3z"
		/>
	<path display="inline" fill="#603813" d="M36.9,60.3c0.2,0,0.3-0.3,0-0.2c-3,0.4-5.7,1-8.4,0.8c0.6,0.1,1.2,0.2,1.8,0.3
		C32.5,61,34.6,60.6,36.9,60.3z"/>
	<path display="inline" fill="#603813" d="M67.3,61c-0.1,0-0.2,0-0.3,0c-0.4-0.1-0.8-0.1-1.2-0.2c-0.4-0.1-0.7-0.1-1.1-0.2
		c-0.1,0-0.2,0-0.3,0c-0.3,0-0.6-0.1-0.9-0.1c-0.1,0-0.3,0-0.4,0c-0.3,0-0.6,0-0.8-0.1c-0.1,0-0.3,0-0.4,0c-0.4,0-0.8,0-1.2,0
		c-0.1,0-0.4,0.2-0.1,0.2c0.4,0,0.8,0,1.2,0c0.1,0,0.2,0,0.3,0c0.4,0,0.8,0,1.1,0.1c0.1,0,0.2,0,0.2,0c0.3,0,0.6,0.1,0.9,0.1
		c0.1,0,0.2,0,0.3,0c0.3,0,0.6,0.1,0.9,0.1c0.4,0.1,0.8,0.1,1.2,0.2C67,61,67.2,61,67.3,61C67.4,61,67.3,61,67.3,61z"/>
	<path display="inline" fill="#603813" d="M19.5,57c1.1,1.1,2.4,2,3.7,2.7c0.6,0.1,1.2,0.3,1.8,0.4c-0.6-0.2-1.3-0.5-1.9-0.9
		c-1.9-1-3.3-2.3-4.4-3.9c-0.2-0.1-0.5-0.1-0.7-0.2c0.3,0.5,0.8,1,1.2,1.5c0,0-0.1,0.1-0.1,0.1c0,0.7,0.1,1.3,0.1,2
		c0.1,0,0.2,0.1,0.4,0.1C19.6,58.2,19.5,57.6,19.5,57z"/>
	<path display="inline" fill="#603813" d="M20.3,67c-0.1,0-0.3-0.1-0.4-0.1c0.1,1.1,0.2,2.1,0.4,3.2c0.1,0,0.3,0.1,0.4,0.1
		C20.5,69.2,20.4,68.1,20.3,67z"/>
	<path display="inline" fill="#603813" d="M77.3,67.7c-0.2,0.8-0.3,1.5-0.4,2.3c0.1,0,0.3-0.1,0.4-0.1c0.2-1,0.3-1.9,0.5-2.9
		c-0.1,0-0.2,0.1-0.3,0.1C77.4,67.3,77.4,67.5,77.3,67.7z"/>
	<path display="inline" fill="#603813" d="M22.3,78.7C22.3,78.7,22.3,78.7,22.3,78.7c-0.1,0-0.3-0.1-0.4-0.1
		c0.3,1.1,0.5,2.1,0.7,3.2c0.1,0,0.2,0,0.3,0.1C22.7,80.8,22.5,79.8,22.3,78.7z"/>
	<path display="inline" fill="#603813" d="M75.2,79.2c-0.2,0.8-0.3,1.6-0.5,2.4c0.1,0,0.2,0,0.3-0.1c0.2-0.9,0.4-1.9,0.6-2.8
		c-0.1,0-0.2,0-0.3,0.1C75.2,78.9,75.2,79.1,75.2,79.2z"/>
	<path display="inline" fill="#603813" d="M73.2,93.1c0.1,0,0.2,0,0.2,0c0-0.9,0.1-1.8,0.1-2.7c-0.1,0-0.2,0-0.2,0.1
		C73.2,91.3,73.2,92.2,73.2,93.1z"/>
	<path display="inline" fill="#603813" d="M23.7,90.2c0,0-0.1,0-0.1,0c0,0.5,0,1.1-0.1,1.6c0,0.4-0.1,0.9-0.1,1.3
		c0.1,0,0.2,0,0.3,0.1C23.7,92.2,23.7,91.2,23.7,90.2z"/>
	<path display="inline" fill="#603813" d="M75.3,103.7c0.1,0,0.2,0,0.3-0.1c-0.4-0.8-0.7-1.6-1-2.5c-0.1,0-0.2,0-0.3,0.1
		C74.6,102.1,74.9,102.9,75.3,103.7z"/>
	<path display="inline" fill="#603813" d="M22.6,101.7c0-0.2,0.1-0.4,0.1-0.6c-0.1,0-0.2-0.1-0.3-0.1c-0.1,0.5-0.2,0.9-0.3,1.4
		c-0.1,0.5-0.3,1-0.4,1.4c0.1,0,0.2,0,0.3,0.1C22.2,103.2,22.4,102.4,22.6,101.7z"/>
	<path display="inline" fill="#603813" d="M80.7,111.4c-2.6,2.1-6.5,3.4-10.3,4.3c0.9-0.1,1.8-0.3,2.7-0.5c3-0.9,6.1-2.2,8.1-3.9
		c0.1-0.1,0-0.1-0.1-0.1c-0.1-0.1-0.2-0.2-0.3-0.3c-0.1,0-0.3,0.1-0.4,0.1C80.5,111.2,80.6,111.3,80.7,111.4z"/>
	<path display="inline" fill="#603813" d="M17.3,111.6c0,0-0.1,0-0.2,0c0.1-0.1,0.3-0.3,0.4-0.5c-0.1,0-0.1,0-0.2-0.1
		c-0.2,0.2-0.4,0.5-0.6,0.7l0.1,0.1c0,0,0,0,0,0.1c1.4,1.3,3.3,2.4,5.4,3.2c0.6,0.1,1.2,0.2,1.8,0.3
		C21.4,114.4,18.9,113.2,17.3,111.6z"/>
</g>
<g>
	<g>
		<path fill="#FFFFFF" d="M85.7,7.3C82.3,7,79.3,7.6,76,7.8c0,0-0.1,0-0.1,0c-0.1,0-0.1,0-0.2,0c-0.4,0-0.6,0.1-0.9,0.1
			c0,0,0,0-0.1,0.1c-6.5,5-16.2,5.3-24.1,5.8c-7.9,0.5-18.7,0.4-24.6-5.5c-0.1,0-0.1,0-0.2,0c-0.1,0-0.2,0-0.3,0
			c-0.6,0-1.3,0-1.9-0.1c-0.1,0-0.2,0-0.3,0c-2.7-0.3-5.4-0.8-8.2-0.6c-5.9,0.3-9,6.8-10.2,11.8c0,0.1-0.1,0.3-0.1,0.4
			C5,21.5,7,24.1,8.5,25.2c1.7,1.3,3.5,2.4,5.5,3.4c2.4,1.1,4.9,2.1,5.9,4.4c-0.1-1.4-0.4-2.9-0.9-4.3c-0.1-0.1,0.3-0.2,0.3-0.1
			c0.7,1.7,1,3.8,1,5.9c0,0.1,0,0.1,0,0.2c0,0,0,0,0,0c0,1-0.1,2-0.4,2.9c-0.1,0.3-0.1,0.5-0.2,0.8c-0.1,0.2-0.1,0.4-0.2,0.6
			c-0.2,0.5-0.4,1.1-0.5,1.6c0,0.1-0.1,0.2-0.1,0.2c-1,2.9-2,5.6-1.4,8.9c0.8,4,2.9,7.4,6.6,9.5c4.6,2.6,8.5,1.5,13.4,0.8
			c0.2,0,0.1,0.2,0,0.2c-4.2,0.6-7.7,1.7-11.9,0.1c-1.7-0.6-3.5-1.9-5-3.4c0.1,1.1,0.1,2.3,0.2,3.4c0,0.1,0,0.2,0,0.4
			c0.4,6.1,1,12,2.4,18c1.8,7.7,1.9,15.1,0.3,22.9c-1.1,5.1-4.5,9-5.3,9.9c0.1,0,0.2,0,0.2,0c2.9,3,8.8,4.6,12.8,5.4
			c5.2,1,10.6,1.9,15.9,1.7c5.6-0.1,11.4-0.8,16.9-1.8c4.9-1,11.8-2.2,15.8-5.5c-1.9-2.3-3.8-4.6-5-7.2c-3.8-8.4-2.1-16.3-0.3-24.9
			c0.8-3.8,1.3-7.7,2.1-11.6c0.5-2.6,1.3-5.4,1.4-8.1c0-0.3,0-0.6,0-0.9c0-0.2,0-0.4,0-0.5c-1.4,1.3-3,2.3-4.8,2.8
			c-1,0.3-1.9,0.4-2.9,0.4c0,0,0,0,0,0c0,0-0.1,0-0.1,0c-0.4,0-0.7,0-1.1,0c0,0-0.1,0-0.1,0c-0.3,0-0.7,0-1-0.1c-0.1,0-0.1,0-0.2,0
			c-0.4,0-0.7-0.1-1.1-0.1c0,0,0,0-0.1,0C66,61,65.6,61,65.1,60.9c-0.3,0-0.6-0.1-0.9-0.1c-0.1,0-0.2,0-0.3,0
			c-0.3,0-0.6-0.1-0.9-0.1c-0.1,0-0.1,0-0.2,0c-0.4,0-0.7-0.1-1.1-0.1c-0.1,0-0.2,0-0.3,0c-0.4,0-0.8,0-1.2,0c-0.2,0,0-0.2,0.1-0.2
			c0.4,0,0.8,0,1.2,0c0.1,0,0.3,0,0.4,0c0.3,0,0.5,0,0.8,0.1c0.1,0,0.3,0,0.4,0c0.3,0,0.6,0.1,0.9,0.1c0.1,0,0.2,0,0.3,0
			c0.4,0.1,0.7,0.1,1,0.2c0.4,0.1,0.8,0.1,1.1,0.2c0.1,0,0.2,0,0.3,0c0.3,0,0.6,0.1,1,0.1c0.1,0,0.1,0,0.2,0c0.4,0,0.7,0.1,1.1,0.1
			c0,0,0.1,0,0.2,0c0.3,0,0.6,0,0.9,0c1.8,0,3.5-0.5,5.4-1.7c3.7-2.3,6.3-5.9,6.7-10.3c0.2-2.7-0.1-5.1-1.2-7.6
			c-0.1-0.2-0.1-0.3-0.2-0.5c0-0.1-0.1-0.1-0.1-0.2c-0.2-0.5-0.4-1-0.6-1.5c-0.1-0.3-0.2-0.5-0.2-0.8c-0.2-0.6-0.3-1.2-0.4-1.8
			c-0.3-2.6-0.2-5.6,0.8-8c0-0.1,0.4-0.1,0.3,0c-0.5,1.3-0.9,3-1,4.6c0.5-1.8,1.9-2.7,3.8-3.6c2.3-1.1,4.7-2.2,6.7-3.8
			c1.5-1.2,3.7-3.5,4.3-5.5c-0.1-0.8-0.1-1.2-0.4-2.2C93.1,14.9,90.4,7.7,85.7,7.3z"/>
		<path fill="#603813" d="M94.8,19.9C94,14.6,91.1,7.5,85,7c-2.8-0.2-5.3,0.1-8,0.5c-1,0.2-1.5,0.3-2.6,0.2c0,0,0,0.1,0,0.1
			c0,0,0,0,0,0c-5.5,4.3-13.7,5-20.4,5.5c-8.8,0.6-21,1.7-27.7-5.3c-0.1-0.1-0.4-0.1-0.4,0l-0.2-0.1c0,0-0.1,0-0.1,0
			c-4.5-0.1-9.1-1.1-13.7-0.2c-2.3,0.5-3.8,3.9-4.8,5.6c-1.2,1.9-2.1,4.1-2.6,6.3c-0.1,0-0.2,0.1-0.2,0.1c0.3,3,3.8,5.9,6.2,7.4
			c3.4,2.2,8.9,3,9.2,7.7c0,0,0,0,0.1,0c-0.2,2.6-1,5.1-2,7.4c-1.6,3.5-1.1,7.8,0.4,11.3c0,0,0,0,0,0l0.2,0.4
			c0.1,0.1,0.1,0.3,0.2,0.4c0.4,0.8,0.9,1.5,1.6,2.3c0,0-0.1,0.1,0,0.1c0.4,7.1,0.8,14,2.4,21c1.1,4.6,2.2,9.3,1.8,14.1
			c-0.3,3.5-0.7,7.1-1.4,10.6c-0.7,3.1-3,6.9-5.1,9.3l0.1,0.1c0,0,0,0,0,0.1c2.6,2.7,7.6,4.2,11.2,5.1c6.3,1.6,12.9,2.3,19.5,2.1
			c6.3-0.2,12.8-1.3,18.9-2.5c4-0.8,9.6-2.4,12.7-5.1c0.1-0.1,0-0.1-0.1-0.1c-1.8-2.3-3.8-4.6-5.1-7.2c-4.5-8.9-1.7-18.1,0.2-27.3
			c0.7-3.6,1.2-7.2,1.9-10.7c0.5-2.6,1.2-5.4,1.1-8.1c0,0,0,0-0.1,0c0.8-0.8,1.6-1.6,2.3-2.5c0.2-0.3,0.4-0.6,0.6-0.9l0.3-0.3
			c0,0,0,0,0,0c1.7-3.1,1.7-7.4,0.9-10.6c-0.6-2.3-1.8-4.3-2.3-6.7c-0.1-0.5-0.1-1.1-0.2-1.8c0,0,0,0,0,0c0.4-4.7,6.6-5.9,10.1-8.1
			c2.2-1.4,5.1-4.3,5.4-7C95.1,19.8,94.9,19.8,94.8,19.9z M90.2,26.1c-2,1.6-4.4,2.6-6.7,3.8c-2,1-3.3,1.8-3.8,3.6
			c0.1-1.6,0.4-3.2,1-4.6c0-0.1-0.3-0.1-0.3,0c-1,2.4-1.1,5.4-0.8,8c0.1,0.6,0.2,1.2,0.4,1.8c0.1,0.3,0.2,0.5,0.2,0.8
			c0.2,0.5,0.4,1,0.6,1.5c0,0.1,0.1,0.1,0.1,0.2c0.1,0.2,0.1,0.3,0.2,0.5c1.1,2.5,1.4,4.8,1.2,7.6c-0.3,4.4-3,7.9-6.7,10.3
			c-1.9,1.2-3.7,1.6-5.4,1.7c-0.3,0-0.6,0-0.9,0c-0.1,0-0.1,0-0.2,0c-0.4,0-0.7-0.1-1.1-0.1c-0.1,0-0.1,0-0.2,0
			c-0.3,0-0.6-0.1-1-0.1c-0.1,0-0.2,0-0.3,0c-0.4-0.1-0.8-0.1-1.1-0.2c-0.3-0.1-0.7-0.1-1-0.2c-0.1,0-0.2,0-0.3,0
			c-0.3,0-0.6-0.1-0.9-0.1c-0.1,0-0.3,0-0.4,0c-0.3,0-0.5,0-0.8-0.1c-0.1,0-0.3,0-0.4,0c-0.4,0-0.8,0-1.2,0c-0.1,0-0.3,0.2-0.1,0.2
			c0.4,0,0.8,0,1.2,0c0.1,0,0.2,0,0.3,0c0.4,0,0.7,0.1,1.1,0.1c0.1,0,0.1,0,0.2,0c0.3,0,0.6,0.1,0.9,0.1c0.1,0,0.2,0,0.3,0
			c0.3,0,0.6,0.1,0.9,0.1c0.4,0.1,0.9,0.1,1.3,0.2c0,0,0,0,0.1,0c0.4,0.1,0.7,0.1,1.1,0.1c0.1,0,0.1,0,0.2,0c0.3,0,0.7,0.1,1,0.1
			c0,0,0.1,0,0.1,0c0.4,0,0.7,0,1.1,0c0,0,0.1,0,0.1,0c0,0,0,0,0,0c0.9,0,1.9-0.1,2.9-0.4c1.8-0.5,3.4-1.5,4.8-2.8
			c0,0.2,0,0.4,0,0.5c0,0.3,0,0.6,0,0.9c-0.1,2.7-0.8,5.5-1.4,8.1c-0.8,3.8-1.3,7.7-2.1,11.6c-1.8,8.7-3.5,16.5,0.3,24.9
			c1.2,2.6,3.1,4.9,5,7.2c-4,3.3-10.9,4.6-15.8,5.5c-5.5,1.1-11.3,1.7-16.9,1.8c-5.3,0.1-10.7-0.7-15.9-1.7c-4-0.8-9.9-2.4-12.8-5.4
			c0,0-0.1,0-0.2,0c0.8-1,4.2-4.8,5.3-9.9c1.6-7.8,1.5-15.2-0.3-22.9c-1.4-6-2-11.9-2.4-18c0-0.1,0-0.2,0-0.4
			c-0.1-1.1-0.1-2.2-0.2-3.4c1.4,1.5,3.3,2.8,5,3.4c4.2,1.6,7.6,0.5,11.9-0.1c0.2,0,0.2-0.3,0-0.2c-4.9,0.7-8.8,1.8-13.4-0.8
			c-3.7-2.1-5.8-5.5-6.6-9.5c-0.7-3.3,0.3-6,1.4-8.9c0-0.1,0.1-0.2,0.1-0.2c0.2-0.5,0.4-1.1,0.5-1.6c0.1-0.2,0.1-0.4,0.2-0.6
			c0.1-0.3,0.2-0.5,0.2-0.8c0.2-0.9,0.3-1.9,0.4-2.9c0,0,0,0,0,0c0-0.1,0-0.1,0-0.2c0-2.1-0.3-4.2-1-5.9c-0.1-0.1-0.4-0.1-0.3,0.1
			c0.6,1.4,0.9,2.8,0.9,4.3c-1-2.3-3.4-3.3-5.9-4.4c-2-0.9-3.7-2-5.5-3.4C7,24.1,5,21.5,4.8,19.7c0-0.1,0.1-0.3,0.1-0.4
			c1.2-5,4.4-11.5,10.2-11.8c2.8-0.1,5.5,0.4,8.2,0.6c0.1,0,0.2,0,0.3,0c0.6,0.1,1.3,0.1,1.9,0.1c0.1,0,0.2,0,0.3,0
			c0.1,0,0.1,0,0.2,0c5.9,5.9,16.8,6.1,24.6,5.5C58.5,13.3,68.2,13,74.7,8c0,0,0.1-0.1,0.1-0.1c0.3,0,0.4-0.1,0.9-0.1
			c0.1,0,0.1,0,0.2,0c0,0,0.1,0,0.1,0c3.4-0.2,6.3-0.9,9.8-0.6c4.6,0.4,7.4,7.6,8.4,11.2c0.3,1,0.3,1.4,0.4,2.2
			C93.9,22.6,91.7,24.9,90.2,26.1z"/>
	</g>
	<g>
		<polygon fill="#FFFBEC" points="28.7,48.5 28.7,48.5 28.7,48.5 		"/>
		<path fill="#E8CF3D" d="M28.7,48.5C28.7,48.5,28.7,48.5,28.7,48.5L28.7,48.5C28.7,48.5,28.7,48.5,28.7,48.5z"/>
	</g>
</g>
</svg>
