<?xml version="1.0" encoding="utf-8"?>
<!-- Generator: Adobe Illustrator 18.1.1, SVG Export Plug-In . SVG Version: 6.00 Build 0)  -->
<!DOCTYPE svg PUBLIC "-//W3C//DTD SVG 1.1//EN" "http://www.w3.org/Graphics/SVG/1.1/DTD/svg11.dtd">
<svg version="1.1" id="Layer_1" xmlns="http://www.w3.org/2000/svg" xmlns:xlink="http://www.w3.org/1999/xlink" x="0px" y="0px"
	 viewBox="0 0 68.7 129" enable-background="new 0 0 68.7 129" xml:space="preserve">
<g display="none">
	<g display="inline">
		<g>
			<path fill-rule="evenodd" clip-rule="evenodd" fill="#DEAAA9" d="M26.3,124.3c-5.3,0-12.1-3.3-12.2-3.3
				c-3.3-2.5-3.1-9.9-2.7-14.3c1.3,4.6,4.5,6.8,10.5,7c0.2,0,0.3,0,0.5,0c5.2,0,7.4-3.8,8.3-6.3c0.3,1.7,0.7,4.4,1.5,8.7
				c0.5,2.9,0.2,5.1-1,6.5C30.2,123.7,28.5,124.3,26.3,124.3z"/>
			<path fill="#7F5A4B" d="M11.7,109c1.7,3.4,4.9,5,10.1,5.2c0.2,0,0.3,0,0.5,0c4.2,0,6.8-2.4,8.1-5c0.3,1.7,0.7,3.9,1.2,7
				c0.5,2.8,0.2,4.8-0.9,6.1c-0.9,1-2.4,1.6-4.5,1.6c-4.9,0-11.1-2.9-11.9-3.3C11.9,118.6,11.5,113.4,11.7,109 M11.3,103.2
				c0,0-2.6,14.3,2.5,18.2c0,0,6.9,3.4,12.4,3.4c4.1,0,7.5-1.9,6.3-8.8c-1.6-9.7-1.9-11.6-2-11.6c0,0,0.1,0.8,0.1,0.8s-1.1,8-8.4,8
				c-0.1,0-0.3,0-0.4,0C14.1,112.8,11.8,109.2,11.3,103.2L11.3,103.2z"/>
		</g>
		<g>
			<path fill="#A47474" d="M18.9,116.4c0.2-0.5,0.5-0.9,0.8-1.3c0.3-0.4,0.6-0.8,1-1.1l0.3-0.3l0.3,0.3c0.3,0.3,0.6,0.6,0.8,0.9
				c0.2,0.4,0.4,0.8,0.4,1.2c-0.6-0.6-1.2-0.9-1.9-1.4l0.7,0c-0.3,0.4-0.7,0.7-1.1,1.1C19.9,116,19.4,116.3,18.9,116.4z"/>
		</g>
	</g>
	<g display="inline">
		<g>
			<path fill-rule="evenodd" clip-rule="evenodd" fill="#DEAAA9" d="M43.6,124.3c-2.2,0-3.8-0.6-4.8-1.7c-1.1-1.3-1.5-3.5-1-6.5
				c0.7-4.2,1.2-6.9,1.4-8.7c0.9,2.5,3.2,6.3,8.3,6.3h0c0.2,0,0.3,0,0.5,0c5.9-0.3,9.2-2.4,10.5-6.9c0.4,4.4,0.4,11.7-2.9,14.2l0,0
				C55.6,121,48.9,124.3,43.6,124.3z"/>
			<path fill="#7F5A4B" d="M58.2,109c0.2,4.4-0.3,9.6-2.8,11.5c-0.8,0.4-7,3.3-11.8,3.3c-2.1,0-3.6-0.5-4.4-1.6
				c-1-1.2-1.3-3.3-0.9-6.1c0.5-3.1,0.9-5.3,1.2-7c1.4,2.5,3.9,5,8.1,5c0.2,0,0.3,0,0.5,0C53.2,113.9,56.5,112.3,58.2,109
				 M58.7,103.2c-0.4,6-2.9,9.6-10.6,10c-0.2,0-0.3,0-0.4,0c-7.3,0-8.4-8-8.4-8s0.1-0.8,0.1-0.8c0,0-0.3,1.9-2,11.6
				c-1.1,6.8,2.2,8.8,6.3,8.8c5.4,0,12.3-3.4,12.3-3.4C61.1,117.5,58.7,103.2,58.7,103.2L58.7,103.2z"/>
		</g>
		<g>
			<path fill="#A47474" d="M46.9,116.4c0.2-0.5,0.5-0.9,0.8-1.3c0.3-0.4,0.6-0.8,1-1.1l0.3-0.3l0.3,0.3c0.3,0.3,0.6,0.6,0.8,0.9
				c0.2,0.4,0.4,0.8,0.4,1.2c-0.6-0.6-1.2-0.9-1.9-1.4l0.7,0c-0.3,0.4-0.7,0.7-1.1,1.1C47.9,116,47.4,116.3,46.9,116.4z"/>
		</g>
	</g>
</g>
<g>
	<g>
		<g>
			<path fill-rule="evenodd" clip-rule="evenodd" fill="#14282E" d="M21.8,126.6c-0.6,0-1.2-0.1-1.8-0.2
				c-4.2-0.7-10.8-8.6-11.5-12.8c-0.8-4.2,2.2-17.6,2.3-17.7c0-0.1,3.7-14.9,2.5-29c0.8,0.7,2,1.3,3.9,1.3c2.4,0,5.6-1,9.4-2.9
				l2.6,34.9c0,0,0,0.1,0,0.1c0,0.2,4.9,15.4,2.6,20.5C29.9,124.8,25.4,126.6,21.8,126.6z"/>
			<path fill="#7F5A4B" d="M26,66.1l2.5,34.1c0,0.1,0,0.2,0,0.2c1.3,4.2,4.4,16,2.7,20.2c-1.6,3.8-6,5.5-9.4,5.5
				c-0.6,0-1.2,0-1.7-0.1c-4-0.7-10.4-8.4-11.1-12.4c-0.6-3.4,1.4-13.8,2.2-17.5c0.2-0.6,3.6-14.3,2.6-28.1c0.8,0.5,1.9,0.8,3.3,0.8
				C19.4,68.7,22.4,67.8,26,66.1 M12.4,64.2c0,0,0,0.1,0,0.3C12.4,64.3,12.4,64.3,12.4,64.2L12.4,64.2z M12.4,64.4
				c2,14.9-2.2,31.4-2.2,31.4S7.2,109.4,8,113.7c0.8,4.3,7.4,12.4,11.9,13.2c0.6,0.1,1.3,0.2,1.9,0.2c4.1,0,8.6-2.1,10.3-6.1
				c2.3-5.4-2.6-20.9-2.6-20.9l-2.6-35.6c-4.5,2.4-7.7,3.2-9.8,3.2C13.3,67.7,12.6,65.2,12.4,64.4L12.4,64.4z"/>
		</g>
		<path fill-rule="evenodd" clip-rule="evenodd" fill="#14282E" stroke="#7F5A4B" stroke-miterlimit="10" d="M10.4,78
			c0,0,10,7,19,1.6v3.8c0,0-8,7.1-19-1V78z"/>
		<path fill-rule="evenodd" clip-rule="evenodd" fill="#14282E" stroke="#7F5A4B" stroke-miterlimit="10" d="M10.4,87.9
			c0,0,10,7,19,1.6v3.8c0,0-8,7.1-19-1V87.9z"/>
		<g>
			<path fill="#7F5A4B" d="M8.4,109.6c0,0,0.1,0.5,0.4,1.3c0.3,0.8,0.8,1.9,1.5,3.2c0.7,1.3,1.7,2.7,2.8,4.1
				c0.6,0.7,1.2,1.4,1.9,2.1c0.7,0.7,1.4,1.3,2.2,1.8c1.6,0.9,3.5,1.2,5.3,1.2c1.8,0,3.5-0.1,4.9-0.5c0.7-0.2,1.3-0.4,1.9-0.6
				c0.5-0.2,1-0.5,1.3-0.8c0.6-0.6,0.7-1.1,0.8-1.1c0,0,0,0.1-0.1,0.3c-0.1,0.2-0.2,0.5-0.5,0.9c-0.3,0.3-0.7,0.7-1.3,0.9
				c-0.5,0.3-1.1,0.6-1.9,0.9c-0.7,0.2-1.5,0.4-2.4,0.6c-0.9,0.1-1.7,0.2-2.7,0.3c-1.9,0.1-4-0.1-5.9-1.2c-0.9-0.5-1.7-1.2-2.4-1.9
				c-0.7-0.7-1.3-1.4-1.9-2.2c-1.2-1.5-2-3-2.7-4.4c-0.6-1.4-0.9-2.6-1.1-3.4c-0.1-0.4-0.2-0.8-0.2-1C8.5,109.7,8.4,109.6,8.4,109.6
				z"/>
		</g>
		<g>
			<path fill="#597D8D" d="M29.3,113C29.3,113,29.3,113,29.3,113c0,0.1,0,0.2-0.1,0.2c-0.1,0.1-0.2,0.3-0.3,0.6
				c-0.3,0.5-0.8,1-1.6,1.6c-0.8,0.6-1.8,1.1-3,1.4c-0.6,0.1-1.2,0.3-1.9,0.3c-0.6,0-1.3,0-1.9-0.1c-0.6-0.1-1.3-0.2-1.9-0.4
				c-0.6-0.2-1.2-0.4-1.7-0.7c-1-0.5-1.9-1.2-2.6-1.9c-0.3-0.3-0.6-0.6-0.8-0.9c-0.2-0.3-0.4-0.5-0.6-0.8c-0.3-0.4-0.4-0.7-0.4-0.7
				s0.3,0.1,0.8,0.3c0.5,0.2,1.2,0.4,2,0.7c0.8,0.3,1.7,0.6,2.7,0.9c1,0.3,1.9,0.5,2.9,0.6c1,0.1,2,0.2,2.9,0.1
				c1-0.1,1.9-0.2,2.7-0.4c0.8-0.2,1.5-0.4,2-0.5c0.2-0.1,0.4-0.1,0.6-0.2C29.2,113.1,29.2,113.1,29.3,113
				C29.3,113,29.3,113,29.3,113z"/>
		</g>
	</g>
	<g>
		<g>
			<path fill-rule="evenodd" clip-rule="evenodd" fill="#14282E" d="M48.1,127.3c-3.8,0-7.1-1.8-10-5.4c-3.5-4.3,0.8-21.4,0.8-21.6
				l4-36c3.8,2.1,7,3.2,9.5,3.2c1.9,0,3.1-0.6,3.9-1.3c-1.4,14.4,2.9,30.2,2.9,30.4c0,0.1,3.3,13.5,2.6,17.7
				c-0.8,4.2-7.4,12-11.6,12.8C49.5,127.2,48.8,127.3,48.1,127.3z"/>
			<path fill="#7F5A4B" d="M43.3,65.1C46.9,67,50,68,52.4,68c1.4,0,2.4-0.3,3.3-0.8c-1.1,14.1,2.9,28.8,3,29.5
				c0.9,3.7,3.2,14.1,2.6,17.5c-0.7,4-7.2,11.7-11.2,12.4c-0.7,0.1-1.3,0.2-2,0.2c-3.6,0-6.8-1.7-9.6-5.2
				c-2.8-3.4-0.3-16.4,0.9-21.1c0,0,0-0.1,0-0.1L43.3,65.1 M42.5,63.5l-4.1,36.7c0,0-4.4,17.5-0.7,22c3.1,3.8,6.7,5.5,10.4,5.5
				c0.7,0,1.4-0.1,2.2-0.2c4.5-0.8,11.2-8.9,12-13.2c0.8-4.3-2.6-17.9-2.6-17.9S55,79.1,57,64.2c0,0-0.6,2.8-4.6,2.8
				C50.2,67,47.1,66.2,42.5,63.5L42.5,63.5z M57,64L57,64L57,64z"/>
		</g>
		<path fill-rule="evenodd" clip-rule="evenodd" fill="#14282E" stroke="#7F5A4B" stroke-miterlimit="10" d="M59.4,77.3
			c0,0-12,7-20,1.6v3.8c0,0,7,7.2,20-1V77.3z"/>
		<path fill-rule="evenodd" clip-rule="evenodd" fill="#14282E" stroke="#7F5A4B" stroke-miterlimit="10" d="M59.4,87.3
			c0,0-12,7-20,1.6v3.8c0,0,7,7.2,20-1V87.3z"/>
		<g>
			<path fill="#7F5A4B" d="M61.7,112.4c0,0,0,0.1,0,0.3c0,0.2-0.1,0.6-0.2,1c-0.1,0.4-0.2,0.9-0.4,1.5c-0.2,0.6-0.4,1.2-0.8,1.8
				c-0.7,1.3-1.9,2.6-3.2,3.8c-0.6,0.6-1.3,1.3-2.1,1.9c-0.8,0.6-1.8,1-2.8,1.2c-2,0.5-4,0.4-5.8,0.2c-0.9-0.1-1.8-0.2-2.6-0.5
				c-0.8-0.2-1.6-0.6-2.2-0.8c-1.3-0.5-2.5-1-3.1-1.6c-0.3-0.3-0.5-0.6-0.6-0.8c-0.1-0.2-0.1-0.3-0.1-0.3s0.1,0.1,0.2,0.3
				c0.1,0.2,0.4,0.4,0.7,0.7c0.7,0.5,1.8,0.8,3.2,1.3c0.7,0.3,1.4,0.5,2.2,0.7c0.8,0.2,1.6,0.2,2.5,0.3c1.8,0.1,3.7,0.1,5.5-0.3
				c0.9-0.2,1.7-0.6,2.5-1.1c0.7-0.5,1.4-1.1,2-1.8c1.3-1.3,2.5-2.4,3.3-3.5c0.8-1.1,1.2-2.3,1.5-3.1
				C61.5,112.9,61.7,112.4,61.7,112.4z"/>
		</g>
		<g>
			<path fill="#597D8C" d="M39.3,113C39.3,113,39.3,113,39.3,113c0.1,0.1,0.1,0.1,0.2,0.1c0.1,0.1,0.3,0.1,0.5,0.2
				c0.5,0.2,1.1,0.4,1.9,0.5c0.8,0.2,1.6,0.3,2.5,0.4c0.9,0,1.8,0,2.8-0.1c0.9-0.1,1.9-0.4,2.8-0.6c0.9-0.3,1.8-0.6,2.5-0.9
				c0.8-0.3,1.4-0.5,1.9-0.7c0.5-0.2,0.8-0.3,0.8-0.3s-0.1,0.3-0.4,0.7c-0.1,0.2-0.3,0.5-0.5,0.8c-0.2,0.3-0.5,0.6-0.8,0.9
				c-0.6,0.6-1.4,1.3-2.4,1.9c-0.5,0.3-1,0.5-1.6,0.7c-0.6,0.2-1.2,0.3-1.8,0.4c-0.6,0.1-1.3,0.1-1.9,0.1c-0.6,0-1.2-0.1-1.8-0.3
				c-1.1-0.3-2.1-0.8-2.8-1.4c-0.7-0.6-1.2-1.2-1.5-1.6c-0.1-0.2-0.2-0.4-0.3-0.5C39.4,113.2,39.3,113.1,39.3,113
				C39.3,113,39.3,113,39.3,113z"/>
		</g>
	</g>
</g>
<g display="none">
	<g display="inline">
		<g>
			<path fill-rule="evenodd" clip-rule="evenodd" fill="#5F3032" d="M20.5,128c-2.7,0-5.6-1.3-7.9-3.7c-2.3-2.4-5-6.9-4.7-14.8
				c0.6-13.6,3.5-41.6,3.6-41.8c0-0.1,0-0.2,0-0.2L1.5,4.8c0.6,0.6,1.2,1.3,2,2.1C5.4,9,9.1,9.5,11.8,9.5c4,0,7.9-0.9,10.2-1.7
				c2.9-1,5-2.9,6.3-4.5l2.2,77c0.1,0.9,1.3,20.5,2,25.9c0.6,5.4-1.1,16.4-1.9,18C30,125.4,23.7,128,20.5,128L20.5,128z"/>
			<path fill="#7F5A4B" d="M27.4,5.7l2.1,74.6c0,0,0,0,0,0.1c0.1,0.8,1.3,20.4,2,25.9c0.6,5.3-1.1,16.1-1.8,17.5
				c-0.8,1.1-6.5,3.5-9.3,3.5c-1.9,0-4.7-0.9-7.2-3.5c-2.2-2.3-4.7-6.6-4.4-14.1c0.6-13.6,3.5-41.5,3.6-41.8c0-0.2,0-0.3,0-0.5
				L3,7.9c1.8,1.7,4.8,2.6,8.8,2.6c4.1,0,8.1-0.9,10.6-1.7C24.5,8,26.1,6.9,27.4,5.7 M29.3,0c0,0-2.2,5-7.5,6.9
				c-2.6,0.9-6.4,1.6-9.9,1.6c-3.2,0-6.1-0.6-7.6-2.2C1.8,3.6,0,1.8,0,1.8l10.5,65.8c0,0-2.9,28-3.6,41.8
				c-0.6,13.8,8,19.6,13.6,19.6c0,0,0,0,0,0c3.2,0,10.1-2.6,11-4.5s2.6-13.1,2-18.6c-0.6-5.4-2-25.7-2-25.7L29.3,0L29.3,0z"/>
		</g>
		
			<path fill-rule="evenodd" clip-rule="evenodd" fill="none" stroke="#7F5A4B" stroke-width="2" stroke-linecap="round" stroke-linejoin="round" stroke-miterlimit="10" d="
			M17.5,10.1c0.2,6.9,0.4,11.6,0.6,18.5c0.2,7.1,0.4,14.2,1.4,21.3c1.1,7.9,3.3,15.8,2.4,23.8"/>
		
			<path fill-rule="evenodd" clip-rule="evenodd" fill="none" stroke="#7F5A4B" stroke-width="2" stroke-linecap="round" stroke-linejoin="round" stroke-miterlimit="10" d="
			M31.5,95.1c-1.2,0.1-2.2-1-2.7-2.3c-0.4-1.2-0.4-2.6-0.4-3.9c-0.1-5-1-9.9-2.6-14.6c-2.2-0.5-4.5-0.6-6.7-0.2
			c-0.6,0.1-1.2,0.3-1.6,0.7c-0.5,0.5-0.6,1.3-0.6,2c-0.6,5.1-1.2,10.1-1.7,15.2c-0.1,0.7-0.2,1.5-0.5,2.1c-1,1.9-3.5,1.8-5.4,1.5"
			/>
		
			<path fill-rule="evenodd" clip-rule="evenodd" fill="none" stroke="#7F5A4B" stroke-width="2" stroke-linecap="round" stroke-linejoin="round" stroke-miterlimit="10" d="
			M9,110.1c0.6-0.9,1.3-1.7,2.2-2.4c3.4-2.9,8.3-3,12.8-3c2.6,0,5.6,0.2,7.3,2.2"/>
		
			<path fill-rule="evenodd" clip-rule="evenodd" fill="none" stroke="#7F5A4B" stroke-width="2" stroke-linecap="round" stroke-linejoin="round" stroke-miterlimit="10" d="
			M14.6,109.8c3.9-1.4,8.1-1.8,12.2-1.1"/>
	</g>
	<g display="inline">
		<g>
			<path fill-rule="evenodd" clip-rule="evenodd" fill="#5F3032" d="M48.1,126.6c-4.3,0-7.4-1-9.3-3c-2-2.1-1.9-4.6-1.9-4.6l0-27.4
				c0.2-0.8,1.2-5.9,1.9-18.2c0.7-11.5,1.7-58.6,1.9-70.1c2.5,2.5,7.7,6.5,14.9,6.5c3.9,0,7.8-1.2,11.7-3.5
				c-1.6,10.5-8.5,55.5-9.5,61.2C57,71.8,59.2,84.1,60.9,94c0.8,4.8,1.6,9.4,1.6,10.4c0,0.4,0,1.1,0,1.9c0.1,5.6,0.5,18.6-10.1,20
				C50.9,126.5,49.4,126.6,48.1,126.6z"/>
			<path fill="#7F5A4B" d="M41.7,5.5c3,2.4,7.7,5.3,13.9,5.3c3.5,0,7-0.9,10.4-2.7c-2,13.3-8.2,53.8-9.2,59.2
				c-0.8,4.2,0.9,14.6,3.1,26.9c0.8,4.3,1.6,9.2,1.6,10.2c0,0.5,0,1.1,0,2c0.2,8.2-0.6,17.9-9.3,19c-1.5,0.2-2.9,0.3-4.1,0.3
				c-4,0-6.8-0.9-8.5-2.6c-1.7-1.8-1.7-3.8-1.7-3.9c0,0,0-0.1,0-0.1V91.7c0.2-1.1,1.2-6.4,1.9-18.2C40.5,62.6,41.4,19.8,41.7,5.5
				 M39.8,0.8c0,0-1.1,59.4-1.9,72.6c-0.8,13.2-1.9,18.1-1.9,18.1V119c0,0-0.5,8.6,12.2,8.6c1.3,0,2.8-0.1,4.4-0.3
				c13.2-1.7,10.8-19.7,11-22.9s-5.9-30.3-4.7-36.8c1.2-6.5,9.9-63.4,9.9-63.4c-4.8,3.4-9.2,4.6-13.1,4.6
				C45.8,8.8,39.8,0.8,39.8,0.8L39.8,0.8z M68.7,4L68.7,4L68.7,4z"/>
		</g>
		
			<path fill-rule="evenodd" clip-rule="evenodd" fill="none" stroke="#7F5A4B" stroke-width="2" stroke-linecap="round" stroke-linejoin="round" stroke-miterlimit="10" d="
			M50.9,10.1c-1,20.9-2,41.8-2.9,62.7"/>
		
			<path fill-rule="evenodd" clip-rule="evenodd" fill="none" stroke="#7F5A4B" stroke-width="2" stroke-linecap="round" stroke-linejoin="round" stroke-miterlimit="10" d="
			M38.3,96c2.2-3.2,3-7.1,3.3-10.9s0.3-7.7,1.1-11.5c3.1,0.2,6.2,0.5,9.2,0.7c0.2,0,0.4,0,0.5,0.2c0.2,0.1,0.2,0.4,0.2,0.6
			c0.2,6.1-0.7,12.7,2.6,17.9c1.2,1.9,3.5,3.5,5.5,2.7"/>
		
			<path fill-rule="evenodd" clip-rule="evenodd" fill="none" stroke="#7F5A4B" stroke-width="2" stroke-linecap="round" stroke-linejoin="round" stroke-miterlimit="10" d="
			M37.8,107.8c1.2-1.4,3.3-1.7,5.2-1.8c3.1-0.2,6.2-0.4,9.3-0.5c1.3,0,2.7,0,4,0.3c1.8,0.4,3.4,1.5,5,2.5"/>
		
			<path fill-rule="evenodd" clip-rule="evenodd" fill="none" stroke="#7F5A4B" stroke-width="2" stroke-linecap="round" stroke-linejoin="round" stroke-miterlimit="10" d="
			M43.9,108.6c3.9-0.6,7.9-0.5,11.8,0.3"/>
	</g>
</g>
</svg>
