<?xml version="1.0" encoding="utf-8"?>
<!-- Generator: Adobe Illustrator 18.1.1, SVG Export Plug-In . SVG Version: 6.00 Build 0)  -->
<!DOCTYPE svg PUBLIC "-//W3C//DTD SVG 1.1//EN" "http://www.w3.org/Graphics/SVG/1.1/DTD/svg11.dtd">
<svg version="1.1" id="Layer_1" xmlns="http://www.w3.org/2000/svg" xmlns:xlink="http://www.w3.org/1999/xlink" x="0px" y="0px"
	 viewBox="0 0 98.7 55" enable-background="new 0 0 98.7 55" xml:space="preserve">
<g>
	<g>
		<path fill="#9F7253" d="M81.6,9.6c-1.7,0.6-3.7,1.1-5.1,1.4c-0.4,0.1-0.8,0.2-1,0.3c-1.1,0.3-2.2,0.6-3.4,1
			c1.1,0.8,3.7,2.9,4.4,3.3c1.6,1,3.3,2.1,5.1,3c1.6,0.8,3.2,1.5,4.8,2c1.1,0.3,2.1,0.6,3.2,0.8c-0.4-3.4-1.7-6.5-3.2-9.6
			c-0.6-1.3-1.2-2.5-1.8-3.8C83.9,8.6,82.8,9.2,81.6,9.6z"/>
		<path fill="#EA883D" d="M12.1,9.9c0.1,0.1,0.2,0.1,0.3,0.2c1.3,1.1,2.9,1.9,4.8,2.5c1.6,0.5,3.3,0.9,5.1,1.2
			c0.8,0.1,1.6,0.2,2.4,0.3c0.2,0,0.3,0,0.4,0c0.7,0.1,1.3,0.1,2,0.2c1.8,0.1,3.5,0.2,5.1,0.3c1.2,0.1,2.3,0.1,3.3,0.2
			c0.5,0,1,0.1,1.5,0.1c1.4,0.1,2.7,0.2,4.1,0.3c-0.3-0.7-0.2-1.5-0.2-2.3c0-1.3,0-2.6,0-4c-1.3-0.1-2.6-0.2-3.8-0.3
			c-1.6-0.1-3.2-0.3-4.8-0.4c-0.8-0.1-1.7-0.2-2.5-0.2C28.8,7.9,28,7.9,27,7.8c-1.5-0.1-3.1-0.3-4.8-0.5c-1.7-0.2-3.5-0.5-5.1-1
			c-1.8-0.5-3.4-1.1-4.8-2.1C12,4,11.6,3.7,11.2,3.4c-0.1,1.1-0.2,2.3-0.1,3.5C11.2,8,11.6,8.9,12.1,9.9z"/>
		<path fill="#EA883D" d="M42,15.2c1.6,0.1,3.2,0.2,4.8,0.2c1.7,0,3.4,0.1,5.1,0c1.1,0,2.2-0.1,3.3-0.2c0.5-0.1,1-0.1,1.5-0.2
			c1.7-0.2,3.4-0.5,5.1-0.8c1.6-0.3,3.2-0.7,4.8-1.1c1.7-0.4,3.4-0.8,5-1.3c0,0,0,0,0,0c1-0.3,2.8-0.6,4.8-1
			c1.8-0.4,3.6-0.9,5.1-1.5c1.3-0.6,2.3-1.2,2.6-2c0-0.1,0.1-0.2,0.3-0.2c0.1-1,0.5-1.9,0.4-3c-0.1-1-0.2-1.9-0.4-2.8
			c-0.6,0.6-1.7,1.1-2.9,1.5c-1.7,0.6-3.7,1.1-5.1,1.4c-0.4,0.1-0.8,0.2-1,0.3c-1.2,0.3-2.5,0.7-3.8,1.1C70,6,68.3,6.5,66.6,6.9
			C65,7.3,63.4,7.7,61.8,8c-1.7,0.3-3.4,0.6-5.1,0.8c-0.5,0.1-1.1,0.1-1.6,0.2C54,9,53,9,51.9,9.1c-1.7,0.1-3.4,0.1-5.1,0
			c-1.6,0-3.2-0.1-4.8-0.1c-0.1,0-0.3,0-0.4,0c0,1.1,0,2.1,0,3.2C41.6,13.1,41.4,14.3,42,15.2C42,15.2,42,15.2,42,15.2z M43.2,11.2
			c0.4-0.9,1.6-1,2.4-0.7c1.1,0.4,1.5,1.6,0.9,2.7c-0.5,0.9-2,0.9-2.8,0.4c-0.8-0.5-0.9-1.5-0.5-2.3C43.2,11.4,43.1,11.3,43.2,11.2z
			"/>
		<path fill="#9F7253" d="M17.2,18.6c1.8-0.9,3.5-2,5.1-3c0.7-0.4,1.3-0.8,1.9-1.2c-0.6-0.1-1.3-0.1-1.9-0.2c-1.7-0.2-3.5-0.5-5.1-1
			c-1.8-0.5-3.4-1.1-4.8-2.1c-0.5-0.3-0.9-0.6-1.3-1c-1.6,3-3.1,6.1-3.8,9.4v1.9c1.7,0,3.4-0.3,5.1-0.8C14,20.1,15.6,19.4,17.2,18.6
			z"/>
		<path fill="#EA883D" d="M93.7,21.7c-0.7,0.1-1.5,0.2-2.2,0.2c-1.7,0-3.4-0.3-5.1-0.7c-1.6-0.5-3.2-1.1-4.8-1.9
			c-1.8-0.9-3.5-1.9-5.1-2.9c-1-0.6-4.2-3.1-5.3-3.9c-1.5,0.4-3.1,0.9-4.6,1.2c-1.6,0.4-3.2,0.8-4.8,1.1c-1.7,0.3-3.4,0.6-5.1,0.8
			c-0.5,0.1-1.1,0.1-1.6,0.2c-1.1,0.1-2.1,0.1-3.2,0.2c-1.7,0.1-3.4,0.1-5.1,0c-1.6,0-3.2-0.1-4.8-0.1c-1.7-0.1-3.4-0.2-5.1-0.3
			c-1.6-0.1-3.2-0.3-4.8-0.4c-0.8-0.1-1.7-0.2-2.5-0.3c-0.8-0.1-1.6-0.2-2.5-0.2c-0.7-0.1-1.4-0.1-2.1-0.2c-0.9,0.6-1.8,1.1-2.7,1.7
			c-1.6,1-3.3,2-5.1,2.9c-1.6,0.8-3.2,1.5-4.8,2c-1.7,0.5-3.4,0.8-5.1,0.8c-0.8,0-1.7,0-2.6-0.2c0,0,0.1,0,0.1,0.1
			c-0.2,4.5-1.4,9-2.3,13.4c-0.4,1.7-0.7,3.3-0.9,5C1.1,44,0,45.5,2.5,47c0.7,0.4,1.6,0.8,2.9,1.3C6,48.5,6.6,48.7,7.3,49
			c1.7,0.6,3.4,1.2,5.1,1.7c0.7,0.2,1.3,0.4,2,0.5c0.9,0.2,1.9,0.5,2.8,0.7c1.7,0.4,3.4,0.9,5.1,1.3c1.6,0.4,3.2,0.7,4.8,1
			c1.7,0.3,3.4,0.5,5.1,0.5c1.1,0,2.2,0.1,3.3,0c0.5,0,1-0.1,1.5-0.1c2.1-0.2,3.7-0.5,5.1-0.9c2.5-0.7,4-1.9,4.8-3.6
			c1.2-2.4,1.2-5.9,1.4-10.7c-0.5,0-0.9-0.1-1.4-0.2c-1.7-0.3-3.2-1.1-4.8-2c-0.4-0.2-0.7-0.4-1.1-0.7c-0.1-0.1,0.6-0.4,0.8-0.3
			c0.1,0.1,0.2,0.1,0.3,0.2c1.5,1,3.1,1.8,4.8,2.3c0.5,0.1,1,0.3,1.6,0.3c0.4,0,0.9,0,1.3,0C49.8,39,50,39,50.1,39
			c0.6-0.1,1.2-0.3,1.8-0.5c1.8-0.7,3.3-2,4.8-3.1c0.4-0.3,0.8-0.6,1.2-0.9c0.2-0.1,0.9-0.2,0.8-0.1c-0.6,0.5-1.3,1-1.9,1.5
			c-1.5,1.2-3.1,2.4-4.8,3.1c-0.4,0.1-0.8,0.3-1.2,0.3c0,0,0,0,0,0c0.1,4-0.4,8.4,1.3,11.4c0.9,1.6,2.3,2.7,4.8,3.2
			c0.3,0.1,0.5,0.1,0.9,0.2c1.4,0.2,2.8,0.3,4.2,0.3c1.6,0.1,3.2,0.1,4.8,0c1.7-0.1,3.4-0.2,5.1-0.4c1.6-0.2,3.2-0.5,4.8-0.8
			c1.7-0.3,3.4-0.7,5.1-1.2c1-0.3,1.9-0.5,2.9-0.8c0.6-0.2,1.3-0.4,1.9-0.6c1.7-0.6,3.4-1.2,5.1-1.7c0.7-0.2,1.4-0.4,2.1-0.6
			c1.2-0.3,2.1-0.6,2.7-1c2.5-1.4,1.2-3.6,0.8-6.9c-0.2-1.4-0.5-2.8-0.8-4.3C95.2,31.3,93.9,26.4,93.7,21.7z"/>
		<path fill="#603A17" d="M94.5,21.4C94.5,21.4,94.5,21.3,94.5,21.4C94.5,21.3,94.5,21.3,94.5,21.4C94.5,21.3,94.5,21.3,94.5,21.4
			c0-0.1,0-0.1-0.1-0.2c0,0-0.1,0-0.1,0c0,0-0.1,0-0.1,0c-0.9,0.2-1.8,0.2-2.7,0.2c-0.3,0-0.7,0-1,0c0,0,0,0,0-0.1
			c-0.4-4.2-2.3-7.8-4.1-11.5C86,9,85.6,8.2,85.2,7.3c0-0.9,0.3-2,0.4-3c0.1-1.4-0.4-2.9-0.6-4.3c0-0.2-0.9,0-0.8,0.2c0,0,0,0,0,0
			c0,0-0.1,0-0.1,0.1c-0.3,0.8-1.3,1.4-2.6,2c-1.5,0.6-3.3,1.1-5.1,1.5c-2,0.5-3.8,0.8-4.8,1c0,0,0,0,0,0c-1.7,0.4-3.4,0.9-5,1.3
			C65,6.7,63.4,7,61.8,7.3c-1.7,0.3-3.4,0.6-5.1,0.8c-0.5,0.1-1,0.2-1.5,0.2c-1.1,0.1-2.2,0.2-3.3,0.2c-1.7,0.1-3.4,0.1-5.1,0
			c-1.6,0-3.2-0.1-4.8-0.2c-1.7-0.1-3.4-0.2-5.1-0.3c-0.5,0-1-0.1-1.5-0.1c-1-0.1-2.1-0.1-3.3-0.2c-1.6-0.1-3.3-0.1-5.1-0.3
			c-1.6-0.1-3.2-0.3-4.8-0.5c-1.8-0.3-3.5-0.6-5.1-1.1c-1.8-0.6-3.5-1.4-4.8-2.5c-0.3-0.2-0.6-0.5-0.8-0.7c-0.1-0.2-0.5-0.1-0.7,0
			c-0.2,0-0.4,0.1-0.4,0.2c-0.2,1.3-0.2,2.6-0.2,3.9c0,1,0.3,1.9,0.7,2.7c-0.2,0.1-0.3,0.2-0.2,0.4c0,0,0,0,0,0
			c-0.2,0-0.3,0.1-0.4,0.2c-1.2,2.2-2.3,4.4-3.1,6.7c-0.5,1.5-0.9,3-1.1,4.6c-0.5,0-0.9-0.1-1.4-0.2c-0.3-0.1-1,0.4-0.5,0.5
			c0,0,0,0,0.1,0c-0.2,0-0.4,0.1-0.4,0.3c-0.1,3.6-0.7,7.3-1.5,11c-0.9,4.4-1.9,8.7-2.5,13c-0.2,1.2,1,2,2.5,2.6
			c1.5,0.6,3.4,1,4.8,1.3C8,49.9,8.7,50.1,9,50.2c1.1,0.4,2.2,0.7,3.3,1c1.6,0.5,3.2,0.9,4.8,1.3c1.7,0.4,3.4,0.8,5.1,1.2
			c1.6,0.3,3.2,0.6,4.8,0.8c1.7,0.2,3.4,0.3,5.1,0.4c1.6,0.1,3.2,0,4.8-0.1c1.7-0.1,3.4-0.3,5.1-0.6c1.6-0.3,3.2-0.6,4.8-1.1
			c0.2-0.1,0.4-0.1,0.5-0.1c0.1,0,0.4-0.1,0.4-0.3c0.4-4.6,1-8.5,1.2-13.2c0-0.1,0-0.1-0.1-0.2c0.3,0,0.5,0,0.8,0
			c0.2,4.6,0.9,9,1.3,13.5C50.9,53,51,53,51,53c0.3,0.1,0.6,0.2,0.9,0.2c1.6,0.4,3.2,0.8,4.8,1c1.7,0.3,3.4,0.5,5.1,0.6
			c1.6,0.1,3.2,0.1,4.8,0.1c1.7-0.1,3.4-0.2,5.1-0.4c1.6-0.2,3.2-0.4,4.8-0.8c1.7-0.3,3.4-0.7,5.1-1.2c1.6-0.4,3.2-0.9,4.8-1.4
			c1.7-0.5,3.4-1.1,5.1-1.8c0,0,0.1,0,0.1,0c-0.3,0.1,2.5-0.5,4.7-1.3c1.4-0.5,2.5-1.1,2.5-1.6c-0.5-4.1-1.6-8.5-2.5-12.8
			C95.4,29.6,94.6,25.4,94.5,21.4z M86.4,11.7c1.5,3.1,2.8,6.1,3.2,9.6c-1.1-0.1-2.1-0.4-3.2-0.8c-1.6-0.5-3.2-1.2-4.8-2
			c-1.8-0.9-3.5-2-5.1-3c-0.7-0.4-3.3-2.5-4.4-3.3c1.1-0.3,2.2-0.6,3.4-1c0.3-0.1,0.6-0.2,1-0.3c1.4-0.3,3.4-0.8,5.1-1.4
			c1.3-0.5,2.4-1,3-1.7C85.1,9.2,85.7,10.5,86.4,11.7z M41.6,12.2c0-1.1,0-2.1,0-3.2c0.1,0,0.3,0,0.4,0c1.6,0.1,3.2,0.1,4.8,0.1
			c1.7,0,3.4,0,5.1,0C53,9,54,9,55.1,8.9c0.5,0,1.1-0.1,1.6-0.2c1.7-0.2,3.4-0.4,5.1-0.8c1.6-0.3,3.2-0.7,4.8-1.1
			C68.3,6.5,70,6,71.7,5.5c1.3-0.4,2.5-0.7,3.8-1.1c0.3-0.1,0.6-0.2,1-0.3c1.4-0.3,3.3-0.8,5.1-1.4c1.2-0.4,2.2-0.9,2.9-1.5
			c0.2,0.9,0.4,1.9,0.4,2.8c0.1,1-0.3,2-0.4,3c-0.1,0-0.2,0.1-0.3,0.2c-0.3,0.8-1.3,1.4-2.6,2c-1.5,0.6-3.3,1.1-5.1,1.5
			c-2,0.4-3.8,0.8-4.8,1c0,0,0,0,0,0c-1.7,0.5-3.4,0.9-5,1.3c-1.6,0.4-3.2,0.7-4.8,1.1c-1.7,0.3-3.4,0.6-5.1,0.8
			c-0.5,0.1-1,0.2-1.5,0.2c-1.1,0.1-2.2,0.2-3.3,0.2c-1.7,0.1-3.4,0-5.1,0c-1.6,0-3.2-0.1-4.8-0.2c0,0,0,0,0,0
			C41.4,14.3,41.6,13.1,41.6,12.2z M11.2,3.4C11.6,3.7,12,4,12.4,4.3c1.4,0.9,3,1.6,4.8,2.1c1.6,0.4,3.4,0.7,5.1,1
			c1.7,0.2,3.3,0.3,4.8,0.5C28,7.9,28.8,7.9,29.6,8c0.8,0.1,1.7,0.2,2.5,0.2c1.6,0.2,3.2,0.3,4.8,0.4c1.3,0.1,2.6,0.2,3.8,0.3
			c0,1.3,0,2.6,0,4c0,0.8-0.1,1.6,0.2,2.3c-1.4-0.1-2.7-0.2-4.1-0.3c-0.5,0-1-0.1-1.5-0.1c-1-0.1-2.1-0.1-3.3-0.2
			c-1.6-0.1-3.3-0.1-5.1-0.3c-0.7,0-1.3-0.1-2-0.2c-0.1-0.1-0.3-0.1-0.4,0c-0.8-0.1-1.6-0.2-2.4-0.3c-1.8-0.3-3.5-0.6-5.1-1.2
			c-1.8-0.6-3.5-1.4-4.8-2.5c-0.1-0.1-0.2-0.1-0.3-0.2c-0.4-1-0.9-1.9-1-3C11,5.8,11.1,4.6,11.2,3.4z M7.3,19.5
			c0.7-3.3,2.2-6.4,3.8-9.4c0.4,0.4,0.8,0.7,1.3,1c1.4,0.9,3,1.6,4.8,2.1c1.6,0.4,3.4,0.7,5.1,1c0.6,0.1,1.3,0.2,1.9,0.2
			c-0.6,0.4-1.3,0.8-1.9,1.2c-1.6,1-3.3,2.1-5.1,3c-1.6,0.8-3.2,1.5-4.8,2c-1.7,0.5-3.4,0.8-5.1,0.8V19.5z M96.2,47.3
			c-0.6,0.4-1.5,0.7-2.7,1c-0.7,0.2-1.4,0.4-2.1,0.6c-1.7,0.5-3.4,1.2-5.1,1.7c-0.6,0.2-1.3,0.4-1.9,0.6c-1,0.3-1.9,0.5-2.9,0.8
			c-1.7,0.4-3.4,0.8-5.1,1.2c-1.6,0.3-3.2,0.6-4.8,0.8c-1.7,0.2-3.4,0.4-5.1,0.4c-1.6,0.1-3.2,0.1-4.8,0c-1.4-0.1-2.8-0.2-4.2-0.3
			c-0.3,0-0.6-0.1-0.9-0.2c-2.5-0.5-3.9-1.7-4.8-3.2c-1.7-3-1.1-7.5-1.3-11.4c0,0,0,0,0,0c0.4-0.1,0.8-0.2,1.2-0.3
			c1.7-0.6,3.3-1.9,4.8-3.1c0.7-0.5,1.3-1,1.9-1.5c0.2-0.1-0.6,0-0.8,0.1c-0.4,0.3-0.8,0.6-1.2,0.9c-1.5,1.2-3,2.4-4.8,3.1
			c-0.6,0.2-1.2,0.4-1.8,0.5c-0.2,0-0.3,0-0.4,0.1c-0.4,0-0.8,0-1.3,0c-0.6-0.1-1.1-0.2-1.6-0.3c-1.7-0.5-3.3-1.3-4.8-2.3
			c-0.1-0.1-0.2-0.1-0.3-0.2c-0.2-0.1-0.9,0.2-0.8,0.3c0.4,0.2,0.7,0.5,1.1,0.7c1.5,0.9,3.1,1.6,4.8,2c0.4,0.1,0.9,0.2,1.4,0.2
			c-0.2,4.8-0.1,8.3-1.4,10.7c-0.8,1.7-2.3,2.8-4.8,3.6c-1.4,0.4-3,0.7-5.1,0.9c-0.5,0-1,0.1-1.5,0.1c-1.1,0.1-2.2,0-3.3,0
			c-1.7-0.1-3.4-0.3-5.1-0.5c-1.6-0.3-3.2-0.6-4.8-1c-1.7-0.4-3.4-0.8-5.1-1.3c-0.9-0.2-1.9-0.5-2.8-0.7c-0.7-0.2-1.3-0.4-2-0.5
			c-1.7-0.5-3.4-1.1-5.1-1.7c-0.6-0.2-1.3-0.5-1.9-0.7c-1.3-0.5-2.2-0.9-2.9-1.3C0,45.5,1.1,44,1.6,40.2c0.2-1.7,0.5-3.3,0.9-5
			c0.9-4.5,2.2-9,2.3-13.4c0,0,0-0.1-0.1-0.1c0.9,0.1,1.7,0.2,2.6,0.2c1.7,0,3.4-0.3,5.1-0.8c1.6-0.5,3.2-1.2,4.8-2
			c1.8-0.9,3.5-1.9,5.1-2.9c0.9-0.6,1.8-1.2,2.7-1.7c0.7,0.1,1.4,0.1,2.1,0.2c0.9,0.1,1.8,0.1,2.5,0.2c0.8,0.1,1.7,0.2,2.5,0.3
			c1.6,0.2,3.2,0.3,4.8,0.4c1.7,0.1,3.4,0.2,5.1,0.3c1.6,0.1,3.2,0.1,4.8,0.1c1.7,0,3.4,0,5.1,0c1.1,0,2.1-0.1,3.2-0.2
			c0.5,0,1.1-0.1,1.6-0.2c1.7-0.2,3.4-0.4,5.1-0.8c1.6-0.3,3.2-0.7,4.8-1.1c1.5-0.4,3.1-0.8,4.6-1.2c1.1,0.7,4.3,3.3,5.3,3.9
			c1.6,1,3.3,2,5.1,2.9c1.6,0.8,3.2,1.4,4.8,1.9c1.7,0.5,3.4,0.8,5.1,0.7c0.7,0,1.5-0.1,2.2-0.2c0.2,4.7,1.6,9.6,2.6,14.4
			c0.3,1.4,0.6,2.9,0.8,4.3C97.5,43.7,98.7,45.9,96.2,47.3z"/>
		<path fill="#603A17" d="M43.7,13.7c0.8,0.5,2.3,0.4,2.8-0.4c0.6-1.1,0.2-2.3-0.9-2.7c-0.8-0.3-2-0.2-2.4,0.7c0,0.1,0,0.1,0,0.2
			C42.8,12.2,43,13.2,43.7,13.7z"/>
	</g>
</g>
</svg>
