<?xml version="1.0" encoding="utf-8"?>
<!-- Generator: Adobe Illustrator 18.1.1, SVG Export Plug-In . SVG Version: 6.00 Build 0)  -->
<!DOCTYPE svg PUBLIC "-//W3C//DTD SVG 1.1//EN" "http://www.w3.org/Graphics/SVG/1.1/DTD/svg11.dtd">
<svg version="1.1" id="Layer_1" xmlns="http://www.w3.org/2000/svg" xmlns:xlink="http://www.w3.org/1999/xlink" x="0px" y="0px"
	 viewBox="0 0 89.7 146.2" enable-background="new 0 0 89.7 146.2" xml:space="preserve">
<g>
	<path fill="#FAF9E0" d="M46.6,8.5c0.4,0,0.7-0.1,1.1-0.1c0-0.9,0-1.8,0-2.7c-2.1,0.3-4.2,0.4-6.2,0.4C41,6,40.5,6,40,6
		c0.2,1,0.1,2,0.4,3C42.5,8.8,44.6,8.6,46.6,8.5z"/>
	<path fill="#FAF9E0" d="M39.5,9c-0.2-1-0.1-2-0.4-3c-5.9-0.2-15.6-0.6-19.3-4.5c-0.1,1.2-0.3,2.5-0.4,3.7c0.1,0,0.1,0,0.1,0.1
		C24.9,9.2,32.4,9.4,39.5,9z"/>
	<path fill="#FAF9E0" d="M67,4.6c-0.2-1.1-0.3-2.3-0.3-3.6c-2.2,1.6-4.6,2.4-7.4,2.8C55.9,4.2,52.2,5,48.5,5.5c0,0.9,0,1.9,0,2.8
		C54.9,7.8,60.8,7.1,67,4.6C67,4.6,67,4.6,67,4.6z"/>
	<path fill="#EF5286" d="M85.7,44.8c-3.5-1.4-7.5-1.4-11.1-2.8c-2.9-1.1-5.2-3.2-7.8-4.8c-0.4-0.3,0.4-0.7,0.7-0.5
		c3.3,2.1,6.2,4.5,10.1,5.6c2.8,0.8,5.7,0.9,8.4,1.9c0-0.2-0.1-0.4-0.1-0.6c-0.9-8-4.4-15.4-9.4-21.6c-4.5-5.6-8.1-10.2-9.3-16.8
		c-8.7,3.4-17.5,4.1-26.8,4.2c-0.2,0.1-0.7,0.2-0.7,0.1c0,0,0-0.1,0-0.1C32.5,9.5,25.3,10.2,19.2,6c-0.3,2.4-0.7,4.8-1.5,7.2
		c-1,2.9-3.3,4.4-4.9,6.8c-4.9,7.5-8.9,16.5-9.8,25.5c0,0,0,0,0,0c0,0.1,0,0.3-0.1,0.4C9.5,45,15.8,42,20.8,37.6
		c0.3-0.3,1,0,0.6,0.4c-5.2,4.6-11.7,7.7-18.7,8.5c-4.5,22,0,46,5.8,67.3c1.6,6,3.2,12.1,5,18.1c1.2,4.2,0.9,8.4,5.3,9.7
		c10.2,2.9,20.3,4.7,30.9,3.9c8.1-0.6,16.5-1.5,24.2-4.4c1.9-0.7,3.3-9.7,3.8-11.9c1.3-5.1,2.8-10.1,4.1-15.1
		c6-22.3,9.8-46.5,4.2-69.3C86,44.8,85.8,44.8,85.7,44.8z"/>
	<path fill="#603A17" d="M78.4,23.2c-5.7-7.5-10.9-13.1-10.8-23.1c0-0.1-0.9,0-0.9,0.2c0,0.1,0,0.2,0,0.3c-0.1,0-0.2,0-0.2,0.1
		C61.7,4.5,53.8,4,47.8,4.8c-1.6,0.2-4.5,0.5-7.9,0.6c0,0,0-0.1,0-0.1c-0.1-0.1-0.5,0-0.7,0.1c-7.3,0.1-16.5-0.8-19.3-5.2
		c-0.2-0.2-1,0.1-0.9,0.2c0,0,0.1,0.1,0.1,0.1c-0.1,0-0.1,0.1-0.1,0.2c-0.4,3.7-0.8,7.3-1.6,10.9c-0.9,3.9-4.2,6.4-6.3,9.6
		c-4.6,7-8.1,15.8-8.9,24.1c0,0,0,0,0,0C2,45.6,2,45.8,2,46c0,0-0.1,0-0.1,0c-0.5,0-0.7,0.7-0.1,0.7c0,0,0,0,0,0
		c-5.2,25.3,1.5,52.3,8.3,76.5c1.3,4.7,2,14.2,5,18c0.7,0.9,3.8,1.2,4.8,1.5c9.8,2.8,19.6,4,29.8,3.5c8-0.4,16.3-1.7,23.9-4.3
		c4.6-1.6,4.8-11.6,5.8-15.8c7-27.1,14.5-54.7,7.3-82.7C85.9,36,82.8,29.1,78.4,23.2z M48.5,5.5c3.7-0.5,7.4-1.3,10.8-1.7
		c2.8-0.4,5.2-1.1,7.4-2.8c0,1.3,0.1,2.4,0.3,3.6c0,0,0,0-0.1,0c-6.2,2.5-12,3.2-18.5,3.7C48.5,7.4,48.5,6.5,48.5,5.5z M41.4,6
		c2,0.1,4.1-0.1,6.2-0.4c0,0.9,0,1.8,0,2.7c-0.4,0-0.7,0.1-1.1,0.1c-1.9,0.1-4,0.3-6.2,0.5c-0.3-1-0.2-2-0.4-3C40.5,6,41,6,41.4,6z
		 M19.8,1.4C23.5,5.4,33.2,5.8,39.1,6c0.3,1,0.1,2,0.4,3c-7,0.4-14.6,0.2-20-3.8c0,0-0.1,0-0.1-0.1C19.5,3.9,19.6,2.7,19.8,1.4z
		 M81.9,114c-1.3,5.1-2.8,10.1-4.1,15.1c-0.6,2.2-1.9,11.2-3.8,11.9c-7.6,3-16.1,3.8-24.2,4.4c-10.6,0.8-20.7-1-30.9-3.9
		c-4.5-1.3-4.1-5.4-5.3-9.7c-1.7-6-3.3-12.1-5-18.1C2.7,92.6-1.8,68.5,2.7,46.5c6.9-0.8,13.4-3.9,18.7-8.5c0.4-0.4-0.2-0.7-0.6-0.4
		C15.8,42,9.5,45,2.9,45.9c0-0.1,0-0.3,0.1-0.4c0,0,0,0,0,0c0.9-9,4.9-18,9.8-25.5c1.6-2.4,3.9-3.9,4.9-6.8c0.8-2.3,1.2-4.7,1.5-7.2
		c6,4.2,13.3,3.5,20.3,3.4c0,0,0,0.1,0,0.1c0.1,0.1,0.5,0,0.7-0.1c9.3-0.1,18.2-0.7,26.8-4.2c1.2,6.6,4.8,11.2,9.3,16.8
		c5,6.2,8.5,13.6,9.4,21.6c0.1,0.2,0.1,0.4,0.1,0.6c-2.7-1-5.6-1.1-8.4-1.9c-3.9-1.1-6.8-3.5-10.1-5.6c-0.3-0.2-1.1,0.2-0.7,0.5
		c2.6,1.6,4.9,3.7,7.8,4.8c3.6,1.4,7.5,1.4,11.1,2.8c0.1,0,0.3,0,0.4-0.1C91.7,67.5,87.9,91.7,81.9,114z"/>
</g>
</svg>
