<?xml version="1.0" encoding="utf-8"?>
<!-- Generator: Adobe Illustrator 18.1.1, SVG Export Plug-In . SVG Version: 6.00 Build 0)  -->
<!DOCTYPE svg PUBLIC "-//W3C//DTD SVG 1.1//EN" "http://www.w3.org/Graphics/SVG/1.1/DTD/svg11.dtd">
<svg version="1.1" id="Layer_1" xmlns="http://www.w3.org/2000/svg" xmlns:xlink="http://www.w3.org/1999/xlink" x="0px" y="0px"
	 viewBox="0 0 121.2 91.4" enable-background="new 0 0 121.2 91.4" xml:space="preserve">
<g>
	<path fill="#6DBD46" d="M119.8,82.8c-3.2,2.6-10.6,2.4-14.4,2.7c-3.7,0.3-5.1-1.9-8.4-2.6c-6.1-1.3-7.4,1.8-9.9,4.4
		c-0.7,0.7-1.4,1.4-2.4,2c-0.2,0.1-0.5,0.3-0.7,0.4c-4,1.8-10.5,1.7-14.5,1.7c-0.9,0-2.1-0.2-3.1-0.6c-0.4-0.2-0.8-0.4-1.1-0.7
		c-0.5-0.5-1.1-1.4-1.8-2.2c-0.6-0.8-1.2-1.5-1.8-1.7c-4-1.4-6.5,0.9-9.6,2.4c-1.5,0.7-3,1.3-4.6,1.2c-0.4,0-0.7-0.1-1.1-0.1
		c-1.4-0.1-2.7-0.2-4.1-0.4c-1.5-0.2-3-0.4-4.5-0.8C35.9,88,34,87,32.4,85.9c-4.5-2.9-10.1-1.2-14.8,0.5c-1.8,0.7-3.4,0.8-5.3,0.7
		C9.6,86.9,7,85.8,5.1,84c-2-1.8-1.5-5.7-5-5.9c-0.2,0,0.2-0.2,0.3-0.2c0,0,0,0,0,0c0.4-2.2,1.9-3.9,3.2-5.7
		c1.3-1.7,2.1-3.7,3.3-5.5c-1.5-2.2-3.4-4.4-5.7-2.8c0,0,0,0,0,0c0,0,0,0.1,0,0.1c-0.1,0.1-0.6,0.2-0.5,0c2.2-4,5.1-7.4,7.9-11
		c0.8-0.9,1.6-1.9,2.5-2.8c0.7-0.7,1.5-1.3,2.4-1.8c0,0,0,0,0,0c0-1.1,0.1-2.1,0.1-3.2c0.1-1.9,0.1-3.8,0.3-5.7
		c0.1-1.3,0.2-2.5,0.3-3.8c0.5-4.9,1.5-9.8,3.4-14.3c1-2.3,2-4.6,3.2-6.9c0.7-1.3,1.5-2.6,2.4-3.8c0,0,0,0,0,0c2-2.6,7.5-6.7,7.9-10
		c0-0.2,0.2-0.2,0.4-0.2c0.3,0.1,0.5,0.1,0.8,0.2c1.8,0.5,3.5,0.8,5.3,1.2c5.8,1,11.5,1.4,17.3,1.3c1.7,0,3.5-0.1,5.2-0.2
		c5.7-0.3,11.5-1,17.2-1.8c1.8-0.2,3.6-0.5,5.3-0.7c1.3-0.2,2.5-0.3,3.8-0.5c0.1,0,0.2,0,0.2,0.1c0.5,4,7,7.9,9.1,11.4
		c2,3.4,4,6.9,5.4,10.6c0,0,0,0.1,0,0.1c0.6,1.6,1.1,3.2,1.5,4.8c1.5,5.8,2,11.7,2.3,17.7c0,0.5,0.1,1,0.1,1.6c0,0.4,0,0.9,0.1,1.3
		c0,0.1,0,0.1-0.1,0.1c0.2,0.3,0.3,0.6,0.5,0.8c0.2,0.4,0.5,0.7,0.7,1c1.8,2.4,4.2,4.4,6.6,6.4c0.7,0.6,1.4,1.2,2.1,1.8
		c0.7,0.6,1.4,1.2,2,1.9c0.1,0.1,0.2,0.2,0.2,0.2c1.1,1.1,2.1,2.3,2.8,3.6c0,0,0,0,0,0c0.1,0,0.2,0,0.1,0.1c-1.2,3-3.8,3.4-6.7,3.7
		c2.6,2.9,4.3,6.2,6.1,9.6C120.8,79.4,122.4,80.8,119.8,82.8z"/>
	<path fill="#45A2BB" d="M106.5,70.3c-1,0-1.8-0.7-2-1.6c-1.4,0.3-2.7,0.5-4.1,0.5c-1.3,0-2.7-0.2-4.4-0.7c-1.7-0.5-1.9-2.5-3.3-1.6
		c-1.5,1-3,2.2-4.6,3.3c0.5,0.8,0.7,1.7,1.4,2.5c1,1.3,2.1,2.5,3.2,3.7c0.5,0.5,1,1,1.5,1.5c0.3-0.8,1-1.3,1.9-1.3
		c1.1,0,2.1,0.9,2.1,2.1c0,0.9-0.6,1.7-1.4,1.9c0.5,0.6,0.9,1.3,1.3,2c0,0,0,0.1-0.1,0.1c0,0,0,0,0.1,0c4.2,3.1,7.8,2.7,12.6,2
		c2-0.3,11.2-0.9,9.8-4.6c-0.4-1.1-1-2.1-1.6-3.1c-1.9-3.4-3.6-6.8-6.2-9.7c-0.7,0.1-1.3,0.1-2,0.2c-0.8,0.1-1.5,0.2-2.2,0.3
		c0,0.1,0,0.3,0,0.4C108.6,69.3,107.7,70.3,106.5,70.3z M116.9,76.4c1.1,0,2.1,0.9,2.1,2.1c0,1.1-0.9,2.1-2.1,2.1
		c-1.1,0-2.1-0.9-2.1-2.1C114.8,77.4,115.8,76.4,116.9,76.4z"/>
	<path fill="#45A2BB" d="M104.2,44.3c-0.3-5.8-0.7-11.8-2.2-17.4c-0.3-1-0.6-2-1-3c-0.2-0.5-0.4-0.9-0.6-1.4
		c-0.8-1.9-1.7-3.6-2.6-5.3c-0.3,0.8-1,1.3-1.9,1.3c-1.1,0-2.1-0.9-2.1-2.1c0-1.1,0.9-2.1,2.1-2.1c0.1,0,0.1,0,0.2,0
		c-2.1-3.2-4.6-6.2-7.2-9.1c-0.4-0.4-3.1-4.8-2.8-4.9c-1.2,0.1-2.4,0.3-3.5,0.4c0,0-0.1,0-0.1,0C80.7,1,78.9,1.3,77,1.5
		C73,2,69,2.4,64.9,2.9c-1.8,0.2-3.5,0.4-5.3,0.5c-1.6,0.1-3.2,0.2-4.7,0.2C49,3.7,43.2,3.4,37.3,2.3c-1.5-0.3-2.9-0.6-4.4-0.9
		c-0.5-0.1-0.8-0.2-1-0.3C31.6,1,31.5,1,31.4,1.2c-0.9,2.1-2.6,4-4.1,5.7c-1.1,1.2-2.2,2.6-3.2,4c-1,1.4-2.1,2.9-3,4.4
		c-2.4,4-4.3,8.3-5.2,12.6c-0.2,0.8-0.7,4.3-1.2,8.2c0.3,0.4,0.5,0.8,0.5,1.4c0,0.7-0.4,1.3-0.9,1.7c-0.3,2.3-0.5,4.4-0.6,6.1
		c-0.1,1.7-0.1,2.9,0.2,2.9c0.4,0.1,0.7,0.1,1.1,0.2c2.5,0.4,4.9,0.9,7.4,1.2c0.1,0,0.1,0,0.2,0c-0.7-0.3-1.2-1-1.2-1.8
		c0-1.1,0.9-2.1,2.1-2.1c1.1,0,2.1,0.9,2.1,2.1c0,1-0.7,1.9-1.7,2c5.2,0.8,10.5,1.5,15.7,2c0.1,0,0.3,0,0.3,0c0,0,0,0,0,0
		c7.5,0.8,15.1,1.2,22.6,1c12.6-0.4,25.4-2.6,37.9-4.8c1.3-0.2,2.6-0.5,3.9-0.7c0,0,0-0.1,0-0.1C104.3,46.3,104.3,45.3,104.2,44.3z
		 M23.4,29.2c-1.1,0-2.1-0.9-2.1-2.1c0-1.1,0.9-2.1,2.1-2.1c1.1,0,2.1,0.9,2.1,2.1C25.5,28.2,24.6,29.2,23.4,29.2z M33.7,14.6
		c1.1,0,2.1,0.9,2.1,2.1c0,1.1-0.9,2.1-2.1,2.1c-1.1,0-2.1-0.9-2.1-2.1C31.7,15.5,32.6,14.6,33.7,14.6z M33.8,39.5
		c-1.1,0-2.1-0.9-2.1-2.1c0-1.1,0.9-2.1,2.1-2.1c1.1,0,2.1,0.9,2.1,2.1C35.9,38.5,35,39.5,33.8,39.5z M44,4.2c1.1,0,2.1,0.9,2.1,2.1
		c0,1.1-0.9,2.1-2.1,2.1c-1.1,0-2.1-0.9-2.1-2.1C42,5.1,42.9,4.2,44,4.2z M44.1,24.9c1.1,0,2.1,0.9,2.1,2.1c0,1.1-0.9,2.1-2.1,2.1
		c-1.1,0-2.1-0.9-2.1-2.1C42.1,25.9,43,24.9,44.1,24.9z M44.2,49.8c-1.1,0-2.1-0.9-2.1-2.1c0-1.1,0.9-2.1,2.1-2.1
		c1.1,0,2.1,0.9,2.1,2.1C46.3,48.9,45.4,49.8,44.2,49.8z M54.5,14.5c1.1,0,2.1,0.9,2.1,2.1c0,1.1-0.9,2.1-2.1,2.1
		c-1.1,0-2.1-0.9-2.1-2.1C52.4,15.5,53.3,14.5,54.5,14.5z M54.6,39.4c-1.1,0-2.1-0.9-2.1-2.1c0-1.1,0.9-2.1,2.1-2.1
		c1.1,0,2.1,0.9,2.1,2.1C56.6,38.5,55.7,39.4,54.6,39.4z M64.8,4.1c1.1,0,2.1,0.9,2.1,2.1c0,1.1-0.9,2.1-2.1,2.1
		c-1.1,0-2.1-0.9-2.1-2.1C62.7,5,63.6,4.1,64.8,4.1z M64.9,24.8c1.1,0,2.1,0.9,2.1,2.1c0,1.1-0.9,2.1-2.1,2.1
		c-1.1,0-2.1-0.9-2.1-2.1C62.8,25.8,63.7,24.8,64.9,24.8z M65,49.7c-1.1,0-2.1-0.9-2.1-2.1c0-1.1,0.9-2.1,2.1-2.1
		c1.1,0,2.1,0.9,2.1,2.1C67,48.8,66.1,49.7,65,49.7z M75.2,14.4c1.1,0,2.1,0.9,2.1,2.1c0,1.1-0.9,2.1-2.1,2.1
		c-1.1,0-2.1-0.9-2.1-2.1C73.1,15.4,74,14.4,75.2,14.4z M75.3,39.3c-1.1,0-2.1-0.9-2.1-2.1c0-1.1,0.9-2.1,2.1-2.1
		c1.1,0,2.1,0.9,2.1,2.1C77.4,38.4,76.4,39.3,75.3,39.3z M85.5,4c1.1,0,2.1,0.9,2.1,2.1c0,1.1-0.9,2.1-2.1,2.1s-2.1-0.9-2.1-2.1
		C83.4,5,84.4,4,85.5,4z M85.6,24.8c1.1,0,2.1,0.9,2.1,2.1c0,1.1-0.9,2.1-2.1,2.1c-1.1,0-2.1-0.9-2.1-2.1
		C83.5,25.7,84.4,24.8,85.6,24.8z M85.7,49.6c-1.1,0-2.1-0.9-2.1-2.1c0-1.1,0.9-2.1,2.1-2.1c1.1,0,2.1,0.9,2.1,2.1
		C87.8,48.7,86.8,49.6,85.7,49.6z M96,39.2c-1.1,0-2.1-0.9-2.1-2.1c0-1.1,0.9-2.1,2.1-2.1c1.1,0,2.1,0.9,2.1,2.1
		C98.1,38.3,97.2,39.2,96,39.2z"/>
	<path fill="#45A2BB" d="M44.4,87.1c1.1,0,2,0.8,2.1,1.9c2.4,0.1,5,0,6-1.5c0.1-0.1,0.2-0.2,0.3-0.4c0.4-1.1,0.9-2.3,1.4-3.4
		c0.4-1,1.3-2.1,1.5-3.2c-0.3,0.1-0.6,0.2-0.9,0.2c-1.1,0-2.1-0.9-2.1-2.1c0-1.1,0.9-2.1,2.1-2.1c0.4,0,0.8,0.1,1.1,0.3
		c0-1-0.1-1.9-0.1-2.9c-1.7,0-3.4-0.2-5.2-0.8c-1.4-0.4-2.3-1.6-3.6-2.1c-5.5-2.2-6.8,0.8-9.5,3c-1.2,1-2.9,1.3-4.4,1.7
		c-5.4,1.3-11.4-1.2-16.4-2.9c-0.7-0.2-1.5-0.5-2.3-0.7c-1.7-0.5-3.3-1.2-4.7-2.2c-0.1-0.1-0.3-0.2-0.4-0.3c-0.7-0.6-1.4-1.8-2.3-3
		c-1.1,1.9-2.1,3.8-3.4,5.6c-1.2,1.6-2.4,3.2-2.8,5.2c0,0.1-0.2,0.1-0.3,0.1c1.7,0.2,2.6,1.3,3.4,2.8c1.7,3.3,3.5,5.4,7.4,6
		c6.6,1,12.1-4.4,18.7-2.5c1.5,0.4,2.8,1.7,4.1,2.4c2.7,1.4,5.2,2.2,8.2,2.3C42.5,87.9,43.4,87.1,44.4,87.1z M13.3,81
		c-1.1,0-2.1-0.9-2.1-2.1c0-1.1,0.9-2.1,2.1-2.1c1.1,0,2.1,0.9,2.1,2.1C15.3,80.1,14.4,81,13.3,81z M34,80.9c-1.1,0-2.1-0.9-2.1-2.1
		c0-1.1,0.9-2.1,2.1-2.1c1.1,0,2.1,0.9,2.1,2.1C36.1,80,35.1,80.9,34,80.9z"/>
	<path fill="#45A2BB" d="M94.1,78.6c0-0.1,0-0.2,0-0.4c-0.8-0.8-1.7-1.6-2.5-2.5c-1.5-1.6-3.5-3.4-3.6-5.6c0,0-0.1,0-0.1,0.1
		c-4.5,3.2-9.1,6-14,4.1c-3.7-1.4-7.4-1.1-11.2-0.7c-0.1,0.7-0.4,1.3-0.5,2c-0.1,1.7,0.1,3.2,0.3,4.8c0.3,2.2,0.8,4.6,1.6,6.8
		c0.3-0.1,0.6-0.2,0.9-0.2c1.1,0,2.1,0.9,2.1,2.1c0,0.5-0.2,1-0.5,1.3c0.5,0.3,1,0.5,1.6,0.6c2.9,0.4,11.6,0.5,15.6-1.4
		c-0.1-0.2-0.1-0.4-0.1-0.6c0-1.1,0.9-2.1,2.1-2.1c0.2,0,0.3,0,0.4,0c1.6-2.4,4.1-4.2,7-4.7c1.3-0.2,2.9-0.5,4.3,0.1
		c-0.3-0.6-0.7-1.1-1.1-1.6c-0.1,0-0.1,0-0.2,0C95,80.7,94.1,79.8,94.1,78.6z M75.5,80.8c-1.1,0-2.1-0.9-2.1-2.1
		c0-1.1,0.9-2.1,2.1-2.1c1.1,0,2.1,0.9,2.1,2.1C77.5,79.8,76.6,80.8,75.5,80.8z"/>
	<path fill="#45A2BB" d="M62.8,73c1.9-0.2,3.8-0.3,5.7-0.3c2.7,0.1,4.5,1.7,7.2,1.7c6.1,0,11.8-3.9,15.6-7.6
		c1.1-1.1,2.9-0.4,4.5,0.4c-2.6-2.6-4.9-5.4-7.4-8.1c-2.2-2.4-6.8-4.2-7.9-7.5c0,0,0,0,0-0.1c-4.9,0.7-9.8,1.2-14.7,1.5
		c-8.4,0.6-17,0.3-25.6-0.6c0.6,1.4,1.5,2.6,1.8,4.2c0.6,2.6,0.7,5.2,0.7,7.9c0,3.7-2.3,5.7-4.4,8.4c0.5-0.4,0.9-0.8,1.4-1.2
		c0.6-0.6,1.7-1.2,2.5-1.3c0.5-0.1,1-0.1,1.5,0c-0.8-0.3-1.5-1-1.5-2c0-1.1,0.9-2.1,2.1-2.1c1.1,0,2.1,0.9,2.1,2.1
		c0,1.1-0.8,1.9-1.8,2.1c4.2,0.5,7.6,3.2,12.3,3c1.9-0.1,3.8-0.3,5.6-0.5C62.6,73,62.7,73,62.8,73z M85.8,66.2
		c1.1,0,2.1,0.9,2.1,2.1c0,1.1-0.9,2.1-2.1,2.1c-1.1,0-2.1-0.9-2.1-2.1C83.7,67.1,84.6,66.2,85.8,66.2z M75.4,55.9
		c1.1,0,2.1,0.9,2.1,2.1c0,1.1-0.9,2.1-2.1,2.1c-1.1,0-2.1-0.9-2.1-2.1C73.3,56.8,74.2,55.9,75.4,55.9z M65,66.3
		c1.1,0,2.1,0.9,2.1,2.1c0,1.1-0.9,2.1-2.1,2.1c-1.1,0-2.1-0.9-2.1-2.1C63,67.2,63.9,66.3,65,66.3z M54.6,60.1
		c-1.1,0-2.1-0.9-2.1-2.1c0-1.1,0.9-2.1,2.1-2.1c1.1,0,2.1,0.9,2.1,2.1C56.7,59.2,55.8,60.1,54.6,60.1z"/>
	<path fill="#45A2BB" d="M42.1,61.5c-0.3-3.5-1.5-5.9-2.6-9.1c-8.3-0.8-16.6-2.2-24.7-3.7c-0.4-0.1-0.8-0.1-1.2-0.2
		c-0.9,0.5-1.7,1.1-2.4,1.8c-1.6,1.5-3.1,3.5-4.3,5.1c-2.1,2.5-4,5.1-5.6,8c1.9-1,4-0.8,5.3,1.1c0.4,0.6,0.6,1.2,0.7,1.9
		c0.2,0.9,0.4,1.8,1.3,2.6c0.3,0.3,0.7,0.5,1,0.8c1.3,0.9,2.7,1.6,4.2,2.2c0.3,0.1,0.5,0.2,0.8,0.3c3.1,1.1,6.3,2.2,9.5,3
		c4.9,1.1,9.4,1.1,13.2-1.6c0.9-1.3,2-2.4,2.9-3.7C42.3,67.3,42.4,64.8,42.1,61.5z M13.2,60.3c-1.1,0-2.1-0.9-2.1-2.1
		c0-1.1,0.9-2.1,2.1-2.1c1.1,0,2.1,0.9,2.1,2.1C15.3,59.4,14.3,60.3,13.2,60.3z M23.6,70.6c-1.1,0-2.1-0.9-2.1-2.1
		c0-1.1,0.9-2.1,2.1-2.1c1.1,0,2.1,0.9,2.1,2.1C25.7,69.7,24.7,70.6,23.6,70.6z M33.9,60.2c-1.1,0-2.1-0.9-2.1-2.1
		c0-1.1,0.9-2.1,2.1-2.1c1.1,0,2.1,0.9,2.1,2.1C36,59.3,35.1,60.2,33.9,60.2z"/>
	<path fill="#45A2BB" d="M114.9,58.4c-0.8-0.8-1.7-1.5-2.6-2.2c-2.7-2.2-5.4-4.4-7.2-7.2c-0.3-0.3-0.5-0.6-0.6-1
		c0-0.1-0.1-0.1-0.1-0.2c-1.2,0.2-2.5,0.4-3.7,0.6c-6.5,1.1-13.1,2.2-19.7,3.1c0.6,1.7,2.3,2.8,3.7,3.9c1.6,1.2,3.1,2.5,4.5,4
		c0.1,0.2,0.3,0.3,0.4,0.5c0.3,0.3,0.6,0.7,0.9,1c2.1,2.4,4.2,4.8,6.5,7.1c0,0,0,0,0,0c0.8,0.4,1.5,0.8,2,0.9c0.5,0.1,1,0.1,1.5,0.1
		c1.5,0,2.7-0.5,4-0.9c0.1-1,1-1.9,2-1.9c0.7,0,1.4,0.4,1.8,1c3.2-0.3,9.6,0.2,11.2-3.4c0,0-0.1,0-0.1,0c-0.8-1.3-1.8-2.5-2.9-3.6
		c-0.1-0.1-0.1-0.1-0.2-0.2C115.6,59.6,115.1,59.1,114.9,58.4z M96.1,59.9C95,59.9,94,59,94,57.9c0-1.1,0.9-2.1,2.1-2.1
		c1.1,0,2.1,0.9,2.1,2.1C98.2,59,97.2,59.9,96.1,59.9z"/>
	<path fill="#45A2BB" d="M56.3,80.1c-0.1,0.4-0.2,0.9-0.4,1.2c-0.8,1.8-1.8,3.5-2.5,5.3c1.9-1,5.3-1.2,7.1-1.3
		c1.3-0.1,2.3,0.7,3.1,1.6c-0.8-2.4-1.3-4.9-1.6-7.4c-0.1-1.3-0.4-2.7-0.2-4c0.1-0.5,0.4-1.3,0.5-2c-2.1,0.2-4.1,0.5-6.2,0.5
		c0,1,0.2,2.2,0.2,3.4c0.2,0.3,0.4,0.7,0.4,1.2C56.8,79.3,56.6,79.8,56.3,80.1z"/>
	<circle fill="#ECBE3B" cx="44.1" cy="6.3" r="2.1"/>
	<circle fill="#ECBE3B" cx="64.8" cy="6.2" r="2.1"/>
	<circle fill="#ECBE3B" cx="85.5" cy="6.1" r="2.1"/>
	<circle fill="#ECBE3B" cx="33.7" cy="16.7" r="2.1"/>
	<circle fill="#ECBE3B" cx="54.5" cy="16.6" r="2.1"/>
	<circle fill="#ECBE3B" cx="75.2" cy="16.5" r="2.1"/>
	<path fill="#ECBE3B" d="M93.8,16.4c0,1.1,0.9,2.1,2.1,2.1c0.9,0,1.6-0.5,1.9-1.3c-0.6-1-1.2-1.9-1.8-2.8c-0.1,0-0.1,0-0.2,0
		C94.8,14.3,93.8,15.3,93.8,16.4z"/>
	<path fill="#ECBE3B" d="M15.2,37.5c0-0.5-0.2-1-0.5-1.4c-0.1,1-0.3,2-0.4,3.1C14.8,38.8,15.2,38.2,15.2,37.5z"/>
	<circle fill="#ECBE3B" cx="33.8" cy="37.4" r="2.1"/>
	<circle fill="#ECBE3B" cx="54.5" cy="37.3" r="2.1"/>
	<circle fill="#ECBE3B" cx="75.3" cy="37.2" r="2.1"/>
	<circle fill="#ECBE3B" cx="96" cy="37.1" r="2.1"/>
	<circle fill="#ECBE3B" cx="13.2" cy="58.2" r="2.1"/>
	<circle fill="#ECBE3B" cx="33.9" cy="58.1" r="2.1"/>
	<circle fill="#ECBE3B" cx="54.6" cy="58" r="2.1"/>
	<circle fill="#ECBE3B" cx="75.4" cy="58" r="2.1"/>
	<circle fill="#ECBE3B" cx="96.1" cy="57.9" r="2.1"/>
	<path fill="#ECBE3B" d="M116.3,59.8c-0.5-0.5-1-0.9-1.5-1.4C115.1,59.1,115.6,59.6,116.3,59.8z"/>
	<circle fill="#ECBE3B" cx="13.3" cy="78.9" r="2.1"/>
	<circle fill="#ECBE3B" cx="34" cy="78.9" r="2.1"/>
	<path fill="#ECBE3B" d="M56.3,80.1c0.3-0.4,0.5-0.8,0.5-1.4c0-0.4-0.1-0.8-0.4-1.2C56.5,78.5,56.4,79.3,56.3,80.1z"/>
	<path fill="#ECBE3B" d="M52.7,78.8c0,1.1,0.9,2.1,2.1,2.1c0.3,0,0.6-0.1,0.9-0.2c0,0,0,0,0,0c0.2-1.2,0.2-2.4,0.2-3.6
		c-0.3-0.2-0.7-0.3-1.1-0.3C53.6,76.7,52.6,77.6,52.7,78.8z"/>
	<circle fill="#ECBE3B" cx="75.4" cy="78.7" r="2.1"/>
	<path fill="#ECBE3B" d="M94.1,78.6c0,1.1,0.9,2.1,2.1,2.1c0.1,0,0.1,0,0.2,0c-0.7-0.8-1.4-1.6-2.2-2.4
		C94.1,78.4,94.1,78.5,94.1,78.6z"/>
	<path fill="#ECBE3B" d="M98.3,78.6c0-1.1-0.9-2.1-2.1-2.1c-0.9,0-1.6,0.5-1.9,1.3c0.9,0.9,1.8,1.7,2.6,2.7
		C97.7,80.3,98.3,79.5,98.3,78.6z"/>
	<circle fill="#ECBE3B" cx="116.9" cy="78.5" r="2.1"/>
	<circle fill="#ECBE3B" cx="23.4" cy="27.1" r="2.1"/>
	<circle fill="#ECBE3B" cx="44.1" cy="27" r="2.1"/>
	<circle fill="#ECBE3B" cx="64.9" cy="26.9" r="2.1"/>
	<circle fill="#ECBE3B" cx="85.6" cy="26.8" r="2.1"/>
	<path fill="#ECBE3B" d="M25.6,47.8c0-1.1-0.9-2.1-2.1-2.1c-1.1,0-2.1,0.9-2.1,2.1c0,0.8,0.5,1.5,1.2,1.8c0.4,0.1,0.8,0.1,1.3,0.2
		C24.8,49.7,25.6,48.8,25.6,47.8z"/>
	<circle fill="#ECBE3B" cx="44.2" cy="47.7" r="2.1"/>
	<circle fill="#ECBE3B" cx="65" cy="47.6" r="2.1"/>
	<circle fill="#ECBE3B" cx="85.7" cy="47.6" r="2.1"/>
	<path fill="#ECBE3B" d="M104.9,48.9c-0.2-0.3-0.4-0.6-0.5-0.9c0.1,0.4,0.3,0.8,0.6,1C105,49,105,48.9,104.9,48.9z"/>
	<path fill="#ECBE3B" d="M104.4,47.3C104.4,47.3,104.3,47.4,104.4,47.3C104.4,47.4,104.4,47.4,104.4,47.3
		C104.4,47.4,104.4,47.3,104.4,47.3z"/>
	<circle fill="#ECBE3B" cx="23.6" cy="68.5" r="2.1"/>
	<path fill="#ECBE3B" d="M46.4,68.4c0-1.1-0.9-2.1-2.1-2.1c-1.1,0-2.1,0.9-2.1,2.1c0,0.9,0.6,1.7,1.5,2c0.3,0,0.6,0,0.9,0.1
		C45.6,70.4,46.4,69.5,46.4,68.4z"/>
	<circle fill="#ECBE3B" cx="65" cy="68.4" r="2.1"/>
	<circle fill="#ECBE3B" cx="85.8" cy="68.3" r="2.1"/>
	<path fill="#ECBE3B" d="M106.5,66.1c-1.1,0-1.9,0.8-2,1.9c0.3-0.1,0.6-0.2,0.9-0.3c0.8-0.2,1.6-0.5,2.4-0.6c0.2,0,0.3,0,0.5,0
		C107.9,66.5,107.2,66.1,106.5,66.1z"/>
	<path fill="#ECBE3B" d="M104.5,68.7c0.2,0.9,1,1.6,2,1.6c1.1,0,2.1-0.9,2.1-2.1c0-0.1,0-0.3,0-0.4c-1,0.2-1.9,0.4-2.8,0.6
		C105.3,68.5,104.9,68.6,104.5,68.7z"/>
	<path fill="#ECBE3B" d="M46.5,89c-0.1-1.1-1-1.9-2.1-1.9c-1,0-1.9,0.7-2,1.7c0.1,0,0.2,0,0.4,0C43.6,88.8,45,89,46.5,89z"/>
	<path fill="#ECBE3B" d="M65.1,87c-0.3,0-0.6,0.1-0.9,0.2c0.1,0.4,0.3,0.7,0.4,1.1c0.6,0.8,1.3,1.6,2.1,2.1c0.3-0.4,0.5-0.8,0.5-1.3
		C67.2,87.9,66.3,87,65.1,87z"/>
	<path fill="#ECBE3B" d="M83.8,89c0,0.2,0,0.4,0.1,0.6c0.8-0.4,1.5-0.9,1.8-1.5c0.2-0.4,0.4-0.7,0.6-1.1c-0.1,0-0.3,0-0.4,0
		C84.7,86.9,83.8,87.9,83.8,89z"/>
	<path fill="#3B2416" d="M113.3,67.2c2.8-0.3,5.4-0.7,6.7-3.7c0-0.1-0.1-0.1-0.1-0.1c0,0,0,0,0,0c-0.8-1.3-1.8-2.5-2.8-3.6
		c-0.1,0-0.1,0-0.2,0c-0.2,0-0.4,0-0.5-0.1c0.1,0.1,0.1,0.1,0.2,0.2c1.1,1.1,2.1,2.3,2.9,3.6c0,0,0,0,0.1,0c-1.6,3.7-8,3.2-11.2,3.4
		c0.1,0.2,0.2,0.4,0.3,0.7c0.7-0.1,1.4-0.3,2.2-0.3c0.7-0.1,1.3-0.1,2-0.2c2.6,2.9,4.3,6.3,6.2,9.7c0.6,1,1.2,2,1.6,3.1
		c1.4,3.7-7.7,4.4-9.8,4.6c-4.8,0.6-8.5,1-12.6-2c0,0,0,0-0.1,0c0.1,0,0.1-0.1,0.1-0.1c-0.4-0.7-0.8-1.4-1.3-2
		c-0.2,0.1-0.3,0.1-0.5,0.1c0.4,0.5,0.8,1.1,1.1,1.6c-1.3-0.5-2.9-0.3-4.3-0.1c-2.8,0.5-5.4,2.3-7,4.7c0.3,0.1,0.6,0.2,0.8,0.4
		c2.5-2.7,3.8-5.8,9.9-4.4c3.3,0.7,4.7,2.9,8.4,2.6c3.8-0.3,11.2-0.2,14.4-2.7c2.6-2.1,1-3.4-0.4-6
		C117.6,73.4,115.9,70.1,113.3,67.2z"/>
	<path fill="#3B2416" d="M68.3,91c-0.6-0.1-1.1-0.3-1.6-0.6c-0.1,0.1-0.2,0.2-0.4,0.3c1,0.5,2.2,0.6,3.1,0.6c4,0,10.5,0.1,14.5-1.7
		c0,0,0-0.1,0-0.1C79.9,91.5,71.3,91.4,68.3,91z"/>
	<path fill="#3B2416" d="M112.3,56.2c0.9,0.7,1.7,1.5,2.6,2.2c-0.1-0.2-0.1-0.4-0.1-0.6c0,0,0-0.1,0-0.1c-0.7-0.6-1.4-1.2-2.1-1.8
		c-2.4-2-4.8-4-6.6-6.4c-0.4-0.1-0.7-0.2-0.9-0.5C106.9,51.8,109.6,54,112.3,56.2z"/>
	<path fill="#3B2416" d="M15.8,27.9c0.9-4.3,2.8-8.6,5.2-12.6c0.9-1.5,1.9-3,3-4.4c1-1.4,2.1-2.7,3.2-4c1.5-1.7,3.2-3.6,4.1-5.7
		C31.5,1,31.6,1,31.9,1.1c0.2,0.1,0.5,0.2,1,0.3c1.5,0.4,2.9,0.7,4.4,0.9C43.2,3.4,49,3.7,54.9,3.6c1.6,0,3.1-0.1,4.7-0.2
		c1.8-0.1,3.5-0.3,5.3-0.5C69,2.4,73,2,77,1.5c1.8-0.2,3.6-0.4,5.4-0.6c0,0,0,0,0.1,0c1.2-0.1,2.4-0.3,3.5-0.4
		c-0.3,0,2.5,4.5,2.8,4.9c2.6,2.9,5.1,5.9,7.2,9.1c1.1,0.1,1.9,1,1.9,2c0,0.3-0.1,0.5-0.2,0.8c1,1.7,1.9,3.5,2.6,5.3
		c0.2,0.5,0.4,0.9,0.6,1.4c0.4,1,0.7,2,1,3c1.5,5.6,1.9,11.6,2.2,17.4c0.1,1,0.1,2,0.1,3c0-0.4,0.2-0.8,0.4-1.1c0-0.5-0.1-1-0.1-1.6
		c-0.3-5.9-0.8-11.9-2.3-17.7c-0.4-1.6-0.9-3.2-1.5-4.8c0,0,0-0.1,0-0.1c-1.4-3.7-3.4-7.2-5.4-10.6C93.5,8,87,4.2,86.4,0.1
		C86.4,0,86.3,0,86.2,0c-1.3,0.2-2.5,0.3-3.8,0.5c-1.8,0.2-3.6,0.5-5.3,0.7c-5.8,0.7-11.5,1.4-17.2,1.8c-1.7,0.1-3.5,0.2-5.2,0.2
		c-5.8,0.1-11.6-0.2-17.3-1.3c-1.8-0.3-3.5-0.7-5.3-1.2c-0.3-0.1-0.5-0.1-0.8-0.2c-0.1,0-0.4,0-0.4,0.2C30.5,4,25,8.2,23,10.8
		c0,0,0,0,0,0c-0.9,1.2-1.7,2.4-2.4,3.8c-1.2,2.2-2.2,4.6-3.2,6.9c-1.9,4.5-2.9,9.3-3.4,14.3c0.2,0.1,0.4,0.3,0.6,0.5
		C15.1,32.2,15.7,28.7,15.8,27.9z"/>
	<path fill="#3B2416" d="M64.2,87.2c-0.8-2.2-1.3-4.5-1.6-6.8c-0.2-1.6-0.4-3.2-0.3-4.8c0-0.7,0.4-1.3,0.5-2
		c3.7-0.4,7.5-0.7,11.2,0.7c4.9,1.8,9.5-0.9,14-4.1c0,0,0.1,0,0.1-0.1c0,2.2,2.1,4,3.6,5.6c0.8,0.8,1.6,1.6,2.5,2.5
		c0-0.1,0.1-0.3,0.1-0.4c-0.5-0.5-1-1-1.5-1.5c-1.1-1.2-2.2-2.4-3.2-3.7c-0.6-0.8-0.9-1.7-1.4-2.5c1.5-1.1,3.1-2.2,4.6-3.3
		c1.4-0.9,1.5,1.1,3.3,1.6c1.7,0.5,3.1,0.7,4.4,0.7c1.4,0,2.7-0.2,4.1-0.5c0-0.1-0.1-0.3-0.1-0.5c0-0.1,0-0.1,0-0.2
		c-1.3,0.4-2.6,0.9-4,0.9c-0.5,0-1,0-1.5-0.1c-0.5-0.1-1.2-0.5-2-0.9c0,0,0,0,0,0c-2.3-2.2-4.3-4.7-6.5-7.1c-0.3-0.3-0.6-0.7-0.9-1
		c-0.1-0.2-0.3-0.3-0.4-0.5c-1.4-1.5-2.9-2.7-4.5-4c-1.4-1.1-3.1-2.1-3.7-3.9c6.6-0.9,13.2-2,19.7-3.1c1.2-0.2,2.5-0.4,3.7-0.6
		c0,0.1,0.1,0.2,0.1,0.2c0-0.2-0.1-0.3-0.1-0.5c0,0,0-0.1,0-0.1c-1.3,0.2-2.6,0.5-3.9,0.7c-12.5,2.2-25.2,4.5-37.9,4.8
		c-7.5,0.2-15.1-0.2-22.6-1c0,0,0,0,0,0c0-0.1-0.2-0.1-0.3,0c-5.3-0.5-10.5-1.2-15.7-2c-0.1,0-0.2,0-0.3,0c-0.3,0-0.6-0.1-0.9-0.2
		c-0.1,0-0.1,0-0.2,0c-2.5-0.4-5-0.8-7.4-1.2c-0.4-0.1-0.7-0.1-1.1-0.2c-0.3,0-0.3-1.2-0.2-2.9c0.1-1.6,0.3-3.8,0.6-6.1
		c-0.2,0.1-0.3,0.2-0.5,0.3c-0.1,1.9-0.2,3.8-0.3,5.7c0,1.1-0.1,2.2-0.1,3.2c0,0,0,0,0,0c-0.9,0.5-1.6,1.1-2.4,1.8
		c-0.9,0.9-1.8,1.9-2.5,2.8c-2.8,3.5-5.7,7-7.9,11c-0.1,0.2,0.4,0.2,0.5,0c0,0,0-0.1,0-0.1c0,0,0,0,0,0c2.3-1.6,4.1,0.5,5.7,2.8
		c-1.1,1.8-2,3.8-3.3,5.5c-1.3,1.8-2.7,3.5-3.2,5.7c0,0,0,0,0,0c-0.1,0-0.5,0.2-0.3,0.2c3.5,0.3,3,4.1,5,5.9
		c1.9,1.8,4.5,2.9,7.2,3.1c1.9,0.1,3.5,0,5.3-0.7c4.7-1.7,10.3-3.4,14.8-0.5c1.6,1,3.5,2.1,5.4,2.5c1.5,0.4,3,0.6,4.5,0.8
		c0,0,0,0,0-0.1c0-0.1,0-0.2,0-0.4c-3,0-5.6-0.9-8.2-2.3c-1.3-0.7-2.7-2-4.1-2.4c-6.6-1.8-12.1,3.5-18.7,2.5c-3.9-0.6-5.7-2.7-7.4-6
		c-0.8-1.5-1.7-2.7-3.4-2.8c0.1,0,0.3-0.1,0.3-0.1c0.4-2,1.6-3.6,2.8-5.2C4.9,70.8,5.8,68.9,7,67c0.8,1.2,1.6,2.4,2.3,3
		c0.1,0.1,0.3,0.2,0.4,0.3c1.4,1,3,1.7,4.7,2.2c0.8,0.2,1.5,0.5,2.3,0.7c5,1.6,11,4.2,16.4,2.9c1.5-0.4,3.2-0.7,4.4-1.7
		c2.8-2.2,4.1-5.2,9.5-3c1.3,0.5,2.2,1.6,3.6,2.1c1.7,0.5,3.4,0.7,5.2,0.8c0,1,0.1,1.9,0.1,2.9c0.2,0.2,0.5,0.3,0.6,0.6
		c-0.1-1.2-0.2-2.4-0.2-3.4c2.1,0,4.1-0.2,6.2-0.5c-0.1,0.7-0.4,1.5-0.5,2c-0.2,1.3,0,2.7,0.2,4c0.3,2.4,0.7,5,1.6,7.4
		c-0.9-1-1.8-1.7-3.1-1.6c-1.7,0.1-5.2,0.3-7.1,1.3c0.7-1.8,1.7-3.5,2.5-5.3c0.2-0.4,0.3-0.8,0.4-1.2c-0.2,0.2-0.4,0.4-0.7,0.5
		c-0.2,1.1-1.1,2.1-1.5,3.2c-0.5,1.1-1,2.2-1.4,3.4c-0.1,0.1-0.2,0.2-0.3,0.4c-0.9,1.4-3.5,1.6-6,1.5c0,0.1,0,0.1,0,0.2
		c0,0.2,0,0.3-0.1,0.5c0.4,0,0.7,0.1,1.1,0.1c1.7,0.1,3.1-0.5,4.6-1.2c3.1-1.4,5.6-3.7,9.6-2.4c0.5,0.2,1.2,0.9,1.8,1.7
		C63.7,87.6,63.9,87.4,64.2,87.2z M24.2,75.1c-3.2-0.7-6.4-1.9-9.5-3c-0.3-0.1-0.5-0.2-0.8-0.3c-1.5-0.5-2.9-1.2-4.2-2.2
		c-0.3-0.2-0.7-0.5-1-0.8c-1-0.8-1.1-1.7-1.3-2.6c-0.1-0.6-0.3-1.3-0.7-1.9c-1.4-1.9-3.5-2.1-5.3-1.1C3,60.6,4.9,58,7,55.4
		c1.3-1.6,2.7-3.5,4.3-5.1c0.8-0.7,1.5-1.3,2.4-1.8c0.4,0.1,0.8,0.1,1.2,0.2c8.1,1.5,16.4,2.9,24.7,3.7c1.1,3.1,2.3,5.5,2.6,9.1
		c0.3,3.2,0.1,5.7-1.8,8.3c-0.9,1.3-2,2.4-2.9,3.7C33.5,76.2,29,76.3,24.2,75.1z M56.9,73.5c-4.7,0.2-8.1-2.5-12.3-3
		c-0.1,0-0.2,0-0.3,0c-0.2,0-0.4,0-0.6-0.1c-0.5,0-1,0-1.5,0c-0.8,0.1-1.9,0.7-2.5,1.3c-0.5,0.5-0.9,0.9-1.4,1.2
		c2-2.6,4.3-4.7,4.4-8.4c0-2.7-0.2-5.2-0.7-7.9c-0.3-1.5-1.2-2.8-1.8-4.2c8.6,0.8,17.2,1.1,25.6,0.6c4.9-0.3,9.8-0.9,14.7-1.5
		c0,0,0,0,0,0.1c1.1,3.3,5.6,5.1,7.9,7.5c2.5,2.7,4.8,5.5,7.4,8.1c-1.6-0.8-3.4-1.5-4.5-0.4c-3.7,3.7-9.5,7.6-15.6,7.6
		c-2.6,0-4.5-1.6-7.2-1.7c-1.9-0.1-3.8,0.1-5.7,0.3c-0.1,0-0.1,0-0.2,0C60.7,73.3,58.8,73.5,56.9,73.5z"/>
	<path fill="#3B2416" d="M98,16.4c0-1.1-0.9-2-1.9-2c0.6,0.9,1.2,1.9,1.8,2.8C97.9,17,98,16.7,98,16.4z"/>
	<path fill="#3B2416" d="M14.6,36.1c-0.2-0.2-0.4-0.3-0.6-0.5c-0.1,1.3-0.2,2.5-0.3,3.8c0.2-0.1,0.4-0.1,0.5-0.3
		C14.4,38.2,14.5,37.1,14.6,36.1z"/>
	<path fill="#3B2416" d="M114.9,58.4c0.5,0.4,1,0.9,1.5,1.4c0.2,0,0.3,0.1,0.5,0.1c0.1,0,0.1,0,0.2,0c-0.1-0.1-0.1-0.2-0.2-0.2
		c-0.7-0.6-1.3-1.3-2-1.9c0,0,0,0.1,0,0.1C114.7,58,114.8,58.2,114.9,58.4z"/>
	<path fill="#3B2416" d="M55.6,80.6C55.6,80.6,55.6,80.6,55.6,80.6c0.3-0.1,0.5-0.3,0.7-0.5c0.1-0.8,0.2-1.7,0.1-2.5
		c-0.2-0.2-0.4-0.4-0.6-0.6C55.8,78.2,55.8,79.4,55.6,80.6z"/>
	<path fill="#3B2416" d="M94.3,77.8c-0.1,0.1-0.1,0.3-0.1,0.4c0.8,0.8,1.6,1.6,2.2,2.4c0.2,0,0.3-0.1,0.5-0.1
		C96.1,79.6,95.2,78.7,94.3,77.8z"/>
	<path fill="#3B2416" d="M23.5,49.9c0.1,0,0.2,0,0.3,0c-0.4-0.1-0.8-0.1-1.3-0.2C22.9,49.8,23.2,49.9,23.5,49.9z"/>
	<path fill="#3B2416" d="M104.4,47.4C104.4,47.4,104.4,47.4,104.4,47.4C104.3,47.4,104.3,47.4,104.4,47.4c0,0.3,0,0.4,0.1,0.6
		c0.2,0.3,0.3,0.6,0.5,0.9c0,0.1,0.1,0.1,0.1,0.2c0.3,0.2,0.6,0.4,0.9,0.5c-0.2-0.3-0.5-0.7-0.7-1c-0.2-0.3-0.4-0.5-0.5-0.8
		c0.1,0,0.1-0.1,0.1-0.1c0-0.4,0-0.9-0.1-1.3C104.5,46.5,104.4,46.9,104.4,47.4C104.4,47.3,104.4,47.4,104.4,47.4z"/>
	<path fill="#3B2416" d="M44.3,70.5c0.1,0,0.2,0,0.3,0c-0.3,0-0.6-0.1-0.9-0.1C43.9,70.5,44.1,70.5,44.3,70.5z"/>
	<path fill="#3B2416" d="M105.3,67.7c-0.3,0.1-0.6,0.2-0.9,0.3c0,0.1,0,0.1,0,0.2c0,0.2,0,0.3,0.1,0.5c0.4-0.1,0.8-0.2,1.3-0.3
		c0.9-0.2,1.8-0.4,2.8-0.6c-0.1-0.3-0.2-0.5-0.3-0.7c-0.2,0-0.3,0-0.5,0C106.9,67.2,106.1,67.5,105.3,67.7z"/>
	<path fill="#3B2416" d="M46.5,89c-1.4-0.1-2.8-0.2-3.7-0.2c-0.1,0-0.2,0-0.4,0c0,0.1,0,0.2,0,0.4c0,0,0,0,0,0.1
		c1.3,0.2,2.7,0.3,4.1,0.4c0-0.2,0.1-0.3,0.1-0.5C46.5,89.1,46.5,89.1,46.5,89z"/>
	<path fill="#3B2416" d="M64.6,88.3c-0.2-0.4-0.3-0.7-0.4-1.1c-0.3,0.1-0.5,0.3-0.7,0.6c0.6,0.8,1.3,1.7,1.8,2.2
		c0.3,0.3,0.7,0.5,1.1,0.7c0.1-0.1,0.3-0.2,0.4-0.3C65.9,89.9,65.3,89.1,64.6,88.3z"/>
	<path fill="#3B2416" d="M85.7,88.1c-0.3,0.6-0.9,1.1-1.8,1.5c0,0,0,0.1,0,0.1c0.3-0.1,0.5-0.2,0.7-0.4c1-0.6,1.8-1.3,2.4-2
		c-0.2-0.2-0.5-0.3-0.8-0.4C86.1,87.3,85.8,87.7,85.7,88.1z"/>
</g>
</svg>
