<?xml version="1.0" encoding="utf-8"?>
<!-- Generator: Adobe Illustrator 18.1.1, SVG Export Plug-In . SVG Version: 6.00 Build 0)  -->
<!DOCTYPE svg PUBLIC "-//W3C//DTD SVG 1.1//EN" "http://www.w3.org/Graphics/SVG/1.1/DTD/svg11.dtd">
<svg version="1.1" id="Layer_1" xmlns="http://www.w3.org/2000/svg" xmlns:xlink="http://www.w3.org/1999/xlink" x="0px" y="0px"
	 viewBox="0 0 90 111.9" enable-background="new 0 0 90 111.9" xml:space="preserve">
<g>
	<path fill="#A8BD7F" d="M45.9,14.4c5.6-0.2,11.1-1.2,16.5-2.4c0.3-0.2,0.7-0.3,1-0.2c6.8-1.6,13.5-3.7,20.2-5.4
		c-1-3.1-2.1-5.7-2.7-5.5c-3.8,1-7.6,1.8-11.4,2.6C59.5,5.3,45.9,7.5,35.7,7c-9.4-0.4-15.6-1.9-24.6-4.8C9.7,1.8,8.3,1.3,6.9,0.7
		C7.1,0.7,6.1,4.1,5,7.9c0,0,0.1,0,0.1,0C16.1,14.6,33.5,14.9,45.9,14.4z"/>
	<path fill="#8D9D65" d="M76.2,17.9c3.1,1,7.4,2.8,10.8,2.3c0.1,0,0.1,0,0.2,0c-0.3-1.5-0.7-3.1-1.1-4.6c-0.1-1-1.2-5.2-2.3-8.8
		c-6.4,1.7-13.1,3.8-19.8,5.5C65,15.3,73.7,17.1,76.2,17.9z"/>
	<path fill="#A8BD7F" d="M74.8,18.8c-3.3-1.2-6.5-2.6-9.9-3.7c-1.4-0.5-2.4-1-2.8-2.4c-6.7,1.6-13.5,2.7-20.3,2.5
		c-5.6-0.2-11.7-0.3-17.6-0.9c0,0.1-0.1,0.3-0.3,0.5C17.7,19.2,9.5,21.4,2,21.5c0,0-0.1,0-0.1,0c-1.3,7.7-1.5,14.9-1.1,22.8
		c0.1,2.9,1.2,63.1,4,63.6c15.3,3.1,31.1,4.3,46.7,3.2c8.9-0.6,17.8-1.5,26.6-2.9c2.3-0.4,4.5-0.7,6.8-1.1c2.9-0.5,2.4-0.1,2.9-3.8
		c2-15.3,2.5-67.2-0.5-82.4c-0.2,0.1-0.4,0.2-0.6,0.2C82.9,21.7,78.3,20.1,74.8,18.8z M43.2,30.1l-0.8,0l0-2l0.8,0L43.2,30.1z
		 M41.9,51l0.1-2l0.8,0l-0.1,2L41.9,51z M42,48l0.1-2l0.8,0l-0.1,2L42,48z M42.1,45l0-2l0.8,0l0,2L42.1,45z M42.2,42l0-2l0.8,0l0,2
		L42.2,42z M42.2,39.1l0-2l0.8,0l0,2L42.2,39.1z M42.2,36l0.1-2l0.8,0l-0.1,2L42.2,36z M42.3,33.1l0-2l0.8,0l0,2L42.3,33.1z
		 M43.2,27.1l-0.8,0c0-0.7-0.1-1.3-0.1-2l0.8-0.1C43.2,25.8,43.2,26.4,43.2,27.1z M43,24.1l-0.8,0.1l-0.2-2l0.8-0.1L43,24.1z
		 M41.6,16.2l0.8,0l0.1,2l-0.8,0L41.6,16.2z M42.6,19.1l0.1,2l-0.8,0.1l-0.1-2L42.6,19.1z"/>
	<path fill="#8D9D65" d="M4.8,8.6c-1.2,4.1-2.4,8.6-2.5,9.8c0,0,0,0.2-0.1,1c0,0.2-0.1,0.5-0.1,0.7c6.9-0.2,14.4-2.1,20.1-6.1
		C16.1,13.2,10,11.6,4.8,8.6z"/>
	<path fill="#603A17" d="M2.2,20.1C2.2,20.1,2.2,20.1,2.2,20.1c0.1-0.2,0.1-0.5,0.1-0.7c0.1-0.7,0.1-0.9,0.1-1
		c0.1-1.2,1.3-5.7,2.5-9.8C4.7,8.5,4.5,8.5,4.4,8.4C4.1,8.2,4.7,7.8,5,7.9c1.1-3.8,2-7.2,1.9-7.2c1.3,0.6,2.8,1.1,4.2,1.5
		c9,2.9,15.2,4.4,24.6,4.8c10.2,0.5,23.8-1.7,33.8-3.7c3.8-0.7,7.6-1.6,11.4-2.6c0.6-0.2,1.7,2.4,2.7,5.5c0.1,0,0.1,0,0.2,0
		c0.2-0.1,0.3,0,0.4,0c-0.7-2-1.5-4-2.2-6.1C81.9,0,81.6,0,81.4,0C58.9,6,29.6,10.5,7.6,0.1C7.3,0,6.9,0.1,6.8,0.3
		c-2.3,6.1-4.5,11.9-5,18.5c0,0,0,0,0,0c-0.1,0.5-0.2,1.1-0.3,1.6C1.6,20.3,1.8,20.1,2.2,20.1z"/>
	<path fill="#603A17" d="M87.3,21c3,15.2,2.6,67.1,0.5,82.4c-0.5,3.7,0,3.2-2.9,3.8c-2.3,0.4-4.5,0.8-6.8,1.1
		c-8.8,1.4-17.7,2.3-26.6,2.9c-15.6,1.1-31.4-0.1-46.7-3.2c-2.8-0.6-3.9-60.7-4-63.6c-0.3-7.8-0.1-15.1,1.1-22.8
		c-0.3,0-0.5-0.1-0.6-0.3c-2.7,16.6-0.9,70.7,2.5,87c0,0,0,0.1,0.1,0.1c27.4,5.8,56,4.2,83.4-1.3c0.1,0,0.5-0.1,0.5-0.3
		c2.7-16.3,3.2-69.9-0.1-86.3C87.7,20.6,87.5,20.8,87.3,21z"/>
	<path fill="#603A17" d="M83.9,6.7c-0.1,0-0.1,0-0.2,0c1.2,3.7,2.2,7.8,2.3,8.8c0.4,1.5,0.7,3.1,1.1,4.6c0.3,0,0.4,0,0.5,0.1
		c-0.4-1.7-0.7-3.4-1.2-5.1c-0.4-3.1-1.2-5.9-2.2-8.7C84.2,6.6,84.1,6.7,83.9,6.7z"/>
	<path fill="#603A17" d="M84.2,6.3c0,0.1,0,0.1,0.1,0.2C84.3,6.4,84.3,6.3,84.2,6.3z"/>
	<path fill="#603A17" d="M63.9,12c0,0.1,0.1,0.1,0.1,0.2c6.7-1.7,13.3-3.8,19.8-5.5c0-0.1-0.1-0.3-0.1-0.4
		c-6.7,1.7-13.4,3.8-20.2,5.4C63.7,11.8,63.8,11.8,63.9,12z"/>
	<path fill="#603A17" d="M22.6,13.9c0.6-0.4,1.6-0.1,1.6,0.4c6,0.7,12.1,0.8,17.6,0.9c6.8,0.2,13.6-0.9,20.3-2.5c0,0,0-0.1,0-0.1
		c0-0.2,0.1-0.4,0.4-0.6c-5.5,1.3-11,2.2-16.5,2.4c-12.5,0.5-29.8,0.1-40.8-6.5c0,0,0,0-0.1,0C5,8.2,4.9,8.4,4.8,8.6
		c5.2,3,11.2,4.6,17.4,5.4C22.4,14,22.5,13.9,22.6,13.9z"/>
	<path fill="#603A17" d="M4.4,8.4c0.1,0.1,0.3,0.2,0.5,0.3C4.9,8.4,5,8.2,5,7.9C4.7,7.8,4.1,8.2,4.4,8.4z"/>
	<path fill="#603A17" d="M83.8,6.3c-0.1,0-0.1,0-0.2,0c0,0.1,0.1,0.3,0.1,0.4c0.1,0,0.1,0,0.2,0c0.2-0.1,0.3-0.1,0.3-0.2
		c0-0.1,0-0.1-0.1-0.2C84.1,6.2,84,6.2,83.8,6.3z"/>
	<path fill="#603A17" d="M23.8,14.8c0.2-0.2,0.3-0.3,0.3-0.5c-0.6-0.1-1.3-0.1-1.9-0.2c-5.7,4-13.3,5.9-20.1,6.1
		c-0.1,0.5-0.2,0.9-0.2,1.4c0,0,0.1,0,0.1,0C9.5,21.4,17.7,19.2,23.8,14.8z"/>
	<path fill="#603A17" d="M1.3,21.2c0-0.3,0.1-0.5,0.1-0.8C1.2,20.7,1.2,21,1.3,21.2z"/>
	<path fill="#603A17" d="M1.9,21.5c0.1-0.5,0.2-0.9,0.2-1.4c0,0,0,0,0,0c-0.3,0-0.5,0.1-0.7,0.3c0,0.3-0.1,0.5-0.1,0.8
		C1.4,21.4,1.6,21.5,1.9,21.5z"/>
	<path fill="#603A17" d="M22.6,13.9c-0.1,0.1-0.2,0.1-0.3,0.2c0.6,0.1,1.2,0.2,1.9,0.2C24.2,13.8,23.2,13.4,22.6,13.9z"/>
	<path fill="#603A17" d="M62.5,12c0.3-0.1,0.7-0.2,1-0.2C63.1,11.7,62.7,11.8,62.5,12z"/>
	<path fill="#603A17" d="M87.7,20.3c0,0.1,0,0.1,0,0.2C87.7,20.4,87.7,20.4,87.7,20.3z"/>
	<path fill="#603A17" d="M87,20.2c-3.4,0.5-7.7-1.3-10.8-2.3C73.7,17.1,65,15.3,64,12.2c-0.6,0.2-1.2,0.3-1.9,0.5
		c0.4,1.4,1.4,1.9,2.8,2.4c3.3,1.1,6.6,2.6,9.9,3.7c3.6,1.3,8.1,2.9,12,2.4c0.2,0,0.4-0.1,0.6-0.2c-0.1-0.3-0.1-0.5-0.2-0.8
		C87.1,20.2,87.1,20.2,87,20.2z"/>
	<path fill="#603A17" d="M87.1,20.2c0.1,0.3,0.1,0.5,0.2,0.8c0.2-0.1,0.4-0.3,0.4-0.5c0-0.1,0-0.1,0-0.2
		C87.6,20.2,87.4,20.2,87.1,20.2z"/>
	<path fill="#603A17" d="M63.4,11.8c-0.3,0.1-0.7,0.2-1,0.2c-0.3,0.1-0.4,0.3-0.4,0.6c0,0,0,0.1,0,0.1c0.6-0.1,1.2-0.3,1.9-0.5
		c0-0.1-0.1-0.1-0.1-0.2C63.8,11.8,63.7,11.8,63.4,11.8z"/>
	<polygon fill="#603A17" points="42.4,16.2 41.6,16.2 41.7,18.2 42.5,18.2 	"/>
	<polygon fill="#603A17" points="42.7,21.1 42.6,19.1 41.7,19.2 41.8,21.2 	"/>
	<polygon fill="#603A17" points="42.1,24.2 43,24.1 42.8,22.1 41.9,22.2 	"/>
	<path fill="#603A17" d="M42.4,27.1l0.8,0c0-0.7,0-1.3-0.1-2l-0.8,0.1C42.3,25.8,42.3,26.5,42.4,27.1z"/>
	<polygon fill="#603A17" points="42.4,30.1 43.2,30.1 43.2,28.1 42.4,28.1 	"/>
	<polygon fill="#603A17" points="43.2,31.1 42.4,31.1 42.3,33.1 43.2,33.1 	"/>
	<polygon fill="#603A17" points="43.2,34.1 42.3,34.1 42.2,36 43.1,36.1 	"/>
	<polygon fill="#603A17" points="43,37.1 42.2,37 42.2,39.1 43,39.1 	"/>
	<polygon fill="#603A17" points="43,40 42.2,40 42.2,42 43,42 	"/>
	<polygon fill="#603A17" points="43,43 42.1,43 42.1,45 42.9,45 	"/>
	
		<rect x="42" y="46" transform="matrix(0.9996 2.656438e-02 -2.656438e-02 0.9996 1.2638 -1.1115)" fill="#603A17" width="0.8" height="2"/>
	
		<rect x="42" y="49" transform="matrix(0.9996 2.821933e-02 -2.821933e-02 0.9996 1.4278 -1.1761)" fill="#603A17" width="0.8" height="2"/>
</g>
</svg>
