<?xml version="1.0" encoding="utf-8"?>
<!-- Generator: Adobe Illustrator 18.1.1, SVG Export Plug-In . SVG Version: 6.00 Build 0)  -->
<!DOCTYPE svg PUBLIC "-//W3C//DTD SVG 1.1//EN" "http://www.w3.org/Graphics/SVG/1.1/DTD/svg11.dtd">
<svg version="1.1" id="Layer_1" xmlns="http://www.w3.org/2000/svg" xmlns:xlink="http://www.w3.org/1999/xlink" x="0px" y="0px"
	 viewBox="0 0 121.2 307.2" enable-background="new 0 0 121.2 307.2" xml:space="preserve">
<g display="none">
	<g display="inline">
		<path fill="#F4D78F" d="M92.8,38.6c-1.7,0.6-3.7,1.1-5.1,1.4c-0.4,0.1-0.8,0.2-1,0.3c-1.1,0.3-2.2,0.6-3.4,1
			c1.1,0.8,3.7,2.9,4.4,3.3c1.6,1,3.3,2.1,5.1,3c1.6,0.8,3.2,1.5,4.8,2c1.1,0.3,2.1,0.6,3.2,0.8c-0.4-3.4-1.7-6.5-3.2-9.6
			c-0.6-1.3-1.2-2.5-1.8-3.8C95.2,37.6,94.1,38.2,92.8,38.6z"/>
		<path fill="#ECBE3C" d="M23.3,38.9c0.1,0.1,0.2,0.1,0.3,0.2c1.3,1.1,2.9,1.9,4.8,2.5c1.6,0.5,3.3,0.9,5.1,1.2
			c0.8,0.1,1.6,0.2,2.4,0.3c0.2,0,0.3,0,0.4,0c0.7,0.1,1.3,0.1,2,0.2c1.8,0.1,3.5,0.2,5.1,0.3c1.2,0.1,2.3,0.1,3.3,0.2
			c0.5,0,1,0.1,1.5,0.1c1.4,0.1,2.7,0.2,4.1,0.3C52,43.4,52,42.7,52,41.9c0-1.3,0-2.6,0-4c-1.3-0.1-2.6-0.2-3.8-0.3
			c-1.6-0.1-3.2-0.3-4.8-0.4c-0.8-0.1-1.7-0.2-2.5-0.2c-0.8-0.1-1.6-0.2-2.5-0.2c-1.5-0.1-3.1-0.3-4.8-0.5c-1.7-0.2-3.5-0.5-5.1-1
			c-1.8-0.5-3.4-1.1-4.8-2.1c-0.4-0.3-0.8-0.5-1.1-0.9c-0.1,1.1-0.2,2.3-0.1,3.5C22.5,37,22.9,37.9,23.3,38.9z"/>
		<path fill="#ECBE3C" d="M53.3,44.2c1.6,0.1,3.2,0.2,4.8,0.2c1.7,0,3.4,0.1,5.1,0c1.1,0,2.2-0.1,3.3-0.2c0.5-0.1,1-0.1,1.5-0.2
			c1.7-0.2,3.4-0.5,5.1-0.8c1.6-0.3,3.2-0.7,4.8-1.1c1.7-0.4,3.4-0.8,5-1.3c0,0,0,0,0,0c1-0.3,2.8-0.6,4.8-1
			c1.8-0.4,3.6-0.9,5.1-1.5c1.3-0.6,2.3-1.2,2.6-2c0-0.1,0.1-0.2,0.3-0.2c0.1-1,0.5-1.9,0.4-3c-0.1-1-0.2-1.9-0.4-2.8
			c-0.6,0.6-1.7,1.1-2.9,1.5c-1.7,0.6-3.7,1.1-5.1,1.4c-0.4,0.1-0.8,0.2-1,0.3c-1.2,0.3-2.5,0.7-3.8,1.1c-1.7,0.5-3.4,0.9-5.1,1.4
			c-1.6,0.4-3.2,0.8-4.8,1.1c-1.7,0.3-3.4,0.6-5.1,0.8c-0.5,0.1-1.1,0.1-1.6,0.2c-1.1,0.1-2.1,0.1-3.2,0.1c-1.7,0.1-3.4,0.1-5.1,0
			c-1.6,0-3.2-0.1-4.8-0.1c-0.1,0-0.3,0-0.4,0c0,1.1,0,2.1,0,3.2C52.9,42.1,52.7,43.3,53.3,44.2C53.2,44.2,53.3,44.2,53.3,44.2z
			 M54.4,40.2c0.4-0.9,1.6-1,2.4-0.7c1.1,0.4,1.5,1.6,0.9,2.7c-0.5,0.9-2,0.9-2.8,0.4c-0.8-0.5-0.9-1.5-0.5-2.3
			C54.4,40.4,54.4,40.3,54.4,40.2z"/>
		<path fill="#F4D78F" d="M28.4,47.6c1.8-0.9,3.5-2,5.1-3c0.7-0.4,1.3-0.8,1.9-1.2c-0.6-0.1-1.3-0.1-1.9-0.2c-1.7-0.2-3.5-0.5-5.1-1
			c-1.8-0.5-3.4-1.1-4.8-2.1c-0.5-0.3-0.9-0.6-1.3-1c-1.6,3-3.1,6.1-3.8,9.4v1.9c1.7,0,3.4-0.3,5.1-0.8
			C25.2,49.1,26.8,48.4,28.4,47.6z"/>
		<path fill="#ECBE3C" d="M104.9,50.7c-0.7,0.1-1.5,0.2-2.2,0.2c-1.7,0-3.4-0.3-5.1-0.7c-1.6-0.5-3.2-1.1-4.8-1.9
			c-1.8-0.9-3.5-1.9-5.1-2.9c-1-0.6-4.2-3.1-5.3-3.9c-1.5,0.4-3.1,0.9-4.6,1.2c-1.6,0.4-3.2,0.8-4.8,1.1c-1.7,0.3-3.4,0.6-5.1,0.8
			c-0.5,0.1-1.1,0.1-1.6,0.2c-1.1,0.1-2.1,0.1-3.2,0.2c-1.7,0.1-3.4,0.1-5.1,0c-1.6,0-3.2-0.1-4.8-0.1c-1.7-0.1-3.4-0.2-5.1-0.3
			c-1.6-0.1-3.2-0.3-4.8-0.4c-0.8-0.1-1.7-0.2-2.5-0.3c-0.8-0.1-1.6-0.2-2.5-0.2c-0.7-0.1-1.4-0.1-2.1-0.2c-0.9,0.6-1.8,1.1-2.7,1.7
			c-1.6,1-3.3,2-5.1,2.9c-1.6,0.8-3.2,1.5-4.8,2c-1.7,0.5-3.4,0.8-5.1,0.8c-0.8,0-1.7,0-2.6-0.2c0,0,0.1,0,0.1,0.1
			c-0.1,4.5-1.4,9-2.3,13.4c-0.4,1.7-0.7,3.3-0.9,5c-0.5,3.8-1.6,5.2,0.9,6.8c0.7,0.4,1.6,0.8,2.9,1.3c0.6,0.2,1.3,0.5,1.9,0.7
			c1.7,0.6,3.4,1.2,5.1,1.7c0.7,0.2,1.3,0.4,2,0.5c0.9,0.2,1.9,0.5,2.8,0.7c1.7,0.4,3.4,0.9,5.1,1.3c1.6,0.4,3.2,0.7,4.8,1
			c1.7,0.3,3.4,0.5,5.1,0.5c1.1,0,2.2,0.1,3.3,0c0.5,0,1-0.1,1.5-0.1c2.1-0.2,3.7-0.5,5.1-0.9c2.5-0.7,4-1.9,4.8-3.6
			c1.2-2.4,1.2-5.9,1.4-10.7c-0.5,0-0.9-0.1-1.4-0.2c-1.7-0.3-3.2-1.1-4.8-2c-0.4-0.2-0.7-0.4-1.1-0.7c-0.1-0.1,0.6-0.4,0.8-0.3
			c0.1,0.1,0.2,0.1,0.3,0.2c1.5,1,3.1,1.8,4.8,2.3c0.5,0.1,1,0.3,1.6,0.3c0.4,0,0.9,0,1.3,0C61,68,61.2,68,61.4,68
			c0.6-0.1,1.2-0.3,1.8-0.5c1.8-0.7,3.3-2,4.8-3.1c0.4-0.3,0.8-0.6,1.2-0.9c0.2-0.1,0.9-0.2,0.8-0.1c-0.6,0.5-1.3,1-1.9,1.5
			c-1.5,1.2-3.1,2.4-4.8,3.1c-0.4,0.1-0.8,0.3-1.2,0.3c0,0,0,0,0,0c0.1,4-0.4,8.4,1.3,11.4c0.9,1.6,2.3,2.7,4.8,3.2
			c0.3,0.1,0.5,0.1,0.9,0.2c1.4,0.2,2.8,0.3,4.2,0.3c1.6,0.1,3.2,0.1,4.8,0c1.7-0.1,3.4-0.2,5.1-0.4c1.6-0.2,3.2-0.5,4.8-0.8
			c1.7-0.3,3.4-0.7,5.1-1.2c1-0.3,1.9-0.5,2.9-0.8c0.6-0.2,1.3-0.4,1.9-0.6c1.7-0.6,3.4-1.2,5.1-1.7c0.7-0.2,1.4-0.4,2.1-0.6
			c1.2-0.3,2.1-0.6,2.7-1c2.5-1.4,1.2-3.6,0.8-6.9c-0.2-1.4-0.5-2.8-0.8-4.3C106.5,60.3,105.1,55.4,104.9,50.7z"/>
		<path fill="#603813" d="M105.7,50.4C105.7,50.4,105.7,50.3,105.7,50.4C105.7,50.3,105.7,50.3,105.7,50.4
			C105.7,50.3,105.7,50.3,105.7,50.4c0-0.1,0-0.1-0.1-0.2c0,0-0.1,0-0.1,0c0,0-0.1,0-0.1,0c-0.9,0.2-1.8,0.2-2.7,0.2
			c-0.3,0-0.7,0-1,0c0,0,0,0,0-0.1c-0.4-4.2-2.3-7.8-4.1-11.5c-0.4-0.8-0.8-1.6-1.1-2.4c0-0.9,0.3-2,0.4-3c0.1-1.4-0.4-2.9-0.6-4.3
			c0-0.2-0.9,0-0.8,0.2c0,0,0,0,0,0c0,0-0.1,0-0.1,0.1c-0.3,0.8-1.3,1.4-2.6,2c-1.5,0.6-3.3,1.1-5.1,1.5c-2,0.5-3.8,0.8-4.8,1
			c0,0,0,0,0,0c-1.7,0.4-3.4,0.9-5,1.3c-1.6,0.4-3.2,0.7-4.8,1.1c-1.7,0.3-3.4,0.6-5.1,0.8c-0.5,0.1-1,0.2-1.5,0.2
			c-1.1,0.1-2.2,0.2-3.3,0.2c-1.7,0.1-3.4,0.1-5.1,0c-1.6,0-3.2-0.1-4.8-0.2c-1.7-0.1-3.4-0.2-5.1-0.3c-0.5,0-1-0.1-1.5-0.1
			c-1-0.1-2.1-0.1-3.3-0.2c-1.6-0.1-3.3-0.1-5.1-0.3c-1.6-0.1-3.2-0.3-4.8-0.5c-1.8-0.3-3.5-0.6-5.1-1.1c-1.8-0.6-3.5-1.4-4.8-2.5
			c-0.3-0.2-0.6-0.5-0.8-0.7c-0.1-0.2-0.5-0.1-0.7,0c-0.2,0-0.4,0.1-0.4,0.2c-0.2,1.3-0.2,2.6-0.2,3.9c0,1,0.3,1.9,0.7,2.7
			c-0.2,0.1-0.3,0.2-0.2,0.4c0,0,0,0,0,0c-0.2,0-0.3,0.1-0.4,0.2c-1.2,2.2-2.3,4.4-3.1,6.7c-0.5,1.5-0.9,3-1.1,4.6
			c-0.5,0-0.9-0.1-1.4-0.2c-0.3-0.1-1,0.4-0.5,0.5c0,0,0,0,0.1,0c-0.2,0-0.4,0.1-0.4,0.3c-0.1,3.6-0.7,7.3-1.5,11
			c-0.9,4.4-1.9,8.7-2.5,13c-0.2,1.2,1,2,2.5,2.6c1.5,0.6,3.4,1,4.8,1.3c0.8,0.2,1.4,0.3,1.8,0.4c1.1,0.4,2.2,0.7,3.3,1
			c1.6,0.5,3.2,0.9,4.8,1.3c1.7,0.4,3.4,0.8,5.1,1.2c1.6,0.3,3.2,0.6,4.8,0.8c1.7,0.2,3.4,0.3,5.1,0.4c1.6,0.1,3.2,0,4.8-0.1
			c1.7-0.1,3.4-0.3,5.1-0.6c1.6-0.3,3.2-0.6,4.8-1.1c0.2-0.1,0.4-0.1,0.5-0.1c0.1,0,0.4-0.1,0.4-0.3c0.4-4.6,1-8.5,1.2-13.2
			c0-0.1,0-0.1-0.1-0.2c0.3,0,0.5,0,0.8,0c0.2,4.6,0.9,9,1.3,13.5c0,0.1,0.1,0.1,0.2,0.1c0.3,0.1,0.6,0.2,0.9,0.2
			c1.6,0.4,3.2,0.8,4.8,1c1.7,0.3,3.4,0.5,5.1,0.6c1.6,0.1,3.2,0.1,4.8,0.1c1.7-0.1,3.4-0.2,5.1-0.4c1.6-0.2,3.2-0.4,4.8-0.8
			c1.7-0.3,3.4-0.7,5.1-1.2c1.6-0.4,3.2-0.9,4.8-1.4c1.7-0.5,3.4-1.1,5.1-1.8c0,0,0.1,0,0.1,0c-0.3,0.1,2.5-0.5,4.7-1.3
			c1.4-0.5,2.5-1.1,2.5-1.6c-0.5-4.1-1.6-8.5-2.5-12.8C106.6,58.6,105.9,54.4,105.7,50.4z M97.6,40.7c1.5,3.1,2.8,6.1,3.2,9.6
			c-1.1-0.1-2.1-0.4-3.2-0.8c-1.6-0.5-3.2-1.2-4.8-2c-1.8-0.9-3.5-2-5.1-3c-0.7-0.4-3.3-2.5-4.4-3.3c1.1-0.3,2.2-0.6,3.4-1
			c0.3-0.1,0.6-0.2,1-0.3c1.4-0.3,3.4-0.8,5.1-1.4c1.3-0.5,2.4-1,3-1.7C96.4,38.2,97,39.5,97.6,40.7z M52.9,41.2c0-1.1,0-2.1,0-3.2
			c0.1,0,0.3,0,0.4,0c1.6,0.1,3.2,0.1,4.8,0.1c1.7,0,3.4,0,5.1,0c1.1,0,2.1-0.1,3.2-0.1c0.5,0,1.1-0.1,1.6-0.2
			c1.7-0.2,3.4-0.4,5.1-0.8c1.6-0.3,3.2-0.7,4.8-1.1c1.7-0.4,3.4-0.9,5.1-1.4c1.3-0.4,2.5-0.7,3.8-1.1c0.3-0.1,0.6-0.2,1-0.3
			c1.4-0.3,3.3-0.8,5.1-1.4c1.2-0.4,2.2-0.9,2.9-1.5c0.2,0.9,0.4,1.9,0.4,2.8c0.1,1-0.3,2-0.4,3c-0.1,0-0.2,0.1-0.3,0.2
			c-0.3,0.8-1.3,1.4-2.6,2c-1.5,0.6-3.3,1.1-5.1,1.5c-2,0.4-3.8,0.8-4.8,1c0,0,0,0,0,0c-1.7,0.5-3.4,0.9-5,1.3
			c-1.6,0.4-3.2,0.7-4.8,1.1c-1.7,0.3-3.4,0.6-5.1,0.8c-0.5,0.1-1,0.2-1.5,0.2c-1.1,0.1-2.2,0.2-3.3,0.2c-1.7,0.1-3.4,0-5.1,0
			c-1.6,0-3.2-0.1-4.8-0.2c0,0,0,0,0,0C52.7,43.3,52.9,42.1,52.9,41.2z M22.5,32.4c0.3,0.3,0.7,0.6,1.1,0.9c1.4,0.9,3,1.6,4.8,2.1
			c1.6,0.4,3.4,0.7,5.1,1c1.7,0.2,3.3,0.3,4.8,0.5c0.9,0.1,1.8,0.1,2.5,0.2c0.8,0.1,1.7,0.2,2.5,0.2c1.6,0.2,3.2,0.3,4.8,0.4
			c1.3,0.1,2.6,0.2,3.8,0.3c0,1.3,0,2.6,0,4c0,0.8-0.1,1.6,0.2,2.3c-1.4-0.1-2.7-0.2-4.1-0.3c-0.5,0-1-0.1-1.5-0.1
			c-1-0.1-2.1-0.1-3.3-0.2c-1.6-0.1-3.3-0.1-5.1-0.3c-0.7,0-1.3-0.1-2-0.2c-0.1-0.1-0.3-0.1-0.4,0c-0.8-0.1-1.6-0.2-2.4-0.3
			c-1.8-0.3-3.5-0.6-5.1-1.2c-1.8-0.6-3.5-1.4-4.8-2.5c-0.1-0.1-0.2-0.1-0.3-0.2c-0.4-1-0.9-1.9-1-3C22.3,34.8,22.3,33.6,22.5,32.4z
			 M18.5,48.5c0.7-3.3,2.2-6.4,3.8-9.4c0.4,0.4,0.8,0.7,1.3,1c1.4,0.9,3,1.6,4.8,2.1c1.6,0.4,3.4,0.7,5.1,1c0.6,0.1,1.3,0.2,1.9,0.2
			c-0.6,0.4-1.3,0.8-1.9,1.2c-1.6,1-3.3,2.1-5.1,3c-1.6,0.8-3.2,1.5-4.8,2c-1.7,0.5-3.4,0.8-5.1,0.8V48.5z M107.5,76.3
			c-0.6,0.4-1.5,0.7-2.7,1c-0.7,0.2-1.4,0.4-2.1,0.6c-1.7,0.5-3.4,1.2-5.1,1.7c-0.6,0.2-1.3,0.4-1.9,0.6c-1,0.3-1.9,0.5-2.9,0.8
			c-1.7,0.4-3.4,0.8-5.1,1.2c-1.6,0.3-3.2,0.6-4.8,0.8c-1.7,0.2-3.4,0.4-5.1,0.4c-1.6,0.1-3.2,0.1-4.8,0c-1.4-0.1-2.8-0.2-4.2-0.3
			c-0.3,0-0.6-0.1-0.9-0.2c-2.5-0.5-3.9-1.7-4.8-3.2c-1.7-3-1.1-7.5-1.3-11.4c0,0,0,0,0,0c0.4-0.1,0.8-0.2,1.2-0.3
			c1.7-0.6,3.3-1.9,4.8-3.1c0.7-0.5,1.3-1,1.9-1.5c0.2-0.1-0.6,0-0.8,0.1c-0.4,0.3-0.8,0.6-1.2,0.9c-1.5,1.2-3,2.4-4.8,3.1
			c-0.6,0.2-1.2,0.4-1.8,0.5c-0.2,0-0.3,0-0.4,0.1c-0.4,0-0.8,0-1.3,0c-0.6-0.1-1.1-0.2-1.6-0.3c-1.7-0.5-3.3-1.3-4.8-2.3
			c-0.1-0.1-0.2-0.1-0.3-0.2c-0.2-0.1-0.9,0.2-0.8,0.3c0.4,0.2,0.7,0.5,1.1,0.7c1.5,0.9,3.1,1.6,4.8,2c0.4,0.1,0.9,0.2,1.4,0.2
			c-0.2,4.8-0.1,8.3-1.4,10.7c-0.8,1.7-2.3,2.8-4.8,3.6c-1.4,0.4-3,0.7-5.1,0.9c-0.5,0-1,0.1-1.5,0.1c-1.1,0.1-2.2,0-3.3,0
			c-1.7-0.1-3.4-0.3-5.1-0.5c-1.6-0.3-3.2-0.6-4.8-1c-1.7-0.4-3.4-0.8-5.1-1.3c-0.9-0.2-1.9-0.5-2.8-0.7c-0.7-0.2-1.3-0.4-2-0.5
			c-1.7-0.5-3.4-1.1-5.1-1.7c-0.6-0.2-1.3-0.5-1.9-0.7c-1.3-0.5-2.2-0.9-2.9-1.3c-2.5-1.5-1.4-2.9-0.9-6.8c0.2-1.7,0.5-3.3,0.9-5
			c0.9-4.5,2.2-9,2.3-13.4c0,0,0-0.1-0.1-0.1c0.9,0.1,1.7,0.2,2.6,0.2c1.7,0,3.4-0.3,5.1-0.8c1.6-0.5,3.2-1.2,4.8-2
			c1.8-0.9,3.5-1.9,5.1-2.9c0.9-0.6,1.8-1.2,2.7-1.7c0.7,0.1,1.4,0.1,2.1,0.2c0.9,0.1,1.8,0.1,2.5,0.2c0.8,0.1,1.7,0.2,2.5,0.3
			c1.6,0.2,3.2,0.3,4.8,0.4c1.7,0.1,3.4,0.2,5.1,0.3c1.6,0.1,3.2,0.1,4.8,0.1c1.7,0,3.4,0,5.1,0c1.1,0,2.1-0.1,3.2-0.2
			c0.5,0,1.1-0.1,1.6-0.2c1.7-0.2,3.4-0.4,5.1-0.8c1.6-0.3,3.2-0.7,4.8-1.1c1.5-0.4,3.1-0.8,4.6-1.2c1.1,0.7,4.3,3.3,5.3,3.9
			c1.6,1,3.3,2,5.1,2.9c1.6,0.8,3.2,1.4,4.8,1.9c1.7,0.5,3.4,0.8,5.1,0.7c0.7,0,1.5-0.1,2.2-0.2c0.2,4.7,1.6,9.6,2.6,14.4
			c0.3,1.4,0.6,2.9,0.8,4.3C108.7,72.7,109.9,74.9,107.5,76.3z"/>
		<path fill="#603813" d="M55,42.7c0.8,0.5,2.3,0.4,2.8-0.4c0.6-1.1,0.2-2.3-0.9-2.7c-0.8-0.3-2-0.2-2.4,0.7c0,0.1,0,0.1,0,0.2
			C54,41.2,54.2,42.2,55,42.7z"/>
	</g>
</g>
<g display="none">
	<g display="inline">
		<path fill="#9E7152" d="M92.8,38.6c-1.7,0.6-3.7,1.1-5.1,1.4c-0.4,0.1-0.8,0.2-1,0.3c-1.1,0.3-2.2,0.6-3.4,1
			c1.1,0.8,3.7,2.9,4.4,3.3c1.6,1,3.3,2.1,5.1,3c1.6,0.8,3.2,1.5,4.8,2c1.1,0.3,2.1,0.6,3.2,0.8c-0.4-3.4-1.7-6.5-3.2-9.6
			c-0.6-1.3-1.2-2.5-1.8-3.8C95.2,37.6,94.1,38.2,92.8,38.6z"/>
		<path fill="#EA873D" d="M23.3,38.9c0.1,0.1,0.2,0.1,0.3,0.2c1.3,1.1,2.9,1.9,4.8,2.5c1.6,0.5,3.3,0.9,5.1,1.2
			c0.8,0.1,1.6,0.2,2.4,0.3c0.2,0,0.3,0,0.4,0c0.7,0.1,1.3,0.1,2,0.2c1.8,0.1,3.5,0.2,5.1,0.3c1.2,0.1,2.3,0.1,3.3,0.2
			c0.5,0,1,0.1,1.5,0.1c1.4,0.1,2.7,0.2,4.1,0.3C52,43.4,52,42.7,52,41.9c0-1.3,0-2.6,0-4c-1.3-0.1-2.6-0.2-3.8-0.3
			c-1.6-0.1-3.2-0.3-4.8-0.4c-0.8-0.1-1.7-0.2-2.5-0.2c-0.8-0.1-1.6-0.2-2.5-0.2c-1.5-0.1-3.1-0.3-4.8-0.5c-1.7-0.2-3.5-0.5-5.1-1
			c-1.8-0.5-3.4-1.1-4.8-2.1c-0.4-0.3-0.8-0.5-1.1-0.9c-0.1,1.1-0.2,2.3-0.1,3.5C22.5,37,22.9,37.9,23.3,38.9z"/>
		<path fill="#EA873D" d="M53.3,44.2c1.6,0.1,3.2,0.2,4.8,0.2c1.7,0,3.4,0.1,5.1,0c1.1,0,2.2-0.1,3.3-0.2c0.5-0.1,1-0.1,1.5-0.2
			c1.7-0.2,3.4-0.5,5.1-0.8c1.6-0.3,3.2-0.7,4.8-1.1c1.7-0.4,3.4-0.8,5-1.3c0,0,0,0,0,0c1-0.3,2.8-0.6,4.8-1
			c1.8-0.4,3.6-0.9,5.1-1.5c1.3-0.6,2.3-1.2,2.6-2c0-0.1,0.1-0.2,0.3-0.2c0.1-1,0.5-1.9,0.4-3c-0.1-1-0.2-1.9-0.4-2.8
			c-0.6,0.6-1.7,1.1-2.9,1.5c-1.7,0.6-3.7,1.1-5.1,1.4c-0.4,0.1-0.8,0.2-1,0.3c-1.2,0.3-2.5,0.7-3.8,1.1c-1.7,0.5-3.4,0.9-5.1,1.4
			c-1.6,0.4-3.2,0.8-4.8,1.1c-1.7,0.3-3.4,0.6-5.1,0.8c-0.5,0.1-1.1,0.1-1.6,0.2c-1.1,0.1-2.1,0.1-3.2,0.1c-1.7,0.1-3.4,0.1-5.1,0
			c-1.6,0-3.2-0.1-4.8-0.1c-0.1,0-0.3,0-0.4,0c0,1.1,0,2.1,0,3.2C52.9,42.1,52.7,43.3,53.3,44.2C53.2,44.2,53.3,44.2,53.3,44.2z
			 M54.4,40.2c0.4-0.9,1.6-1,2.4-0.7c1.1,0.4,1.5,1.6,0.9,2.7c-0.5,0.9-2,0.9-2.8,0.4c-0.8-0.5-0.9-1.5-0.5-2.3
			C54.4,40.4,54.4,40.3,54.4,40.2z"/>
		<path fill="#9E7152" d="M28.4,47.6c1.8-0.9,3.5-2,5.1-3c0.7-0.4,1.3-0.8,1.9-1.2c-0.6-0.1-1.3-0.1-1.9-0.2c-1.7-0.2-3.5-0.5-5.1-1
			c-1.8-0.5-3.4-1.1-4.8-2.1c-0.5-0.3-0.9-0.6-1.3-1c-1.6,3-3.1,6.1-3.8,9.4v1.9c1.7,0,3.4-0.3,5.1-0.8
			C25.2,49.1,26.8,48.4,28.4,47.6z"/>
		<path fill="#EA873D" d="M104.9,50.7c-0.7,0.1-1.5,0.2-2.2,0.2c-1.7,0-3.4-0.3-5.1-0.7c-1.6-0.5-3.2-1.1-4.8-1.9
			c-1.8-0.9-3.5-1.9-5.1-2.9c-1-0.6-4.2-3.1-5.3-3.9c-1.5,0.4-3.1,0.9-4.6,1.2c-1.6,0.4-3.2,0.8-4.8,1.1c-1.7,0.3-3.4,0.6-5.1,0.8
			c-0.5,0.1-1.1,0.1-1.6,0.2c-1.1,0.1-2.1,0.1-3.2,0.2c-1.7,0.1-3.4,0.1-5.1,0c-1.6,0-3.2-0.1-4.8-0.1c-1.7-0.1-3.4-0.2-5.1-0.3
			c-1.6-0.1-3.2-0.3-4.8-0.4c-0.8-0.1-1.7-0.2-2.5-0.3c-0.8-0.1-1.6-0.2-2.5-0.2c-0.7-0.1-1.4-0.1-2.1-0.2c-0.9,0.6-1.8,1.1-2.7,1.7
			c-1.6,1-3.3,2-5.1,2.9c-1.6,0.8-3.2,1.5-4.8,2c-1.7,0.5-3.4,0.8-5.1,0.8c-0.8,0-1.7,0-2.6-0.2c0,0,0.1,0,0.1,0.1
			c-0.2,4.5-1.4,9-2.3,13.4c-0.4,1.7-0.7,3.3-0.9,5c-0.5,3.8-1.6,5.2,0.9,6.8c0.7,0.4,1.6,0.8,2.9,1.3c0.6,0.2,1.3,0.5,1.9,0.7
			c1.7,0.6,3.4,1.2,5.1,1.7c0.7,0.2,1.3,0.4,2,0.5c0.9,0.2,1.9,0.5,2.8,0.7c1.7,0.4,3.4,0.9,5.1,1.3c1.6,0.4,3.2,0.7,4.8,1
			c1.7,0.3,3.4,0.5,5.1,0.5c1.1,0,2.2,0.1,3.3,0c0.5,0,1-0.1,1.5-0.1c2.1-0.2,3.7-0.5,5.1-0.9c2.5-0.7,4-1.9,4.8-3.6
			c1.2-2.4,1.2-5.9,1.4-10.7c-0.5,0-0.9-0.1-1.4-0.2c-1.7-0.3-3.2-1.1-4.8-2c-0.4-0.2-0.7-0.4-1.1-0.7c-0.1-0.1,0.6-0.4,0.8-0.3
			c0.1,0.1,0.2,0.1,0.3,0.2c1.5,1,3.1,1.8,4.8,2.3c0.5,0.1,1,0.3,1.6,0.3c0.4,0,0.9,0,1.3,0C61,68,61.2,68,61.4,68
			c0.6-0.1,1.2-0.3,1.8-0.5c1.8-0.7,3.3-2,4.8-3.1c0.4-0.3,0.8-0.6,1.2-0.9c0.2-0.1,0.9-0.2,0.8-0.1c-0.6,0.5-1.3,1-1.9,1.5
			c-1.5,1.2-3.1,2.4-4.8,3.1c-0.4,0.1-0.8,0.3-1.2,0.3c0,0,0,0,0,0c0.1,4-0.4,8.4,1.3,11.4c0.9,1.6,2.3,2.7,4.8,3.2
			c0.3,0.1,0.5,0.1,0.9,0.2c1.4,0.2,2.8,0.3,4.2,0.3c1.6,0.1,3.2,0.1,4.8,0c1.7-0.1,3.4-0.2,5.1-0.4c1.6-0.2,3.2-0.5,4.8-0.8
			c1.7-0.3,3.4-0.7,5.1-1.2c1-0.3,1.9-0.5,2.9-0.8c0.6-0.2,1.3-0.4,1.9-0.6c1.7-0.6,3.4-1.2,5.1-1.7c0.7-0.2,1.4-0.4,2.1-0.6
			c1.2-0.3,2.1-0.6,2.7-1c2.5-1.4,1.2-3.6,0.8-6.9c-0.2-1.4-0.5-2.8-0.8-4.3C106.5,60.3,105.1,55.4,104.9,50.7z"/>
		<path fill="#603813" d="M105.7,50.4C105.7,50.4,105.7,50.3,105.7,50.4C105.7,50.3,105.7,50.3,105.7,50.4
			C105.7,50.3,105.7,50.3,105.7,50.4c0-0.1,0-0.1-0.1-0.2c0,0-0.1,0-0.1,0c0,0-0.1,0-0.1,0c-0.9,0.2-1.8,0.2-2.7,0.2
			c-0.3,0-0.7,0-1,0c0,0,0,0,0-0.1c-0.4-4.2-2.3-7.8-4.1-11.5c-0.4-0.8-0.8-1.6-1.1-2.4c0-0.9,0.3-2,0.4-3c0.1-1.4-0.4-2.9-0.6-4.3
			c0-0.2-0.9,0-0.8,0.2c0,0,0,0,0,0c0,0-0.1,0-0.1,0.1c-0.3,0.8-1.3,1.4-2.6,2c-1.5,0.6-3.3,1.1-5.1,1.5c-2,0.5-3.8,0.8-4.8,1
			c0,0,0,0,0,0c-1.7,0.4-3.4,0.9-5,1.3c-1.6,0.4-3.2,0.7-4.8,1.1c-1.7,0.3-3.4,0.6-5.1,0.8c-0.5,0.1-1,0.2-1.5,0.2
			c-1.1,0.1-2.2,0.2-3.3,0.2c-1.7,0.1-3.4,0.1-5.1,0c-1.6,0-3.2-0.1-4.8-0.2c-1.7-0.1-3.4-0.2-5.1-0.3c-0.5,0-1-0.1-1.5-0.1
			c-1-0.1-2.1-0.1-3.3-0.2c-1.6-0.1-3.3-0.1-5.1-0.3c-1.6-0.1-3.2-0.3-4.8-0.5c-1.8-0.3-3.5-0.6-5.1-1.1c-1.8-0.6-3.5-1.4-4.8-2.5
			c-0.3-0.2-0.6-0.5-0.8-0.7c-0.1-0.2-0.5-0.1-0.7,0c-0.2,0-0.4,0.1-0.4,0.2c-0.2,1.3-0.2,2.6-0.2,3.9c0,1,0.3,1.9,0.7,2.7
			c-0.2,0.1-0.3,0.2-0.2,0.4c0,0,0,0,0,0c-0.2,0-0.3,0.1-0.4,0.2c-1.2,2.2-2.3,4.4-3.1,6.7c-0.5,1.5-0.9,3-1.1,4.6
			c-0.5,0-0.9-0.1-1.4-0.2c-0.3-0.1-1,0.4-0.5,0.5c0,0,0,0,0.1,0c-0.2,0-0.4,0.1-0.4,0.3c-0.1,3.6-0.7,7.3-1.5,11
			c-0.9,4.4-1.9,8.7-2.5,13c-0.2,1.2,1,2,2.5,2.6c1.5,0.6,3.4,1,4.8,1.3c0.8,0.2,1.4,0.3,1.8,0.4c1.1,0.4,2.2,0.7,3.3,1
			c1.6,0.5,3.2,0.9,4.8,1.3c1.7,0.4,3.4,0.8,5.1,1.2c1.6,0.3,3.2,0.6,4.8,0.8c1.7,0.2,3.4,0.3,5.1,0.4c1.6,0.1,3.2,0,4.8-0.1
			c1.7-0.1,3.4-0.3,5.1-0.6c1.6-0.3,3.2-0.6,4.8-1.1c0.2-0.1,0.4-0.1,0.5-0.1c0.1,0,0.4-0.1,0.4-0.3c0.4-4.6,1-8.5,1.2-13.2
			c0-0.1,0-0.1-0.1-0.2c0.3,0,0.5,0,0.8,0c0.2,4.6,0.9,9,1.3,13.5c0,0.1,0.1,0.1,0.2,0.1c0.3,0.1,0.6,0.2,0.9,0.2
			c1.6,0.4,3.2,0.8,4.8,1c1.7,0.3,3.4,0.5,5.1,0.6c1.6,0.1,3.2,0.1,4.8,0.1c1.7-0.1,3.4-0.2,5.1-0.4c1.6-0.2,3.2-0.4,4.8-0.8
			c1.7-0.3,3.4-0.7,5.1-1.2c1.6-0.4,3.2-0.9,4.8-1.4c1.7-0.5,3.4-1.1,5.1-1.8c0,0,0.1,0,0.1,0c-0.3,0.1,2.5-0.5,4.7-1.3
			c1.4-0.5,2.5-1.1,2.5-1.6c-0.5-4.1-1.6-8.5-2.5-12.8C106.6,58.6,105.9,54.4,105.7,50.4z M97.6,40.7c1.5,3.1,2.8,6.1,3.2,9.6
			c-1.1-0.1-2.1-0.4-3.2-0.8c-1.6-0.5-3.2-1.2-4.8-2c-1.8-0.9-3.5-2-5.1-3c-0.7-0.4-3.3-2.5-4.4-3.3c1.1-0.3,2.2-0.6,3.4-1
			c0.3-0.1,0.6-0.2,1-0.3c1.4-0.3,3.4-0.8,5.1-1.4c1.3-0.5,2.4-1,3-1.7C96.4,38.2,97,39.5,97.6,40.7z M52.9,41.2c0-1.1,0-2.1,0-3.2
			c0.1,0,0.3,0,0.4,0c1.6,0.1,3.2,0.1,4.8,0.1c1.7,0,3.4,0,5.1,0c1.1,0,2.1-0.1,3.2-0.1c0.5,0,1.1-0.1,1.6-0.2
			c1.7-0.2,3.4-0.4,5.1-0.8c1.6-0.3,3.2-0.7,4.8-1.1c1.7-0.4,3.4-0.9,5.1-1.4c1.3-0.4,2.5-0.7,3.8-1.1c0.3-0.1,0.6-0.2,1-0.3
			c1.4-0.3,3.3-0.8,5.1-1.4c1.2-0.4,2.2-0.9,2.9-1.5c0.2,0.9,0.4,1.9,0.4,2.8c0.1,1-0.3,2-0.4,3c-0.1,0-0.2,0.1-0.3,0.2
			c-0.3,0.8-1.3,1.4-2.6,2c-1.5,0.6-3.3,1.1-5.1,1.5c-2,0.4-3.8,0.8-4.8,1c0,0,0,0,0,0c-1.7,0.5-3.4,0.9-5,1.3
			c-1.6,0.4-3.2,0.7-4.8,1.1c-1.7,0.3-3.4,0.6-5.1,0.8c-0.5,0.1-1,0.2-1.5,0.2c-1.1,0.1-2.2,0.2-3.3,0.2c-1.7,0.1-3.4,0-5.1,0
			c-1.6,0-3.2-0.1-4.8-0.2c0,0,0,0,0,0C52.7,43.3,52.9,42.1,52.9,41.2z M22.5,32.4c0.3,0.3,0.7,0.6,1.1,0.9c1.4,0.9,3,1.6,4.8,2.1
			c1.6,0.4,3.4,0.7,5.1,1c1.7,0.2,3.3,0.3,4.8,0.5c0.9,0.1,1.8,0.1,2.5,0.2c0.8,0.1,1.7,0.2,2.5,0.2c1.6,0.2,3.2,0.3,4.8,0.4
			c1.3,0.1,2.6,0.2,3.8,0.3c0,1.3,0,2.6,0,4c0,0.8-0.1,1.6,0.2,2.3c-1.4-0.1-2.7-0.2-4.1-0.3c-0.5,0-1-0.1-1.5-0.1
			c-1-0.1-2.1-0.1-3.3-0.2c-1.6-0.1-3.3-0.1-5.1-0.3c-0.7,0-1.3-0.1-2-0.2c-0.1-0.1-0.3-0.1-0.4,0c-0.8-0.1-1.6-0.2-2.4-0.3
			c-1.8-0.3-3.5-0.6-5.1-1.2c-1.8-0.6-3.5-1.4-4.8-2.5c-0.1-0.1-0.2-0.1-0.3-0.2c-0.4-1-0.9-1.9-1-3C22.3,34.8,22.3,33.6,22.5,32.4z
			 M18.5,48.5c0.7-3.3,2.2-6.4,3.8-9.4c0.4,0.4,0.8,0.7,1.3,1c1.4,0.9,3,1.6,4.8,2.1c1.6,0.4,3.4,0.7,5.1,1c0.6,0.1,1.3,0.2,1.9,0.2
			c-0.6,0.4-1.3,0.8-1.9,1.2c-1.6,1-3.3,2.1-5.1,3c-1.6,0.8-3.2,1.5-4.8,2c-1.7,0.5-3.4,0.8-5.1,0.8V48.5z M107.5,76.3
			c-0.6,0.4-1.5,0.7-2.7,1c-0.7,0.2-1.4,0.4-2.1,0.6c-1.7,0.5-3.4,1.2-5.1,1.7c-0.6,0.2-1.3,0.4-1.9,0.6c-1,0.3-1.9,0.5-2.9,0.8
			c-1.7,0.4-3.4,0.8-5.1,1.2c-1.6,0.3-3.2,0.6-4.8,0.8c-1.7,0.2-3.4,0.4-5.1,0.4c-1.6,0.1-3.2,0.1-4.8,0c-1.4-0.1-2.8-0.2-4.2-0.3
			c-0.3,0-0.6-0.1-0.9-0.2c-2.5-0.5-3.9-1.7-4.8-3.2c-1.7-3-1.1-7.5-1.3-11.4c0,0,0,0,0,0c0.4-0.1,0.8-0.2,1.2-0.3
			c1.7-0.6,3.3-1.9,4.8-3.1c0.7-0.5,1.3-1,1.9-1.5c0.2-0.1-0.6,0-0.8,0.1c-0.4,0.3-0.8,0.6-1.2,0.9c-1.5,1.2-3,2.4-4.8,3.1
			c-0.6,0.2-1.2,0.4-1.8,0.5c-0.2,0-0.3,0-0.4,0.1c-0.4,0-0.8,0-1.3,0c-0.6-0.1-1.1-0.2-1.6-0.3c-1.7-0.5-3.3-1.3-4.8-2.3
			c-0.1-0.1-0.2-0.1-0.3-0.2c-0.2-0.1-0.9,0.2-0.8,0.3c0.4,0.2,0.7,0.5,1.1,0.7c1.5,0.9,3.1,1.6,4.8,2c0.4,0.1,0.9,0.2,1.4,0.2
			c-0.2,4.8-0.1,8.3-1.4,10.7c-0.8,1.7-2.3,2.8-4.8,3.6c-1.4,0.4-3,0.7-5.1,0.9c-0.5,0-1,0.1-1.5,0.1c-1.1,0.1-2.2,0-3.3,0
			c-1.7-0.1-3.4-0.3-5.1-0.5c-1.6-0.3-3.2-0.6-4.8-1c-1.7-0.4-3.4-0.8-5.1-1.3c-0.9-0.2-1.9-0.5-2.8-0.7c-0.7-0.2-1.3-0.4-2-0.5
			c-1.7-0.5-3.4-1.1-5.1-1.7c-0.6-0.2-1.3-0.5-1.9-0.7c-1.3-0.5-2.2-0.9-2.9-1.3c-2.5-1.5-1.4-2.9-0.9-6.8c0.2-1.7,0.5-3.3,0.9-5
			c0.9-4.5,2.2-9,2.3-13.4c0,0,0-0.1-0.1-0.1c0.9,0.1,1.7,0.2,2.6,0.2c1.7,0,3.4-0.3,5.1-0.8c1.6-0.5,3.2-1.2,4.8-2
			c1.8-0.9,3.5-1.9,5.1-2.9c0.9-0.6,1.8-1.2,2.7-1.7c0.7,0.1,1.4,0.1,2.1,0.2c0.9,0.1,1.8,0.1,2.5,0.2c0.8,0.1,1.7,0.2,2.5,0.3
			c1.6,0.2,3.2,0.3,4.8,0.4c1.7,0.1,3.4,0.2,5.1,0.3c1.6,0.1,3.2,0.1,4.8,0.1c1.7,0,3.4,0,5.1,0c1.1,0,2.1-0.1,3.2-0.2
			c0.5,0,1.1-0.1,1.6-0.2c1.7-0.2,3.4-0.4,5.1-0.8c1.6-0.3,3.2-0.7,4.8-1.1c1.5-0.4,3.1-0.8,4.6-1.2c1.1,0.7,4.3,3.3,5.3,3.9
			c1.6,1,3.3,2,5.1,2.9c1.6,0.8,3.2,1.4,4.8,1.9c1.7,0.5,3.4,0.8,5.1,0.7c0.7,0,1.5-0.1,2.2-0.2c0.2,4.7,1.6,9.6,2.6,14.4
			c0.3,1.4,0.6,2.9,0.8,4.3C108.7,72.7,109.9,74.9,107.5,76.3z"/>
		<path fill="#603813" d="M55,42.7c0.8,0.5,2.3,0.4,2.8-0.4c0.6-1.1,0.2-2.3-0.9-2.7c-0.8-0.3-2-0.2-2.4,0.7c0,0.1,0,0.1,0,0.2
			C54,41.2,54.2,42.2,55,42.7z"/>
	</g>
</g>
<g display="none">
	<g display="inline">
		<path fill="#F4D78F" d="M92.8,38.6c-1.7,0.6-3.7,1.1-5.1,1.4c-0.4,0.1-0.8,0.2-1,0.3c-1.1,0.3-2.2,0.6-3.4,1
			c1.1,0.8,3.7,2.9,4.4,3.3c1.6,1,3.3,2.1,5.1,3c1.6,0.8,3.2,1.5,4.8,2c1.1,0.3,2.1,0.6,3.2,0.8c-0.4-3.4-1.7-6.5-3.2-9.6
			c-0.6-1.3-1.2-2.5-1.8-3.8C95.2,37.6,94.1,38.2,92.8,38.6z"/>
		<path fill="#716558" d="M23.3,38.9c0.1,0.1,0.2,0.1,0.3,0.2c1.3,1.1,2.9,1.9,4.8,2.5c1.6,0.5,3.3,0.9,5.1,1.2
			c0.8,0.1,1.6,0.2,2.4,0.3c0.2,0,0.3,0,0.4,0c0.7,0.1,1.3,0.1,2,0.2c1.8,0.1,3.5,0.2,5.1,0.3c1.2,0.1,2.3,0.1,3.3,0.2
			c0.5,0,1,0.1,1.5,0.1c1.4,0.1,2.7,0.2,4.1,0.3C52,43.4,52,42.7,52,41.9c0-1.3,0-2.6,0-4c-1.3-0.1-2.6-0.2-3.8-0.3
			c-1.6-0.1-3.2-0.3-4.8-0.4c-0.8-0.1-1.7-0.2-2.5-0.2c-0.8-0.1-1.6-0.2-2.5-0.2c-1.5-0.1-3.1-0.3-4.8-0.5c-1.7-0.2-3.5-0.5-5.1-1
			c-1.8-0.5-3.4-1.1-4.8-2.1c-0.4-0.3-0.8-0.5-1.1-0.9c-0.1,1.1-0.2,2.3-0.1,3.5C22.5,37,22.9,37.9,23.3,38.9z"/>
		<path fill="#716558" d="M53.3,44.2c1.6,0.1,3.2,0.2,4.8,0.2c1.7,0,3.4,0.1,5.1,0c1.1,0,2.2-0.1,3.3-0.2c0.5-0.1,1-0.1,1.5-0.2
			c1.7-0.2,3.4-0.5,5.1-0.8c1.6-0.3,3.2-0.7,4.8-1.1c1.7-0.4,3.4-0.8,5-1.3c0,0,0,0,0,0c1-0.3,2.8-0.6,4.8-1
			c1.8-0.4,3.6-0.9,5.1-1.5c1.3-0.6,2.3-1.2,2.6-2c0-0.1,0.1-0.2,0.3-0.2c0.1-1,0.5-1.9,0.4-3c-0.1-1-0.2-1.9-0.4-2.8
			c-0.6,0.6-1.7,1.1-2.9,1.5c-1.7,0.6-3.7,1.1-5.1,1.4c-0.4,0.1-0.8,0.2-1,0.3c-1.2,0.3-2.5,0.7-3.8,1.1c-1.7,0.5-3.4,0.9-5.1,1.4
			c-1.6,0.4-3.2,0.8-4.8,1.1c-1.7,0.3-3.4,0.6-5.1,0.8c-0.5,0.1-1.1,0.1-1.6,0.2c-1.1,0.1-2.1,0.1-3.2,0.1c-1.7,0.1-3.4,0.1-5.1,0
			c-1.6,0-3.2-0.1-4.8-0.1c-0.1,0-0.3,0-0.4,0c0,1.1,0,2.1,0,3.2C52.9,42.1,52.7,43.3,53.3,44.2C53.2,44.2,53.3,44.2,53.3,44.2z
			 M54.4,40.2c0.4-0.9,1.6-1,2.4-0.7c1.1,0.4,1.5,1.6,0.9,2.7c-0.5,0.9-2,0.9-2.8,0.4c-0.8-0.5-0.9-1.5-0.5-2.3
			C54.4,40.4,54.4,40.3,54.4,40.2z"/>
		<path fill="#F4D78F" d="M28.4,47.6c1.8-0.9,3.5-2,5.1-3c0.7-0.4,1.3-0.8,1.9-1.2c-0.6-0.1-1.3-0.1-1.9-0.2c-1.7-0.2-3.5-0.5-5.1-1
			c-1.8-0.5-3.4-1.1-4.8-2.1c-0.5-0.3-0.9-0.6-1.3-1c-1.6,3-3.1,6.1-3.8,9.4v1.9c1.7,0,3.4-0.3,5.1-0.8
			C25.2,49.1,26.8,48.4,28.4,47.6z"/>
		<path fill="#716558" d="M104.9,50.7c-0.7,0.1-1.5,0.2-2.2,0.2c-1.7,0-3.4-0.3-5.1-0.7c-1.6-0.5-3.2-1.1-4.8-1.9
			c-1.8-0.9-3.5-1.9-5.1-2.9c-1-0.6-4.2-3.1-5.3-3.9c-1.5,0.4-3.1,0.9-4.6,1.2c-1.6,0.4-3.2,0.8-4.8,1.1c-1.7,0.3-3.4,0.6-5.1,0.8
			c-0.5,0.1-1.1,0.1-1.6,0.2c-1.1,0.1-2.1,0.1-3.2,0.2c-1.7,0.1-3.4,0.1-5.1,0c-1.6,0-3.2-0.1-4.8-0.1c-1.7-0.1-3.4-0.2-5.1-0.3
			c-1.6-0.1-3.2-0.3-4.8-0.4c-0.8-0.1-1.7-0.2-2.5-0.3c-0.8-0.1-1.6-0.2-2.5-0.2c-0.7-0.1-1.4-0.1-2.1-0.2c-0.9,0.6-1.8,1.1-2.7,1.7
			c-1.6,1-3.3,2-5.1,2.9c-1.6,0.8-3.2,1.5-4.8,2c-1.7,0.5-3.4,0.8-5.1,0.8c-0.8,0-1.7,0-2.6-0.2c0,0,0.1,0,0.1,0.1
			c-0.1,4.5-1.4,9-2.3,13.4c-0.4,1.7-0.7,3.3-0.9,5c-0.5,3.8-1.6,5.2,0.9,6.8c0.7,0.4,1.6,0.8,2.9,1.3c0.6,0.2,1.3,0.5,1.9,0.7
			c1.7,0.6,3.4,1.2,5.1,1.7c0.7,0.2,1.3,0.4,2,0.5c0.9,0.2,1.9,0.5,2.8,0.7c1.7,0.4,3.4,0.9,5.1,1.3c1.6,0.4,3.2,0.7,4.8,1
			c1.7,0.3,3.4,0.5,5.1,0.5c1.1,0,2.2,0.1,3.3,0c0.5,0,1-0.1,1.5-0.1c2.1-0.2,3.7-0.5,5.1-0.9c2.5-0.7,4-1.9,4.8-3.6
			c1.2-2.4,1.2-5.9,1.4-10.7c-0.5,0-0.9-0.1-1.4-0.2c-1.7-0.3-3.2-1.1-4.8-2c-0.4-0.2-0.7-0.4-1.1-0.7c-0.1-0.1,0.6-0.4,0.8-0.3
			c0.1,0.1,0.2,0.1,0.3,0.2c1.5,1,3.1,1.8,4.8,2.3c0.5,0.1,1,0.3,1.6,0.3c0.4,0,0.9,0,1.3,0C61,68,61.2,68,61.4,68
			c0.6-0.1,1.2-0.3,1.8-0.5c1.8-0.7,3.3-2,4.8-3.1c0.4-0.3,0.8-0.6,1.2-0.9c0.2-0.1,0.9-0.2,0.8-0.1c-0.6,0.5-1.3,1-1.9,1.5
			c-1.5,1.2-3.1,2.4-4.8,3.1c-0.4,0.1-0.8,0.3-1.2,0.3c0,0,0,0,0,0c0.1,4-0.4,8.4,1.3,11.4c0.9,1.6,2.3,2.7,4.8,3.2
			c0.3,0.1,0.5,0.1,0.9,0.2c1.4,0.2,2.8,0.3,4.2,0.3c1.6,0.1,3.2,0.1,4.8,0c1.7-0.1,3.4-0.2,5.1-0.4c1.6-0.2,3.2-0.5,4.8-0.8
			c1.7-0.3,3.4-0.7,5.1-1.2c1-0.3,1.9-0.5,2.9-0.8c0.6-0.2,1.3-0.4,1.9-0.6c1.7-0.6,3.4-1.2,5.1-1.7c0.7-0.2,1.4-0.4,2.1-0.6
			c1.2-0.3,2.1-0.6,2.7-1c2.5-1.4,1.2-3.6,0.8-6.9c-0.2-1.4-0.5-2.8-0.8-4.3C106.5,60.3,105.1,55.4,104.9,50.7z"/>
		<path fill="#603813" d="M105.7,50.4C105.7,50.4,105.7,50.3,105.7,50.4C105.7,50.3,105.7,50.3,105.7,50.4
			C105.7,50.3,105.7,50.3,105.7,50.4c0-0.1,0-0.1-0.1-0.2c0,0-0.1,0-0.1,0c0,0-0.1,0-0.1,0c-0.9,0.2-1.8,0.2-2.7,0.2
			c-0.3,0-0.7,0-1,0c0,0,0,0,0-0.1c-0.4-4.2-2.3-7.8-4.1-11.5c-0.4-0.8-0.8-1.6-1.1-2.4c0-0.9,0.3-2,0.4-3c0.1-1.4-0.4-2.9-0.6-4.3
			c0-0.2-0.9,0-0.8,0.2c0,0,0,0,0,0c0,0-0.1,0-0.1,0.1c-0.3,0.8-1.3,1.4-2.6,2c-1.5,0.6-3.3,1.1-5.1,1.5c-2,0.5-3.8,0.8-4.8,1
			c0,0,0,0,0,0c-1.7,0.4-3.4,0.9-5,1.3c-1.6,0.4-3.2,0.7-4.8,1.1c-1.7,0.3-3.4,0.6-5.1,0.8c-0.5,0.1-1,0.2-1.5,0.2
			c-1.1,0.1-2.2,0.2-3.3,0.2c-1.7,0.1-3.4,0.1-5.1,0c-1.6,0-3.2-0.1-4.8-0.2c-1.7-0.1-3.4-0.2-5.1-0.3c-0.5,0-1-0.1-1.5-0.1
			c-1-0.1-2.1-0.1-3.3-0.2c-1.6-0.1-3.3-0.1-5.1-0.3c-1.6-0.1-3.2-0.3-4.8-0.5c-1.8-0.3-3.5-0.6-5.1-1.1c-1.8-0.6-3.5-1.4-4.8-2.5
			c-0.3-0.2-0.6-0.5-0.8-0.7c-0.1-0.2-0.5-0.1-0.7,0c-0.2,0-0.4,0.1-0.4,0.2c-0.2,1.3-0.2,2.6-0.2,3.9c0,1,0.3,1.9,0.7,2.7
			c-0.2,0.1-0.3,0.2-0.2,0.4c0,0,0,0,0,0c-0.2,0-0.3,0.1-0.4,0.2c-1.2,2.2-2.3,4.4-3.1,6.7c-0.5,1.5-0.9,3-1.1,4.6
			c-0.5,0-0.9-0.1-1.4-0.2c-0.3-0.1-1,0.4-0.5,0.5c0,0,0,0,0.1,0c-0.2,0-0.4,0.1-0.4,0.3c-0.1,3.6-0.7,7.3-1.5,11
			c-0.9,4.4-1.9,8.7-2.5,13c-0.2,1.2,1,2,2.5,2.6c1.5,0.6,3.4,1,4.8,1.3c0.8,0.2,1.4,0.3,1.8,0.4c1.1,0.4,2.2,0.7,3.3,1
			c1.6,0.5,3.2,0.9,4.8,1.3c1.7,0.4,3.4,0.8,5.1,1.2c1.6,0.3,3.2,0.6,4.8,0.8c1.7,0.2,3.4,0.3,5.1,0.4c1.6,0.1,3.2,0,4.8-0.1
			c1.7-0.1,3.4-0.3,5.1-0.6c1.6-0.3,3.2-0.6,4.8-1.1c0.2-0.1,0.4-0.1,0.5-0.1c0.1,0,0.4-0.1,0.4-0.3c0.4-4.6,1-8.5,1.2-13.2
			c0-0.1,0-0.1-0.1-0.2c0.3,0,0.5,0,0.8,0c0.2,4.6,0.9,9,1.3,13.5c0,0.1,0.1,0.1,0.2,0.1c0.3,0.1,0.6,0.2,0.9,0.2
			c1.6,0.4,3.2,0.8,4.8,1c1.7,0.3,3.4,0.5,5.1,0.6c1.6,0.1,3.2,0.1,4.8,0.1c1.7-0.1,3.4-0.2,5.1-0.4c1.6-0.2,3.2-0.4,4.8-0.8
			c1.7-0.3,3.4-0.7,5.1-1.2c1.6-0.4,3.2-0.9,4.8-1.4c1.7-0.5,3.4-1.1,5.1-1.8c0,0,0.1,0,0.1,0c-0.3,0.1,2.5-0.5,4.7-1.3
			c1.4-0.5,2.5-1.1,2.5-1.6c-0.5-4.1-1.6-8.5-2.5-12.8C106.6,58.6,105.9,54.4,105.7,50.4z M97.6,40.7c1.5,3.1,2.8,6.1,3.2,9.6
			c-1.1-0.1-2.1-0.4-3.2-0.8c-1.6-0.5-3.2-1.2-4.8-2c-1.8-0.9-3.5-2-5.1-3c-0.7-0.4-3.3-2.5-4.4-3.3c1.1-0.3,2.2-0.6,3.4-1
			c0.3-0.1,0.6-0.2,1-0.3c1.4-0.3,3.4-0.8,5.1-1.4c1.3-0.5,2.4-1,3-1.7C96.4,38.2,97,39.5,97.6,40.7z M52.9,41.2c0-1.1,0-2.1,0-3.2
			c0.1,0,0.3,0,0.4,0c1.6,0.1,3.2,0.1,4.8,0.1c1.7,0,3.4,0,5.1,0c1.1,0,2.1-0.1,3.2-0.1c0.5,0,1.1-0.1,1.6-0.2
			c1.7-0.2,3.4-0.4,5.1-0.8c1.6-0.3,3.2-0.7,4.8-1.1c1.7-0.4,3.4-0.9,5.1-1.4c1.3-0.4,2.5-0.7,3.8-1.1c0.3-0.1,0.6-0.2,1-0.3
			c1.4-0.3,3.3-0.8,5.1-1.4c1.2-0.4,2.2-0.9,2.9-1.5c0.2,0.9,0.4,1.9,0.4,2.8c0.1,1-0.3,2-0.4,3c-0.1,0-0.2,0.1-0.3,0.2
			c-0.3,0.8-1.3,1.4-2.6,2c-1.5,0.6-3.3,1.1-5.1,1.5c-2,0.4-3.8,0.8-4.8,1c0,0,0,0,0,0c-1.7,0.5-3.4,0.9-5,1.3
			c-1.6,0.4-3.2,0.7-4.8,1.1c-1.7,0.3-3.4,0.6-5.1,0.8c-0.5,0.1-1,0.2-1.5,0.2c-1.1,0.1-2.2,0.2-3.3,0.2c-1.7,0.1-3.4,0-5.1,0
			c-1.6,0-3.2-0.1-4.8-0.2c0,0,0,0,0,0C52.7,43.3,52.9,42.1,52.9,41.2z M22.5,32.4c0.3,0.3,0.7,0.6,1.1,0.9c1.4,0.9,3,1.6,4.8,2.1
			c1.6,0.4,3.4,0.7,5.1,1c1.7,0.2,3.3,0.3,4.8,0.5c0.9,0.1,1.8,0.1,2.5,0.2c0.8,0.1,1.7,0.2,2.5,0.2c1.6,0.2,3.2,0.3,4.8,0.4
			c1.3,0.1,2.6,0.2,3.8,0.3c0,1.3,0,2.6,0,4c0,0.8-0.1,1.6,0.2,2.3c-1.4-0.1-2.7-0.2-4.1-0.3c-0.5,0-1-0.1-1.5-0.1
			c-1-0.1-2.1-0.1-3.3-0.2c-1.6-0.1-3.3-0.1-5.1-0.3c-0.7,0-1.3-0.1-2-0.2c-0.1-0.1-0.3-0.1-0.4,0c-0.8-0.1-1.6-0.2-2.4-0.3
			c-1.8-0.3-3.5-0.6-5.1-1.2c-1.8-0.6-3.5-1.4-4.8-2.5c-0.1-0.1-0.2-0.1-0.3-0.2c-0.4-1-0.9-1.9-1-3C22.3,34.8,22.3,33.6,22.5,32.4z
			 M18.5,48.5c0.7-3.3,2.2-6.4,3.8-9.4c0.4,0.4,0.8,0.7,1.3,1c1.4,0.9,3,1.6,4.8,2.1c1.6,0.4,3.4,0.7,5.1,1c0.6,0.1,1.3,0.2,1.9,0.2
			c-0.6,0.4-1.3,0.8-1.9,1.2c-1.6,1-3.3,2.1-5.1,3c-1.6,0.8-3.2,1.5-4.8,2c-1.7,0.5-3.4,0.8-5.1,0.8V48.5z M107.5,76.3
			c-0.6,0.4-1.5,0.7-2.7,1c-0.7,0.2-1.4,0.4-2.1,0.6c-1.7,0.5-3.4,1.2-5.1,1.7c-0.6,0.2-1.3,0.4-1.9,0.6c-1,0.3-1.9,0.5-2.9,0.8
			c-1.7,0.4-3.4,0.8-5.1,1.2c-1.6,0.3-3.2,0.6-4.8,0.8c-1.7,0.2-3.4,0.4-5.1,0.4c-1.6,0.1-3.2,0.1-4.8,0c-1.4-0.1-2.8-0.2-4.2-0.3
			c-0.3,0-0.6-0.1-0.9-0.2c-2.5-0.5-3.9-1.7-4.8-3.2c-1.7-3-1.1-7.5-1.3-11.4c0,0,0,0,0,0c0.4-0.1,0.8-0.2,1.2-0.3
			c1.7-0.6,3.3-1.9,4.8-3.1c0.7-0.5,1.3-1,1.9-1.5c0.2-0.1-0.6,0-0.8,0.1c-0.4,0.3-0.8,0.6-1.2,0.9c-1.5,1.2-3,2.4-4.8,3.1
			c-0.6,0.2-1.2,0.4-1.8,0.5c-0.2,0-0.3,0-0.4,0.1c-0.4,0-0.8,0-1.3,0c-0.6-0.1-1.1-0.2-1.6-0.3c-1.7-0.5-3.3-1.3-4.8-2.3
			c-0.1-0.1-0.2-0.1-0.3-0.2c-0.2-0.1-0.9,0.2-0.8,0.3c0.4,0.2,0.7,0.5,1.1,0.7c1.5,0.9,3.1,1.6,4.8,2c0.4,0.1,0.9,0.2,1.4,0.2
			c-0.2,4.8-0.1,8.3-1.4,10.7c-0.8,1.7-2.3,2.8-4.8,3.6c-1.4,0.4-3,0.7-5.1,0.9c-0.5,0-1,0.1-1.5,0.1c-1.1,0.1-2.2,0-3.3,0
			c-1.7-0.1-3.4-0.3-5.1-0.5c-1.6-0.3-3.2-0.6-4.8-1c-1.7-0.4-3.4-0.8-5.1-1.3c-0.9-0.2-1.9-0.5-2.8-0.7c-0.7-0.2-1.3-0.4-2-0.5
			c-1.7-0.5-3.4-1.1-5.1-1.7c-0.6-0.2-1.3-0.5-1.9-0.7c-1.3-0.5-2.2-0.9-2.9-1.3c-2.5-1.5-1.4-2.9-0.9-6.8c0.2-1.7,0.5-3.3,0.9-5
			c0.9-4.5,2.2-9,2.3-13.4c0,0,0-0.1-0.1-0.1c0.9,0.1,1.7,0.2,2.6,0.2c1.7,0,3.4-0.3,5.1-0.8c1.6-0.5,3.2-1.2,4.8-2
			c1.8-0.9,3.5-1.9,5.1-2.9c0.9-0.6,1.8-1.2,2.7-1.7c0.7,0.1,1.4,0.1,2.1,0.2c0.9,0.1,1.8,0.1,2.5,0.2c0.8,0.1,1.7,0.2,2.5,0.3
			c1.6,0.2,3.2,0.3,4.8,0.4c1.7,0.1,3.4,0.2,5.1,0.3c1.6,0.1,3.2,0.1,4.8,0.1c1.7,0,3.4,0,5.1,0c1.1,0,2.1-0.1,3.2-0.2
			c0.5,0,1.1-0.1,1.6-0.2c1.7-0.2,3.4-0.4,5.1-0.8c1.6-0.3,3.2-0.7,4.8-1.1c1.5-0.4,3.1-0.8,4.6-1.2c1.1,0.7,4.3,3.3,5.3,3.9
			c1.6,1,3.3,2,5.1,2.9c1.6,0.8,3.2,1.4,4.8,1.9c1.7,0.5,3.4,0.8,5.1,0.7c0.7,0,1.5-0.1,2.2-0.2c0.2,4.7,1.6,9.6,2.6,14.4
			c0.3,1.4,0.6,2.9,0.8,4.3C108.7,72.7,109.9,74.9,107.5,76.3z"/>
		<path fill="#603813" d="M55,42.7c0.8,0.5,2.3,0.4,2.8-0.4c0.6-1.1,0.2-2.3-0.9-2.7c-0.8-0.3-2-0.2-2.4,0.7c0,0.1,0,0.1,0,0.2
			C54,41.2,54.2,42.2,55,42.7z"/>
	</g>
</g>
<g display="none">
	<g display="inline">
		<path fill="#4E869F" d="M49.4,32C49.4,31.9,49.4,31.9,49.4,32c-8.1,0-16.2-0.7-24.4-2.6c-0.8,1.9-1.6,3.8-2.3,5.7
			c0.1,0,0.2-0.1,0.3,0c8.9,1,17.7,1.7,26.5,2c0-0.1,0-0.3,0.1-0.4c0-0.5,0-0.9,0-1.4C49.4,34.1,49.4,33,49.4,32z"/>
		<path fill="#617F8F" d="M52.3,33.7c0,0-0.1,0.1-0.1,0.1c0,0,0,0.1-0.1,0.1c-0.4,0.9,1,2.2,1.4,1c0.2-0.4,0.1-0.7-0.2-1
			C53.2,33.7,52.5,33.2,52.3,33.7z"/>
		<path fill="#617F8F" d="M22.5,35.5c-0.8,2.3-1.5,4.7-2,7.1c0,0.1,0,0.2-0.1,0.3c-0.1,0.5-0.2,1.1-0.3,1.6c0,0.1,0,0.3-0.1,0.4
			c-0.1,1-0.3,2-0.3,2.9c0,0,0,0,0,0c-0.2,0.9-0.3,1.7-0.4,2.6c3.4-2,7-3.1,10.1-5.7c2.8-2.4,5.6-4.8,7.9-7.7
			c0.1-0.1,0.4-0.2,0.6-0.2c-5-0.4-10.1-0.8-15.2-1.4C22.6,35.5,22.5,35.5,22.5,35.5z"/>
		<path fill="#4E869F" d="M92.3,194.9c-1.1-6.3-2.5-12.6-3.9-18.9c-1.4-6.3-1-12.3-0.3-18.7c2.2-18.9,9-37,12.4-55.7
			c1.9-10.5,2.2-20.9,2.4-31.6c0.1-4.4,0.3-8.7-0.3-13c-0.2-1.1-0.3-2.3-0.5-3.4c0-0.1,0-0.1,0-0.2c-0.2-1.2-0.5-2.4-0.8-3.7
			c-0.2,0.1-0.3,0.2-0.5,0.1c-3.9-1.8-8.3-2.2-11.9-4.5c-3.6-2.3-7-5.2-9.1-8.9c0,0,0,0,0-0.1c-7.9,0.9-15.8,1.2-23.7,1.2
			c0,4,0.5,7.9,0.7,11.9c0.1,3.7,0.1,7.4,1.4,10.9c0.1,0.2-0.9,0.4-0.9,0.2c-1.2-3.5-1.2-7.3-1.4-10.9c-0.2-4-0.7-8-0.7-12
			c0-0.1,0.1-0.1,0.1-0.1c-1.8,0-3.6,0-5.4-0.1c-0.1,0-0.2,0-0.2,0c-3.8-0.1-7.7-0.3-11.5-0.6c0,0,0,0,0,0c-2.5,3.1-5.6,5.8-8.7,8.3
			c-3.1,2.5-6.7,3.5-10,5.5c0,0-0.1,0.1-0.3,0.1c-0.2,1.6-0.3,3.1-0.4,4.8c0,0.2,0,0.5,0,0.7c0,0.1,0,0.3,0,0.4
			c-1.3,19.3,0.5,38,4.9,56.8c4.2,17.8,10.4,35.3,10.7,53.8c0.1,5.6-1.6,10.9-2.8,16.3c-1.7,7.5-3.3,15.1-4.3,22.7
			c-0.6,4.7-0.9,9.4-1,14c0,0.8,0,1.7,0.1,2.5c0.2,3.2,0.2,6.4,0.2,9.5c0.7,11.4,2.4,22.8,4.2,34.3c2.4,13.4,6.2,25.1,7.4,38.7
			c0.1,0,0.2,0,0.2,0.1c0.7,0.9,6.5,1.1,7.5,1.2c2.3,0.2,4.6,0.2,6.5-1.3c0.1,0,0.2-0.1,0.3-0.1c-0.4-1.8-0.1-3.8-0.1-5.6
			c0.1-3.9,0.2-7.8,0.4-11.8c0.3-6.7,0.7-13.5,0.7-20.2c0,0,0,0,0,0c0.1-16.4,1.8-32.8,2.1-49.1c0.1-6.4-2.1-12.6-2.6-19
			c-0.5-5.9-0.8-11.8,0-17.7c-1.4,1.5-3.1,2.8-5.1,3.9c-0.1,0-0.4,0-0.2-0.1c2.3-1.2,4.1-2.6,5.4-4.3c0-0.1,0-0.1,0-0.2
			c0-0.1,0.1-0.1,0.2-0.1c2.8-3.8,3.4-8.6,3.4-14c0-2.3,0.1-4.6,0.2-6.9c0.3-8.4,0.7-16.8,1.1-25.2c0.4-8.1,1.2-16.2,1.4-24.4
			c0.3-7.5,0.1-15.1,0-22.6c0-6.9-1.8-13-2-19.9c-1.5-0.5-2.8-1.2-4.2-2c-0.1-0.1-0.2-0.1-0.3-0.2c-0.2-0.1-0.4-0.3-0.6-0.4
			c-0.1,0,0.2-0.2,0.3-0.1c3.6,2.3,7.8,4.6,12.2,2c2-1.2,3.8-2.7,5.7-4.1c0.1,0,0.4-0.1,0.2,0c-1.1,0.8-2.1,1.7-3.3,2.6
			c-0.1,0.1-0.1,0.1-0.2,0.2c-1,0.8-2.1,1.5-3.3,2c-0.1,7.4-1.9,13.8-2,21.2c0,7.5-0.3,15.1,0.1,22.6c0.4,8,1,15.9,1.4,23.9
			c0.4,8.5,0.8,16.9,1.1,25.4c0.1,2.7,0.1,5.4,0.1,8c0,4.6,1,8.7,3.5,12c0.1,0,0.1,0,0.1,0c0,0.1,0,0.1,0,0.2
			c1.4,1.7,3.1,3.2,5.4,4.3c0.1,0.1-0.1,0.2-0.2,0.2c-2-1-3.7-2.3-5.1-3.8c0.8,6,0.5,12.2-0.1,18.3c-0.6,6.1-2.8,12.1-2.6,18.2
			c0.3,8.2,0.4,16.4,1,24.5c0.5,8.2,1.1,16.4,1.1,24.6c0,0,0,0,0,0c0,6.9,0.5,13.7,0.7,20.6c0.1,3.9,0.3,7.7,0.3,11.6
			c0,1.6,0.2,3.5-0.1,5.1c0.7,1.2,4.5,1.6,5.5,1.7c2,0.3,7,0.3,8.8-0.7c0,0,0,0,0,0c0,0,0-0.1,0-0.1l0,0c0,0,0-0.1,0.1-0.1
			c1.2-13.6,5.1-25.4,7.6-38.8c0,0,0,0,0,0c0.6-3.7,1.2-7.4,2-11c0.5-3.2,0.9-6.5,1.3-9.7c0.5-7.3,0.3-14.6,0.8-22
			C95.6,214,94,204.8,92.3,194.9z"/>
		<path fill="#617F8F" d="M100.4,45.9c-0.1-1.2-0.3-2.3-0.5-3.3c-0.1-0.2-0.1-0.4-0.2-0.7c0-0.1-0.1-0.2-0.1-0.3
			c-0.1-0.5-0.2-1-0.4-1.5c0-0.1,0-0.2-0.1-0.2c0,0,0-0.1,0-0.1v0c-0.4-1.3-0.8-2.5-1.3-3.8c-0.3-0.7-0.5-1.4-0.8-2.1
			c-5.5,1.1-11,1.9-16.4,2.6c2.1,3.5,5.3,6.5,8.8,8.6c3.6,2.1,7.8,2.7,11.6,4.4C100.9,48.1,100.7,47,100.4,45.9L100.4,45.9z"/>
		<path fill="#4E869F" d="M95.4,29.5c-15.3,0.3-30.2,2.4-45.1,2.4c0,1,0,2,0.1,2.9c0,0.4,0.1,0.9,0,1.4c0,0.3-0.1,0.5,0,0.7
			c15.5,0.4,30.9-0.6,46.6-3.7C96.5,32,96.1,30.7,95.4,29.5z M54,35.6c-0.6,0.6-2.1,0.7-2.6-0.2c-0.3-0.5-0.4-1.6,0.1-1.9
			C52.5,31.7,55.8,33.8,54,35.6z"/>
		<path fill="#603813" d="M93,255.1c0.6-3,0.9-6,1.1-9.1c-0.4,3.2-0.8,6.5-1.3,9.7C92.9,255.6,92.9,255.4,93,255.1z"/>
		<path fill="#603813" d="M26.3,220.4c-0.1,4,0,8.1,0.3,12.1c0-3.1,0-6.3-0.2-9.5C26.3,222,26.3,221.2,26.3,220.4z"/>
		<path fill="#603813" d="M90.9,266.9c-2.4,13.4-6.3,25.2-7.6,38.8c0,0-0.1,0-0.1,0.1l0,0c0,0,0,0.1,0,0.1c0,0,0,0,0,0
			c-1.8,1-6.8,1-8.8,0.7c-0.9-0.1-4.8-0.5-5.5-1.7c0.3-1.6,0.1-3.5,0.1-5.1c0-3.9-0.2-7.7-0.3-11.6c-0.2-6.9-0.7-13.7-0.7-20.6
			c0,0,0,0,0,0c0-8.2-0.6-16.4-1.1-24.6c-0.5-8.2-0.7-16.3-1-24.5c-0.2-6.1,2-12.1,2.6-18.2c0.6-6,0.9-12.2,0.1-18.3
			c1.4,1.5,3.1,2.8,5.1,3.8c0.1,0.1,0.4-0.1,0.2-0.2c-2.3-1.2-4.1-2.6-5.4-4.3c0-0.1,0-0.1,0-0.2c0,0-0.1,0-0.1,0
			c-2.5-3.2-3.5-7.3-3.5-12c0-2.7,0-5.4-0.1-8c-0.3-8.5-0.7-16.9-1.1-25.4c-0.4-8-1-15.9-1.4-23.9c-0.4-7.5-0.1-15.1-0.1-22.6
			c0-7.4,1.8-13.8,2-21.2c1.1-0.5,2.2-1.2,3.3-2c0.1-0.1,0.2-0.1,0.2-0.2c1.1-0.9,2.2-1.8,3.3-2.6c0.1-0.1-0.2-0.1-0.2,0
			c-1.9,1.4-3.7,2.9-5.7,4.1c-4.3,2.6-8.6,0.3-12.2-2c-0.1-0.1-0.3,0.1-0.3,0.1c0.2,0.1,0.4,0.3,0.6,0.4c0.1,0.1,0.2,0.1,0.3,0.2
			c1.4,0.8,2.7,1.6,4.2,2c0.1,6.9,1.9,12.9,2,19.9c0,7.5,0.2,15.1,0,22.6c-0.3,8.1-1,16.3-1.4,24.4c-0.4,8.4-0.8,16.8-1.1,25.2
			c-0.1,2.3-0.2,4.6-0.2,6.9c0,5.4-0.6,10.2-3.4,14c-0.1,0-0.2,0-0.2,0.1c0,0.1,0,0.1,0,0.2c-1.3,1.7-3.1,3.1-5.4,4.3
			c-0.2,0.1,0.1,0.1,0.2,0.1c2.1-1.1,3.8-2.4,5.1-3.9c-0.8,5.9-0.5,11.8,0,17.7c0.6,6.4,2.8,12.6,2.6,19
			c-0.4,16.4-2.1,32.8-2.1,49.1c0,0,0,0,0,0c0,6.7-0.5,13.5-0.7,20.2c-0.2,3.9-0.3,7.8-0.4,11.8c0,1.8-0.3,3.8,0.1,5.6
			c-0.1,0-0.2,0.1-0.3,0.1c-1.9,1.4-4.3,1.4-6.5,1.3c-1-0.1-6.9-0.3-7.5-1.2c0,0-0.1-0.1-0.2-0.1c-1.2-13.6-5-25.3-7.4-38.7
			c-1.8-11.5-3.5-22.8-4.2-34.3c0,6.8,0,13.5,1.3,20.2c0.9,4.7,1.8,9.4,2.5,14.1c2.4,13.4,6.2,25.1,7.4,38.6c-0.3,0.1,1.1,1,1.8,1.2
			c1.7,0.3,6.5,0.6,8.2,0.6c1.8,0,3.7-0.6,5.2-1.7c0.2-0.1,0.1-0.2-0.1-0.2c-0.5-1.9-0.1-4.2-0.1-6.2c0.1-4,0.2-8,0.4-11.9
			c0.2-6.5,0.7-13,0.7-19.5c0-8.2,0.6-16.4,1.1-24.6c0.5-8.2,0.7-16.4,1-24.5c0.2-5.9-1.9-11.6-2.5-17.5c-0.7-6.5-1.1-13.1-0.1-19.6
			c1.6-2,2.7-4.4,3.4-7.2c0.8-3.5,0.2-7.3,0.3-10.9c0.3-8.2,0.6-16.4,1-24.5c0.4-8.2,0.9-16.3,1.4-24.5c0.5-7.9,0.3-15.9,0.2-23.8
			c-0.1-7.8-1.9-14.5-2-22.3c1.5,0.4,3,0.6,4.6,0.3c0.4-0.1,0.9-0.2,1.3-0.3c-0.1,7.4-1.9,13.7-2,21.1c0,7.9-0.2,15.9,0.2,23.8
			c0.4,8.3,1.1,16.6,1.5,24.9c0.4,8.3,0.8,16.6,1.1,24.9c0.1,3.4-0.2,6.9,0.2,10.3c0.3,3.2,1.6,6.1,3.5,8.3c0.9,6.2,0.6,12.5,0,18.8
			c-0.6,6.1-2.7,12-2.6,18.2c0.4,16.4,2.1,32.7,2.1,49.1c0,0,0,0,0,0c0,6.4,0.4,12.8,0.7,19.2c0.1,4,0.3,7.9,0.4,11.9
			c0,1.9,0.3,4.2-0.1,6.2c-0.1,0.1-0.2,0.2-0.2,0.3c0,0,0.1,0.1,0.1,0.1c0,0,0,0,0,0c0,0,0,0,0.1,0c1.1,1.3,4.8,1.6,6.2,1.7
			c2.1,0.2,6.8,0,8.6-1.1c0.4-0.3,0.1-0.2,0.1-0.3c1.2-13.6,5.2-25.5,7.6-38.9c0.6-3.7,1.1-7.4,1.7-11.1
			C92.1,259.5,91.5,263.2,90.9,266.9C90.9,266.9,90.9,266.9,90.9,266.9z"/>
		<path fill="#603813" d="M101.5,49.5C101.5,49.5,101.5,49.5,101.5,49.5c-0.3-1.3-0.5-2.5-0.8-3.8c0-0.3-0.1-0.6-0.1-0.9
			c-0.1-1-0.2-1.9-0.4-2.8c-0.2-0.9-0.4-1.7-0.6-2.5c0,0,0-0.1,0-0.1c0,0,0,0,0,0c-0.1-0.3-0.2-0.5-0.3-0.8c-0.2-0.7-0.5-1.4-0.7-2
			c-0.1-0.3-0.2-0.6-0.3-0.8c-0.3-0.7-0.5-1.4-0.8-2.1c0.2-0.1,0.1-0.3-0.1-0.4c-0.5-1.3-0.9-2.6-1.5-3.8c0.1-0.1,0-0.2-0.1-0.2
			l-0.3,0c-15.3,0.3-30.1,2.4-45.1,2.4c0,0-0.1,0-0.1,0c-8.2,0-16.5-0.6-24.9-2.6L24.8,29c0,0,0,0,0,0c-0.2,0-0.4,0.2-0.1,0.3
			c0,0,0,0,0,0c-2.7,5.9-4.8,12.2-5.3,18.6c0,0,0,0,0,0c-0.2,1-0.4,1.9-0.6,2.9c0,0,0,0-0.1,0c-0.2,0.1-0.1,0.1,0,0.1
			c-1,6-1,12.4-1,18.4c0.1,10,0.7,20,2.5,29.9c1.8,10,4.3,19.8,6.8,29.6c2.4,9.1,4.8,18.1,6,27.5c0.8,6.7,1.4,13.1-0.1,19.7
			c-1.4,6.3-2.8,12.5-3.9,18.9c-1.5,8.6-2.9,16.8-2.7,25.4c0.1-4.6,0.4-9.3,1-14c0.9-7.6,2.6-15.2,4.3-22.7
			c1.2-5.4,2.9-10.8,2.8-16.3c-0.3-18.4-6.5-36-10.7-53.8c-4.4-18.9-6.2-37.6-4.9-56.8c0-0.1,0-0.3,0-0.4c0-0.2,0-0.5,0-0.7
			c0.1-1.6,0.2-3.2,0.4-4.8c0.1,0,0.2,0,0.3-0.1c3.3-2,6.9-3,10-5.5c3.1-2.5,6.2-5.2,8.7-8.3c0,0,0,0,0,0c3.9,0.3,7.7,0.5,11.5,0.6
			c0.1,0,0.1,0,0.2,0c1.8,0,3.6,0.1,5.4,0.1c-0.1,0-0.1,0.1-0.1,0.1c0,4.1,0.5,8,0.7,12c0.2,3.7,0.1,7.4,1.4,10.9
			c0.1,0.2,1-0.1,0.9-0.2c-1.2-3.5-1.3-7.3-1.4-10.9c-0.1-4-0.7-7.9-0.7-11.9c7.9,0,15.8-0.4,23.7-1.2c0,0,0,0,0,0.1
			c2.1,3.8,5.5,6.7,9.1,8.9c3.6,2.3,8.1,2.8,11.9,4.5c0.2,0.1,0.4,0,0.5-0.1c0.3,1.2,0.5,2.4,0.8,3.7c0,0.1,0,0.1,0,0.2
			c0.2,1.1,0.4,2.3,0.5,3.4c0.6,4.3,0.4,8.7,0.3,13c-0.2,10.7-0.5,21-2.4,31.6c-3.4,18.7-10.2,36.8-12.4,55.7
			c-0.8,6.4-1.2,12.4,0.3,18.7c1.4,6.3,2.8,12.5,3.9,18.9c1.7,9.8,3.2,19.1,2.6,29.2c-0.5,7.4-0.3,14.7-0.8,22
			c1.4-12.4,2.1-24.8,0.9-37.5c-0.8-7.8-2.5-15.8-4.2-23.5c-1.2-5.6-3.2-11.2-3.2-17c0-18.7,6.5-36.6,10.7-54.6
			c2.3-9.6,4.1-19.3,4.6-29.2c0.3-4.8,0.2-9.6,0.3-14.4c0-4.4,0.4-8.7-0.3-13C102.5,54.5,102.1,52,101.5,49.5z M37.2,37.1
			c-2.3,2.9-5.1,5.3-7.9,7.7c-3.1,2.6-6.7,3.8-10.1,5.7c0.1-0.9,0.2-1.7,0.4-2.6c0,0,0,0,0,0c0.1-1,0.2-2,0.3-2.9
			c0-0.1,0.1-0.3,0.1-0.4c0.1-0.5,0.2-1.1,0.3-1.6c0-0.1,0-0.2,0.1-0.3c0.5-2.4,1.2-4.8,2-7.1c0,0,0.1,0,0.1,0
			c5.1,0.6,10.2,1.1,15.2,1.4C37.6,37,37.3,37,37.2,37.1z M49.5,36.5c0,0.2,0,0.3-0.1,0.4c-8.8-0.3-17.6-1-26.5-2
			c-0.1,0-0.2,0-0.3,0c0.7-1.9,1.5-3.8,2.3-5.7c8.2,1.9,16.3,2.6,24.4,2.6c0,0,0,0,0,0c0,1.1,0.1,2.1,0.1,3.2
			C49.5,35.6,49.6,36.1,49.5,36.5z M50.4,37c0-0.2,0-0.5,0-0.7c0.1-0.4,0-0.9,0-1.4c-0.1-1-0.1-2-0.1-2.9c15,0,29.8-2.1,45.1-2.4
			c0.6,1.2,1.1,2.4,1.5,3.7C81.3,36.4,65.9,37.4,50.4,37z M89.6,44.8c-3.5-2-6.8-5-8.8-8.6c5.4-0.6,10.9-1.5,16.4-2.6
			c0.2,0.7,0.5,1.4,0.8,2.1c0.5,1.3,0.9,2.6,1.3,3.8v0c0,0,0,0.1,0,0.1c0,0.1,0,0.2,0.1,0.2c0.1,0.5,0.2,1,0.4,1.5
			c0,0.1,0.1,0.2,0.1,0.3c0.1,0.2,0.1,0.5,0.2,0.7c0.2,1.1,0.4,2.2,0.5,3.3h0c0.3,1.1,0.5,2.2,0.8,3.4
			C97.4,47.5,93.2,46.9,89.6,44.8z"/>
		<path fill="#603813" d="M51.5,33.4c-0.6,0.4-0.4,1.4-0.1,1.9c0.5,0.9,1.9,0.9,2.6,0.2C55.8,33.8,52.5,31.7,51.5,33.4z M53.5,34.9
			c-0.4,1.2-1.8-0.1-1.4-1c0,0,0,0,0.1-0.1c0,0,0.1-0.1,0.1-0.1c0.2-0.5,0.9,0,1.1,0.1C53.6,34.2,53.7,34.5,53.5,34.9z"/>
	</g>
</g>
<g display="none">
	<g display="inline">
		<path fill="#FFDCCC" d="M49.4,32C49.4,31.9,49.4,31.9,49.4,32c-8.1,0-16.2-0.7-24.4-2.6c-0.8,1.9-1.6,3.8-2.3,5.7
			c0.1,0,0.2-0.1,0.3,0c8.9,1,17.7,1.7,26.5,2c0-0.1,0-0.3,0.1-0.4c0-0.5,0-0.9,0-1.4C49.4,34.1,49.4,33,49.4,32z"/>
		<path fill="#443832" d="M52.3,33.7c0,0-0.1,0.1-0.1,0.1c0,0,0,0.1-0.1,0.1c-0.4,0.9,1,2.2,1.4,1c0.2-0.4,0.1-0.7-0.2-1
			C53.2,33.7,52.5,33.2,52.3,33.7z"/>
		<path fill="#FFDCCC" d="M22.5,35.5c-0.8,2.3-1.5,4.7-2,7.1c0,0.1,0,0.2-0.1,0.3c-0.1,0.5-0.2,1.1-0.3,1.6c0,0.1,0,0.3-0.1,0.4
			c-0.1,1-0.3,2-0.3,2.9c0,0,0,0,0,0c-0.2,0.9-0.3,1.7-0.4,2.6c3.4-2,7-3.1,10.1-5.7c2.8-2.4,5.6-4.8,7.9-7.7
			c0.1-0.1,0.4-0.2,0.6-0.2c-5-0.4-10.1-0.8-15.2-1.4C22.6,35.5,22.5,35.5,22.5,35.5z"/>
		<path fill="#FFF8DD" d="M92.3,194.9c-1.1-6.3-2.5-12.6-3.9-18.9c-1.4-6.3-1-12.3-0.3-18.7c2.2-18.9,9-37,12.4-55.7
			c1.9-10.5,2.2-20.9,2.4-31.6c0.1-4.4,0.3-8.7-0.3-13c-0.2-1.1-0.3-2.3-0.5-3.4c0-0.1,0-0.1,0-0.2c-0.2-1.2-0.5-2.4-0.8-3.7
			c-0.2,0.1-0.3,0.2-0.5,0.1c-3.9-1.8-8.3-2.2-11.9-4.5c-3.6-2.3-7-5.2-9.1-8.9c0,0,0,0,0-0.1c-7.9,0.9-15.8,1.2-23.7,1.2
			c0,4,0.5,7.9,0.7,11.9c0.1,3.7,0.1,7.4,1.4,10.9c0.1,0.2-0.9,0.4-0.9,0.2c-1.2-3.5-1.2-7.3-1.4-10.9c-0.2-4-0.7-8-0.7-12
			c0-0.1,0.1-0.1,0.1-0.1c-1.8,0-3.6,0-5.4-0.1c-0.1,0-0.2,0-0.2,0c-3.8-0.1-7.7-0.3-11.5-0.6c0,0,0,0,0,0c-2.5,3.1-5.6,5.8-8.7,8.3
			c-3.1,2.5-6.7,3.5-10,5.5c0,0-0.1,0.1-0.3,0.1c-0.2,1.6-0.3,3.1-0.4,4.8c0,0.2,0,0.5-0.1,0.7c0,0.1,0,0.3,0,0.4
			c-1.3,19.3,0.5,38,4.9,56.8c4.2,17.8,10.4,35.3,10.7,53.8c0.1,5.6-1.6,10.9-2.8,16.3c-1.7,7.5-3.3,15.1-4.2,22.7
			c-0.6,4.7-0.9,9.4-1,14c0,0.8,0,1.7,0.1,2.5c0.2,3.2,0.2,6.4,0.2,9.5c0.7,11.4,2.4,22.8,4.2,34.3c2.4,13.4,6.2,25.1,7.4,38.7
			c0.1,0,0.2,0,0.2,0.1c0.7,0.9,6.5,1.1,7.5,1.2c2.3,0.2,4.6,0.2,6.5-1.3c0.1,0,0.2-0.1,0.3-0.1c-0.4-1.8-0.1-3.8-0.1-5.6
			c0.1-3.9,0.2-7.8,0.4-11.8c0.3-6.7,0.7-13.5,0.7-20.2c0,0,0,0,0,0c0.1-16.4,1.8-32.7,2.1-49.1c0.1-6.4-2.1-12.6-2.6-19
			c-0.5-5.9-0.8-11.8,0-17.7c-1.4,1.5-3.1,2.8-5.1,3.9c-0.1,0-0.4,0-0.2-0.1c2.3-1.2,4.1-2.6,5.4-4.3c0-0.1,0-0.1,0-0.2
			c0-0.1,0.1-0.1,0.2-0.1c2.8-3.8,3.4-8.6,3.4-14c0-2.3,0.1-4.6,0.2-6.9c0.3-8.4,0.7-16.8,1.1-25.2c0.4-8.1,1.2-16.2,1.4-24.4
			c0.3-7.5,0.1-15.1,0-22.6c0-6.9-1.8-13-2-19.9c-1.5-0.5-2.8-1.2-4.2-2c-0.1-0.1-0.2-0.1-0.3-0.2c-0.2-0.1-0.4-0.3-0.6-0.4
			c-0.1,0,0.2-0.2,0.3-0.1c3.6,2.3,7.8,4.6,12.2,2c2-1.2,3.8-2.7,5.7-4.1c0.1,0,0.4-0.1,0.2,0c-1.1,0.8-2.1,1.7-3.3,2.6
			c-0.1,0.1-0.1,0.1-0.2,0.2c-1,0.8-2.1,1.5-3.3,2c-0.1,7.4-1.9,13.8-2,21.2c0,7.5-0.3,15.1,0.1,22.6c0.4,8,1,15.9,1.4,23.9
			c0.4,8.5,0.8,16.9,1.1,25.4c0.1,2.7,0.1,5.4,0.1,8c0,4.6,1,8.7,3.5,12c0.1,0,0.1,0,0.1,0c0,0.1,0,0.1,0,0.2
			c1.4,1.7,3.1,3.2,5.4,4.3c0.1,0.1-0.1,0.2-0.2,0.2c-2-1-3.7-2.3-5.1-3.8c0.8,6,0.5,12.2-0.1,18.3c-0.6,6.1-2.8,12.1-2.6,18.2
			c0.3,8.2,0.4,16.4,1,24.5c0.5,8.2,1.1,16.4,1.1,24.6c0,0,0,0,0,0c0,6.9,0.5,13.7,0.7,20.6c0.1,3.9,0.3,7.7,0.3,11.6
			c0,1.6,0.2,3.5-0.1,5.1c0.7,1.2,4.5,1.6,5.5,1.7c2,0.3,7,0.3,8.8-0.7c0,0,0,0,0,0c0,0,0-0.1,0-0.1l0,0c0,0,0-0.1,0.1-0.1
			c1.2-13.6,5.1-25.4,7.6-38.8c0,0,0,0,0,0c0.6-3.7,1.2-7.4,2-11c0.5-3.2,0.9-6.5,1.3-9.7c0.5-7.3,0.3-14.6,0.8-22
			C95.6,214,94,204.8,92.3,194.9z"/>
		<path fill="#FFDCCC" d="M100.4,45.9c-0.1-1.2-0.2-2.3-0.5-3.3c-0.1-0.2-0.1-0.4-0.2-0.7c0-0.1-0.1-0.2-0.1-0.3
			c-0.1-0.5-0.2-1-0.4-1.5c0-0.1,0-0.2-0.1-0.2c0,0,0-0.1,0-0.1v0c-0.4-1.3-0.8-2.5-1.3-3.8c-0.3-0.7-0.5-1.4-0.8-2.1
			c-5.5,1.1-11,1.9-16.4,2.6c2.1,3.5,5.3,6.5,8.8,8.6c3.6,2.1,7.8,2.7,11.6,4.4C100.9,48.1,100.7,47,100.4,45.9L100.4,45.9z"/>
		<path fill="#FFDCCC" d="M95.4,29.5c-15.3,0.3-30.2,2.4-45.1,2.4c0,1,0,2,0.1,2.9c0,0.4,0.1,0.9,0,1.4c0,0.3-0.1,0.5,0,0.7
			c15.5,0.4,30.9-0.6,46.6-3.7C96.5,32,96.1,30.7,95.4,29.5z M54,35.6c-0.6,0.6-2.1,0.7-2.6-0.2c-0.3-0.5-0.4-1.6,0.1-1.9
			C52.5,31.7,55.8,33.8,54,35.6z"/>
		<path fill="#603813" d="M93,255.1c0.6-3,0.9-6,1.1-9.1c-0.4,3.2-0.8,6.5-1.3,9.7C92.9,255.6,92.9,255.4,93,255.1z"/>
		<path fill="#603813" d="M26.3,220.4c-0.1,4,0,8.1,0.3,12.1c0-3.1,0-6.3-0.2-9.5C26.3,222,26.3,221.2,26.3,220.4z"/>
		<path fill="#603813" d="M90.9,266.9c-2.4,13.4-6.3,25.2-7.6,38.8c0,0-0.1,0-0.1,0.1l0,0c0,0,0,0.1,0,0.1c0,0,0,0,0,0
			c-1.8,1-6.8,1-8.8,0.7c-0.9-0.1-4.8-0.5-5.5-1.7c0.3-1.6,0.1-3.5,0.1-5.1c0-3.9-0.2-7.7-0.3-11.6c-0.2-6.9-0.7-13.7-0.7-20.6
			c0,0,0,0,0,0c0-8.2-0.6-16.4-1.1-24.6c-0.5-8.2-0.7-16.3-1-24.5c-0.2-6.1,2-12.1,2.6-18.2c0.6-6,0.9-12.2,0.1-18.3
			c1.4,1.5,3.1,2.8,5.1,3.8c0.1,0.1,0.4-0.1,0.2-0.2c-2.3-1.2-4.1-2.6-5.4-4.3c0-0.1,0-0.1,0-0.2c0,0-0.1,0-0.1,0
			c-2.5-3.2-3.5-7.3-3.5-12c0-2.7,0-5.4-0.1-8c-0.3-8.5-0.7-16.9-1.1-25.4c-0.4-8-1-15.9-1.4-23.9c-0.4-7.5-0.1-15.1-0.1-22.6
			c0-7.4,1.8-13.8,2-21.2c1.1-0.5,2.2-1.2,3.3-2c0.1-0.1,0.2-0.1,0.2-0.2c1.1-0.9,2.2-1.8,3.3-2.6c0.1-0.1-0.2-0.1-0.2,0
			c-1.9,1.4-3.7,2.9-5.7,4.1c-4.3,2.6-8.6,0.3-12.2-2c-0.1-0.1-0.3,0.1-0.3,0.1c0.2,0.1,0.4,0.3,0.6,0.4c0.1,0.1,0.2,0.1,0.3,0.2
			c1.3,0.8,2.7,1.6,4.2,2c0.1,6.9,1.9,12.9,2,19.9c0,7.5,0.2,15.1,0,22.6c-0.3,8.1-1,16.3-1.4,24.4c-0.4,8.4-0.8,16.8-1.1,25.2
			c-0.1,2.3-0.2,4.6-0.2,6.9c0,5.4-0.6,10.2-3.4,14c-0.1,0-0.2,0-0.2,0.1c0,0.1,0,0.1,0,0.2c-1.3,1.7-3.1,3.1-5.4,4.3
			c-0.2,0.1,0.1,0.1,0.2,0.1c2.1-1.1,3.8-2.4,5.1-3.9c-0.8,5.9-0.5,11.8,0,17.7c0.6,6.4,2.8,12.6,2.6,19
			c-0.4,16.4-2.1,32.8-2.1,49.1c0,0,0,0,0,0c0,6.7-0.5,13.5-0.7,20.2c-0.2,3.9-0.3,7.8-0.4,11.8c0,1.8-0.3,3.8,0.1,5.6
			c-0.1,0-0.2,0.1-0.3,0.1c-1.9,1.4-4.3,1.4-6.5,1.3c-1-0.1-6.9-0.3-7.5-1.2c0,0-0.1-0.1-0.2-0.1c-1.2-13.6-5-25.3-7.4-38.7
			c-1.8-11.5-3.5-22.8-4.2-34.3c0,6.8,0,13.5,1.3,20.2c0.9,4.7,1.8,9.4,2.5,14.1c2.4,13.4,6.2,25.1,7.4,38.6c-0.3,0.1,1.1,1,1.8,1.2
			c1.7,0.3,6.5,0.6,8.2,0.6c1.8,0,3.7-0.6,5.2-1.7c0.2-0.1,0.1-0.2-0.1-0.2c-0.5-1.9-0.1-4.2-0.1-6.2c0.1-4,0.2-8,0.4-11.9
			c0.2-6.5,0.7-13,0.7-19.5c0-8.2,0.6-16.4,1.1-24.6c0.5-8.2,0.7-16.4,1-24.5c0.2-5.9-1.9-11.6-2.5-17.5c-0.7-6.5-1.1-13.1-0.1-19.6
			c1.6-2,2.7-4.4,3.4-7.2c0.8-3.5,0.2-7.3,0.3-10.9c0.3-8.2,0.6-16.4,1-24.5c0.4-8.2,0.9-16.3,1.4-24.5c0.5-7.9,0.3-15.9,0.2-23.8
			c-0.1-7.8-1.9-14.5-2-22.3c1.5,0.4,3,0.6,4.6,0.3c0.4-0.1,0.9-0.2,1.3-0.3c-0.1,7.4-1.9,13.7-2,21.1c0,7.9-0.2,15.9,0.2,23.8
			c0.4,8.3,1.1,16.6,1.5,24.9c0.4,8.3,0.8,16.6,1.1,24.9c0.1,3.4-0.2,6.9,0.2,10.3c0.3,3.2,1.6,6.1,3.5,8.3c0.9,6.2,0.6,12.5,0,18.8
			c-0.6,6.1-2.7,12-2.6,18.2c0.4,16.4,2.1,32.7,2.1,49.1c0,0,0,0,0,0c0,6.4,0.4,12.8,0.7,19.2c0.1,4,0.3,7.9,0.3,11.9
			c0,1.9,0.3,4.2-0.1,6.2c-0.1,0.1-0.2,0.2-0.2,0.3c0,0,0.1,0.1,0.1,0.1c0,0,0,0,0,0c0,0,0,0,0.1,0c1.1,1.3,4.8,1.6,6.2,1.7
			c2.1,0.2,6.8,0,8.6-1.1c0.4-0.3,0.1-0.2,0.1-0.3c1.2-13.6,5.2-25.5,7.6-38.9c0.6-3.7,1.1-7.4,1.7-11.1
			C92.1,259.5,91.5,263.2,90.9,266.9C90.9,266.9,90.9,266.9,90.9,266.9z"/>
		<path fill="#603813" d="M101.5,49.5C101.5,49.5,101.5,49.5,101.5,49.5c-0.3-1.3-0.5-2.5-0.8-3.8c0-0.3-0.1-0.6-0.1-0.9
			c-0.1-1-0.2-1.9-0.4-2.8c-0.2-0.9-0.4-1.7-0.6-2.5c0,0,0-0.1,0-0.1c0,0,0,0,0,0c-0.1-0.3-0.2-0.5-0.3-0.8c-0.2-0.7-0.5-1.4-0.7-2
			c-0.1-0.3-0.2-0.6-0.3-0.8c-0.3-0.7-0.5-1.4-0.8-2.1c0.2-0.1,0.1-0.3-0.1-0.4c-0.5-1.3-0.9-2.6-1.5-3.8c0.1-0.1,0-0.2-0.1-0.2
			l-0.3,0c-15.3,0.3-30.1,2.4-45.1,2.4c0,0-0.1,0-0.1,0c-8.2,0-16.5-0.6-24.9-2.6L24.8,29c0,0,0,0,0,0c-0.2,0-0.4,0.2-0.1,0.3
			c0,0,0,0,0,0c-2.7,5.9-4.8,12.2-5.3,18.6c0,0,0,0,0,0c-0.2,1-0.4,1.9-0.6,2.9c0,0,0,0-0.1,0c-0.2,0.1-0.1,0.1,0,0.1
			c-1,6-1,12.4-1,18.4c0.1,10,0.7,20,2.5,29.9c1.8,10,4.3,19.8,6.8,29.6c2.4,9.1,4.8,18.1,6,27.5c0.8,6.7,1.4,13.1-0.1,19.7
			c-1.4,6.3-2.8,12.5-3.9,18.9c-1.5,8.6-2.9,16.8-2.7,25.4c0.1-4.6,0.4-9.3,1-14c0.9-7.6,2.6-15.2,4.2-22.7
			c1.2-5.4,2.9-10.8,2.8-16.3c-0.3-18.4-6.5-36-10.7-53.8c-4.4-18.9-6.2-37.6-4.9-56.8c0-0.1,0-0.3,0-0.4c0-0.2,0-0.5,0.1-0.7
			c0.1-1.6,0.2-3.2,0.4-4.8c0.1,0,0.2,0,0.3-0.1c3.3-2,6.9-3,10-5.5c3.1-2.5,6.2-5.2,8.7-8.3c0,0,0,0,0,0c3.9,0.3,7.7,0.5,11.5,0.6
			c0.1,0,0.1,0,0.2,0c1.8,0,3.6,0.1,5.4,0.1c-0.1,0-0.1,0.1-0.1,0.1c0,4.1,0.5,8,0.7,12c0.2,3.7,0.1,7.4,1.4,10.9
			c0.1,0.2,1-0.1,0.9-0.2c-1.2-3.5-1.3-7.3-1.4-10.9c-0.1-4-0.7-7.9-0.7-11.9c7.9,0,15.8-0.4,23.7-1.2c0,0,0,0,0,0.1
			c2.1,3.8,5.5,6.7,9.1,8.9c3.6,2.3,8.1,2.8,11.9,4.5c0.2,0.1,0.4,0,0.5-0.1c0.3,1.2,0.5,2.4,0.8,3.7c0,0.1,0,0.1,0,0.2
			c0.2,1.1,0.4,2.3,0.5,3.4c0.6,4.3,0.4,8.7,0.3,13c-0.2,10.7-0.5,21-2.4,31.6c-3.4,18.7-10.2,36.8-12.4,55.7
			c-0.8,6.4-1.2,12.4,0.3,18.7c1.4,6.3,2.8,12.5,3.9,18.9c1.7,9.8,3.2,19.1,2.6,29.2c-0.5,7.4-0.3,14.7-0.8,22
			c1.4-12.4,2.1-24.8,0.9-37.5c-0.8-7.8-2.5-15.8-4.2-23.5c-1.2-5.6-3.2-11.2-3.2-17c0-18.7,6.5-36.6,10.7-54.6
			c2.3-9.6,4.1-19.3,4.6-29.2c0.3-4.8,0.2-9.6,0.3-14.4c0-4.4,0.4-8.7-0.3-13C102.5,54.5,102.1,52,101.5,49.5z M37.2,37.1
			c-2.3,2.9-5.1,5.3-7.9,7.7c-3.1,2.6-6.7,3.8-10.1,5.7c0.1-0.9,0.2-1.7,0.4-2.6c0,0,0,0,0,0c0.1-1,0.2-2,0.3-2.9
			c0-0.1,0.1-0.3,0.1-0.4c0.1-0.5,0.2-1.1,0.3-1.6c0-0.1,0-0.2,0.1-0.3c0.5-2.4,1.2-4.8,2-7.1c0,0,0.1,0,0.1,0
			c5.1,0.6,10.2,1.1,15.2,1.4C37.6,37,37.3,37,37.2,37.1z M49.5,36.5c0,0.2,0,0.3-0.1,0.4c-8.8-0.3-17.6-1-26.5-2
			c-0.1,0-0.2,0-0.3,0c0.7-1.9,1.5-3.8,2.3-5.7c8.2,1.9,16.3,2.6,24.4,2.6c0,0,0,0,0,0c0,1.1,0.1,2.1,0.1,3.2
			C49.5,35.6,49.6,36.1,49.5,36.5z M50.4,37c0-0.2,0-0.5,0-0.7c0.1-0.4,0-0.9,0-1.4c-0.1-1-0.1-2-0.1-2.9c15,0,29.8-2.1,45.1-2.4
			c0.6,1.2,1.1,2.4,1.5,3.7C81.3,36.4,65.9,37.4,50.4,37z M89.6,44.8c-3.5-2-6.8-5-8.8-8.6c5.4-0.6,10.9-1.5,16.4-2.6
			c0.2,0.7,0.5,1.4,0.8,2.1c0.5,1.3,0.9,2.6,1.3,3.8v0c0,0,0,0.1,0,0.1c0,0.1,0,0.2,0.1,0.2c0.1,0.5,0.2,1,0.4,1.5
			c0,0.1,0.1,0.2,0.1,0.3c0.1,0.2,0.1,0.5,0.2,0.7c0.2,1.1,0.4,2.2,0.5,3.3h0c0.3,1.1,0.5,2.2,0.8,3.4
			C97.4,47.5,93.2,46.9,89.6,44.8z"/>
		<path fill="#603813" d="M51.5,33.4c-0.6,0.4-0.4,1.4-0.1,1.9c0.5,0.9,1.9,0.9,2.6,0.2C55.8,33.8,52.5,31.7,51.5,33.4z M53.5,34.9
			c-0.4,1.2-1.8-0.1-1.4-1c0,0,0,0,0.1-0.1c0,0,0.1-0.1,0.1-0.1c0.2-0.5,0.9,0,1.1,0.1C53.6,34.2,53.7,34.5,53.5,34.9z"/>
	</g>
</g>
<g display="none">
	<path display="inline" fill="#6ABC45" d="M119.8,104.8c-3.2,2.6-10.6,2.4-14.4,2.7c-3.7,0.3-5.1-1.9-8.4-2.6
		c-6.1-1.3-7.4,1.8-9.9,4.4c-0.7,0.7-1.4,1.4-2.4,2c-0.2,0.1-0.5,0.3-0.7,0.4c-4,1.8-10.5,1.7-14.5,1.7c-0.9,0-2.1-0.2-3.1-0.6
		c-0.4-0.2-0.8-0.4-1.1-0.7c-0.5-0.5-1.1-1.4-1.8-2.2c-0.6-0.8-1.2-1.5-1.8-1.7c-4-1.4-6.5,0.9-9.6,2.4c-1.5,0.7-3,1.3-4.6,1.2
		c-0.4,0-0.7-0.1-1.1-0.1c-1.4-0.1-2.7-0.2-4.1-0.4c-1.5-0.2-3-0.4-4.5-0.8c-1.9-0.5-3.8-1.5-5.4-2.5c-4.5-2.9-10.1-1.2-14.8,0.5
		c-1.8,0.7-3.4,0.8-5.3,0.7c-2.7-0.2-5.2-1.3-7.2-3.1c-2-1.8-1.5-5.7-5-5.9c-0.2,0,0.2-0.2,0.3-0.2c0,0,0,0,0,0
		c0.4-2.2,1.9-3.9,3.2-5.7c1.3-1.7,2.1-3.7,3.3-5.5c-1.5-2.2-3.4-4.4-5.7-2.8c0,0,0,0,0,0c0,0,0,0.1,0,0.1c-0.1,0.1-0.6,0.2-0.5,0
		c2.2-4,5.1-7.4,7.9-11c0.8-0.9,1.6-1.9,2.5-2.8c0.7-0.7,1.5-1.3,2.4-1.8c0,0,0,0,0,0c0-1.1,0.1-2.1,0.1-3.2
		c0.1-1.9,0.1-3.8,0.3-5.7c0.1-1.3,0.2-2.5,0.3-3.8c0.5-4.9,1.5-9.8,3.4-14.3c1-2.3,2-4.6,3.2-6.9c0.7-1.3,1.5-2.6,2.4-3.8
		c0,0,0,0,0,0c2-2.6,7.5-6.7,7.9-10c0-0.2,0.2-0.2,0.4-0.2c0.3,0.1,0.5,0.1,0.8,0.2c1.8,0.5,3.5,0.8,5.3,1.2
		c5.8,1,11.5,1.4,17.3,1.3c1.7,0,3.5-0.1,5.2-0.2c5.7-0.3,11.5-1,17.2-1.8c1.8-0.2,3.6-0.5,5.3-0.7c1.3-0.2,2.5-0.3,3.8-0.5
		c0.1,0,0.2,0,0.2,0.1c0.5,4,7,7.9,9.1,11.4c2,3.4,4,6.9,5.4,10.6c0,0,0,0.1,0,0.1c0.6,1.6,1.1,3.2,1.5,4.8c1.5,5.8,2,11.7,2.3,17.7
		c0,0.5,0.1,1,0.1,1.6c0,0.4,0,0.9,0.1,1.3c0,0.1,0,0.1-0.1,0.1c0.2,0.3,0.3,0.6,0.5,0.8c0.2,0.4,0.5,0.7,0.7,1
		c1.8,2.4,4.2,4.4,6.6,6.4c0.7,0.6,1.4,1.2,2.1,1.8c0.7,0.6,1.4,1.2,2,1.9c0.1,0.1,0.2,0.2,0.2,0.2c1.1,1.1,2.1,2.3,2.8,3.6
		c0,0,0,0,0,0c0.1,0,0.2,0,0.1,0.1c-1.2,3-3.8,3.4-6.7,3.7c2.6,2.9,4.3,6.2,6.1,9.6C120.8,101.4,122.4,102.8,119.8,104.8z"/>
	<path display="inline" fill="#45A2BB" d="M106.5,92.3c-1,0-1.8-0.7-2-1.6c-1.4,0.3-2.7,0.5-4.1,0.5c-1.3,0-2.7-0.2-4.4-0.7
		c-1.7-0.5-1.9-2.5-3.3-1.6c-1.5,1-3,2.2-4.6,3.3c0.5,0.8,0.7,1.7,1.4,2.5c1,1.3,2.1,2.5,3.2,3.7c0.5,0.5,1,1,1.5,1.5
		c0.3-0.8,1-1.3,1.9-1.3c1.1,0,2.1,0.9,2.1,2.1c0,0.9-0.6,1.7-1.4,1.9c0.5,0.6,0.9,1.3,1.3,2c0,0,0,0.1-0.1,0.1c0,0,0,0,0.1,0
		c4.2,3.1,7.8,2.7,12.6,2c2-0.3,11.2-0.9,9.8-4.6c-0.4-1.1-1-2.1-1.6-3.1c-1.9-3.4-3.6-6.8-6.2-9.7c-0.7,0.1-1.3,0.1-2,0.2
		c-0.8,0.1-1.5,0.2-2.2,0.3c0,0.1,0,0.3,0,0.4C108.6,91.3,107.7,92.3,106.5,92.3z M116.9,98.4c1.1,0,2.1,0.9,2.1,2.1
		c0,1.1-0.9,2.1-2.1,2.1c-1.1,0-2.1-0.9-2.1-2.1C114.8,99.4,115.8,98.4,116.9,98.4z"/>
	<path display="inline" fill="#45A2BB" d="M104.2,66.3c-0.3-5.8-0.7-11.8-2.2-17.4c-0.3-1-0.6-2-1-3c-0.2-0.5-0.4-0.9-0.6-1.4
		c-0.8-1.9-1.7-3.6-2.6-5.3c-0.3,0.8-1,1.3-1.9,1.3c-1.1,0-2.1-0.9-2.1-2.1c0-1.1,0.9-2.1,2.1-2.1c0.1,0,0.1,0,0.2,0
		c-2.1-3.2-4.6-6.2-7.2-9.1c-0.4-0.4-3.1-4.8-2.8-4.9c-1.2,0.1-2.4,0.3-3.5,0.4c0,0-0.1,0-0.1,0c-1.8,0.2-3.6,0.4-5.4,0.6
		c-4,0.5-8.1,1-12.1,1.4c-1.8,0.2-3.5,0.4-5.3,0.5c-1.6,0.1-3.2,0.2-4.7,0.2c-5.9,0.1-11.7-0.2-17.6-1.3c-1.5-0.3-2.9-0.6-4.4-0.9
		c-0.5-0.1-0.8-0.2-1-0.3c-0.3-0.1-0.4-0.1-0.5,0.2c-0.9,2.1-2.6,4-4.1,5.7c-1.1,1.2-2.2,2.6-3.2,4c-1,1.4-2.1,2.9-3,4.4
		c-2.4,4-4.3,8.3-5.2,12.6c-0.2,0.8-0.7,4.3-1.2,8.2c0.3,0.4,0.5,0.8,0.5,1.4c0,0.7-0.4,1.3-0.9,1.7c-0.3,2.3-0.5,4.4-0.6,6.1
		c-0.1,1.7-0.1,2.9,0.2,2.9c0.4,0.1,0.7,0.1,1.1,0.2c2.5,0.4,4.9,0.9,7.4,1.2c0.1,0,0.1,0,0.2,0c-0.7-0.3-1.2-1-1.2-1.8
		c0-1.1,0.9-2.1,2.1-2.1c1.1,0,2.1,0.9,2.1,2.1c0,1-0.7,1.9-1.7,2c5.2,0.8,10.5,1.5,15.7,2c0.1,0,0.3,0,0.3,0c0,0,0,0,0,0
		c7.5,0.8,15.1,1.2,22.6,1c12.6-0.4,25.4-2.6,37.9-4.8c1.3-0.2,2.6-0.5,3.9-0.7c0,0,0-0.1,0-0.1C104.3,68.3,104.3,67.3,104.2,66.3z
		 M23.4,51.2c-1.1,0-2.1-0.9-2.1-2.1c0-1.1,0.9-2.1,2.1-2.1c1.1,0,2.1,0.9,2.1,2.1C25.5,50.2,24.6,51.2,23.4,51.2z M33.7,36.6
		c1.1,0,2.1,0.9,2.1,2.1c0,1.1-0.9,2.1-2.1,2.1c-1.1,0-2.1-0.9-2.1-2.1C31.7,37.5,32.6,36.6,33.7,36.6z M33.8,61.5
		c-1.1,0-2.1-0.9-2.1-2.1c0-1.1,0.9-2.1,2.1-2.1c1.1,0,2.1,0.9,2.1,2.1C35.9,60.5,35,61.5,33.8,61.5z M44,26.2
		c1.1,0,2.1,0.9,2.1,2.1c0,1.1-0.9,2.1-2.1,2.1c-1.1,0-2.1-0.9-2.1-2.1C42,27.1,42.9,26.2,44,26.2z M44.1,46.9
		c1.1,0,2.1,0.9,2.1,2.1c0,1.1-0.9,2.1-2.1,2.1c-1.1,0-2.1-0.9-2.1-2.1C42.1,47.9,43,46.9,44.1,46.9z M44.2,71.8
		c-1.1,0-2.1-0.9-2.1-2.1c0-1.1,0.9-2.1,2.1-2.1c1.1,0,2.1,0.9,2.1,2.1C46.3,70.9,45.4,71.8,44.2,71.8z M54.5,36.5
		c1.1,0,2.1,0.9,2.1,2.1c0,1.1-0.9,2.1-2.1,2.1c-1.1,0-2.1-0.9-2.1-2.1C52.4,37.5,53.3,36.5,54.5,36.5z M54.6,61.4
		c-1.1,0-2.1-0.9-2.1-2.1c0-1.1,0.9-2.1,2.1-2.1c1.1,0,2.1,0.9,2.1,2.1C56.6,60.5,55.7,61.4,54.6,61.4z M64.8,26.1
		c1.1,0,2.1,0.9,2.1,2.1c0,1.1-0.9,2.1-2.1,2.1c-1.1,0-2.1-0.9-2.1-2.1C62.7,27,63.6,26.1,64.8,26.1z M64.9,46.8
		c1.1,0,2.1,0.9,2.1,2.1c0,1.1-0.9,2.1-2.1,2.1c-1.1,0-2.1-0.9-2.1-2.1C62.8,47.8,63.7,46.8,64.9,46.8z M65,71.7
		c-1.1,0-2.1-0.9-2.1-2.1c0-1.1,0.9-2.1,2.1-2.1s2.1,0.9,2.1,2.1C67,70.8,66.1,71.7,65,71.7z M75.2,36.4c1.1,0,2.1,0.9,2.1,2.1
		c0,1.1-0.9,2.1-2.1,2.1c-1.1,0-2.1-0.9-2.1-2.1C73.1,37.4,74,36.4,75.2,36.4z M75.3,61.3c-1.1,0-2.1-0.9-2.1-2.1
		c0-1.1,0.9-2.1,2.1-2.1c1.1,0,2.1,0.9,2.1,2.1C77.4,60.4,76.4,61.3,75.3,61.3z M85.5,26c1.1,0,2.1,0.9,2.1,2.1
		c0,1.1-0.9,2.1-2.1,2.1s-2.1-0.9-2.1-2.1C83.4,27,84.4,26,85.5,26z M85.6,46.8c1.1,0,2.1,0.9,2.1,2.1c0,1.1-0.9,2.1-2.1,2.1
		c-1.1,0-2.1-0.9-2.1-2.1C83.5,47.7,84.4,46.8,85.6,46.8z M85.7,71.6c-1.1,0-2.1-0.9-2.1-2.1c0-1.1,0.9-2.1,2.1-2.1
		c1.1,0,2.1,0.9,2.1,2.1C87.8,70.7,86.8,71.6,85.7,71.6z M96,61.2c-1.1,0-2.1-0.9-2.1-2.1c0-1.1,0.9-2.1,2.1-2.1
		c1.1,0,2.1,0.9,2.1,2.1C98.1,60.3,97.2,61.2,96,61.2z"/>
	<path display="inline" fill="#45A2BB" d="M44.4,109.1c1.1,0,2,0.8,2.1,1.9c2.4,0.1,5,0,6-1.5c0.1-0.1,0.2-0.2,0.3-0.4
		c0.4-1.1,0.9-2.3,1.4-3.4c0.4-1,1.3-2.1,1.5-3.2c-0.3,0.1-0.6,0.2-0.9,0.2c-1.1,0-2.1-0.9-2.1-2.1c0-1.1,0.9-2.1,2.1-2.1
		c0.4,0,0.8,0.1,1.1,0.3c0-1-0.1-1.9-0.1-2.9c-1.7,0-3.4-0.2-5.2-0.8c-1.4-0.4-2.3-1.6-3.6-2.1c-5.5-2.2-6.8,0.8-9.5,3
		c-1.2,1-2.9,1.3-4.4,1.7c-5.4,1.3-11.4-1.2-16.4-2.9c-0.7-0.2-1.5-0.5-2.3-0.7c-1.7-0.5-3.3-1.2-4.7-2.2c-0.1-0.1-0.3-0.2-0.4-0.3
		c-0.7-0.6-1.4-1.8-2.3-3c-1.1,1.9-2.1,3.8-3.4,5.6c-1.2,1.6-2.4,3.2-2.8,5.2c0,0.1-0.2,0.1-0.3,0.1c1.7,0.2,2.6,1.3,3.4,2.8
		c1.7,3.3,3.5,5.4,7.4,6c6.6,1,12.1-4.4,18.7-2.5c1.5,0.4,2.8,1.7,4.1,2.4c2.7,1.4,5.2,2.2,8.2,2.3
		C42.5,109.9,43.4,109.1,44.4,109.1z M13.3,103c-1.1,0-2.1-0.9-2.1-2.1c0-1.1,0.9-2.1,2.1-2.1c1.1,0,2.1,0.9,2.1,2.1
		C15.3,102.1,14.4,103,13.3,103z M34,102.9c-1.1,0-2.1-0.9-2.1-2.1c0-1.1,0.9-2.1,2.1-2.1c1.1,0,2.1,0.9,2.1,2.1
		C36.1,102,35.1,102.9,34,102.9z"/>
	<path display="inline" fill="#45A2BB" d="M94.1,100.6c0-0.1,0-0.2,0-0.4c-0.8-0.8-1.7-1.6-2.5-2.5c-1.5-1.6-3.5-3.4-3.6-5.6
		c0,0-0.1,0-0.1,0.1c-4.5,3.2-9.1,6-14,4.1c-3.7-1.4-7.4-1.1-11.2-0.7c-0.1,0.7-0.4,1.3-0.5,2c-0.1,1.7,0.1,3.2,0.3,4.8
		c0.3,2.2,0.8,4.6,1.6,6.8c0.3-0.1,0.6-0.2,0.9-0.2c1.1,0,2.1,0.9,2.1,2.1c0,0.5-0.2,1-0.5,1.3c0.5,0.3,1,0.5,1.6,0.6
		c2.9,0.4,11.6,0.5,15.6-1.4c-0.1-0.2-0.1-0.4-0.1-0.6c0-1.1,0.9-2.1,2.1-2.1c0.2,0,0.3,0,0.4,0c1.6-2.4,4.1-4.2,7-4.7
		c1.3-0.2,2.9-0.5,4.3,0.1c-0.3-0.6-0.7-1.1-1.1-1.6c-0.1,0-0.1,0-0.2,0C95,102.7,94.1,101.8,94.1,100.6z M75.5,102.8
		c-1.1,0-2.1-0.9-2.1-2.1c0-1.1,0.9-2.1,2.1-2.1c1.1,0,2.1,0.9,2.1,2.1C77.5,101.8,76.6,102.8,75.5,102.8z"/>
	<path display="inline" fill="#45A2BB" d="M62.8,95c1.9-0.2,3.8-0.3,5.7-0.3c2.7,0.1,4.5,1.7,7.2,1.7c6.1,0,11.8-3.9,15.6-7.6
		c1.1-1.1,2.9-0.4,4.5,0.4c-2.6-2.6-4.9-5.4-7.4-8.1c-2.2-2.4-6.8-4.2-7.9-7.5c0,0,0,0,0-0.1c-4.9,0.7-9.8,1.2-14.7,1.5
		c-8.4,0.6-17,0.3-25.6-0.6c0.6,1.4,1.5,2.6,1.8,4.2c0.6,2.6,0.7,5.2,0.7,7.9c0,3.7-2.3,5.7-4.4,8.4c0.5-0.4,0.9-0.8,1.4-1.2
		c0.6-0.6,1.7-1.2,2.5-1.3c0.5-0.1,1-0.1,1.5,0c-0.8-0.3-1.5-1-1.5-2c0-1.1,0.9-2.1,2.1-2.1c1.1,0,2.1,0.9,2.1,2.1
		c0,1.1-0.8,1.9-1.8,2.1c4.2,0.5,7.6,3.2,12.3,3c1.9-0.1,3.8-0.3,5.6-0.5C62.6,95,62.7,95,62.8,95z M85.8,88.2
		c1.1,0,2.1,0.9,2.1,2.1c0,1.1-0.9,2.1-2.1,2.1c-1.1,0-2.1-0.9-2.1-2.1C83.7,89.1,84.6,88.2,85.8,88.2z M75.4,77.9
		c1.1,0,2.1,0.9,2.1,2.1c0,1.1-0.9,2.1-2.1,2.1c-1.1,0-2.1-0.9-2.1-2.1C73.3,78.8,74.2,77.9,75.4,77.9z M65,88.3
		c1.1,0,2.1,0.9,2.1,2.1c0,1.1-0.9,2.1-2.1,2.1c-1.1,0-2.1-0.9-2.1-2.1C63,89.2,63.9,88.3,65,88.3z M54.6,82.1
		c-1.1,0-2.1-0.9-2.1-2.1c0-1.1,0.9-2.1,2.1-2.1c1.1,0,2.1,0.9,2.1,2.1C56.7,81.2,55.8,82.1,54.6,82.1z"/>
	<path display="inline" fill="#45A2BB" d="M42.1,83.5c-0.3-3.5-1.5-5.9-2.6-9.1c-8.3-0.8-16.6-2.2-24.7-3.7
		c-0.4-0.1-0.8-0.1-1.2-0.2c-0.9,0.5-1.7,1.1-2.4,1.8c-1.6,1.5-3.1,3.5-4.3,5.1c-2.1,2.5-4,5.1-5.6,8c1.9-1,4-0.8,5.3,1.1
		c0.4,0.6,0.6,1.2,0.7,1.9c0.2,0.9,0.4,1.8,1.3,2.6c0.3,0.3,0.7,0.5,1,0.8c1.3,0.9,2.7,1.6,4.2,2.2c0.3,0.1,0.5,0.2,0.8,0.3
		c3.1,1.1,6.3,2.2,9.5,3c4.9,1.1,9.4,1.1,13.2-1.6c0.9-1.3,2-2.4,2.9-3.7C42.3,89.3,42.4,86.8,42.1,83.5z M13.2,82.3
		c-1.1,0-2.1-0.9-2.1-2.1c0-1.1,0.9-2.1,2.1-2.1c1.1,0,2.1,0.9,2.1,2.1C15.3,81.4,14.3,82.3,13.2,82.3z M23.6,92.6
		c-1.1,0-2.1-0.9-2.1-2.1c0-1.1,0.9-2.1,2.1-2.1c1.1,0,2.1,0.9,2.1,2.1C25.7,91.7,24.7,92.6,23.6,92.6z M33.9,82.2
		c-1.1,0-2.1-0.9-2.1-2.1c0-1.1,0.9-2.1,2.1-2.1S36,79,36,80.1C36,81.3,35.1,82.2,33.9,82.2z"/>
	<path display="inline" fill="#45A2BB" d="M114.9,80.4c-0.8-0.8-1.7-1.5-2.6-2.2c-2.7-2.2-5.4-4.4-7.2-7.2c-0.3-0.3-0.5-0.6-0.6-1
		c0-0.1-0.1-0.1-0.1-0.2c-1.2,0.2-2.5,0.4-3.7,0.6c-6.5,1.1-13.1,2.2-19.7,3.1c0.6,1.7,2.3,2.8,3.7,3.9c1.6,1.2,3.1,2.5,4.5,4
		c0.1,0.2,0.3,0.3,0.4,0.5c0.3,0.3,0.6,0.7,0.9,1c2.1,2.4,4.2,4.8,6.5,7.1c0,0,0,0,0,0c0.8,0.4,1.5,0.8,2,0.9c0.5,0.1,1,0.1,1.5,0.1
		c1.5,0,2.7-0.5,4-0.9c0.1-1,1-1.9,2-1.9c0.7,0,1.4,0.4,1.8,1c3.2-0.3,9.6,0.2,11.2-3.4c0,0-0.1,0-0.1,0c-0.8-1.3-1.8-2.5-2.9-3.6
		c-0.1-0.1-0.1-0.1-0.2-0.2C115.6,81.6,115.1,81.1,114.9,80.4z M96.1,81.9C95,81.9,94,81,94,79.9c0-1.1,0.9-2.1,2.1-2.1
		c1.1,0,2.1,0.9,2.1,2.1C98.2,81,97.2,81.9,96.1,81.9z"/>
	<path display="inline" fill="#45A2BB" d="M56.3,102.1c-0.1,0.4-0.2,0.9-0.4,1.2c-0.8,1.8-1.8,3.5-2.5,5.3c1.9-1,5.3-1.2,7.1-1.3
		c1.3-0.1,2.3,0.7,3.1,1.6c-0.8-2.4-1.3-4.9-1.6-7.4c-0.1-1.3-0.4-2.7-0.2-4c0.1-0.5,0.4-1.3,0.5-2c-2.1,0.2-4.1,0.5-6.2,0.5
		c0,1,0.2,2.2,0.2,3.4c0.2,0.3,0.4,0.7,0.4,1.2C56.8,101.3,56.6,101.8,56.3,102.1z"/>
	<circle display="inline" fill="#ECBE3C" cx="44.1" cy="28.3" r="2.1"/>
	<circle display="inline" fill="#ECBE3C" cx="64.8" cy="28.2" r="2.1"/>
	<circle display="inline" fill="#ECBE3C" cx="85.5" cy="28.1" r="2.1"/>
	<circle display="inline" fill="#ECBE3C" cx="33.7" cy="38.7" r="2.1"/>
	<circle display="inline" fill="#ECBE3C" cx="54.5" cy="38.6" r="2.1"/>
	<circle display="inline" fill="#ECBE3C" cx="75.2" cy="38.5" r="2.1"/>
	<path display="inline" fill="#ECBE3C" d="M93.8,38.4c0,1.1,0.9,2.1,2.1,2.1c0.9,0,1.6-0.5,1.9-1.3c-0.6-1-1.2-1.9-1.8-2.8
		c-0.1,0-0.1,0-0.2,0C94.8,36.3,93.8,37.3,93.8,38.4z"/>
	<path display="inline" fill="#ECBE3C" d="M15.2,59.5c0-0.5-0.2-1-0.5-1.4c-0.1,1-0.3,2-0.4,3.1C14.8,60.8,15.2,60.2,15.2,59.5z"/>
	<circle display="inline" fill="#ECBE3C" cx="33.8" cy="59.4" r="2.1"/>
	<circle display="inline" fill="#ECBE3C" cx="54.5" cy="59.3" r="2.1"/>
	<circle display="inline" fill="#ECBE3C" cx="75.3" cy="59.2" r="2.1"/>
	<circle display="inline" fill="#ECBE3C" cx="96" cy="59.1" r="2.1"/>
	<circle display="inline" fill="#ECBE3C" cx="13.2" cy="80.2" r="2.1"/>
	<circle display="inline" fill="#ECBE3C" cx="33.9" cy="80.1" r="2.1"/>
	<circle display="inline" fill="#ECBE3C" cx="54.6" cy="80" r="2.1"/>
	<circle display="inline" fill="#ECBE3C" cx="75.4" cy="80" r="2.1"/>
	<circle display="inline" fill="#ECBE3C" cx="96.1" cy="79.9" r="2.1"/>
	<path display="inline" fill="#ECBE3C" d="M116.3,81.8c-0.5-0.5-1-0.9-1.5-1.4C115.1,81.1,115.6,81.6,116.3,81.8z"/>
	<circle display="inline" fill="#ECBE3C" cx="13.3" cy="100.9" r="2.1"/>
	<circle display="inline" fill="#ECBE3C" cx="34" cy="100.9" r="2.1"/>
	<path display="inline" fill="#ECBE3C" d="M56.3,102.1c0.3-0.4,0.5-0.8,0.5-1.4c0-0.4-0.1-0.8-0.4-1.2
		C56.5,100.5,56.4,101.3,56.3,102.1z"/>
	<path display="inline" fill="#ECBE3C" d="M52.7,100.8c0,1.1,0.9,2.1,2.1,2.1c0.3,0,0.6-0.1,0.9-0.2c0,0,0,0,0,0
		c0.2-1.2,0.2-2.4,0.2-3.6c-0.3-0.2-0.7-0.3-1.1-0.3C53.6,98.7,52.6,99.6,52.7,100.8z"/>
	<circle display="inline" fill="#ECBE3C" cx="75.4" cy="100.7" r="2.1"/>
	<path display="inline" fill="#ECBE3C" d="M94.1,100.6c0,1.1,0.9,2.1,2.1,2.1c0.1,0,0.1,0,0.2,0c-0.7-0.8-1.4-1.6-2.2-2.4
		C94.1,100.4,94.1,100.5,94.1,100.6z"/>
	<path display="inline" fill="#ECBE3C" d="M98.3,100.6c0-1.1-0.9-2.1-2.1-2.1c-0.9,0-1.6,0.5-1.9,1.3c0.9,0.9,1.8,1.7,2.6,2.7
		C97.7,102.3,98.3,101.5,98.3,100.6z"/>
	<circle display="inline" fill="#ECBE3C" cx="116.9" cy="100.5" r="2.1"/>
	<circle display="inline" fill="#ECBE3C" cx="23.4" cy="49.1" r="2.1"/>
	<circle display="inline" fill="#ECBE3C" cx="44.1" cy="49" r="2.1"/>
	<circle display="inline" fill="#ECBE3C" cx="64.9" cy="48.9" r="2.1"/>
	<circle display="inline" fill="#ECBE3C" cx="85.6" cy="48.8" r="2.1"/>
	<path display="inline" fill="#ECBE3C" d="M25.6,69.8c0-1.1-0.9-2.1-2.1-2.1c-1.1,0-2.1,0.9-2.1,2.1c0,0.8,0.5,1.5,1.2,1.8
		c0.4,0.1,0.8,0.1,1.3,0.2C24.8,71.7,25.6,70.8,25.6,69.8z"/>
	<circle display="inline" fill="#ECBE3C" cx="44.2" cy="69.7" r="2.1"/>
	<circle display="inline" fill="#ECBE3C" cx="65" cy="69.6" r="2.1"/>
	<circle display="inline" fill="#ECBE3C" cx="85.7" cy="69.6" r="2.1"/>
	<path display="inline" fill="#ECBE3C" d="M104.9,70.9c-0.2-0.3-0.4-0.6-0.5-0.9c0.1,0.4,0.3,0.8,0.6,1C105,71,105,70.9,104.9,70.9z
		"/>
	<path display="inline" fill="#ECBE3C" d="M104.4,69.3C104.4,69.3,104.3,69.4,104.4,69.3C104.4,69.4,104.4,69.4,104.4,69.3
		C104.4,69.4,104.4,69.3,104.4,69.3z"/>
	<circle display="inline" fill="#ECBE3C" cx="23.6" cy="90.5" r="2.1"/>
	<path display="inline" fill="#ECBE3C" d="M46.4,90.4c0-1.1-0.9-2.1-2.1-2.1c-1.1,0-2.1,0.9-2.1,2.1c0,0.9,0.6,1.7,1.5,2
		c0.3,0,0.6,0,0.9,0.1C45.6,92.4,46.4,91.5,46.4,90.4z"/>
	<circle display="inline" fill="#ECBE3C" cx="65" cy="90.4" r="2.1"/>
	<circle display="inline" fill="#ECBE3C" cx="85.8" cy="90.3" r="2.1"/>
	<path display="inline" fill="#ECBE3C" d="M106.5,88.1c-1.1,0-1.9,0.8-2,1.9c0.3-0.1,0.6-0.2,0.9-0.3c0.8-0.2,1.6-0.5,2.4-0.6
		c0.2,0,0.3,0,0.5,0C107.9,88.5,107.2,88.1,106.5,88.1z"/>
	<path display="inline" fill="#ECBE3C" d="M104.5,90.7c0.2,0.9,1,1.6,2,1.6c1.1,0,2.1-0.9,2.1-2.1c0-0.1,0-0.3,0-0.4
		c-1,0.2-1.9,0.4-2.8,0.6C105.3,90.5,104.9,90.6,104.5,90.7z"/>
	<path display="inline" fill="#ECBE3C" d="M46.5,111c-0.1-1.1-1-1.9-2.1-1.9c-1,0-1.9,0.7-2,1.7c0.1,0,0.2,0,0.4,0
		C43.6,110.8,45,111,46.5,111z"/>
	<path display="inline" fill="#ECBE3C" d="M65.1,109c-0.3,0-0.6,0.1-0.9,0.2c0.1,0.4,0.3,0.7,0.4,1.1c0.6,0.8,1.3,1.6,2.1,2.1
		c0.3-0.4,0.5-0.8,0.5-1.3C67.2,109.9,66.3,109,65.1,109z"/>
	<path display="inline" fill="#ECBE3C" d="M83.8,111c0,0.2,0,0.4,0.1,0.6c0.8-0.4,1.5-0.9,1.8-1.5c0.2-0.4,0.4-0.7,0.6-1.1
		c-0.1,0-0.3,0-0.4,0C84.7,108.9,83.8,109.9,83.8,111z"/>
	<path display="inline" fill="#3B2314" d="M113.3,89.2c2.8-0.3,5.4-0.7,6.7-3.7c0-0.1-0.1-0.1-0.1-0.1c0,0,0,0,0,0
		c-0.8-1.3-1.8-2.5-2.8-3.6c-0.1,0-0.1,0-0.2,0c-0.2,0-0.4,0-0.5-0.1c0.1,0.1,0.1,0.1,0.2,0.2c1.1,1.1,2.1,2.3,2.9,3.6
		c0,0,0,0,0.1,0c-1.6,3.7-8,3.2-11.2,3.4c0.1,0.2,0.2,0.4,0.3,0.7c0.7-0.1,1.4-0.3,2.2-0.3c0.7-0.1,1.3-0.1,2-0.2
		c2.6,2.9,4.3,6.3,6.2,9.7c0.6,1,1.2,2,1.6,3.1c1.4,3.7-7.7,4.4-9.8,4.6c-4.8,0.6-8.5,1-12.6-2c0,0,0,0-0.1,0c0.1,0,0.1-0.1,0.1-0.1
		c-0.4-0.7-0.8-1.4-1.3-2c-0.2,0.1-0.3,0.1-0.5,0.1c0.4,0.5,0.8,1.1,1.1,1.6c-1.3-0.5-2.9-0.3-4.3-0.1c-2.8,0.5-5.4,2.3-7,4.7
		c0.3,0.1,0.6,0.2,0.8,0.4c2.5-2.7,3.8-5.8,9.9-4.4c3.3,0.7,4.7,2.9,8.4,2.6c3.8-0.3,11.2-0.2,14.4-2.7c2.6-2.1,1-3.4-0.4-6
		C117.6,95.4,115.9,92.1,113.3,89.2z"/>
	<path display="inline" fill="#3B2314" d="M68.3,113c-0.6-0.1-1.1-0.3-1.6-0.6c-0.1,0.1-0.2,0.2-0.4,0.3c1,0.5,2.2,0.6,3.1,0.6
		c4,0,10.5,0.1,14.5-1.7c0,0,0-0.1,0-0.1C79.9,113.5,71.3,113.4,68.3,113z"/>
	<path display="inline" fill="#3B2314" d="M112.3,78.2c0.9,0.7,1.7,1.5,2.6,2.2c-0.1-0.2-0.1-0.4-0.1-0.6c0,0,0-0.1,0-0.1
		c-0.7-0.6-1.4-1.2-2.1-1.8c-2.4-2-4.8-4-6.6-6.4c-0.4-0.1-0.7-0.2-0.9-0.5C106.9,73.8,109.6,76,112.3,78.2z"/>
	<path display="inline" fill="#3B2314" d="M15.8,49.9c0.9-4.3,2.8-8.6,5.2-12.6c0.9-1.5,1.9-3,3-4.4c1-1.4,2.1-2.7,3.2-4
		c1.5-1.7,3.2-3.6,4.1-5.7c0.1-0.2,0.2-0.2,0.5-0.2c0.2,0.1,0.5,0.2,1,0.3c1.5,0.4,2.9,0.7,4.4,0.9c5.9,1.1,11.7,1.5,17.6,1.3
		c1.6,0,3.1-0.1,4.7-0.2c1.8-0.1,3.5-0.3,5.3-0.5C69,24.4,73,24,77,23.5c1.8-0.2,3.6-0.4,5.4-0.6c0,0,0,0,0.1,0
		c1.2-0.1,2.4-0.3,3.5-0.4c-0.3,0,2.5,4.5,2.8,4.9c2.6,2.9,5.1,5.9,7.2,9.1c1.1,0.1,1.9,1,1.9,2c0,0.3-0.1,0.5-0.2,0.8
		c1,1.7,1.9,3.5,2.6,5.3c0.2,0.5,0.4,0.9,0.6,1.4c0.4,1,0.7,2,1,3c1.5,5.6,1.9,11.6,2.2,17.4c0.1,1,0.1,2,0.1,3
		c0-0.4,0.2-0.8,0.4-1.1c0-0.5-0.1-1-0.1-1.6c-0.3-5.9-0.8-11.9-2.3-17.7c-0.4-1.6-0.9-3.2-1.5-4.8c0,0,0-0.1,0-0.1
		c-1.4-3.7-3.4-7.2-5.4-10.6c-2-3.5-8.5-7.3-9.1-11.4c0-0.1-0.2-0.1-0.2-0.1c-1.3,0.2-2.5,0.3-3.8,0.5c-1.8,0.2-3.6,0.5-5.3,0.7
		c-5.8,0.7-11.5,1.4-17.2,1.8c-1.7,0.1-3.5,0.2-5.2,0.2c-5.8,0.1-11.6-0.2-17.3-1.3c-1.8-0.3-3.5-0.7-5.3-1.2
		c-0.3-0.1-0.5-0.1-0.8-0.2c-0.1,0-0.4,0-0.4,0.2c-0.4,3.3-5.9,7.5-7.9,10c0,0,0,0,0,0c-0.9,1.2-1.7,2.4-2.4,3.8
		c-1.2,2.2-2.2,4.6-3.2,6.9c-1.9,4.5-2.9,9.3-3.4,14.3c0.2,0.1,0.4,0.3,0.6,0.5C15.1,54.2,15.7,50.7,15.8,49.9z"/>
	<path display="inline" fill="#3B2314" d="M64.2,109.2c-0.8-2.2-1.3-4.5-1.6-6.8c-0.2-1.6-0.4-3.2-0.3-4.8c0-0.7,0.4-1.3,0.5-2
		c3.7-0.4,7.5-0.7,11.2,0.7c4.9,1.8,9.5-0.9,14-4.1c0,0,0.1,0,0.1-0.1c0,2.2,2.1,4,3.6,5.6c0.8,0.8,1.6,1.6,2.5,2.5
		c0-0.1,0.1-0.3,0.1-0.4c-0.5-0.5-1-1-1.5-1.5c-1.1-1.2-2.2-2.4-3.2-3.7c-0.6-0.8-0.9-1.7-1.4-2.5c1.5-1.1,3.1-2.2,4.6-3.3
		c1.4-0.9,1.5,1.1,3.3,1.6c1.7,0.5,3.1,0.7,4.4,0.7c1.4,0,2.7-0.2,4.1-0.5c0-0.1-0.1-0.3-0.1-0.5c0-0.1,0-0.1,0-0.2
		c-1.3,0.4-2.6,0.9-4,0.9c-0.5,0-1,0-1.5-0.1c-0.5-0.1-1.2-0.5-2-0.9c0,0,0,0,0,0c-2.3-2.2-4.3-4.7-6.5-7.1c-0.3-0.3-0.6-0.7-0.9-1
		c-0.1-0.2-0.3-0.3-0.4-0.5c-1.4-1.5-2.9-2.7-4.5-4c-1.4-1.1-3.1-2.1-3.7-3.9c6.6-0.9,13.2-2,19.7-3.1c1.2-0.2,2.5-0.4,3.7-0.6
		c0,0.1,0.1,0.2,0.1,0.2c0-0.2-0.1-0.3-0.1-0.5c0,0,0-0.1,0-0.1c-1.3,0.2-2.6,0.5-3.9,0.7c-12.5,2.2-25.2,4.5-37.9,4.8
		c-7.5,0.2-15.1-0.2-22.6-1c0,0,0,0,0,0c0-0.1-0.2-0.1-0.3,0c-5.3-0.5-10.5-1.2-15.7-2c-0.1,0-0.2,0-0.3,0c-0.3,0-0.6-0.1-0.9-0.2
		c-0.1,0-0.1,0-0.2,0c-2.5-0.4-5-0.8-7.4-1.2c-0.4-0.1-0.7-0.1-1.1-0.2c-0.3,0-0.3-1.2-0.2-2.9c0.1-1.6,0.3-3.8,0.6-6.1
		c-0.2,0.1-0.3,0.2-0.5,0.3c-0.1,1.9-0.2,3.8-0.3,5.7c0,1.1-0.1,2.2-0.1,3.2c0,0,0,0,0,0c-0.9,0.5-1.6,1.1-2.4,1.8
		c-0.9,0.9-1.8,1.9-2.5,2.8c-2.8,3.5-5.7,7-7.9,11c-0.1,0.2,0.4,0.2,0.5,0c0,0,0-0.1,0-0.1c0,0,0,0,0,0c2.3-1.6,4.1,0.5,5.7,2.8
		c-1.1,1.8-2,3.8-3.3,5.5c-1.3,1.8-2.7,3.5-3.2,5.7c0,0,0,0,0,0c-0.1,0-0.5,0.2-0.3,0.2c3.5,0.3,3,4.1,5,5.9
		c1.9,1.8,4.5,2.9,7.2,3.1c1.9,0.1,3.5,0,5.3-0.7c4.7-1.7,10.3-3.4,14.8-0.5c1.6,1,3.5,2.1,5.4,2.5c1.5,0.4,3,0.6,4.5,0.8
		c0,0,0,0,0-0.1c0-0.1,0-0.2,0-0.4c-3,0-5.6-0.9-8.2-2.3c-1.3-0.7-2.7-2-4.1-2.4c-6.6-1.8-12.1,3.5-18.7,2.5c-3.9-0.6-5.7-2.7-7.4-6
		c-0.8-1.5-1.7-2.7-3.4-2.8c0.1,0,0.3-0.1,0.3-0.1c0.4-2,1.6-3.6,2.8-5.2C4.9,92.8,5.8,90.9,7,89c0.8,1.2,1.6,2.4,2.3,3
		c0.1,0.1,0.3,0.2,0.4,0.3c1.4,1,3,1.7,4.7,2.2c0.8,0.2,1.5,0.5,2.3,0.7c5,1.6,11,4.2,16.4,2.9c1.5-0.4,3.2-0.7,4.4-1.7
		c2.8-2.2,4.1-5.2,9.5-3c1.3,0.5,2.2,1.6,3.6,2.1c1.7,0.5,3.4,0.7,5.2,0.8c0,1,0.1,1.9,0.1,2.9c0.2,0.2,0.5,0.3,0.6,0.6
		c-0.1-1.2-0.2-2.4-0.2-3.4c2.1,0,4.1-0.2,6.2-0.5c-0.1,0.7-0.4,1.5-0.5,2c-0.2,1.3,0,2.7,0.2,4c0.3,2.4,0.7,5,1.6,7.4
		c-0.9-1-1.8-1.7-3.1-1.6c-1.7,0.1-5.2,0.3-7.1,1.3c0.7-1.8,1.7-3.5,2.5-5.3c0.2-0.4,0.3-0.8,0.4-1.2c-0.2,0.2-0.4,0.4-0.7,0.5
		c-0.2,1.1-1.1,2.1-1.5,3.2c-0.5,1.1-1,2.2-1.4,3.4c-0.1,0.1-0.2,0.2-0.3,0.4c-0.9,1.4-3.5,1.6-6,1.5c0,0.1,0,0.1,0,0.2
		c0,0.2,0,0.3-0.1,0.5c0.4,0,0.7,0.1,1.1,0.1c1.7,0.1,3.1-0.5,4.6-1.2c3.1-1.4,5.6-3.7,9.6-2.4c0.5,0.2,1.2,0.9,1.8,1.7
		C63.7,109.6,63.9,109.4,64.2,109.2z M24.2,97.1c-3.2-0.7-6.4-1.9-9.5-3c-0.3-0.1-0.5-0.2-0.8-0.3c-1.5-0.5-2.9-1.2-4.2-2.2
		c-0.3-0.2-0.7-0.5-1-0.8c-1-0.8-1.1-1.7-1.3-2.6c-0.1-0.6-0.3-1.3-0.7-1.9c-1.4-1.9-3.5-2.1-5.3-1.1C3,82.6,4.9,80,7,77.4
		c1.3-1.6,2.7-3.5,4.3-5.1c0.8-0.7,1.5-1.3,2.4-1.8c0.4,0.1,0.8,0.1,1.2,0.2c8.1,1.5,16.4,2.9,24.7,3.7c1.1,3.1,2.3,5.5,2.6,9.1
		c0.3,3.2,0.1,5.7-1.8,8.3c-0.9,1.3-2,2.4-2.9,3.7C33.5,98.2,29,98.3,24.2,97.1z M56.9,95.5c-4.7,0.2-8.1-2.5-12.3-3
		c-0.1,0-0.2,0-0.3,0c-0.2,0-0.4,0-0.6-0.1c-0.5,0-1,0-1.5,0c-0.8,0.1-1.9,0.7-2.5,1.3c-0.5,0.5-0.9,0.9-1.4,1.2
		c2-2.6,4.3-4.7,4.4-8.4c0-2.7-0.2-5.2-0.7-7.9c-0.3-1.5-1.2-2.8-1.8-4.2c8.6,0.8,17.2,1.1,25.6,0.6c4.9-0.3,9.8-0.9,14.7-1.5
		c0,0,0,0,0,0.1c1.1,3.3,5.6,5.1,7.9,7.5c2.5,2.7,4.8,5.5,7.4,8.1c-1.6-0.8-3.4-1.5-4.5-0.4c-3.7,3.7-9.5,7.6-15.6,7.6
		c-2.6,0-4.5-1.6-7.2-1.7c-1.9-0.1-3.8,0.1-5.7,0.3c-0.1,0-0.1,0-0.2,0C60.7,95.3,58.8,95.5,56.9,95.5z"/>
	<path display="inline" fill="#3B2314" d="M98,38.4c0-1.1-0.9-2-1.9-2c0.6,0.9,1.2,1.9,1.8,2.8C97.9,39,98,38.7,98,38.4z"/>
	<path display="inline" fill="#3B2314" d="M14.6,58.1c-0.2-0.2-0.4-0.3-0.6-0.5c-0.1,1.3-0.2,2.5-0.3,3.8c0.2-0.1,0.4-0.1,0.5-0.3
		C14.4,60.2,14.5,59.1,14.6,58.1z"/>
	<path display="inline" fill="#3B2314" d="M114.9,80.4c0.5,0.4,1,0.9,1.5,1.4c0.2,0,0.3,0.1,0.5,0.1c0.1,0,0.1,0,0.2,0
		c-0.1-0.1-0.1-0.2-0.2-0.2c-0.7-0.6-1.3-1.3-2-1.9c0,0,0,0.1,0,0.1C114.7,80,114.8,80.2,114.9,80.4z"/>
	<path display="inline" fill="#3B2314" d="M55.6,102.6C55.6,102.6,55.6,102.6,55.6,102.6c0.3-0.1,0.5-0.3,0.7-0.5
		c0.1-0.8,0.2-1.7,0.1-2.5c-0.2-0.2-0.4-0.4-0.6-0.6C55.8,100.2,55.8,101.4,55.6,102.6z"/>
	<path display="inline" fill="#3B2314" d="M94.3,99.8c-0.1,0.1-0.1,0.3-0.1,0.4c0.8,0.8,1.6,1.6,2.2,2.4c0.2,0,0.3-0.1,0.5-0.1
		C96.1,101.6,95.2,100.7,94.3,99.8z"/>
	<path display="inline" fill="#3B2314" d="M23.5,71.9c0.1,0,0.2,0,0.3,0c-0.4-0.1-0.8-0.1-1.3-0.2C22.9,71.8,23.2,71.9,23.5,71.9z"
		/>
	<path display="inline" fill="#3B2314" d="M104.4,69.4C104.4,69.4,104.4,69.4,104.4,69.4C104.3,69.4,104.3,69.4,104.4,69.4
		c0,0.3,0,0.4,0.1,0.6c0.2,0.3,0.3,0.6,0.5,0.9c0,0.1,0.1,0.1,0.1,0.2c0.3,0.2,0.6,0.4,0.9,0.5c-0.2-0.3-0.5-0.7-0.7-1
		c-0.2-0.3-0.4-0.5-0.5-0.8c0.1,0,0.1-0.1,0.1-0.1c0-0.4,0-0.9-0.1-1.3C104.5,68.5,104.4,68.9,104.4,69.4
		C104.4,69.3,104.4,69.4,104.4,69.4z"/>
	<path display="inline" fill="#3B2314" d="M44.3,92.5c0.1,0,0.2,0,0.3,0c-0.3,0-0.6-0.1-0.9-0.1C43.9,92.5,44.1,92.5,44.3,92.5z"/>
	<path display="inline" fill="#3B2314" d="M105.3,89.7c-0.3,0.1-0.6,0.2-0.9,0.3c0,0.1,0,0.1,0,0.2c0,0.2,0,0.3,0.1,0.5
		c0.4-0.1,0.8-0.2,1.3-0.3c0.9-0.2,1.8-0.4,2.8-0.6c-0.1-0.3-0.2-0.5-0.3-0.7c-0.2,0-0.3,0-0.5,0C106.9,89.2,106.1,89.5,105.3,89.7z
		"/>
	<path display="inline" fill="#3B2314" d="M46.5,111c-1.4-0.1-2.8-0.2-3.7-0.2c-0.1,0-0.2,0-0.4,0c0,0.1,0,0.2,0,0.4c0,0,0,0,0,0.1
		c1.3,0.2,2.7,0.3,4.1,0.4c0-0.2,0.1-0.3,0.1-0.5C46.5,111.1,46.5,111.1,46.5,111z"/>
	<path display="inline" fill="#3B2314" d="M64.6,110.3c-0.2-0.4-0.3-0.7-0.4-1.1c-0.3,0.1-0.5,0.3-0.7,0.6c0.6,0.8,1.3,1.7,1.8,2.2
		c0.3,0.3,0.7,0.5,1.1,0.7c0.1-0.1,0.3-0.2,0.4-0.3C65.9,111.9,65.3,111.1,64.6,110.3z"/>
	<path display="inline" fill="#3B2314" d="M85.7,110.1c-0.3,0.6-0.9,1.1-1.8,1.5c0,0,0,0.1,0,0.1c0.3-0.1,0.5-0.2,0.7-0.4
		c1-0.6,1.8-1.3,2.4-2c-0.2-0.2-0.5-0.3-0.8-0.4C86.1,109.3,85.8,109.7,85.7,110.1z"/>
</g>
<g>
	<path fill="#FBF9DF" d="M62.3,8.5c0.4,0,0.7-0.1,1.1-0.1c0-0.9,0-1.8,0-2.7c-2.1,0.3-4.2,0.4-6.2,0.4c-0.4,0-0.9,0-1.4,0
		c0.2,1,0.1,2,0.4,3C58.3,8.8,60.4,8.6,62.3,8.5z"/>
	<path fill="#FBF9DF" d="M55.3,9c-0.2-1-0.1-2-0.4-3C49,5.8,39.3,5.4,35.5,1.4c-0.1,1.2-0.3,2.5-0.4,3.7c0.1,0,0.1,0,0.1,0.1
		C40.6,9.2,48.2,9.4,55.3,9z"/>
	<path fill="#FBF9DF" d="M82.8,4.6c-0.2-1.1-0.3-2.3-0.3-3.6c-2.2,1.6-4.6,2.4-7.4,2.8C71.6,4.2,67.9,5,64.3,5.5c0,0.9,0,1.9,0,2.8
		C70.7,7.8,76.6,7.1,82.8,4.6C82.8,4.6,82.8,4.6,82.8,4.6z"/>
	<path fill="#FF5086" d="M101.5,44.8c-3.5-1.4-7.5-1.4-11.1-2.8c-2.9-1.1-5.2-3.2-7.8-4.8c-0.4-0.3,0.4-0.7,0.7-0.5
		c3.3,2.1,6.2,4.5,10.1,5.6c2.8,0.8,5.7,0.9,8.4,1.9c0-0.2-0.1-0.4-0.1-0.6c-0.9-8-4.4-15.4-9.4-21.6c-4.5-5.6-8.1-10.2-9.3-16.8
		c-8.7,3.4-17.5,4.1-26.8,4.2c-0.2,0.1-0.7,0.2-0.7,0.1c0,0,0-0.1,0-0.1C48.3,9.5,41,10.2,35,6c-0.3,2.4-0.7,4.8-1.5,7.2
		c-1,2.9-3.3,4.4-4.9,6.8c-4.9,7.5-8.9,16.5-9.8,25.5c0,0,0,0,0,0c0,0.1,0,0.3-0.1,0.4c6.7-0.8,12.9-3.8,17.9-8.2
		c0.3-0.3,1,0,0.6,0.4c-5.2,4.6-11.7,7.7-18.7,8.5c-4.5,22,0,46,5.8,67.3c1.6,6,3.2,12.1,5,18.1c1.2,4.2,0.9,8.4,5.3,9.7
		c10.2,2.9,20.3,4.7,30.9,3.9c8.1-0.6,16.5-1.5,24.2-4.4c1.9-0.7,3.3-9.7,3.8-11.9c1.3-5.1,2.8-10.1,4.1-15.1
		c6-22.3,9.8-46.5,4.2-69.3C101.8,44.8,101.6,44.8,101.5,44.8z"/>
	<path fill="#603813" d="M94.2,23.2c-5.7-7.5-10.9-13.1-10.8-23.1c0-0.1-0.9,0-0.9,0.2c0,0.1,0,0.2,0,0.3c-0.1,0-0.2,0-0.2,0.1
		C77.5,4.5,69.6,4,63.6,4.8c-1.6,0.2-4.5,0.5-7.9,0.6c0,0,0-0.1,0-0.1c-0.1-0.1-0.5,0-0.7,0.1c-7.3,0.1-16.5-0.8-19.3-5.2
		c-0.2-0.2-1,0.1-0.9,0.2c0,0,0.1,0.1,0.1,0.1c-0.1,0-0.1,0.1-0.1,0.2c-0.4,3.7-0.8,7.3-1.6,10.9c-0.9,3.9-4.2,6.4-6.3,9.6
		c-4.6,7-8.1,15.8-8.9,24.1c0,0,0,0,0,0c0,0.2-0.1,0.3-0.1,0.5c0,0-0.1,0-0.1,0c-0.5,0-0.7,0.7-0.1,0.7c0,0,0,0,0,0
		c-5.2,25.3,1.5,52.3,8.3,76.5c1.3,4.7,2,14.2,5,18c0.7,0.9,3.8,1.2,4.8,1.5c9.8,2.8,19.6,4,29.8,3.5c8-0.4,16.3-1.7,23.9-4.3
		c4.6-1.6,4.8-11.6,5.8-15.8c7-27.1,14.5-54.7,7.3-82.7C101.7,36,98.6,29.1,94.2,23.2z M64.3,5.5c3.7-0.5,7.4-1.3,10.8-1.7
		C78,3.4,80.3,2.7,82.5,1c0,1.3,0.1,2.4,0.3,3.6c0,0,0,0-0.1,0c-6.2,2.5-12,3.2-18.5,3.7C64.3,7.4,64.3,6.5,64.3,5.5z M57.2,6
		c2,0.1,4.1-0.1,6.2-0.4c0,0.9,0,1.8,0,2.7c-0.4,0-0.7,0.1-1.1,0.1c-1.9,0.1-4,0.3-6.2,0.5c-0.3-1-0.2-2-0.4-3C56.3,6,56.8,6,57.2,6
		z M35.5,1.4C39.3,5.4,49,5.8,54.9,6c0.3,1,0.1,2,0.4,3c-7,0.4-14.6,0.2-20-3.8c0,0-0.1,0-0.1-0.1C35.3,3.9,35.4,2.7,35.5,1.4z
		 M97.7,114c-1.3,5.1-2.8,10.1-4.1,15.1c-0.6,2.2-1.9,11.2-3.8,11.9c-7.6,3-16.1,3.8-24.2,4.4c-10.6,0.8-20.7-1-30.9-3.9
		c-4.5-1.3-4.1-5.4-5.3-9.7c-1.7-6-3.3-12.1-5-18.1C18.5,92.6,14,68.5,18.5,46.5c6.9-0.8,13.4-3.9,18.7-8.5c0.4-0.4-0.2-0.7-0.6-0.4
		c-5,4.4-11.3,7.4-17.9,8.2c0-0.1,0-0.3,0.1-0.4c0,0,0,0,0,0c0.9-9,4.9-18,9.8-25.5c1.6-2.4,3.9-3.9,4.9-6.8
		c0.8-2.3,1.2-4.7,1.5-7.2c6,4.2,13.3,3.5,20.3,3.4c0,0,0,0.1,0,0.1c0.1,0.1,0.5,0,0.7-0.1c9.3-0.1,18.2-0.7,26.8-4.2
		c1.2,6.6,4.8,11.2,9.3,16.8c5,6.2,8.5,13.6,9.4,21.6c0.1,0.2,0.1,0.4,0.1,0.6c-2.7-1-5.6-1.1-8.4-1.9c-3.9-1.1-6.8-3.5-10.1-5.6
		c-0.3-0.2-1.1,0.2-0.7,0.5c2.6,1.6,4.9,3.7,7.8,4.8c3.6,1.4,7.5,1.4,11.1,2.8c0.1,0,0.3,0,0.4-0.1C107.5,67.5,103.6,91.7,97.7,114z
		"/>
</g>
<g display="none">
	<path display="inline" fill="#A7BC7E" d="M61.5,50.4c5.6-0.2,11.1-1.2,16.5-2.4c0.3-0.2,0.7-0.3,1-0.2c6.8-1.6,13.5-3.7,20.2-5.4
		c-1-3.1-2.1-5.7-2.7-5.5c-3.8,1-7.6,1.8-11.4,2.6c-10,1.9-23.6,4.1-33.8,3.7c-9.4-0.4-15.6-1.9-24.6-4.8c-1.4-0.5-2.8-0.9-4.2-1.5
		c0.1,0.1-0.8,3.4-1.9,7.2c0,0,0.1,0,0.1,0C31.7,50.6,49.1,50.9,61.5,50.4z"/>
	<path display="inline" fill="#8D9D65" d="M91.8,53.9c3.1,1,7.4,2.8,10.8,2.3c0.1,0,0.1,0,0.2,0c-0.3-1.5-0.7-3.1-1.1-4.6
		c-0.1-1-1.2-5.2-2.3-8.8c-6.4,1.7-13.1,3.8-19.8,5.5C80.6,51.3,89.3,53.1,91.8,53.9z"/>
	<path display="inline" fill="#A7BC7E" d="M90.3,54.8c-3.3-1.2-6.5-2.6-9.9-3.7c-1.4-0.5-2.4-1-2.8-2.4c-6.7,1.6-13.5,2.7-20.3,2.5
		c-5.6-0.2-11.7-0.3-17.6-0.9c0,0.1-0.1,0.3-0.3,0.5c-6.2,4.4-14.3,6.6-21.8,6.8c0,0-0.1,0-0.1,0c-1.3,7.7-1.5,14.9-1.1,22.8
		c0.1,2.9,1.2,63.1,4,63.6c15.3,3.1,31.1,4.3,46.7,3.2c8.9-0.6,17.8-1.5,26.6-2.9c2.3-0.4,4.5-0.7,6.8-1.1c2.9-0.5,2.4-0.1,2.9-3.8
		c2-15.3,2.5-67.2-0.5-82.4c-0.2,0.1-0.4,0.2-0.6,0.2C98.5,57.7,93.9,56.1,90.3,54.8z M58.8,66.1l-0.8,0l0-2l0.8,0L58.8,66.1z
		 M57.5,87l0.1-2l0.8,0l-0.1,2L57.5,87z M57.6,84l0.1-2l0.8,0l-0.1,2L57.6,84z M57.7,81l0-2l0.8,0l0,2L57.7,81z M57.8,78l0-2l0.8,0
		l0,2L57.8,78z M57.8,75.1l0-2l0.8,0l0,2L57.8,75.1z M57.8,72l0.1-2l0.8,0l-0.1,2L57.8,72z M57.9,69.1l0-2l0.8,0l0,2L57.9,69.1z
		 M58.8,63.1l-0.8,0c0-0.7-0.1-1.3-0.1-2l0.8-0.1C58.7,61.8,58.8,62.4,58.8,63.1z M58.6,60.1l-0.8,0.1l-0.2-2l0.8-0.1L58.6,60.1z
		 M57.2,52.2l0.8,0l0.1,2l-0.8,0L57.2,52.2z M58.2,55.1l0.1,2l-0.8,0.1l-0.1-2L58.2,55.1z"/>
	<path display="inline" fill="#8D9D65" d="M20.4,44.6c-1.2,4.1-2.4,8.6-2.5,9.8c0,0,0,0.2-0.1,1c0,0.2-0.1,0.5-0.1,0.7
		c6.9-0.2,14.4-2.1,20.1-6.1C31.7,49.2,25.6,47.6,20.4,44.6z"/>
	<path display="inline" fill="#603813" d="M17.7,56.1C17.8,56.1,17.8,56.1,17.7,56.1c0.1-0.2,0.1-0.5,0.1-0.7c0.1-0.7,0.1-0.9,0.1-1
		c0.1-1.2,1.3-5.7,2.5-9.8c-0.1-0.1-0.3-0.2-0.5-0.3c-0.3-0.2,0.3-0.5,0.7-0.5c1.1-3.8,2-7.2,1.9-7.2c1.3,0.6,2.8,1.1,4.2,1.5
		c9,2.9,15.2,4.4,24.6,4.8c10.2,0.5,23.8-1.7,33.8-3.7c3.8-0.7,7.6-1.6,11.4-2.6c0.6-0.2,1.7,2.4,2.7,5.5c0.1,0,0.1,0,0.2,0
		c0.2-0.1,0.3,0,0.4,0c-0.7-2-1.5-4-2.2-6.1C97.5,36,97.2,36,97,36c-22.5,6-51.9,10.5-73.9,0.1c-0.2-0.1-0.7-0.1-0.8,0.2
		c-2.3,6.1-4.5,11.9-5,18.5c0,0,0,0,0,0c-0.1,0.5-0.2,1.1-0.3,1.6C17.2,56.3,17.4,56.1,17.7,56.1z"/>
	<path display="inline" fill="#603813" d="M102.9,57c3,15.2,2.6,67.1,0.5,82.4c-0.5,3.7,0,3.2-2.9,3.8c-2.3,0.4-4.5,0.8-6.8,1.1
		c-8.8,1.4-17.7,2.3-26.6,2.9c-15.6,1.1-31.4-0.1-46.7-3.2c-2.8-0.6-3.9-60.7-4-63.6c-0.3-7.8-0.1-15.1,1.1-22.8
		c-0.3,0-0.5-0.1-0.6-0.3c-2.7,16.6-0.9,70.7,2.5,87c0,0,0,0.1,0.1,0.1c27.4,5.8,56,4.2,83.4-1.3c0.1,0,0.5-0.1,0.5-0.3
		c2.7-16.3,3.2-69.9-0.1-86.3C103.3,56.6,103.1,56.8,102.9,57z"/>
	<path display="inline" fill="#603813" d="M99.5,42.7c-0.1,0-0.1,0-0.2,0c1.2,3.7,2.2,7.8,2.3,8.8c0.4,1.5,0.7,3.1,1.1,4.6
		c0.3,0,0.4,0,0.5,0.1c-0.4-1.7-0.7-3.4-1.2-5.1c-0.4-3.1-1.2-5.9-2.2-8.7C99.8,42.6,99.7,42.7,99.5,42.7z"/>
	<path display="inline" fill="#603813" d="M99.8,42.3c0,0.1,0,0.1,0.1,0.2C99.9,42.4,99.9,42.3,99.8,42.3z"/>
	<path display="inline" fill="#603813" d="M79.5,48c0,0.1,0.1,0.1,0.1,0.2c6.7-1.7,13.3-3.8,19.8-5.5c0-0.1-0.1-0.3-0.1-0.4
		c-6.7,1.7-13.4,3.8-20.2,5.4C79.3,47.8,79.4,47.8,79.5,48z"/>
	<path display="inline" fill="#603813" d="M38.2,49.9c0.6-0.4,1.6-0.1,1.6,0.4c6,0.7,12.1,0.8,17.6,0.9c6.8,0.2,13.6-0.9,20.3-2.5
		c0,0,0-0.1,0-0.1c0-0.2,0.1-0.4,0.4-0.6c-5.5,1.3-11,2.2-16.5,2.4c-12.5,0.5-29.8,0.1-40.8-6.5c0,0,0,0-0.1,0
		c-0.1,0.2-0.1,0.5-0.2,0.7c5.2,3,11.2,4.6,17.4,5.4C38,50,38.1,49.9,38.2,49.9z"/>
	<path display="inline" fill="#603813" d="M20,44.4c0.1,0.1,0.3,0.2,0.5,0.3c0.1-0.2,0.1-0.5,0.2-0.7C20.3,43.8,19.6,44.2,20,44.4z"
		/>
	<path display="inline" fill="#603813" d="M99.4,42.3c-0.1,0-0.1,0-0.2,0c0,0.1,0.1,0.3,0.1,0.4c0.1,0,0.1,0,0.2,0
		c0.2-0.1,0.3-0.1,0.3-0.2c0-0.1,0-0.1-0.1-0.2C99.7,42.2,99.6,42.2,99.4,42.3z"/>
	<path display="inline" fill="#603813" d="M39.4,50.8c0.2-0.2,0.3-0.3,0.3-0.5c-0.6-0.1-1.3-0.1-1.9-0.2c-5.7,4-13.3,5.9-20.1,6.1
		c-0.1,0.5-0.2,0.9-0.2,1.4c0,0,0.1,0,0.1,0C25.1,57.4,33.3,55.2,39.4,50.8z"/>
	<path display="inline" fill="#603813" d="M16.9,57.2c0-0.3,0.1-0.5,0.1-0.8C16.8,56.7,16.8,57,16.9,57.2z"/>
	<path display="inline" fill="#603813" d="M17.5,57.5c0.1-0.5,0.2-0.9,0.2-1.4c0,0,0,0,0,0c-0.3,0-0.5,0.1-0.7,0.3
		c0,0.3-0.1,0.5-0.1,0.8C17,57.4,17.2,57.5,17.5,57.5z"/>
	<path display="inline" fill="#603813" d="M38.2,49.9c-0.1,0.1-0.2,0.1-0.3,0.2c0.6,0.1,1.2,0.2,1.9,0.2
		C39.8,49.8,38.8,49.4,38.2,49.9z"/>
	<path display="inline" fill="#603813" d="M78,48c0.3-0.1,0.7-0.2,1-0.2C78.7,47.7,78.3,47.8,78,48z"/>
	<path display="inline" fill="#603813" d="M103.3,56.3c0,0.1,0,0.1,0,0.2C103.3,56.4,103.3,56.4,103.3,56.3z"/>
	<path display="inline" fill="#603813" d="M102.6,56.2c-3.4,0.5-7.7-1.3-10.8-2.3c-2.5-0.8-11.2-2.6-12.2-5.7
		c-0.6,0.2-1.2,0.3-1.9,0.5c0.4,1.4,1.4,1.9,2.8,2.4c3.3,1.1,6.6,2.6,9.9,3.7c3.6,1.3,8.1,2.9,12,2.4c0.2,0,0.4-0.1,0.6-0.2
		c-0.1-0.3-0.1-0.5-0.2-0.8C102.7,56.2,102.7,56.2,102.6,56.2z"/>
	<path display="inline" fill="#603813" d="M102.7,56.2c0.1,0.3,0.1,0.5,0.2,0.8c0.2-0.1,0.4-0.3,0.4-0.5c0-0.1,0-0.1,0-0.2
		C103.2,56.2,103,56.2,102.7,56.2z"/>
	<path display="inline" fill="#603813" d="M79,47.8c-0.3,0.1-0.7,0.2-1,0.2c-0.3,0.1-0.4,0.3-0.4,0.6c0,0,0,0.1,0,0.1
		c0.6-0.1,1.2-0.3,1.9-0.5c0-0.1-0.1-0.1-0.1-0.2C79.4,47.8,79.3,47.8,79,47.8z"/>
	<polygon display="inline" fill="#603813" points="58,52.2 57.2,52.2 57.3,54.2 58.1,54.2 	"/>
	<polygon display="inline" fill="#603813" points="58.3,57.1 58.2,55.1 57.3,55.2 57.4,57.2 	"/>
	<polygon display="inline" fill="#603813" points="57.7,60.2 58.6,60.1 58.4,58.1 57.5,58.2 	"/>
	<path display="inline" fill="#603813" d="M58,63.1l0.8,0c0-0.7,0-1.3-0.1-2l-0.8,0.1C57.9,61.8,57.9,62.5,58,63.1z"/>
	<polygon display="inline" fill="#603813" points="58,66.1 58.8,66.1 58.8,64.1 58,64.1 	"/>
	<polygon display="inline" fill="#603813" points="58.8,67.1 58,67.1 57.9,69.1 58.8,69.1 	"/>
	<polygon display="inline" fill="#603813" points="58.8,70.1 57.9,70.1 57.8,72 58.7,72.1 	"/>
	<polygon display="inline" fill="#603813" points="58.6,73.1 57.8,73 57.8,75.1 58.6,75.1 	"/>
	<polygon display="inline" fill="#603813" points="58.6,76 57.8,76 57.8,78 58.6,78 	"/>
	<polygon display="inline" fill="#603813" points="58.6,79 57.7,79 57.7,81 58.5,81 	"/>
	
		<rect x="57.6" y="82" transform="matrix(0.9996 2.656438e-02 -2.656438e-02 0.9996 2.2256 -1.5131)" display="inline" fill="#603813" width="0.8" height="2"/>
	
		<rect x="57.6" y="85" transform="matrix(0.9996 2.821933e-02 -2.821933e-02 0.9996 2.4499 -1.6019)" display="inline" fill="#603813" width="0.8" height="2"/>
</g>
</svg>
